<svg version="1.1" id="Layer_1" xmlns="http://www.w3.org/2000/svg" xmlns:xlink="http://www.w3.org/1999/xlink" x="0px" y="0px"
	 viewBox="0 0 160 160" style="enable-background:new 0 0 160 160;" xml:space="preserve">
<g>
	<g>
		<path class="st0" d="M20.1,72.7c-2.8,7.2-4.3,15-4.3,23.1c0,35.5,28.7,64.2,64.2,64.2c35.5,0,64.2-28.7,64.2-64.2
			c0-8.2-1.5-16-4.3-23.1H20.1z"/>
	</g>
	<g>
		<path class="st1" d="M80,31.6c-27.3,0-50.6,17-59.9,41.1h119.8C130.6,48.6,107.3,31.6,80,31.6z"/>
	</g>
	<g>
		<path class="st2" d="M65.6,71.9c0-8,6.5-14.4,14.4-14.4s14.4,6.5,14.4,14.4"/>
	</g>
	<g>
		<path class="st3" d="M86.1,67.5c-0.6,0-1.2-0.1-1.7-0.5c-1.6-0.9-2.2-3-1.2-4.7l20.1-34.7c0.9-1.6,3-2.2,4.7-1.2
			c1.6,0.9,2.2,3,1.2,4.7L89,65.8C88.4,66.9,87.3,67.5,86.1,67.5z"/>
	</g>
	<g>
		<ellipse transform="matrix(0.5 -0.866 0.866 0.5 33.2959 106.599)" class="st4" cx="109" cy="24.5" rx="9.6" ry="9.6"/>
	</g>
	<g>
		<path class="st5" d="M103.4,22.1c-0.1,0-0.3,0-0.4-0.1c-0.4-0.2-0.5-0.7-0.3-1.1c1.2-2.1,3.3-3.4,5.7-3.6c1.4-0.1,2.9,0.2,4.1,1
			c0.4,0.2,0.5,0.7,0.3,1.1c-0.2,0.4-0.7,0.5-1.1,0.3c-1-0.6-2.1-0.8-3.2-0.7c-1.9,0.1-3.5,1.2-4.5,2.8
			C104,21.9,103.7,22.1,103.4,22.1z"/>
	</g>
	<g>
		<path class="st6" d="M65.6,75.1c0-8,6.5-14.4,14.4-14.4s14.4,6.5,14.4,14.4"/>
	</g>
	<g>
		<g>
			<polygon class="st7" points="119.6,79.7 39.9,79.7 13.1,140.1 146.3,140.1 			"/>
		</g>
		<g>
			<polygon points="87.9,115.5 117,81.4 79.7,81.4 42.5,81.4 71.6,115.5 67.2,136.7 92.3,136.7 			"/>
		</g>
		<g>
			<polygon class="st8" points="42.5,81.4 18,136.7 67.2,136.7 71.6,115.5 			"/>
		</g>
		<g>
			<polygon class="st9" points="92.3,136.7 141.5,136.7 117,81.4 87.9,115.5 			"/>
		</g>
	</g>
	<g class="st10">
		<path class="st11" d="M65.6,75.4c0,4.7,6.5,8.5,14.4,8.5s14.4-3.8,14.4-8.5"/>
	</g>
</g>
</svg>
