<svg version="1.1" id="Layer_1" xmlns="http://www.w3.org/2000/svg" xmlns:xlink="http://www.w3.org/1999/xlink" x="0px" y="0px"
	 viewBox="0 0 160 160" style="enable-background:new 0 0 160 160;" xml:space="preserve">
<g>
	<path class="st0" d="M144.2,95.8c0,35.5-28.7,64.2-64.2,64.2c-35.5,0-64.2-28.7-64.2-64.2c0-35.5,28.7-64.2,64.2-64.2
		C115.5,31.6,144.2,60.3,144.2,95.8"/>
</g>
<g>
	<g>
		<path class="st1" d="M78,155c0.5,0.8,1.7,1.4,3.2,1.4c1.4,0,2.7-0.6,3.2-1.4H105c4.1-1.7,8-3.9,11.6-6.4v-30.7
			c0-1.5-1.2-2.7-2.7-2.7h-30H49c-1.8,0-3.2,1.4-3.2,3.2v31.8c2.9,1.9,6,3.5,9.2,4.8H78z"/>
	</g>
	<g>
		<path class="st2" d="M81.2,154.1c0-3.8-14.7-6.9-32.8-6.9v-34.6c18.1,0,32.8,3.1,32.8,6.9V154.1"/>
	</g>
	<g>
		<path class="st3" d="M81.2,154.1c0-6.8-13.2-12.3-29.4-12.3v-34.6c16.2,0,29.4,5.5,29.4,12.3V154.1"/>
	</g>
	<g>
		<path class="st4" d="M81.2,154.1c0-9.1-11.7-16.6-26.2-16.6V103c14.5,0,26.2,7.4,26.2,16.6V154.1"/>
	</g>
	<g>
		<path class="st2" d="M81.2,154.1c0-3.8,14.7-6.9,32.8-6.9v-34.6c-18.1,0-32.8,3.1-32.8,6.9V154.1"/>
	</g>
	<g>
		<path class="st3" d="M81.2,154.1c0-6.8,13.1-12.3,29.4-12.3v-34.6c-16.2,0-29.4,5.5-29.4,12.3V154.1"/>
	</g>
	<g>
		<path class="st4" d="M81.2,154.1c0-9.1,11.7-16.6,26.2-16.6V103c-14.5,0-26.2,7.4-26.2,16.6V154.1"/>
	</g>
</g>
<g>
	<ellipse class="st5" cx="81.2" cy="134.6" rx="4.5" ry="3"/>
	<path class="st5" d="M84.8,135.8H38.6c-2.3,0-4.2-1.9-4.2-4.2V87.4c0-2.3,1.9-4.2,4.2-4.2h46.1"/>
	<path class="st2" d="M81.2,134.6c0-5-19.4-9.1-43.3-9.1V79.9c23.9,0,43.3,4.1,43.3,9.1V134.6"/>
	<path class="st3" d="M81.2,134.6c0-9-17.4-16.3-38.8-16.3V72.7c21.4,0,38.8,7.3,38.8,16.3V134.6"/>
	<path class="st4" d="M81.2,134.6c0-12.1-15.5-21.9-34.6-21.9V67.1c19.1,0,34.6,9.8,34.6,21.9V134.6"/>
	<path class="st5" d="M124.4,83.2H84.8c-2,0-3.6,1.6-3.6,3.6v45.4c0,2,1.6,3.6,3.6,3.6h39.6c2,0,3.6-1.6,3.6-3.6V86.8
		C127.9,84.8,126.3,83.2,124.4,83.2"/>
	<path class="st2" d="M81.2,134.6c0-5,19.4-9.1,43.3-9.1V79.9c-23.9,0-43.3,4.1-43.3,9.1V134.6"/>
	<path class="st3" d="M81.2,134.6c0-9,17.4-16.3,38.8-16.3V72.7C98.5,72.7,81.2,80,81.2,89V134.6"/>
	<path class="st4" d="M81.2,134.6c0-12.1,15.5-21.9,34.6-21.9V67.1c-19.1,0-34.6,9.8-34.6,21.9V134.6"/>
</g>
<g>
	<path class="st6" d="M134.5,49.8H85.6H28.6c-2.9,0-5.2,2.3-5.2,5.2v54.4c0,2.9,2.3,5.2,5.2,5.2H76c0.8,1.4,2.8,2.3,5.2,2.3
		s4.4-1,5.2-2.3h48.1c2.4,0,4.4-2,4.4-4.4V54.2C138.9,51.8,137,49.8,134.5,49.8z"/>
	<path class="st2" d="M81.2,113.3c0-6.2-24-11.3-53.5-11.3V45.7c29.6,0,53.5,5,53.5,11.3V113.3"/>
	<path class="st3" d="M81.2,113.3c0-11.1-21.5-20.1-47.9-20.1V36.8c26.5,0,47.9,9,47.9,20.1V113.3"/>
	<path class="st4" d="M81.2,113.3c0-14.9-19.1-27-42.7-27V29.9c23.6,0,42.7,12.1,42.7,27V113.3"/>
	<path class="st2" d="M81.2,113.3c0-6.2,24-11.3,53.5-11.3V45.7c-29.6,0-53.5,5-53.5,11.3V113.3"/>
	<path class="st3" d="M81.2,113.3c0-11.1,21.4-20.1,47.9-20.1V36.8c-26.5,0-47.9,9-47.9,20.1V113.3"/>
	<path class="st4" d="M81.2,113.3c0-14.9,19.1-27,42.7-27V29.9c-23.6,0-42.7,12.1-42.7,27V113.3"/>
	<g>
		<path class="st7" d="M72,49.7c-0.2,0-0.4-0.1-0.5-0.2c-1-0.8-2.1-1.6-3.2-2.3c-1-0.7-2.1-1.3-3.2-1.9c-0.2-0.1-0.3-0.3-0.4-0.5
			c-0.1-0.2,0-0.4,0.1-0.6c0.1-0.2,0.3-0.3,0.5-0.4c0.2-0.1,0.4,0,0.6,0.1c1.2,0.6,2.3,1.3,3.3,1.9c1.1,0.7,2.3,1.6,3.4,2.4l0,0
			c0.3,0.3,0.4,0.8,0.1,1.1C72.5,49.5,72.3,49.6,72,49.7C72.1,49.7,72.1,49.7,72,49.7z"/>
		<path class="st7" d="M62.5,42.3c0.2,0.1,0.4,0.2,0.4,0.4c0.1,0.2,0.1,0.4,0,0.6c-0.1,0.2-0.2,0.3-0.4,0.4c-0.1,0-0.2,0.1-0.3,0.1
			c-0.1,0-0.2,0-0.3-0.1c-1-0.4-2-0.8-3.2-1.2c-1-0.4-2.1-0.7-3.2-1c-1.1-0.3-2.2-0.6-3.2-0.8c-0.2,0-0.4-0.2-0.5-0.3
			c-0.1-0.2-0.2-0.4-0.1-0.6c0-0.2,0.2-0.4,0.4-0.5c0.2-0.1,0.4-0.1,0.6-0.1c1.2,0.3,2.4,0.6,3.3,0.8c1.1,0.3,2.2,0.7,3.3,1
			C60.4,41.4,61.5,41.8,62.5,42.3"/>
		<path class="st7" d="M55.6,79.2c-0.1,0-0.1,0-0.2,0l0,0c-1.1-0.3-2.1-0.6-3.2-0.8c-0.2,0-0.4-0.2-0.5-0.4
			c-0.1-0.2-0.1-0.4-0.1-0.6c0-0.2,0.2-0.4,0.3-0.5c0.2-0.1,0.4-0.2,0.6-0.1c1.2,0.3,2.4,0.6,3.3,0.8c0.4,0.1,0.7,0.6,0.6,1l0,0
			C56.3,79,56,79.2,55.6,79.2z"/>
		<path class="st7" d="M49.1,40c-0.1,0-0.1,0-0.2,0c-1.3-0.2-2.3-0.3-3.2-0.5c-1-0.1-2.1-0.2-3.2-0.3c-0.2,0-0.4-0.1-0.6-0.3
			c-0.1-0.2-0.2-0.4-0.2-0.6c0-0.2,0.1-0.4,0.3-0.5c0.2-0.1,0.4-0.2,0.6-0.2c1.2,0.1,2.3,0.2,3.3,0.3c1,0.1,2,0.3,3.3,0.5l0,0
			c0.4,0.1,0.7,0.5,0.7,0.9c0,0.2-0.1,0.4-0.3,0.5C49.4,40,49.2,40,49.1,40z"/>
		<path class="st7" d="M78.6,95c-0.3,0-0.6-0.2-0.7-0.4c-0.8-1.5-1.9-2.9-3.2-4.4c-0.9-1-2-2.1-3.2-3c-1-0.8-2-1.6-3.2-2.3
			c-0.2-0.1-0.3-0.3-0.4-0.5c0-0.2,0-0.4,0.1-0.6c0.3-0.4,0.7-0.5,1.1-0.2c1.2,0.8,2.3,1.6,3.4,2.4c1.2,1,2.4,2.1,3.4,3.2
			c1.4,1.5,2.5,3.1,3.4,4.7c0.2,0.4,0.1,0.9-0.3,1.1C78.9,95,78.7,95,78.6,95z"/>
		<path class="st7" d="M78.6,87.5c-0.3,0-0.6-0.1-0.7-0.4c-0.8-1.5-1.9-2.9-3.2-4.4l0,0c-0.3-0.3-0.3-0.8,0.1-1.1
			c0.3-0.3,0.8-0.3,1.1,0.1c1.4,1.5,2.5,3.1,3.4,4.7c0.1,0.2,0.1,0.4,0.1,0.6c-0.1,0.2-0.2,0.4-0.4,0.5
			C78.9,87.4,78.7,87.5,78.6,87.5z"/>
		<path class="st7" d="M78.6,57.3c-0.3,0-0.6-0.1-0.7-0.4c-0.8-1.5-1.9-3-3.2-4.4l0,0c-0.3-0.3-0.2-0.8,0.1-1.1
			c0.2-0.1,0.4-0.2,0.6-0.2c0.2,0,0.4,0.1,0.6,0.3c1.4,1.5,2.5,3.1,3.4,4.7c0.1,0.2,0.1,0.4,0.1,0.6c-0.1,0.2-0.2,0.4-0.4,0.5
			C78.9,57.2,78.7,57.3,78.6,57.3z"/>
		<path class="st7" d="M65.5,83.1c-0.1,0-0.2,0-0.3-0.1l0,0c-1-0.5-2.1-1.1-3.2-1.5c-1-0.4-2-0.8-3.2-1.2c-0.2-0.1-0.4-0.2-0.5-0.4
			c-0.1-0.2-0.1-0.4,0-0.6c0.1-0.2,0.2-0.4,0.4-0.5c0.2-0.1,0.4-0.1,0.6,0c1.3,0.5,2.4,0.9,3.3,1.3c1.1,0.5,2.2,1,3.3,1.6l0,0
			c0.4,0.2,0.5,0.7,0.3,1.1C66,82.9,65.8,83.1,65.5,83.1z"/>
		<path class="st7" d="M45.8,47.1C45.8,47.1,45.7,47.1,45.8,47.1c-1.1-0.1-2.2-0.2-3.3-0.3l0,0c-0.4,0-0.8-0.4-0.7-0.9
			c0-0.2,0.1-0.4,0.3-0.5c0.2-0.1,0.4-0.2,0.6-0.2c1.2,0.1,2.4,0.2,3.3,0.3l0,0c0.2,0,0.4,0.1,0.5,0.3c0.1,0.2,0.2,0.4,0.1,0.6
			c0,0.2-0.1,0.4-0.3,0.5C46.1,47.1,46,47.1,45.8,47.1z"/>
		<path class="st7" d="M49.1,77.8c0,0-0.1,0-0.1,0c-1.2-0.2-2.3-0.3-3.2-0.5c-1.1-0.1-2.2-0.2-3.2-0.3l0,0c-0.2,0-0.4-0.1-0.5-0.3
			c-0.1-0.2-0.2-0.4-0.2-0.6c0-0.2,0.1-0.4,0.3-0.6c0.2-0.1,0.4-0.2,0.6-0.2c1.2,0.1,2.4,0.2,3.3,0.3c1,0.1,2.1,0.3,3.3,0.5
			c0.2,0,0.4,0.1,0.5,0.3c0.1,0.2,0.2,0.4,0.1,0.6C49.8,77.5,49.5,77.8,49.1,77.8z"/>
		<path class="st7" d="M78.6,64.8c-0.1,0-0.2,0-0.2,0c-0.2-0.1-0.4-0.2-0.5-0.4c-0.8-1.4-1.9-2.9-3.2-4.3c-1-1.1-2-2.1-3.2-3
			c-0.2-0.1-0.3-0.3-0.3-0.5c0-0.2,0-0.4,0.2-0.6c0.1-0.2,0.3-0.3,0.5-0.3c0.2,0,0.4,0,0.6,0.2c1.2,1,2.4,2.1,3.4,3.2
			c1.4,1.5,2.5,3.1,3.4,4.6l0,0c0.2,0.4,0.1,0.9-0.3,1.1C78.9,64.8,78.7,64.8,78.6,64.8z"/>
		<path class="st7" d="M65.5,52.9c-0.1,0-0.2,0-0.4-0.1l0,0c-1-0.5-2.1-1.1-3.2-1.5c-1-0.4-2-0.8-3.2-1.2c-1.2-0.4-2.2-0.7-3.2-1
			c-0.4-0.1-0.7-0.6-0.6-1l0,0c0.1-0.2,0.2-0.4,0.4-0.5c0.2-0.1,0.4-0.1,0.6-0.1c1.2,0.3,2.3,0.7,3.3,1c1.3,0.5,2.4,0.9,3.3,1.3
			c1,0.4,2.1,1,3.3,1.6l0,0c0.2,0.1,0.3,0.3,0.4,0.5c0.1,0.2,0,0.4-0.1,0.6C66,52.8,65.8,52.9,65.5,52.9z"/>
		<path class="st7" d="M78.6,72.4c-0.3,0-0.6-0.1-0.7-0.4c-0.8-1.5-1.9-2.9-3.2-4.4c-0.9-1-2-2.1-3.2-3c-1-0.8-2.1-1.6-3.2-2.3
			c-1-0.6-2-1.2-3.2-1.9c-0.2-0.1-0.3-0.3-0.4-0.5c-0.1-0.2,0-0.4,0.1-0.6c0.1-0.2,0.3-0.3,0.5-0.4c0.2-0.1,0.4,0,0.6,0.1
			c1.2,0.6,2.3,1.3,3.3,1.9c1.1,0.7,2.3,1.6,3.4,2.4c1.2,1,2.4,2.1,3.4,3.2c1.4,1.5,2.5,3.1,3.4,4.7c0.1,0.2,0.1,0.4,0.1,0.6
			c-0.1,0.2-0.2,0.4-0.4,0.5C78.9,72.3,78.7,72.4,78.6,72.4z"/>
		<path class="st7" d="M52.4,48.2c-0.1,0-0.1,0-0.2,0c-1.1-0.2-2.2-0.4-3.2-0.6l0,0c-0.4-0.1-0.7-0.5-0.6-0.9l0,0
			c0-0.2,0.2-0.4,0.3-0.5C48.8,46,49,46,49.2,46c1.2,0.2,2.4,0.4,3.3,0.6l0,0c0.4,0.1,0.7,0.5,0.6,0.9c0,0.2-0.2,0.4-0.4,0.5
			C52.7,48.2,52.5,48.2,52.4,48.2z"/>
		<path class="st7" d="M58.9,65.2c-0.1,0-0.2,0-0.3,0c-0.9-0.3-2-0.7-3.2-1c-1.1-0.3-2.1-0.6-3.2-0.8c-1.1-0.2-2.2-0.4-3.2-0.6
			c-1.2-0.2-2.2-0.3-3.2-0.5c-1.1-0.1-2.1-0.2-3.2-0.3l0,0c-0.2,0-0.4-0.1-0.6-0.3c-0.1-0.2-0.2-0.4-0.2-0.6c0-0.2,0.1-0.4,0.3-0.6
			c0.2-0.1,0.4-0.2,0.6-0.2c1,0.1,2,0.1,3.3,0.3c1,0.1,2.1,0.3,3.3,0.5c1,0.2,2,0.4,3.3,0.6c1.1,0.3,2.3,0.5,3.3,0.8
			c1.4,0.4,2.4,0.7,3.3,1.1c0.2,0.1,0.4,0.2,0.5,0.4c0.1,0.2,0.1,0.4,0,0.6c-0.1,0.2-0.2,0.4-0.4,0.5C59.2,65.1,59,65.2,58.9,65.2z"
			/>
		<path class="st7" d="M52.3,70.9c-0.1,0-0.1,0-0.2,0c-1.1-0.2-2.1-0.5-3.2-0.6l-0.1,0l-3.2-0.5c-1-0.1-2.1-0.2-3.2-0.3
			c-0.2,0-0.4-0.1-0.6-0.3c-0.1-0.2-0.2-0.4-0.2-0.6c0-0.4,0.4-0.8,0.8-0.7c1.2,0.1,2.3,0.2,3.3,0.3l0,0l3.3,0.5
			c1.2,0.2,2.3,0.4,3.3,0.7c0.2,0,0.4,0.2,0.5,0.3c0.1,0.2,0.2,0.4,0.1,0.6C53,70.6,52.7,70.9,52.3,70.9z"/>
		<path class="st7" d="M62.2,58.9c-0.1,0-0.2,0-0.3-0.1c-1-0.4-2-0.8-3.2-1.2c-1-0.4-2.1-0.7-3.2-1c-1.1-0.3-2.2-0.6-3.2-0.8
			c-1.3-0.3-2.3-0.5-3.2-0.6c-1.3-0.2-2.3-0.3-3.2-0.5c-1-0.1-2.1-0.2-3.2-0.3c-0.2,0-0.4-0.1-0.6-0.3c-0.1-0.2-0.2-0.4-0.2-0.6
			c0-0.4,0.4-0.8,0.8-0.8c1.2,0.1,2.3,0.2,3.3,0.3c1.2,0.1,2.3,0.3,3.3,0.5c1.2,0.2,2.3,0.4,3.3,0.7c1.1,0.2,2.2,0.5,3.3,0.8
			c1.1,0.3,2.2,0.7,3.3,1c1.2,0.4,2.3,0.9,3.3,1.3c0.2,0.1,0.3,0.2,0.4,0.4c0.1,0.2,0.1,0.4,0,0.6c-0.1,0.2-0.2,0.4-0.4,0.4
			C62.4,58.9,62.3,58.9,62.2,58.9z"/>
		<path class="st7" d="M78.6,79.9c-0.3,0-0.6-0.1-0.7-0.4c-0.8-1.5-1.9-2.9-3.2-4.4c-0.9-1-2-2.1-3.2-3c-1-0.8-2-1.6-3.2-2.3
			c-0.2-0.1-0.3-0.3-0.4-0.5c0-0.2,0-0.4,0.1-0.6c0.3-0.4,0.7-0.5,1.1-0.2c1.2,0.8,2.3,1.6,3.4,2.4c1.2,1,2.4,2.1,3.4,3.2
			c1.4,1.5,2.5,3.1,3.4,4.7c0.1,0.2,0.1,0.4,0.1,0.6c-0.1,0.2-0.2,0.4-0.4,0.5C78.9,79.9,78.7,79.9,78.6,79.9z"/>
		<path class="st7" d="M72,79.8c-0.2,0-0.4-0.1-0.5-0.2c-1-0.8-2.1-1.6-3.2-2.3c-1-0.6-2-1.2-3.2-1.9c-1.1-0.6-2.1-1.1-3.2-1.5
			c-1-0.4-2-0.8-3.2-1.2c-1-0.4-2.1-0.7-3.2-1c-0.4-0.1-0.7-0.5-0.6-1l0,0c0.1-0.4,0.6-0.7,1-0.5c1.1,0.3,2.2,0.7,3.3,1
			c1.2,0.4,2.3,0.9,3.3,1.3c1.1,0.5,2.2,1,3.3,1.6c1.2,0.6,2.3,1.3,3.3,1.9c1.1,0.7,2.3,1.6,3.4,2.4c0.2,0.1,0.3,0.3,0.3,0.5
			c0,0.2,0,0.4-0.2,0.6C72.5,79.7,72.3,79.8,72,79.8z"/>
	</g>
	<g>
		<path class="st7" d="M90.4,49.7c-0.2,0-0.4-0.1-0.6-0.3c-0.3-0.3-0.2-0.8,0.1-1.1l0,0c1.1-0.9,2.2-1.7,3.4-2.4
			c1-0.7,2.2-1.3,3.3-1.9c0.2-0.1,0.4-0.1,0.6-0.1c0.2,0.1,0.4,0.2,0.5,0.4c0.1,0.2,0.1,0.4,0.1,0.6c-0.1,0.2-0.2,0.4-0.4,0.5
			c-1.1,0.6-2.2,1.2-3.2,1.9c-1.1,0.7-2.2,1.5-3.2,2.3C90.9,49.6,90.7,49.7,90.4,49.7C90.5,49.7,90.4,49.7,90.4,49.7z"/>
		<path class="st7" d="M100,42.3c1-0.4,2.1-0.9,3.3-1.3c1.1-0.4,2.2-0.7,3.3-1c0.9-0.2,2.1-0.6,3.3-0.8c0.2,0,0.4,0,0.6,0.1
			c0.2,0.1,0.3,0.3,0.4,0.5c0,0.2,0,0.4-0.1,0.6c-0.1,0.2-0.3,0.3-0.5,0.3c-1.1,0.2-2.1,0.5-3.2,0.8c-1.2,0.3-2.2,0.7-3.2,1
			c-1.2,0.4-2.3,0.8-3.2,1.2c-0.1,0-0.2,0.1-0.3,0.1c-0.1,0-0.2,0-0.3-0.1c-0.2-0.1-0.4-0.2-0.4-0.4c-0.1-0.2-0.1-0.4,0-0.6
			C99.7,42.5,99.8,42.4,100,42.3"/>
		<path class="st7" d="M106.1,78.7L106.1,78.7c-0.1-0.4,0.1-0.9,0.6-1c1-0.3,2.1-0.6,3.3-0.8c0.2,0,0.4,0,0.6,0.1
			c0.2,0.1,0.3,0.3,0.3,0.5c0,0.2,0,0.4-0.1,0.6c-0.1,0.2-0.3,0.3-0.5,0.4c-1.1,0.2-2.2,0.5-3.2,0.8l0,0c-0.1,0-0.1,0-0.2,0
			C106.6,79.2,106.2,79,106.1,78.7z"/>
		<path class="st7" d="M113,39.9c-0.2-0.1-0.3-0.3-0.3-0.5c-0.1-0.4,0.2-0.9,0.7-0.9l0,0c1.3-0.2,2.3-0.3,3.3-0.5
			c1-0.1,2.1-0.2,3.3-0.3c0.2,0,0.4,0.1,0.6,0.2c0.2,0.1,0.2,0.3,0.3,0.5c0,0.2-0.1,0.4-0.2,0.6c-0.1,0.2-0.3,0.3-0.6,0.3
			c-1.1,0.1-2.2,0.2-3.2,0.3c-0.9,0.1-1.9,0.2-3.2,0.5c-0.1,0-0.1,0-0.2,0C113.3,40,113.1,40,113,39.9z"/>
		<path class="st7" d="M83.9,95c0.3,0,0.6-0.2,0.7-0.4c0.8-1.5,1.9-2.9,3.2-4.4c0.9-1,2-2.1,3.2-3c1-0.8,2-1.6,3.2-2.3
			c0.2-0.1,0.3-0.3,0.4-0.5c0-0.2,0-0.4-0.1-0.6c-0.3-0.4-0.7-0.5-1.1-0.2C92.2,84.3,91,85.1,90,86c-1.2,1-2.4,2.1-3.4,3.2
			c-1.4,1.5-2.5,3.1-3.4,4.7c-0.2,0.4-0.1,0.9,0.3,1.1C83.7,95,83.8,95,83.9,95z"/>
		<path class="st7" d="M83.9,87.5c0.3,0,0.6-0.1,0.7-0.4c0.8-1.5,1.9-2.9,3.2-4.4l0,0c0.3-0.3,0.3-0.8-0.1-1.1
			c-0.3-0.3-0.8-0.3-1.1,0.1c-1.4,1.5-2.5,3.1-3.4,4.7c-0.1,0.2-0.1,0.4-0.1,0.6c0.1,0.2,0.2,0.4,0.4,0.5
			C83.7,87.4,83.8,87.5,83.9,87.5z"/>
		<path class="st7" d="M83.5,57.2c-0.2-0.1-0.3-0.3-0.4-0.5c-0.1-0.2,0-0.4,0.1-0.6c0.9-1.6,2-3.1,3.4-4.7c0.1-0.2,0.3-0.2,0.6-0.3
			c0.2,0,0.4,0.1,0.6,0.2c0.3,0.3,0.3,0.8,0.1,1.1l0,0c-1.3,1.4-2.4,2.9-3.2,4.4c-0.1,0.3-0.4,0.4-0.7,0.4
			C83.8,57.3,83.7,57.3,83.5,57.2z"/>
		<path class="st7" d="M96.3,82.7c-0.2-0.4-0.1-0.9,0.3-1.1l0,0C97.9,81,99,80.5,100,80c1-0.4,2-0.8,3.3-1.3c0.2-0.1,0.4-0.1,0.6,0
			c0.2,0.1,0.3,0.3,0.4,0.5c0.1,0.2,0.1,0.4,0,0.6c-0.1,0.2-0.3,0.3-0.5,0.4c-1.2,0.4-2.3,0.8-3.2,1.2c-1.1,0.5-2.2,1-3.2,1.5l0,0
			c-0.1,0.1-0.2,0.1-0.3,0.1C96.8,83.1,96.5,82.9,96.3,82.7z"/>
		<path class="st7" d="M116.2,47c-0.2-0.1-0.3-0.3-0.3-0.5c0-0.2,0-0.4,0.1-0.6c0.1-0.2,0.3-0.3,0.5-0.3l0,0
			c0.9-0.1,2.1-0.2,3.3-0.3c0.2,0,0.4,0.1,0.6,0.2c0.2,0.1,0.2,0.3,0.3,0.5c0,0.4-0.3,0.8-0.7,0.9l0,0c-1.1,0.1-2.2,0.2-3.2,0.3
			c0,0-0.1,0-0.1,0C116.6,47.1,116.4,47.1,116.2,47z"/>
		<path class="st7" d="M112.7,77.1c0-0.2,0-0.4,0.1-0.6c0.1-0.2,0.3-0.3,0.5-0.3c1.2-0.2,2.3-0.4,3.3-0.5c0.9-0.1,2.1-0.2,3.3-0.3
			c0.2,0,0.4,0,0.6,0.2c0.2,0.1,0.3,0.3,0.3,0.6c0,0.2-0.1,0.4-0.2,0.6c-0.1,0.2-0.3,0.3-0.5,0.3l0,0c-1.1,0.1-2.2,0.2-3.2,0.3
			c-1,0.1-2,0.3-3.2,0.5c0,0-0.1,0-0.1,0C113.1,77.8,112.7,77.5,112.7,77.1z"/>
		<path class="st7" d="M83.9,64.8c0.1,0,0.2,0,0.2,0c0.2-0.1,0.4-0.2,0.5-0.4c0.8-1.4,1.9-2.9,3.2-4.3c1-1.1,2-2.1,3.2-3
			c0.2-0.1,0.3-0.3,0.3-0.5c0-0.2,0-0.4-0.2-0.6c-0.1-0.2-0.3-0.3-0.5-0.3c-0.2,0-0.4,0-0.6,0.2c-1.2,1-2.4,2.1-3.4,3.2
			c-1.4,1.5-2.5,3.1-3.4,4.6l0,0c-0.2,0.4-0.1,0.9,0.3,1.1C83.7,64.8,83.8,64.8,83.9,64.8z"/>
		<path class="st7" d="M96.4,52.5c-0.1-0.2-0.1-0.4-0.1-0.6c0.1-0.2,0.2-0.4,0.4-0.5l0,0c1.2-0.6,2.3-1.1,3.3-1.6
			c0.9-0.4,2-0.8,3.3-1.3c1-0.4,2.1-0.7,3.3-1c0.2-0.1,0.4,0,0.6,0.1c0.2,0.1,0.3,0.3,0.4,0.5l0,0c0.1,0.4-0.1,0.9-0.6,1
			c-1,0.3-2,0.6-3.2,1c-1.2,0.4-2.3,0.8-3.2,1.2c-1.1,0.5-2.2,1-3.2,1.5l0,0c-0.1,0.1-0.2,0.1-0.4,0.1
			C96.8,52.9,96.5,52.8,96.4,52.5z"/>
		<path class="st7" d="M83.5,72.3c-0.2-0.1-0.3-0.3-0.4-0.5c-0.1-0.2,0-0.4,0.1-0.6c0.9-1.6,2-3.2,3.4-4.7c1-1.1,2.1-2.2,3.4-3.2
			c1.1-0.9,2.2-1.7,3.4-2.4c1-0.7,2.2-1.3,3.3-1.9c0.2-0.1,0.4-0.1,0.6-0.1c0.2,0.1,0.4,0.2,0.5,0.4c0.1,0.2,0.1,0.4,0.1,0.6
			c-0.1,0.2-0.2,0.4-0.4,0.5c-1.2,0.6-2.3,1.2-3.2,1.9c-1.1,0.7-2.2,1.5-3.2,2.3c-1.2,1-2.3,2-3.2,3c-1.3,1.4-2.4,2.9-3.2,4.4
			c-0.1,0.3-0.4,0.4-0.7,0.4C83.8,72.4,83.7,72.3,83.5,72.3z"/>
		<path class="st7" d="M109.8,48.1c-0.2-0.1-0.3-0.3-0.4-0.5c-0.1-0.4,0.2-0.8,0.6-0.9l0,0c0.9-0.2,2.1-0.4,3.3-0.6
			c0.2,0,0.4,0,0.6,0.1c0.2,0.1,0.3,0.3,0.3,0.5l0,0c0.1,0.4-0.2,0.8-0.6,0.9l0,0c-1.1,0.2-2.2,0.4-3.2,0.6c-0.1,0-0.1,0-0.2,0
			C110,48.2,109.9,48.2,109.8,48.1z"/>
		<path class="st7" d="M103.3,65.1c-0.2-0.1-0.3-0.3-0.4-0.5c-0.1-0.2-0.1-0.4,0-0.6c0.1-0.2,0.3-0.3,0.5-0.4c0.9-0.3,2-0.7,3.3-1.1
			c1.1-0.3,2.2-0.6,3.3-0.8c1.3-0.3,2.3-0.5,3.3-0.6c1.2-0.2,2.3-0.4,3.3-0.5c1.3-0.1,2.3-0.2,3.3-0.3c0.2,0,0.4,0,0.6,0.2
			c0.2,0.1,0.3,0.3,0.3,0.6c0,0.2,0,0.4-0.2,0.6c-0.1,0.2-0.3,0.3-0.6,0.3l0,0c-1.1,0.1-2.2,0.2-3.2,0.3c-1,0.1-2,0.2-3.2,0.5
			c-1.1,0.2-2.2,0.4-3.2,0.6c-1.1,0.2-2.2,0.5-3.2,0.8c-1.2,0.3-2.4,0.7-3.2,1c-0.1,0-0.2,0-0.3,0C103.5,65.2,103.4,65.2,103.3,65.1
			z"/>
		<path class="st7" d="M109.4,70.2c-0.1-0.2,0-0.4,0.1-0.6c0.1-0.2,0.3-0.3,0.5-0.3c1-0.2,2.1-0.4,3.3-0.7l3.3-0.5l0,0
			c1-0.1,2.1-0.2,3.3-0.3c0.4,0,0.8,0.3,0.8,0.7c0,0.2-0.1,0.4-0.2,0.6c-0.1,0.2-0.3,0.3-0.6,0.3c-1.1,0.1-2.2,0.2-3.2,0.3l-3.2,0.5
			l-0.1,0c-1.1,0.2-2.2,0.4-3.2,0.6c-0.1,0-0.1,0-0.2,0C109.8,70.9,109.5,70.6,109.4,70.2z"/>
		<path class="st7" d="M100,58.8c-0.2-0.1-0.4-0.2-0.4-0.4c-0.1-0.2-0.1-0.4,0-0.6c0.1-0.2,0.2-0.3,0.4-0.4c1-0.4,2.1-0.9,3.3-1.3
			c1.1-0.4,2.2-0.7,3.3-1c1.1-0.3,2.2-0.6,3.3-0.8c1-0.2,2.1-0.5,3.3-0.7c1.1-0.2,2.1-0.3,3.3-0.5c1-0.1,2.1-0.2,3.3-0.3
			c0.4,0,0.8,0.3,0.8,0.8c0,0.2-0.1,0.4-0.2,0.6c-0.1,0.2-0.3,0.3-0.6,0.3c-1.1,0.1-2.2,0.2-3.2,0.3c-0.9,0.1-1.9,0.3-3.2,0.5
			c-0.9,0.2-2,0.4-3.2,0.6c-1.1,0.2-2.1,0.5-3.2,0.8c-1.2,0.3-2.2,0.7-3.2,1c-1.2,0.4-2.3,0.8-3.2,1.2c-0.1,0-0.2,0.1-0.3,0.1
			C100.2,58.9,100.1,58.9,100,58.8z"/>
		<path class="st7" d="M83.9,79.9c0.3,0,0.6-0.1,0.7-0.4c0.8-1.5,1.9-2.9,3.2-4.4c0.9-1,2-2.1,3.2-3c1-0.8,2-1.6,3.2-2.3
			c0.2-0.1,0.3-0.3,0.4-0.5c0-0.2,0-0.4-0.1-0.6c-0.3-0.4-0.7-0.5-1.1-0.2C92.2,69.2,91,70,90,70.9c-1.2,1-2.4,2.1-3.4,3.2
			c-1.4,1.5-2.5,3.1-3.4,4.7c-0.1,0.2-0.1,0.4-0.1,0.6c0.1,0.2,0.2,0.4,0.4,0.5C83.7,79.9,83.8,79.9,83.9,79.9z"/>
		<path class="st7" d="M90.5,79.8c0.2,0,0.4-0.1,0.5-0.2c1-0.8,2.1-1.6,3.2-2.3c1-0.6,2-1.2,3.2-1.9c1.1-0.6,2.1-1.1,3.2-1.5
			c1-0.4,2-0.8,3.2-1.2c1-0.4,2.1-0.7,3.2-1c0.4-0.1,0.7-0.5,0.6-1l0,0c-0.1-0.4-0.6-0.7-1-0.5c-1.1,0.3-2.2,0.7-3.3,1
			c-1.2,0.4-2.3,0.9-3.3,1.3c-1.1,0.5-2.2,1-3.3,1.6c-1.2,0.6-2.3,1.3-3.3,1.9c-1.1,0.7-2.3,1.6-3.4,2.4c-0.2,0.1-0.3,0.3-0.3,0.5
			c0,0.2,0,0.4,0.2,0.6C90,79.7,90.3,79.8,90.5,79.8z"/>
	</g>
</g>
<path class="st8" d="M41.9,68.9l-4.5-1.5l-1.3-4.6c-0.2-0.7-0.8-1.2-1.5-1.4c-0.7-0.1-1.5,0.2-1.9,0.7l-2.9,3.8l-4.8-0.2
	c-0.7,0-1.4,0.4-1.8,1c-0.4,0.6-0.3,1.4,0.1,2l2.7,3.9l-1.7,4.5c-0.2,0.7-0.1,1.5,0.4,2c0.5,0.5,1.3,0.7,2,0.5l4.5-1.4l3.7,3
	c0.6,0.5,1.4,0.5,2,0.2c0.7-0.3,1.1-1,1.1-1.7l0.1-4.8l4-2.6c0.6-0.4,0.9-1.1,0.8-1.9C43.1,69.7,42.6,69.1,41.9,68.9z"/>
<path class="st8" d="M141.6,129.2l-4.5-1.5l-1.3-4.6c-0.2-0.7-0.8-1.2-1.5-1.4c-0.7-0.1-1.5,0.2-1.9,0.7l-2.9,3.8l-4.8-0.2
	c-0.7,0-1.4,0.4-1.8,1c-0.4,0.6-0.3,1.4,0.1,2l2.7,3.9l-1.7,4.5c-0.2,0.7-0.1,1.5,0.4,2c0.5,0.5,1.3,0.7,2,0.5l4.5-1.4l3.7,3
	c0.6,0.5,1.4,0.5,2,0.2c0.7-0.3,1.1-1,1.1-1.7l0.1-4.8l4-2.6c0.6-0.4,0.9-1.1,0.8-1.9C142.8,130.1,142.3,129.4,141.6,129.2z"/>
<path class="st8" d="M102.1,30.5L97.6,29l-1.3-4.6c-0.2-0.7-0.8-1.2-1.5-1.4c-0.7-0.1-1.5,0.2-1.9,0.7L90,27.6l-4.8-0.2
	c-0.7,0-1.4,0.4-1.8,1c-0.4,0.6-0.3,1.4,0.1,2l2.7,3.9l-1.7,4.5c-0.2,0.7-0.1,1.5,0.4,2c0.5,0.5,1.3,0.7,2,0.5l4.5-1.4l3.7,3
	c0.6,0.5,1.4,0.5,2,0.2c0.7-0.3,1.1-1,1.1-1.7l0.1-4.8l4-2.6c0.6-0.4,0.9-1.1,0.8-1.9C103.3,31.4,102.8,30.8,102.1,30.5z"/>
</svg>
