<svg version="1.1" id="Layer_1" xmlns="http://www.w3.org/2000/svg" xmlns:xlink="http://www.w3.org/1999/xlink" x="0px" y="0px"
	 viewBox="0 0 160 160" style="enable-background:new 0 0 160 160;" xml:space="preserve">
<g>
	<g>
		<path class="st0" d="M144.2,95.8c0,35.5-28.7,64.2-64.2,64.2c-35.5,0-64.2-28.7-64.2-64.2c0-35.5,28.7-64.2,64.2-64.2
			C115.5,31.6,144.2,60.3,144.2,95.8"/>
	</g>
	<g>
		<path class="st1" d="M110.5,27.9l-14.6,65c-0.4,1.9-2.4,3.2-4.3,2.7l-21.7-4.9c-1.9-0.4-3.2-2.4-2.7-4.3l14.6-65
			c0.4-1.9,2.4-3.2,4.3-2.7l21.7,4.9C109.8,24.1,111,26,110.5,27.9"/>
	</g>
	<g>
		<path class="st2" d="M79.3,45.4c-0.1,0-0.2,0-0.3,0c-0.6-0.1-1-0.7-0.9-1.4l1.7-7.8c0.1-0.6,0.7-1,1.4-0.9c0.6,0.1,1,0.7,0.9,1.4
			l-1.7,7.8C80.2,45.1,79.8,45.4,79.3,45.4z"/>
	</g>
	<g>
		<path class="st2" d="M92.7,94.3C92.7,94.3,92.7,94.3,92.7,94.3c-0.2,0-0.4,0-0.6-0.1l-21.6-4.9c-1.1-0.2-1.9-1.3-1.9-2.4
			c0-0.2,0-0.3,0.1-0.5L76.1,53c0.1-0.6,0.7-1,1.4-0.9c0.6,0.1,1,0.7,0.9,1.4l-7.5,33.4c0,0,0,0,0,0c0,0.1,0.1,0.2,0.1,0.2l0,0
			l21.6,4.9c0,0,0,0,0,0c0.1,0,0.2-0.1,0.2-0.1l0,0l14.6-65c0,0,0-0.1,0-0.1c0-0.1-0.1-0.2-0.1-0.2l0,0l-21.7-4.9c0,0,0,0,0,0
			c-0.1,0-0.2,0.1-0.2,0.1l-0.2,0.9h0c-0.1,0.7-0.4,1.7-0.6,2.9l-1.8,7.9c-0.1,0.6-0.7,1-1.4,0.9c-0.6-0.1-1-0.7-0.9-1.4l2.6-11.6
			c0,0,0,0,0-0.1l0,0c0.2-1.1,1.3-1.9,2.4-1.9c0.2,0,0.4,0,0.5,0.1l21.7,4.9c1.1,0.2,1.9,1.3,1.9,2.4c0,0.2,0,0.3-0.1,0.5l0,0
			l-14.6,65C94.9,93.5,93.8,94.3,92.7,94.3z"/>
	</g>
	<g>
		<path class="st3" d="M140.3,55.9l-45.1,49c-1.3,1.5-3.6,1.6-5.1,0.2L73.8,90.1c-1.5-1.3-1.5-3.6-0.2-5.1l45.2-49
			c1.3-1.5,3.6-1.6,5.1-0.2l16.3,15.1C141.6,52.2,141.7,54.5,140.3,55.9"/>
	</g>
	<g>
		<path class="st2" d="M92.8,104.7L92.8,104.7c-0.6,0-1.2-0.2-1.7-0.6L74.8,89c-0.5-0.5-0.8-1.1-0.8-1.8c0-0.6,0.2-1.2,0.6-1.7
			l45.2-49c0.5-0.5,1.1-0.8,1.8-0.8l0,0l0,0c0.6,0,1.2,0.2,1.7,0.7l16.3,15.1c0.5,0.5,0.8,1.1,0.8,1.8c0,0.6-0.2,1.2-0.7,1.7
			l-0.1,0.1l-45.1,48.9C94.2,104.4,93.5,104.7,92.8,104.7L92.8,104.7z M121.5,38L76.3,87c0,0,0,0.1,0,0.1c0,0.1,0,0.1,0.1,0.1
			l16.3,15.1c0,0,0.1,0,0.1,0c0.1,0,0.1,0,0.2-0.1L138,53.4c0,0,0-0.1,0.1-0.1c0,0,0.1-0.1,0.1-0.1c0-0.1,0-0.1-0.1-0.1L121.8,38
			c0,0,0,0-0.1,0C121.6,38,121.5,38,121.5,38L121.5,38z"/>
	</g>
	<g>
		<path class="st4" d="M152.1,95.1l-63.6,19.8c-1.9,0.6-3.9-0.5-4.5-2.4l-6.6-21.2c-0.6-1.9,0.5-3.9,2.4-4.5L143.4,67
			c1.9-0.6,3.9,0.5,4.5,2.4l6.6,21.2C155.1,92.5,154,94.5,152.1,95.1"/>
	</g>
	<g>
		<path class="st2" d="M87.8,113.7c-1.1,0-2-0.7-2.4-1.7l-6.6-21.2c-0.1-0.2-0.1-0.5-0.1-0.7c0-1.1,0.7-2.1,1.7-2.4L144,67.8
			c0.2-0.1,0.5-0.1,0.7-0.1c1.1,0,2.1,0.7,2.4,1.7l6.6,21.2c0.1,0.2,0.1,0.5,0.1,0.7c0,1.1-0.7,2.1-1.7,2.4l-0.1,0l-63.5,19.8
			C88.2,113.6,88,113.7,87.8,113.7C87.8,113.7,87.8,113.7,87.8,113.7z M144.7,70L81.1,89.8C81,89.8,81,89.9,81,90c0,0,0,0,0,0.1
			l6.6,21.2c0,0.1,0.1,0.1,0.2,0.1c0,0,0,0,0.1,0l63.6-19.8c0.1,0,0.1-0.1,0.1-0.2c0,0,0,0,0,0l-6.6-21.2
			C144.9,70,144.8,70,144.7,70C144.7,70,144.7,70,144.7,70z"/>
	</g>
	<g>
		<path class="st5" d="M142.8,134.9l-65-14.6c-1.9-0.4-3.2-2.4-2.7-4.3L80,94.3c0.4-1.9,2.4-3.2,4.3-2.7l65,14.6
			c1.9,0.4,3.2,2.4,2.7,4.3l-4.9,21.7C146.7,134.1,144.7,135.3,142.8,134.9"/>
	</g>
	<g>
		<path class="st2" d="M143.9,133.6C143.9,133.6,143.9,133.6,143.9,133.6c-0.2,0-0.3,0-0.5-0.1l-0.5-0.1l0,0l-64.5-14.5
			c-1.1-0.2-1.9-1.3-1.9-2.4c0-0.2,0-0.3,0.1-0.5l4.9-21.7c0.2-1.1,1.3-2,2.4-1.9c0.2,0,0.3,0,0.5,0.1l65,14.6
			c1.1,0.2,1.9,1.3,1.9,2.4c0,0.2,0,0.3-0.1,0.5l0,0l-4.9,21.6C146,132.8,145,133.6,143.9,133.6z M143.8,131.3
			C143.8,131.3,143.9,131.3,143.8,131.3L143.8,131.3C143.9,131.3,143.9,131.3,143.8,131.3c0.1,0,0.2-0.1,0.2-0.1l0,0l4.9-21.6
			c0,0,0-0.1,0-0.1c0-0.1-0.1-0.2-0.1-0.2l0,0l-65-14.6c0,0,0,0,0,0c-0.1,0-0.2,0.1-0.2,0.1l0,0l-4.9,21.7c0,0,0,0,0,0
			c0,0.1,0.1,0.2,0.1,0.2l0,0L143.8,131.3z"/>
	</g>
	<g>
		<path class="st6" d="M84.3,95.1c0,22.1-17.9,39.9-39.9,39.9c-22.1,0-40-17.9-40-39.9c0-22.1,17.9-40,40-40
			C66.4,55.2,84.3,73,84.3,95.1"/>
	</g>
	<g>
		<g>
			<path class="st7" d="M33.7,89.6c0.7,0.7,1.7,1.1,2.7,1.1c1,0,1.9-0.4,2.7-1.1L66.7,62c-2.2-1.5-4.5-2.7-6.9-3.7l-26,26
				C32.3,85.7,32.3,88.1,33.7,89.6z"/>
		</g>
		<g>
			<path class="st7" d="M68.7,63.5L50.6,81.6c-1.5,1.5-1.5,3.9,0,5.3c0.7,0.7,1.7,1.1,2.7,1.1c1,0,1.9-0.4,2.7-1.1l18.3-18.3
				C72.6,66.7,70.7,65,68.7,63.5z"/>
		</g>
		<g>
			<path class="st7" d="M33.2,106.1c-1-1-2.6-1-3.6,0l-15.3,15.3c1.1,1.3,2.3,2.5,3.5,3.6l15.3-15.3
				C34.1,108.7,34.1,107.1,33.2,106.1z"/>
		</g>
		<g>
			<path class="st7" d="M50,103.5c-1-1-2.6-1-3.6,0l-24.6,24.6c1.4,1,2.9,1.9,4.5,2.6L50,107C51,106.1,51,104.5,50,103.5z"/>
		</g>
	</g>
	<g>
		<path class="st8" d="M14.9,116.3C14.9,116.3,14.8,116.2,14.9,116.3c-0.4-0.5-0.6-0.9-0.9-1.3c-0.4-0.7-0.3-1.5,0.4-2
			c0.7-0.4,1.5-0.3,2,0.4c0.3,0.4,0.5,0.8,0.8,1.1c0.5,0.6,0.3,1.5-0.3,2C16.2,117,15.4,116.9,14.9,116.3z M18.6,120.7
			c-0.5-0.6-0.4-1.4,0.1-1.9c0.6-0.6,1.5-0.6,2,0c0.3,0.3,0.7,0.6,1,1c0.6,0.5,0.6,1.4,0.1,2c-0.5,0.6-1.4,0.6-2,0.1
			C19.4,121.5,19,121.1,18.6,120.7C18.6,120.7,18.6,120.7,18.6,120.7z M11.3,110.1c-0.1-0.1-0.2-0.2-0.2-0.3
			c-0.2-0.5-0.4-0.9-0.6-1.4c-0.3-0.7,0.1-1.6,0.8-1.9c0.7-0.3,1.6,0.1,1.9,0.8c0.2,0.4,0.3,0.9,0.5,1.3c0.3,0.7,0,1.6-0.7,1.9
			C12.4,110.7,11.7,110.6,11.3,110.1z M24.1,125.2c-0.4-0.5-0.4-1.2-0.1-1.7c0.4-0.7,1.3-0.8,2-0.4c0.4,0.2,0.8,0.5,1.2,0.7
			c0.7,0.4,0.9,1.3,0.5,2c-0.4,0.7-1.3,0.9-2,0.5c-0.4-0.3-0.8-0.5-1.3-0.8C24.3,125.4,24.2,125.3,24.1,125.2z M9.1,103.3
			c-0.1-0.2-0.2-0.4-0.3-0.6c-0.1-0.5-0.2-1-0.3-1.5c-0.1-0.8,0.4-1.5,1.2-1.7c0.8-0.1,1.5,0.4,1.7,1.2c0.1,0.4,0.2,0.9,0.3,1.3
			c0.2,0.8-0.3,1.5-1.1,1.7C10,103.9,9.5,103.7,9.1,103.3z M30.5,128.5c-0.3-0.4-0.4-0.9-0.2-1.4c0.3-0.7,1.1-1.1,1.9-0.8
			c0.4,0.2,0.9,0.3,1.3,0.5c0.7,0.3,1.1,1.1,0.9,1.8c-0.3,0.7-1.1,1.1-1.8,0.9c-0.5-0.2-0.9-0.3-1.4-0.5
			C30.8,128.8,30.6,128.6,30.5,128.5z M8.4,96.2C8.2,95.9,8,95.6,8,95.3c0-0.5,0-1,0-1.5c0-0.8,0.7-1.4,1.5-1.4
			c0.8,0,1.4,0.7,1.4,1.5c0,0.5,0,0.9,0,1.4c0,0.8-0.6,1.4-1.4,1.4C9,96.7,8.6,96.5,8.4,96.2z M37.4,130.4c-0.3-0.3-0.4-0.7-0.3-1.2
			c0.1-0.8,0.9-1.3,1.7-1.2c0.4,0.1,0.9,0.1,1.4,0.2c0.8,0.1,1.3,0.8,1.2,1.6c-0.1,0.8-0.8,1.3-1.6,1.2c-0.5-0.1-1-0.1-1.5-0.2
			C37.9,130.8,37.6,130.6,37.4,130.4z M9.1,89.1c-0.3-0.3-0.4-0.8-0.3-1.2c0.1-0.5,0.2-1,0.3-1.5c0.2-0.8,1-1.2,1.7-1
			c0.8,0.2,1.2,1,1,1.7c-0.1,0.4-0.2,0.9-0.3,1.3c-0.2,0.8-0.9,1.3-1.7,1.1C9.6,89.5,9.3,89.3,9.1,89.1z M44.5,130.8
			c-0.2-0.2-0.3-0.5-0.3-0.9c0-0.8,0.6-1.5,1.4-1.5c0.5,0,0.9,0,1.4-0.1c0.8-0.1,1.5,0.5,1.5,1.3c0.1,0.8-0.5,1.5-1.3,1.5
			c-0.5,0-1,0.1-1.5,0.1C45.2,131.4,44.8,131.2,44.5,130.8z M11.2,82.2c-0.3-0.4-0.4-1-0.2-1.5c0.2-0.5,0.4-0.9,0.6-1.4
			c0.3-0.7,1.2-1,1.9-0.7c0.7,0.3,1,1.2,0.7,1.9c-0.2,0.4-0.4,0.8-0.6,1.2c-0.3,0.7-1.2,1.1-1.9,0.8C11.5,82.5,11.3,82.4,11.2,82.2z
			 M51.6,129.9c-0.1-0.2-0.2-0.4-0.3-0.6c-0.2-0.8,0.3-1.5,1-1.7c0.4-0.1,0.9-0.2,1.3-0.4c0.8-0.2,1.6,0.2,1.8,1
			c0.2,0.8-0.2,1.6-1,1.8c-0.5,0.1-1,0.3-1.4,0.4C52.5,130.5,51.9,130.3,51.6,129.9z M14.7,76c-0.4-0.5-0.5-1.2-0.1-1.7
			c0.3-0.4,0.6-0.8,0.9-1.2c0.5-0.6,1.4-0.7,2-0.3c0.6,0.5,0.7,1.4,0.3,2c-0.3,0.4-0.5,0.7-0.8,1.1c-0.5,0.6-1.3,0.8-2,0.3
			C14.9,76.2,14.8,76.1,14.7,76z M58.3,127.4c-0.1-0.1-0.1-0.2-0.2-0.3c-0.3-0.7,0-1.6,0.7-1.9c0.4-0.2,0.8-0.4,1.2-0.6
			c0.7-0.4,1.6-0.1,1.9,0.6c0.4,0.7,0.1,1.6-0.6,1.9c-0.4,0.2-0.9,0.5-1.3,0.7C59.4,128.1,58.7,127.9,58.3,127.4z M19.4,70.6
			c-0.5-0.6-0.4-1.4,0.1-2c0.4-0.3,0.7-0.7,1.1-1c0.6-0.5,1.5-0.5,2,0.1c0,0,0,0,0,0c0.5,0.6,0.4,1.5-0.2,2c-0.3,0.3-0.7,0.6-1,0.9
			C20.9,71.3,20,71.2,19.4,70.6C19.4,70.6,19.4,70.6,19.4,70.6z M64.4,123.7C64.4,123.7,64.4,123.7,64.4,123.7
			c-0.5-0.7-0.4-1.6,0.2-2.1c0.4-0.3,0.7-0.6,1.1-0.9c0.5-0.4,1.2-0.4,1.7-0.1c-0.3-0.5-0.2-1.2,0.3-1.7c0.3-0.3,0.7-0.6,1-1
			c0.5-0.6,1.5-0.6,2-0.1c0.6,0.5,0.6,1.5,0.1,2c-0.3,0.4-0.7,0.7-1,1.1c-0.5,0.5-1.2,0.5-1.8,0.2c0.3,0.6,0.2,1.3-0.4,1.8
			c-0.4,0.3-0.8,0.6-1.2,0.9C65.8,124.4,64.9,124.3,64.4,123.7z M25.1,66.3c0-0.1-0.1-0.1-0.1-0.2c-0.4-0.7-0.2-1.6,0.5-2
			c0.4-0.3,0.9-0.5,1.3-0.8c0.7-0.4,1.6-0.1,1.9,0.6c0.4,0.7,0.1,1.6-0.6,1.9c-0.4,0.2-0.8,0.5-1.2,0.7
			C26.3,66.9,25.5,66.8,25.1,66.3z M72.2,115.5c-0.4-0.5-0.5-1.2-0.1-1.7c0.3-0.4,0.5-0.8,0.7-1.2c0.4-0.7,1.3-0.9,2-0.5
			c0.7,0.4,0.9,1.3,0.5,2c-0.3,0.4-0.5,0.8-0.8,1.3c-0.4,0.7-1.3,0.8-2,0.4C72.4,115.7,72.2,115.6,72.2,115.5z M31.5,63.2
			c-0.1-0.1-0.2-0.3-0.2-0.4c-0.3-0.7,0.1-1.6,0.9-1.8c0.5-0.2,0.9-0.3,1.4-0.5c0.8-0.2,1.6,0.2,1.8,0.9c0.2,0.8-0.2,1.6-0.9,1.8
			c-0.4,0.1-0.9,0.3-1.3,0.4C32.5,63.8,31.9,63.6,31.5,63.2z M75.5,109.2c-0.3-0.4-0.4-0.9-0.2-1.5c0.2-0.4,0.3-0.9,0.5-1.3
			c0.3-0.7,1.1-1.1,1.8-0.9c0.7,0.3,1.1,1.1,0.9,1.8c-0.2,0.5-0.3,0.9-0.5,1.4c-0.3,0.7-1.1,1.1-1.9,0.8
			C75.9,109.5,75.7,109.3,75.5,109.2z M38.5,61.5c-0.2-0.2-0.3-0.4-0.3-0.7c-0.1-0.8,0.4-1.5,1.2-1.6c0.5-0.1,1-0.1,1.5-0.2
			c0.8-0.1,1.5,0.5,1.6,1.3c0.1,0.8-0.5,1.5-1.3,1.6c-0.5,0-0.9,0.1-1.4,0.2C39.2,62,38.8,61.8,38.5,61.5z M77.5,102.3
			c-0.3-0.3-0.4-0.7-0.3-1.2c0.1-0.4,0.2-0.9,0.2-1.4c0.1-0.8,0.8-1.3,1.6-1.2c0.8,0.1,1.3,0.8,1.2,1.6c-0.1,0.5-0.1,1-0.2,1.5
			c-0.1,0.8-0.9,1.3-1.7,1.2C78,102.7,77.7,102.5,77.5,102.3z M45.6,61.2c-0.2-0.3-0.4-0.6-0.3-1c0.1-0.8,0.7-1.4,1.5-1.3
			c0.3,0,0.6,0,0.9,0.1c0.2,0,0.4,0,0.6,0.1c0.8,0.1,1.4,0.8,1.3,1.6c-0.1,0.8-0.8,1.4-1.6,1.3c-0.2,0-0.4,0-0.6-0.1
			c-0.3,0-0.5,0-0.8-0.1C46.2,61.7,45.8,61.5,45.6,61.2z M78.1,95.2c-0.2-0.2-0.3-0.5-0.3-0.9c0-0.5,0-0.9-0.1-1.4
			c-0.1-0.8,0.5-1.5,1.3-1.5c0.8-0.1,1.5,0.5,1.5,1.3c0,0.5,0.1,1,0.1,1.5c0,0.8-0.6,1.4-1.4,1.5C78.8,95.7,78.4,95.5,78.1,95.2z
			 M52.6,62.4c-0.3-0.3-0.4-0.8-0.3-1.3c0.2-0.8,1-1.2,1.8-1c0.5,0.1,1,0.3,1.4,0.4c0.8,0.2,1.2,1.1,0.9,1.8
			c-0.2,0.8-1.1,1.2-1.8,0.9c-0.4-0.1-0.9-0.3-1.3-0.4C53.1,62.8,52.8,62.7,52.6,62.4z M77.2,88.1c-0.1-0.2-0.2-0.4-0.3-0.6
			c-0.1-0.4-0.2-0.9-0.3-1.3c-0.2-0.8,0.2-1.6,1-1.8c0.8-0.2,1.6,0.2,1.8,1c0.1,0.5,0.3,1,0.4,1.4c0.2,0.8-0.3,1.5-1.1,1.7
			C78.1,88.7,77.5,88.5,77.2,88.1z M59.3,65.1c-0.4-0.4-0.4-1-0.2-1.6c0.4-0.7,1.2-1,1.9-0.6c0.4,0.2,0.9,0.5,1.3,0.7
			c0.7,0.4,0.9,1.3,0.5,2c-0.4,0.7-1.3,0.9-2,0.5c-0.4-0.2-0.8-0.4-1.2-0.7C59.6,65.3,59.4,65.2,59.3,65.1z M74.9,81.3
			c-0.1-0.1-0.1-0.2-0.2-0.3c-0.2-0.4-0.4-0.8-0.6-1.2c-0.4-0.7-0.1-1.6,0.6-1.9c0.7-0.4,1.6-0.1,1.9,0.6c0.2,0.4,0.4,0.9,0.7,1.3
			c0.3,0.7,0,1.6-0.7,1.9C76,82,75.3,81.8,74.9,81.3z M65.3,69c-0.4-0.5-0.4-1.3,0-1.8c0.5-0.6,1.4-0.7,2-0.2c0.4,0.3,0.8,0.6,1.1,1
			c0.6,0.5,0.6,1.4,0.1,2c-0.5,0.6-1.4,0.6-2,0.1c-0.3-0.3-0.7-0.6-1-0.9C65.4,69.1,65.3,69,65.3,69z M71.2,75.2
			C71.2,75.2,71.2,75.1,71.2,75.2c-0.3-0.4-0.6-0.8-0.9-1.1c-0.5-0.6-0.4-1.5,0.2-2c0.6-0.5,1.5-0.4,2,0.2c0,0,0,0,0,0
			c0.3,0.4,0.6,0.8,0.9,1.2c0.5,0.6,0.3,1.5-0.3,2C72.5,75.9,71.7,75.8,71.2,75.2z"/>
	</g>
	<g>
		<g>
			<path class="st8" d="M36.1,101.7c0.5-0.7,1.2-1,2.1-1c0.4,0,0.8,0.1,1.2,0.2c0.4,0.2,0.9,0.3,1.4,0.5c0.5,0.2,1.1,0.4,1.7,0.5
				c0.6,0.2,1.3,0.2,2.1,0.2c1.2,0,2-0.2,2.5-0.7c0.5-0.5,0.7-1,0.7-1.6c0-0.5-0.1-0.9-0.4-1.2c-0.3-0.3-0.7-0.6-1.2-0.8
				c-0.5-0.2-1.1-0.4-1.8-0.6c-0.7-0.2-1.5-0.4-2.3-0.7c-0.8-0.2-1.5-0.5-2.3-0.8c-0.8-0.3-1.4-0.7-2-1.2c-0.6-0.5-1.1-1.1-1.4-1.9
				c-0.4-0.8-0.6-1.7-0.6-2.8c0-1.4,0.3-2.5,0.8-3.5c0.5-1,1.2-1.8,2.1-2.5c0.9-0.7,1.9-1.1,3-1.5c1.1-0.3,2.3-0.5,3.6-0.5
				c2.4,0,4.3,0.4,5.5,1.1c1.3,0.7,1.9,1.7,1.9,2.8c0,0.8-0.2,1.5-0.7,2c-0.5,0.5-1.1,0.8-1.9,0.8c-0.5,0-0.9,0-1.2-0.1
				c-0.4-0.1-0.7-0.2-1.1-0.4c-0.4-0.1-0.8-0.3-1.2-0.4c-0.4-0.1-1-0.1-1.6-0.1c-0.8,0-1.5,0.2-2,0.6c-0.5,0.4-0.8,0.9-0.8,1.5
				c0,0.4,0.1,0.6,0.3,0.9c0.2,0.2,0.5,0.4,1,0.6c0.4,0.2,1,0.4,1.7,0.6c0.7,0.2,1.6,0.5,2.6,0.8c0.8,0.3,1.6,0.6,2.4,0.9
				c0.8,0.3,1.4,0.8,2.1,1.4c0.6,0.6,1.1,1.2,1.4,2c0.4,0.8,0.5,1.8,0.5,3c0,1.4-0.3,2.7-0.8,3.7c-0.5,1-1.2,1.9-2.1,2.6
				c-0.9,0.7-2,1.2-3.2,1.5c-1.2,0.3-2.5,0.5-3.9,0.5c-0.9,0-1.8-0.1-2.9-0.3c-1-0.2-2-0.4-2.9-0.8c-0.9-0.4-1.6-0.8-2.2-1.3
				c-0.6-0.5-0.9-1.2-0.9-1.9C35.4,103,35.6,102.3,36.1,101.7z"/>
		</g>
	</g>
	<g>
		<path class="st8" d="M44.6,115.3c-0.9,0-1.7-0.8-1.7-1.7V77.5c0-0.9,0.8-1.7,1.7-1.7c0.9,0,1.7,0.8,1.7,1.7v36.1
			C46.3,114.5,45.5,115.3,44.6,115.3z"/>
	</g>
	<g>
		<path class="st9" d="M66.7,148c0.6-0.6,1.7-0.6,2.3,0c0.6,0.6,0.6,1.7,0,2.3l-7.1,7.1c1.2,0.4,2.4,0.7,3.7,1l12.1-12.1
			c0.6-0.6,1.7-0.6,2.3,0c0.6,0.6,0.6,1.7,0,2.3l-10.5,10.5c3.4,0.6,6.9,0.8,10.4,0.8c3.3,0,6.5-0.2,9.6-0.7
			c-0.3-0.5-0.1-1.1,0.3-1.4c0.3-0.3,0.7-0.5,1-0.8c0.5-0.4,1.2-0.4,1.6,0.1c0.4,0.5,0.4,1.2-0.1,1.6c0,0-0.1,0.1-0.1,0.1
			c1.3-0.3,2.7-0.6,4-0.9c4-4.6,6.4-10.6,6.4-17.1c0-14.5-11.7-26.2-26.2-26.2c-14.5,0-26.2,11.7-26.2,26.2c0,5,1.4,9.8,3.9,13.8
			c1.4,0.6,2.9,1.2,4.4,1.7L66.7,148z M95.8,155c-0.3,0.4-0.6,0.8-0.9,1.1c-0.2,0.3-0.5,0.4-0.9,0.4c-0.3,0-0.5-0.1-0.7-0.3
			c-0.5-0.4-0.5-1.1-0.1-1.6c0.3-0.3,0.5-0.7,0.8-1c0.4-0.5,1.1-0.6,1.6-0.2C96,153.8,96.2,154.5,95.8,155z M98.3,150.6
			c-0.2,0.4-0.4,0.9-0.6,1.3c-0.2,0.4-0.6,0.6-1,0.6c-0.2,0-0.4,0-0.5-0.1c-0.6-0.3-0.8-1-0.5-1.5c0.2-0.4,0.4-0.8,0.6-1.2
			c0.3-0.6,0.9-0.8,1.5-0.6C98.3,149.4,98.6,150,98.3,150.6z M99.9,145.8c-0.1,0.5-0.2,0.9-0.3,1.4c-0.1,0.5-0.6,0.8-1.1,0.8
			c-0.1,0-0.2,0-0.3,0c-0.6-0.2-1-0.8-0.8-1.4c0.1-0.4,0.2-0.8,0.3-1.3c0.1-0.6,0.7-1,1.3-0.9C99.6,144.6,100,145.2,99.9,145.8z
			 M100.4,142.2c0,0.6-0.5,1.1-1.1,1.1c0,0,0,0-0.1,0c-0.6,0-1.1-0.6-1.1-1.2c0-0.4,0-0.9,0-1.3c0-0.6,0.5-1.1,1.1-1.1
			s1.1,0.5,1.1,1.1C100.4,141.3,100.4,141.7,100.4,142.2z M100.1,136.7c0.1,0.5,0.1,0.9,0.2,1.4c0.1,0.6-0.4,1.2-1,1.3
			c0,0-0.1,0-0.1,0c-0.6,0-1.1-0.4-1.1-1c0-0.4-0.1-0.9-0.2-1.3c-0.1-0.6,0.3-1.2,0.9-1.3C99.4,135.7,100,136.1,100.1,136.7z
			 M98.7,131.8c0.2,0.4,0.3,0.9,0.5,1.3c0.2,0.6-0.1,1.2-0.7,1.4c-0.1,0-0.2,0.1-0.4,0.1c-0.5,0-0.9-0.3-1.1-0.8
			c-0.1-0.4-0.3-0.8-0.4-1.2c-0.2-0.6,0-1.2,0.6-1.5C97.8,131,98.5,131.2,98.7,131.8z M94.8,127.1c0.5-0.4,1.2-0.2,1.6,0.3
			c0.3,0.4,0.5,0.8,0.8,1.2c0.3,0.5,0.1,1.2-0.4,1.6c-0.2,0.1-0.4,0.2-0.6,0.2c-0.4,0-0.8-0.2-1-0.6c-0.2-0.4-0.5-0.7-0.7-1.1
			C94.1,128.1,94.2,127.4,94.8,127.1z M91.5,123.5c0.4-0.5,1.2-0.5,1.6,0c0.1,0.1,0.2,0.2,0.3,0.3c0.2,0.2,0.5,0.5,0.7,0.7
			c0.4,0.5,0.4,1.2-0.1,1.6c-0.2,0.2-0.5,0.3-0.8,0.3c-0.3,0-0.6-0.1-0.8-0.4c-0.2-0.2-0.4-0.4-0.6-0.7c-0.1-0.1-0.2-0.2-0.3-0.3
			C91.1,124.7,91,124,91.5,123.5z M87.5,120.7c0.3-0.5,1-0.7,1.6-0.4c0.4,0.3,0.8,0.5,1.2,0.8c0.5,0.4,0.6,1.1,0.3,1.6
			c-0.2,0.3-0.6,0.5-0.9,0.5c-0.2,0-0.5-0.1-0.7-0.2c-0.4-0.2-0.7-0.5-1.1-0.7C87.4,122,87.2,121.3,87.5,120.7z M83.1,118.9
			c0.2-0.6,0.9-0.9,1.5-0.7c0.4,0.2,0.9,0.3,1.3,0.5c0.6,0.2,0.8,0.9,0.6,1.5c-0.2,0.4-0.6,0.7-1,0.7c-0.2,0-0.3,0-0.4-0.1
			c-0.4-0.2-0.8-0.3-1.2-0.5C83.2,120.1,82.9,119.4,83.1,118.9z M78.4,117.9c0.1-0.6,0.7-1.1,1.3-1c0.5,0.1,0.9,0.1,1.4,0.2
			c0.6,0.1,1,0.7,0.9,1.3c-0.1,0.5-0.6,0.9-1.1,0.9c-0.1,0-0.1,0-0.2,0c-0.4-0.1-0.8-0.2-1.3-0.2C78.7,119.1,78.3,118.6,78.4,117.9z
			 M74.6,116.8c0.5,0,1-0.1,1.4-0.1c0,0,0,0,0,0c0.6,0,1.1,0.5,1.1,1.1c0,0.6-0.5,1.1-1.1,1.2c-0.4,0-0.9,0-1.3,0.1c0,0-0.1,0-0.1,0
			c-0.6,0-1.1-0.5-1.1-1.1C73.5,117.4,74,116.9,74.6,116.8z M69.6,117.7c0.5-0.1,0.9-0.3,1.4-0.4c0.6-0.1,1.2,0.2,1.4,0.9
			c0.1,0.6-0.2,1.2-0.9,1.4c-0.4,0.1-0.8,0.2-1.2,0.3c-0.1,0-0.2,0-0.3,0c-0.5,0-0.9-0.3-1.1-0.8C68.7,118.5,69,117.9,69.6,117.7z
			 M64.9,119.7c0.4-0.2,0.8-0.4,1.3-0.6c0.6-0.3,1.2,0,1.5,0.5c0.3,0.6,0,1.2-0.5,1.5c-0.4,0.2-0.8,0.4-1.2,0.6
			c-0.2,0.1-0.4,0.1-0.5,0.1c-0.4,0-0.8-0.2-1-0.6C64.2,120.6,64.4,120,64.9,119.7z M60.8,122.5c0.4-0.3,0.7-0.6,1.1-0.9
			c0.5-0.4,1.2-0.3,1.6,0.2c0.4,0.5,0.3,1.2-0.2,1.6c-0.3,0.3-0.7,0.5-1,0.8c-0.2,0.2-0.5,0.3-0.7,0.3c-0.3,0-0.6-0.1-0.9-0.4
			C60.2,123.6,60.3,122.9,60.8,122.5z M57.3,126.2c0.3-0.4,0.6-0.7,0.9-1.1c0.4-0.5,1.1-0.5,1.6-0.1s0.5,1.1,0.1,1.6
			c-0.3,0.3-0.6,0.7-0.8,1c-0.2,0.3-0.6,0.4-0.9,0.4c-0.2,0-0.5-0.1-0.7-0.2C57,127.4,56.9,126.7,57.3,126.2z M54.7,130.5
			c0.2-0.4,0.4-0.9,0.6-1.3c0.3-0.6,1-0.8,1.5-0.5c0.6,0.3,0.8,1,0.5,1.5c-0.2,0.4-0.4,0.8-0.6,1.2c-0.2,0.4-0.6,0.7-1,0.7
			c-0.2,0-0.3,0-0.5-0.1C54.6,131.8,54.4,131.1,54.7,130.5z M53,135.3c0.1-0.5,0.2-0.9,0.4-1.4c0.2-0.6,0.8-0.9,1.4-0.8
			c0.6,0.2,0.9,0.8,0.8,1.4c-0.1,0.4-0.2,0.8-0.3,1.2c-0.1,0.5-0.6,0.9-1.1,0.9c-0.1,0-0.2,0-0.3,0C53.2,136.5,52.9,135.9,53,135.3z
			 M52.4,138.9c0-0.6,0.6-1.1,1.2-1c0.6,0,1.1,0.6,1,1.2c0,0.4-0.1,0.9-0.1,1.3c0,0.6-0.5,1.1-1.1,1.1c0,0,0,0,0,0
			c-0.6,0-1.1-0.5-1.1-1.2C52.4,139.8,52.4,139.3,52.4,138.9z M52.8,145.3c-0.1-0.5-0.2-0.9-0.2-1.4c-0.1-0.6,0.4-1.2,1-1.3
			c0.6-0.1,1.2,0.4,1.3,1c0.1,0.4,0.1,0.9,0.2,1.3c0.1,0.6-0.3,1.2-0.9,1.3c-0.1,0-0.1,0-0.2,0C53.4,146.3,52.9,145.9,52.8,145.3z
			 M55.3,150.9c-0.4,0-0.9-0.3-1-0.7c-0.2-0.4-0.4-0.9-0.5-1.3c-0.2-0.6,0.1-1.2,0.7-1.5c0.6-0.2,1.2,0.1,1.5,0.7
			c0.1,0.4,0.3,0.8,0.5,1.2c0.2,0.6,0,1.2-0.6,1.5C55.6,150.8,55.5,150.9,55.3,150.9z M56.7,154.6c-0.3-0.4-0.5-0.8-0.8-1.2
			c-0.3-0.5-0.2-1.2,0.4-1.6c0.5-0.3,1.2-0.2,1.6,0.4c0.2,0.4,0.5,0.7,0.7,1.1c0.4,0.5,0.2,1.2-0.3,1.6c-0.2,0.1-0.4,0.2-0.7,0.2
			C57.3,155.1,57,154.9,56.7,154.6z"/>
		<path class="st10" d="M69,148c-0.6-0.6-1.7-0.6-2.3,0l-8.3,8.3c0.1,0,0.2,0.1,0.3,0.1c0-0.2,0.2-0.4,0.3-0.6
			c0.5-0.4,1.2-0.4,1.6,0c0.1,0.1,0.2,0.2,0.3,0.3c0.2,0.2,0.4,0.4,0.6,0.6c0.2,0.2,0.3,0.4,0.4,0.7l0,0l7.1-7.1
			C69.7,149.7,69.7,148.7,69,148z"/>
		<path class="st10" d="M80.1,146.3c-0.6-0.6-1.7-0.6-2.3,0l-12.1,12.1c1.3,0.3,2.6,0.5,3.9,0.8l10.5-10.5
			C80.8,148,80.8,146.9,80.1,146.3z"/>
		<path class="st11" d="M91.8,125.4c0.2,0.2,0.4,0.4,0.6,0.7c0.2,0.2,0.5,0.4,0.8,0.4c0.3,0,0.6-0.1,0.8-0.3
			c0.5-0.4,0.5-1.1,0.1-1.6c-0.2-0.2-0.5-0.5-0.7-0.7c-0.1-0.1-0.2-0.2-0.3-0.3c-0.5-0.4-1.2-0.4-1.6,0c-0.4,0.5-0.4,1.2,0,1.6
			C91.6,125.2,91.7,125.3,91.8,125.4z"/>
		<path class="st11" d="M94.5,128.6c0.2,0.4,0.5,0.7,0.7,1.1c0.2,0.4,0.6,0.6,1,0.6c0.2,0,0.4-0.1,0.6-0.2c0.5-0.3,0.7-1,0.4-1.6
			c-0.2-0.4-0.5-0.8-0.8-1.2c-0.4-0.5-1.1-0.7-1.6-0.3C94.2,127.4,94.1,128.1,94.5,128.6z"/>
		<path class="st11" d="M96.6,132.7c0.2,0.4,0.3,0.8,0.4,1.2c0.2,0.5,0.6,0.8,1.1,0.8c0.1,0,0.2,0,0.4-0.1c0.6-0.2,0.9-0.8,0.7-1.4
			c-0.2-0.5-0.3-0.9-0.5-1.3c-0.2-0.6-0.9-0.9-1.5-0.6C96.6,131.4,96.4,132.1,96.6,132.7z"/>
		<path class="st11" d="M74.7,119.1C74.7,119.1,74.7,119.1,74.7,119.1c0.5,0,0.9-0.1,1.4-0.1c0.6,0,1.1-0.5,1.1-1.2
			c0-0.6-0.5-1.1-1.1-1.1c0,0,0,0,0,0c-0.5,0-1,0-1.4,0.1c-0.6,0-1.1,0.6-1,1.2C73.6,118.6,74.1,119.1,74.7,119.1z"/>
		<path class="st11" d="M87.9,122.3c0.4,0.2,0.7,0.5,1.1,0.7c0.2,0.1,0.4,0.2,0.7,0.2c0.4,0,0.7-0.2,0.9-0.5
			c0.4-0.5,0.2-1.2-0.3-1.6c-0.4-0.3-0.8-0.5-1.2-0.8c-0.5-0.3-1.2-0.2-1.6,0.4C87.2,121.3,87.4,122,87.9,122.3z"/>
		<path class="st11" d="M83.8,120.3c0.4,0.1,0.8,0.3,1.2,0.5c0.1,0.1,0.3,0.1,0.4,0.1c0.4,0,0.9-0.3,1-0.7c0.2-0.6,0-1.2-0.6-1.5
			c-0.4-0.2-0.9-0.4-1.3-0.5c-0.6-0.2-1.2,0.1-1.5,0.7C82.9,119.4,83.2,120.1,83.8,120.3z"/>
		<path class="st11" d="M99.3,139.6c-0.6,0-1.1,0.5-1.1,1.1c0,0.4,0,0.9,0,1.3c0,0.6,0.4,1.2,1.1,1.2c0,0,0,0,0.1,0
			c0.6,0,1.1-0.5,1.1-1.1c0-0.5,0-1,0-1.4C100.4,140.2,99.9,139.6,99.3,139.6z"/>
		<path class="st11" d="M95.5,153.4c-0.5-0.4-1.2-0.3-1.6,0.2c-0.3,0.3-0.5,0.7-0.8,1c-0.4,0.5-0.3,1.2,0.1,1.6
			c0.2,0.2,0.5,0.3,0.7,0.3c0.3,0,0.7-0.1,0.9-0.4c0.3-0.4,0.6-0.7,0.9-1.1C96.2,154.5,96,153.8,95.5,153.4z"/>
		<path class="st11" d="M97.8,149.1c-0.6-0.3-1.2,0-1.5,0.6c-0.2,0.4-0.4,0.8-0.6,1.2c-0.3,0.6-0.1,1.2,0.5,1.5
			c0.2,0.1,0.3,0.1,0.5,0.1c0.4,0,0.8-0.2,1-0.6c0.2-0.4,0.4-0.9,0.6-1.3C98.6,150,98.3,149.4,97.8,149.1z"/>
		<path class="st11" d="M98.8,135.8c-0.6,0.1-1,0.7-0.9,1.3c0.1,0.4,0.1,0.9,0.2,1.3c0.1,0.6,0.6,1,1.1,1c0,0,0.1,0,0.1,0
			c0.6-0.1,1.1-0.6,1-1.3c-0.1-0.5-0.1-0.9-0.2-1.4C100,136.1,99.4,135.7,98.8,135.8z"/>
		<path class="st11" d="M92.5,157.1c-0.4-0.5-1.1-0.5-1.6-0.1c-0.3,0.3-0.7,0.6-1,0.8c-0.4,0.3-0.6,1-0.3,1.4
			c0.9-0.1,1.8-0.3,2.7-0.5c0,0,0.1-0.1,0.1-0.1C92.8,158.3,92.9,157.6,92.5,157.1z"/>
		<path class="st11" d="M69.9,119.9c0.1,0,0.2,0,0.3,0c0.4-0.1,0.8-0.2,1.2-0.3c0.6-0.1,1-0.8,0.9-1.4c-0.1-0.6-0.8-1-1.4-0.9
			c-0.5,0.1-0.9,0.2-1.4,0.4c-0.6,0.2-0.9,0.8-0.8,1.4C69,119.6,69.4,119.9,69.9,119.9z"/>
		<path class="st11" d="M99,144.5c-0.6-0.1-1.2,0.3-1.3,0.9c-0.1,0.4-0.2,0.8-0.3,1.3c-0.2,0.6,0.2,1.2,0.8,1.4c0.1,0,0.2,0,0.3,0
			c0.5,0,1-0.3,1.1-0.8c0.1-0.5,0.2-0.9,0.3-1.4C100,145.2,99.6,144.6,99,144.5z"/>
		<path class="st11" d="M79.3,119.2c0.4,0.1,0.9,0.1,1.3,0.2c0.1,0,0.1,0,0.2,0c0.5,0,1-0.4,1.1-0.9c0.1-0.6-0.3-1.2-0.9-1.3
			c-0.5-0.1-0.9-0.2-1.4-0.2c-0.6-0.1-1.2,0.4-1.3,1C78.3,118.6,78.7,119.1,79.3,119.2z"/>
		<path class="st11" d="M56.4,149.3c-0.2-0.4-0.3-0.8-0.5-1.2c-0.2-0.6-0.9-0.9-1.5-0.7c-0.6,0.2-0.9,0.9-0.7,1.5
			c0.2,0.4,0.3,0.9,0.5,1.3c0.2,0.4,0.6,0.7,1,0.7c0.1,0,0.3,0,0.4-0.1C56.3,150.5,56.6,149.9,56.4,149.3z"/>
		<path class="st11" d="M54.1,146.2c0.6-0.1,1-0.7,0.9-1.3c-0.1-0.4-0.1-0.8-0.2-1.3c-0.1-0.6-0.7-1.1-1.3-1c-0.6,0.1-1.1,0.7-1,1.3
			c0.1,0.5,0.1,0.9,0.2,1.4c0.1,0.5,0.6,0.9,1.1,0.9C54,146.3,54.1,146.3,54.1,146.2z"/>
		<path class="st11" d="M58.6,153.3c-0.2-0.4-0.5-0.7-0.7-1.1c-0.3-0.5-1-0.7-1.6-0.4c-0.5,0.3-0.7,1-0.4,1.6
			c0.2,0.4,0.5,0.8,0.8,1.2c0.2,0.3,0.6,0.5,0.9,0.5c0.2,0,0.5-0.1,0.7-0.2C58.8,154.5,59,153.8,58.6,153.3z"/>
		<path class="st11" d="M53.5,141.5C53.5,141.5,53.5,141.5,53.5,141.5c0.6,0,1.1-0.5,1.2-1.1c0-0.4,0-0.9,0.1-1.3
			c0-0.6-0.4-1.2-1-1.2c-0.6,0-1.2,0.4-1.2,1c0,0.5-0.1,1-0.1,1.4C52.4,140.9,52.9,141.5,53.5,141.5z"/>
		<path class="st11" d="M57.5,127.8c0.2,0.2,0.4,0.2,0.7,0.2c0.3,0,0.7-0.2,0.9-0.4c0.3-0.3,0.5-0.7,0.8-1c0.4-0.5,0.4-1.2-0.1-1.6
			s-1.2-0.4-1.6,0.1c-0.3,0.4-0.6,0.7-0.9,1.1C56.9,126.7,57,127.4,57.5,127.8z"/>
		<path class="st11" d="M53.9,136.7c0.1,0,0.2,0,0.3,0c0.5,0,1-0.4,1.1-0.9c0.1-0.4,0.2-0.8,0.3-1.2c0.2-0.6-0.2-1.2-0.8-1.4
			c-0.6-0.2-1.2,0.2-1.4,0.8c-0.1,0.5-0.3,0.9-0.4,1.4C52.9,135.9,53.2,136.5,53.9,136.7z"/>
		<path class="st11" d="M61.5,124.5c0.3,0,0.5-0.1,0.7-0.3c0.3-0.3,0.7-0.6,1-0.8c0.5-0.4,0.6-1.1,0.2-1.6c-0.4-0.5-1.1-0.6-1.6-0.2
			c-0.4,0.3-0.8,0.6-1.1,0.9c-0.5,0.4-0.5,1.1-0.1,1.6C60.9,124.4,61.2,124.5,61.5,124.5z"/>
		<path class="st11" d="M65.5,121.8c0.2,0,0.4,0,0.5-0.1c0.4-0.2,0.8-0.4,1.2-0.6c0.6-0.3,0.8-0.9,0.5-1.5c-0.3-0.6-0.9-0.8-1.5-0.5
			c-0.4,0.2-0.9,0.4-1.3,0.6c-0.6,0.3-0.8,1-0.5,1.5C64.7,121.6,65.1,121.8,65.5,121.8z"/>
		<path class="st11" d="M55.2,132c0.2,0.1,0.3,0.1,0.5,0.1c0.4,0,0.8-0.2,1-0.7c0.2-0.4,0.4-0.8,0.6-1.2c0.3-0.6,0.1-1.2-0.5-1.5
			c-0.6-0.3-1.2-0.1-1.5,0.5c-0.2,0.4-0.4,0.8-0.6,1.3C54.4,131.1,54.6,131.8,55.2,132z"/>
		<path class="st11" d="M61.6,156.7c-0.2-0.2-0.4-0.4-0.6-0.6c-0.1-0.1-0.2-0.2-0.3-0.3c-0.4-0.5-1.2-0.5-1.6,0
			c-0.2,0.2-0.3,0.4-0.3,0.6c1.1,0.4,2.1,0.7,3.2,1C61.9,157.2,61.8,156.9,61.6,156.7z"/>
		<polygon class="st12" points="62,157.4 62,157.4 62,157.4 		"/>
	</g>
	<g>
		<g>
			<path class="st13" d="M70.2,137.7c0.4-0.9,0.9-1.7,1.5-2.4c0.7-0.7,1.4-1.2,2.4-1.6c0.9-0.4,2-0.6,3.1-0.6c0.5,0,1.1,0,1.6,0.1
				c0.5,0.1,1,0.2,1.5,0.4c0.4,0.2,0.8,0.4,1.1,0.7c0.3,0.3,0.4,0.7,0.4,1.1c0,0.2,0,0.4-0.1,0.6c-0.1,0.2-0.2,0.4-0.3,0.5
				c-0.1,0.2-0.3,0.3-0.5,0.4c-0.2,0.1-0.4,0.1-0.6,0.1c-0.2,0-0.4,0-0.6-0.1c-0.2-0.1-0.4-0.2-0.7-0.2c-0.2-0.1-0.5-0.2-0.8-0.2
				c-0.3-0.1-0.6-0.1-0.9-0.1c-0.7,0-1.3,0.1-1.8,0.4c-0.5,0.2-0.9,0.6-1.2,1c-0.3,0.4-0.5,0.8-0.7,1.4c-0.1,0.5-0.2,1-0.2,1.6
				c0,0.6,0.1,1.1,0.2,1.6c0.2,0.5,0.4,0.9,0.7,1.3c0.3,0.4,0.7,0.7,1.1,0.9c0.4,0.2,1,0.3,1.6,0.3c0.5,0,1,0,1.3-0.1
				c0.3-0.1,0.6-0.2,0.9-0.2c0.2-0.1,0.4-0.2,0.6-0.2c0.2-0.1,0.4-0.1,0.6-0.1c0.3,0,0.6,0.1,0.8,0.2c0.2,0.1,0.4,0.3,0.5,0.4
				c0.1,0.2,0.2,0.3,0.2,0.5c0,0.2,0,0.3,0,0.4c0,0.5-0.2,0.9-0.5,1.2c-0.3,0.3-0.7,0.6-1.2,0.8c-0.5,0.2-1,0.4-1.6,0.4
				c-0.6,0.1-1.1,0.1-1.5,0.1c-1.2,0-2.2-0.2-3.2-0.6c-0.9-0.4-1.7-0.9-2.3-1.6c-0.6-0.7-1.1-1.5-1.4-2.4c-0.3-0.9-0.5-1.9-0.5-2.9
				C69.7,139.7,69.8,138.7,70.2,137.7z"/>
		</g>
	</g>
	<g>
		<path class="st13" d="M76.7,152c-0.8,0-1.4-0.6-1.4-1.4V132c0-0.8,0.6-1.4,1.4-1.4c0.8,0,1.4,0.6,1.4,1.4v18.6
			C78.1,151.4,77.4,152,76.7,152z"/>
	</g>
</g>
</svg>