<svg version="1.1" id="Layer_1" xmlns="http://www.w3.org/2000/svg" xmlns:xlink="http://www.w3.org/1999/xlink" x="0px" y="0px"
	 viewBox="0 0 160 160" style="enable-background:new 0 0 160 160;" xml:space="preserve">
<g>
	<g>
		<g>
			<path class="st0" d="M143.3,87c-1.9-14-8.3-26.3-17.4-35.8l10.4,74.9C142.6,114.5,145.3,101,143.3,87z"/>
		</g>
		<g>
			<path class="st0" d="M16.2,104.6c2.2,15.8,10,29.5,21,39.3L25.7,61.1C17.7,73.6,14,88.8,16.2,104.6z"/>
		</g>
		<g>
			<path class="st1" d="M70.9,32.2c21.1-2.9,41.3,4.8,55,19l-3.7-26.6c-0.2-1.8-1.9-3.1-3.7-2.8L25.4,34.7c-1.8,0.2-3.1,1.9-2.8,3.7
				l3.1,22.7C35.5,45.9,51.6,34.9,70.9,32.2z"/>
		</g>
		<g>
			<path class="st1" d="M55.3,155.2l-0.9-6.2c-0.1-1,0.6-1.9,1.5-2l8.4-1.2c1-0.1,1.9,0.6,2,1.5l1.2,8.4c0.1,1-0.6,1.9-1.5,2L64,158
				c7.8,2,16.1,2.5,24.6,1.3c21.1-2.9,38.4-15.8,47.8-33.3L126,51.2c-13.8-14.2-33.9-21.9-55-19c-19.3,2.7-35.4,13.7-45.2,28.9
				l11.5,82.8C42.6,148.6,48.7,152.4,55.3,155.2z"/>
		</g>
		<g>
			<path class="st2" d="M67.6,155.7l-1.2-8.4c-0.1-1-1.1-1.7-2-1.5l-8.4,1.2c-1,0.1-1.7,1.1-1.5,2l0.9,6.2c2.8,1.2,5.7,2.1,8.6,2.9
				l2.1-0.3C67.1,157.6,67.8,156.7,67.6,155.7z"/>
		</g>
	</g>
	<g>
		<polygon class="st3" points="102.4,15.2 108,11.5 109.9,17.9 116.6,18.2 114.4,24.5 119.6,28.7 114.2,32.6 115.9,39 109.3,38.9 
			106.9,45.1 101.5,41.1 96,44.8 94,38.4 87.3,38.1 89.5,31.8 84.3,27.6 89.7,23.8 88,17.3 94.7,17.4 97,11.2 		"/>
	</g>
	<g>
		<g>
			<path class="st4" d="M58.8,48.4c-0.6-0.1-1.1-0.5-1.2-1.1c-0.1-0.7,0.4-1.4,1.1-1.5l44.3-6.2c0.7-0.1,1.4,0.4,1.5,1.1
				c0.1,0.7-0.4,1.4-1.1,1.5l-44.3,6.2C59,48.4,58.9,48.4,58.8,48.4z"/>
		</g>
		<g>
			<path class="st4" d="M59.5,53.4c-0.6-0.1-1.1-0.5-1.2-1.1c-0.1-0.7,0.4-1.4,1.1-1.5l21.5-3c0.7-0.1,1.4,0.4,1.5,1.1
				c0.1,0.7-0.4,1.4-1.1,1.5l-21.5,3C59.7,53.4,59.6,53.4,59.5,53.4z"/>
		</g>
		<g>
			<path class="st2" d="M52,56.5l-8.4,1.2c-1,0.1-1.9-0.6-2-1.5l-1.2-8.4c-0.1-1,0.6-1.9,1.5-2l8.4-1.2c1-0.1,1.9,0.6,2,1.5l1.2,8.4
				C53.7,55.5,53,56.4,52,56.5z"/>
		</g>
		<g>
			<path class="st5" d="M47.7,54.4c-0.2,0-0.5-0.1-0.7-0.3l-4-3c-0.6-0.4-0.7-1.3-0.3-1.8c0.4-0.6,1.3-0.7,1.8-0.3l3,2.2l8.4-11.1
				c0.4-0.6,1.3-0.7,1.8-0.3c0.6,0.4,0.7,1.3,0.3,1.8l-9.2,12.2C48.5,54.2,48.1,54.4,47.7,54.4z"/>
		</g>
	</g>
	<g>
		<g>
			<path class="st4" d="M62.3,73.7c-0.6-0.1-1.1-0.5-1.2-1.1c-0.1-0.7,0.4-1.4,1.1-1.5l44.3-6.2c0.7-0.1,1.4,0.4,1.5,1.1
				c0.1,0.7-0.4,1.4-1.1,1.5l-44.3,6.2C62.5,73.7,62.4,73.7,62.3,73.7z"/>
		</g>
		<g>
			<path class="st4" d="M63,78.7c-0.6-0.1-1.1-0.5-1.2-1.1c-0.1-0.7,0.4-1.4,1.1-1.5l21.5-3c0.7-0.1,1.4,0.4,1.5,1.1
				c0.1,0.7-0.4,1.4-1.1,1.5l-21.5,3C63.2,78.7,63.1,78.7,63,78.7z"/>
		</g>
		<g>
			<path class="st2" d="M55.5,81.8L47.1,83c-1,0.1-1.9-0.6-2-1.5l-1.2-8.4c-0.1-1,0.6-1.9,1.5-2l8.4-1.2c1-0.1,1.9,0.6,2,1.5
				l1.2,8.4C57.2,80.8,56.5,81.7,55.5,81.8z"/>
		</g>
		<g>
			<path class="st5" d="M51.2,79.7c-0.2,0-0.5-0.1-0.7-0.3l-4-3c-0.6-0.4-0.7-1.3-0.3-1.8c0.4-0.6,1.3-0.7,1.8-0.3l3,2.2l8.4-11.1
				c0.4-0.6,1.3-0.7,1.8-0.3c0.6,0.4,0.7,1.3,0.3,1.8l-9.2,12.2c-0.2,0.3-0.5,0.5-0.9,0.5C51.4,79.7,51.3,79.7,51.2,79.7z"/>
		</g>
	</g>
	<g>
		<g>
			<path class="st4" d="M65.9,99c-0.6-0.1-1.1-0.5-1.2-1.1c-0.1-0.7,0.4-1.4,1.1-1.5l44.3-6.2c0.7-0.1,1.4,0.4,1.5,1.1
				c0.1,0.7-0.4,1.4-1.1,1.5L66.2,99C66.1,99,66,99,65.9,99z"/>
		</g>
		<g>
			<path class="st4" d="M66.6,104c-0.6-0.1-1.1-0.5-1.2-1.1c-0.1-0.7,0.4-1.4,1.1-1.5l21.5-3c0.7-0.1,1.4,0.4,1.5,1.1
				c0.1,0.7-0.4,1.4-1.1,1.5l-21.5,3C66.8,104,66.7,104,66.6,104z"/>
		</g>
		<g>
			<path class="st2" d="M59.1,107.1l-8.4,1.2c-1,0.1-1.9-0.6-2-1.5l-1.2-8.4c-0.1-1,0.6-1.9,1.5-2l8.4-1.2c1-0.1,1.9,0.6,2,1.5
				l1.2,8.4C60.7,106.1,60,107,59.1,107.1z"/>
		</g>
		<g>
			<path class="st5" d="M54.7,105c-0.2,0-0.5-0.1-0.7-0.3l-4-3c-0.6-0.4-0.7-1.3-0.3-1.8c0.4-0.6,1.3-0.7,1.8-0.3l3,2.2L63,90.7
				c0.4-0.6,1.3-0.7,1.8-0.3c0.6,0.4,0.7,1.3,0.3,1.8l-9.2,12.2C55.6,104.9,55.1,105,54.7,105z"/>
		</g>
	</g>
	<g>
		<g>
			<path class="st4" d="M69.4,124.3c-0.6-0.1-1.1-0.5-1.2-1.1c-0.1-0.7,0.4-1.4,1.1-1.5l44.3-6.2c0.7-0.1,1.4,0.4,1.5,1.1
				c0.1,0.7-0.4,1.4-1.1,1.5l-44.3,6.2C69.6,124.3,69.5,124.3,69.4,124.3z"/>
		</g>
		<g>
			<path class="st4" d="M70.1,129.3c-0.6-0.1-1.1-0.5-1.2-1.1c-0.1-0.7,0.4-1.4,1.1-1.5l21.5-3c0.7-0.1,1.4,0.4,1.5,1.1
				c0.1,0.7-0.4,1.4-1.1,1.5l-21.5,3C70.3,129.3,70.2,129.3,70.1,129.3z"/>
		</g>
		<g>
			<path class="st2" d="M62.6,132.4l-8.4,1.2c-1,0.1-1.9-0.6-2-1.5l-1.2-8.4c-0.1-1,0.6-1.9,1.5-2l8.4-1.2c1-0.1,1.9,0.6,2,1.5
				l1.2,8.4C64.2,131.4,63.6,132.3,62.6,132.4z"/>
		</g>
		<g>
			<path class="st5" d="M58.2,130.3c-0.2,0-0.5-0.1-0.7-0.3l-4-3c-0.6-0.4-0.7-1.3-0.3-1.8c0.4-0.6,1.3-0.7,1.8-0.3l3,2.2l8.4-11.1
				c0.4-0.6,1.3-0.7,1.8-0.3c0.6,0.4,0.7,1.3,0.3,1.8l-9.2,12.2c-0.2,0.3-0.5,0.5-0.9,0.5C58.4,130.3,58.3,130.3,58.2,130.3z"/>
		</g>
	</g>
	<g>
		<g>
			<path class="st4" d="M72.9,149.6c-0.6-0.1-1.1-0.5-1.2-1.1c-0.1-0.7,0.4-1.4,1.1-1.5l44.3-6.2c0.7-0.1,1.4,0.4,1.5,1.1
				c0.1,0.7-0.4,1.4-1.1,1.5l-44.3,6.2C73.1,149.6,73,149.6,72.9,149.6z"/>
		</g>
		<g>
			<path class="st4" d="M73.6,154.6c-0.6-0.1-1.1-0.5-1.2-1.1c-0.1-0.7,0.4-1.4,1.1-1.5l21.5-3c0.7-0.1,1.4,0.4,1.5,1.1
				c0.1,0.7-0.4,1.4-1.1,1.5l-21.5,3C73.8,154.6,73.7,154.6,73.6,154.6z"/>
		</g>
		<g>
			<path class="st6" d="M61.7,155.6c-0.2,0-0.5-0.1-0.7-0.3l-4-3c-0.6-0.4-0.7-1.3-0.3-1.8c0.4-0.6,1.3-0.7,1.8-0.3l3,2.2l8.4-11.1
				c0.4-0.6,1.3-0.7,1.8-0.3c0.6,0.4,0.7,1.3,0.3,1.8l-9.2,12.2c-0.2,0.3-0.5,0.5-0.9,0.5C61.9,155.6,61.8,155.6,61.7,155.6z"/>
		</g>
	</g>
</g>
</svg>
