<svg version="1.1" xmlns="http://www.w3.org/2000/svg" xmlns:xlink="http://www.w3.org/1999/xlink" x="0px" y="0px"
	 viewBox="0 0 141.7 141.7" style="enable-background:new 0 0 141.7 141.7;" xml:space="preserve">
<g id="Layer_1" class="st0">
	<g class="st1">
		<g>
			<g>
				<defs>
					<rect id="SVGID_1_" x="-335.6" y="27.3" width="501.6" height="478.6"/>
				</defs>
				<clipPath id="SVGID_2_">
					<use xlink:href="#SVGID_1_"  style="overflow:visible;"/>
				</clipPath>
				<g style="clip-path:url(#SVGID_2_);">
					
						<image style="overflow:visible;" width="1045" height="997" xlink:href="CC50151B23B5A349.jpg"  transform="matrix(0.48 0 0 0.48 -335.6008 27.2823)">
					</image>
				</g>
			</g>
		</g>
		<g>
			<g>
				<defs>
					<rect id="SVGID_3_" x="-335.6" y="27.3" width="501.6" height="478.6"/>
				</defs>
				<clipPath id="SVGID_4_">
					<use xlink:href="#SVGID_3_"  style="overflow:visible;"/>
				</clipPath>
				<g style="clip-path:url(#SVGID_4_);">
					
						<image style="overflow:visible;" width="1045" height="997" xlink:href="CC50151B23B5A34B.jpg"  transform="matrix(0.48 0 0 0.48 -335.6008 27.2823)">
					</image>
				</g>
			</g>
		</g>
	</g>
</g>
<g id="Layer_2">
	<g>
		<circle class="st6" cx="70.9" cy="70.9" r="62"/>
		<g>
			<g>
				<rect x="13.5" y="43.2" class="st4" width="23" height="7.4"/>
				<path class="st4" d="M37.7,51.8H12.2v-9.9h25.4V51.8z M14.7,49.4h20.5v-4.9H14.7V49.4z"/>
			</g>
			<g>
				<rect x="13.5" y="50.6" class="st2" width="23" height="7.4"/>
				<path class="st4" d="M37.7,59.3H12.2v-9.9h25.4V59.3z M14.7,56.8h20.5v-4.9H14.7V56.8z"/>
			</g>
			<g>
				<rect x="13.5" y="58" class="st2" width="23" height="7.4"/>
				<path class="st4" d="M37.7,66.7H12.2v-9.9h25.4V66.7z M14.7,64.2h20.5v-4.9H14.7V64.2z"/>
			</g>
			<g>
				<rect x="13.5" y="65.5" class="st2" width="23" height="7.4"/>
				<path class="st4" d="M37.7,74.1H12.2v-9.9h25.4V74.1z M14.7,71.6h20.5v-4.9H14.7V71.6z"/>
			</g>
			<g>
				<rect x="13.5" y="72.9" class="st6" width="23" height="7.4"/>
				<path class="st4" d="M37.7,81.5H12.2v-9.9h25.4V81.5z M14.7,79.1h20.5v-4.9H14.7V79.1z"/>
			</g>
			<g>
				<rect x="13.5" y="80.3" class="st2" width="23" height="7.4"/>
				<path class="st4" d="M37.7,89H12.2v-9.9h25.4V89z M14.7,86.5h20.5v-4.9H14.7V86.5z"/>
			</g>
			<g>
				<rect x="13.5" y="87.7" class="st2" width="23" height="7.4"/>
				<path class="st4" d="M37.7,96.4H12.2v-9.9h25.4V96.4z M14.7,93.9h20.5V89H14.7V93.9z"/>
			</g>
			<g>
				<rect x="13.5" y="95.2" class="st4" width="23" height="7.4"/>
				<path class="st4" d="M37.7,103.8H12.2v-9.9h25.4V103.8z M14.7,101.3h20.5v-4.9H14.7V101.3z"/>
			</g>
			<g>
				<rect x="13.5" y="102.6" class="st2" width="23" height="7.4"/>
				<path class="st4" d="M37.7,111.2H12.2v-9.9h25.4V111.2z M14.7,108.8h20.5v-4.9H14.7V108.8z"/>
			</g>
			<g>
				<rect x="36.4" y="43.2" class="st2" width="23" height="7.4"/>
				<path class="st4" d="M60.6,51.8H35.2v-9.9h25.4V51.8z M37.7,49.4h20.5v-4.9H37.7V49.4z"/>
			</g>
			<g>
				<rect x="36.4" y="50.6" class="st2" width="23" height="7.4"/>
				<path class="st4" d="M60.6,59.3H35.2v-9.9h25.4V59.3z M37.7,56.8h20.5v-4.9H37.7V56.8z"/>
			</g>
			<g>
				<rect x="36.4" y="58" class="st2" width="23" height="7.4"/>
				<path class="st4" d="M60.6,66.7H35.2v-9.9h25.4V66.7z M37.7,64.2h20.5v-4.9H37.7V64.2z"/>
			</g>
			<g>
				<rect x="36.4" y="65.5" class="st4" width="23" height="7.4"/>
				<path class="st4" d="M60.6,74.1H35.2v-9.9h25.4V74.1z M37.7,71.6h20.5v-4.9H37.7V71.6z"/>
			</g>
			<g>
				<rect x="36.4" y="72.9" class="st6" width="23" height="7.4"/>
				<path class="st4" d="M60.6,81.5H35.2v-9.9h25.4V81.5z M37.7,79.1h20.5v-4.9H37.7V79.1z"/>
			</g>
			<g>
				<rect x="36.4" y="80.3" class="st2" width="23" height="7.4"/>
				<path class="st4" d="M60.6,89H35.2v-9.9h25.4V89z M37.7,86.5h20.5v-4.9H37.7V86.5z"/>
			</g>
			<g>
				<rect x="36.4" y="87.7" class="st2" width="23" height="7.4"/>
				<path class="st4" d="M60.6,96.4H35.2v-9.9h25.4V96.4z M37.7,93.9h20.5V89H37.7V93.9z"/>
			</g>
			<g>
				<rect x="36.4" y="95.2" class="st4" width="23" height="7.4"/>
				<path class="st4" d="M60.6,103.8H35.2v-9.9h25.4V103.8z M37.7,101.3h20.5v-4.9H37.7V101.3z"/>
			</g>
			<g>
				<rect x="36.4" y="102.6" class="st4" width="23" height="7.4"/>
				<path class="st4" d="M60.6,111.2H35.2v-9.9h25.4V111.2z M37.7,108.8h20.5v-4.9H37.7V108.8z"/>
			</g>
			<g>
				<rect x="59.4" y="43.2" class="st2" width="23" height="7.4"/>
				<path class="st4" d="M83.6,51.8H58.1v-9.9h25.4V51.8z M60.6,49.4h20.5v-4.9H60.6V49.4z"/>
			</g>
			<g>
				<rect x="59.4" y="50.6" class="st4" width="23" height="7.4"/>
				<path class="st4" d="M83.6,59.3H58.1v-9.9h25.4V59.3z M60.6,56.8h20.5v-4.9H60.6V56.8z"/>
			</g>
			<g>
				<rect x="59.4" y="58" class="st2" width="23" height="7.4"/>
				<path class="st4" d="M83.6,66.7H58.1v-9.9h25.4V66.7z M60.6,64.2h20.5v-4.9H60.6V64.2z"/>
			</g>
			<g>
				<rect x="59.4" y="65.5" class="st2" width="23" height="7.4"/>
				<path class="st4" d="M83.6,74.1H58.1v-9.9h25.4V74.1z M60.6,71.6h20.5v-4.9H60.6V71.6z"/>
			</g>
			<g>
				<rect x="59.4" y="72.9" class="st6" width="23" height="7.4"/>
				<path class="st4" d="M83.6,81.5H58.1v-9.9h25.4V81.5z M60.6,79.1h20.5v-4.9H60.6V79.1z"/>
			</g>
			<g>
				<rect x="59.4" y="80.3" class="st2" width="23" height="7.4"/>
				<path class="st4" d="M83.6,89H58.1v-9.9h25.4V89z M60.6,86.5h20.5v-4.9H60.6V86.5z"/>
			</g>
			<g>
				<rect x="59.4" y="87.7" class="st2" width="23" height="7.4"/>
				<path class="st4" d="M83.6,96.4H58.1v-9.9h25.4V96.4z M60.6,93.9h20.5V89H60.6V93.9z"/>
			</g>
			<g>
				<rect x="59.4" y="95.2" class="st2" width="23" height="7.4"/>
				<path class="st4" d="M83.6,103.8H58.1v-9.9h25.4V103.8z M60.6,101.3h20.5v-4.9H60.6V101.3z"/>
			</g>
			<g>
				<rect x="59.4" y="102.6" class="st4" width="23" height="7.4"/>
				<path class="st4" d="M83.6,111.2H58.1v-9.9h25.4V111.2z M60.6,108.8h20.5v-4.9H60.6V108.8z"/>
			</g>
			<g>
				<rect x="82.3" y="43.2" class="st4" width="23" height="7.4"/>
				<path class="st4" d="M106.5,51.8H81.1v-9.9h25.4V51.8z M83.6,49.4h20.5v-4.9H83.6V49.4z"/>
			</g>
			<g>
				<rect x="82.3" y="50.6" class="st4" width="23" height="7.4"/>
				<path class="st4" d="M106.5,59.3H81.1v-9.9h25.4V59.3z M83.6,56.8h20.5v-4.9H83.6V56.8z"/>
			</g>
			<g>
				<rect x="82.3" y="58" class="st4" width="23" height="7.4"/>
				<path class="st4" d="M106.5,66.7H81.1v-9.9h25.4V66.7z M83.6,64.2h20.5v-4.9H83.6V64.2z"/>
			</g>
			<g>
				<rect x="82.3" y="65.5" class="st2" width="23" height="7.4"/>
				<path class="st4" d="M106.5,74.1H81.1v-9.9h25.4V74.1z M83.6,71.6h20.5v-4.9H83.6V71.6z"/>
			</g>
			<g>
				<rect x="82.3" y="72.9" class="st6" width="23" height="7.4"/>
				<path class="st4" d="M106.5,81.5H81.1v-9.9h25.4V81.5z M83.6,79.1h20.5v-4.9H83.6V79.1z"/>
			</g>
			<g>
				<rect x="82.3" y="80.3" class="st4" width="23" height="7.4"/>
				<path class="st4" d="M106.5,89H81.1v-9.9h25.4V89z M83.6,86.5h20.5v-4.9H83.6V86.5z"/>
			</g>
			<g>
				<rect x="82.3" y="87.7" class="st2" width="23" height="7.4"/>
				<path class="st4" d="M106.5,96.4H81.1v-9.9h25.4V96.4z M83.6,93.9h20.5V89H83.6V93.9z"/>
			</g>
			<g>
				<rect x="82.3" y="95.2" class="st2" width="23" height="7.4"/>
				<path class="st4" d="M106.5,103.8H81.1v-9.9h25.4V103.8z M83.6,101.3h20.5v-4.9H83.6V101.3z"/>
			</g>
			<g>
				<rect x="82.3" y="102.6" class="st2" width="23" height="7.4"/>
				<path class="st4" d="M106.5,111.2H81.1v-9.9h25.4V111.2z M83.6,108.8h20.5v-4.9H83.6V108.8z"/>
			</g>
			<g>
				<rect x="105.3" y="43.2" class="st4" width="23" height="7.4"/>
				<path class="st4" d="M129.5,51.8h-25.4v-9.9h25.4V51.8z M106.5,49.4H127v-4.9h-20.5V49.4z"/>
			</g>
			<g>
				<rect x="105.3" y="50.6" class="st2" width="23" height="7.4"/>
				<path class="st4" d="M129.5,59.3h-25.4v-9.9h25.4V59.3z M106.5,56.8H127v-4.9h-20.5V56.8z"/>
			</g>
			<g>
				<rect x="105.3" y="58" class="st2" width="23" height="7.4"/>
				<path class="st4" d="M129.5,66.7h-25.4v-9.9h25.4V66.7z M106.5,64.2H127v-4.9h-20.5V64.2z"/>
			</g>
			<g>
				<rect x="105.3" y="65.5" class="st2" width="23" height="7.4"/>
				<path class="st4" d="M129.5,74.1h-25.4v-9.9h25.4V74.1z M106.5,71.6H127v-4.9h-20.5V71.6z"/>
			</g>
			<g>
				<rect x="105.3" y="72.9" class="st6" width="23" height="7.4"/>
				<path class="st4" d="M129.5,81.5h-25.4v-9.9h25.4V81.5z M106.5,79.1H127v-4.9h-20.5V79.1z"/>
			</g>
			<g>
				<rect x="105.3" y="80.3" class="st4" width="23" height="7.4"/>
				<path class="st4" d="M129.5,89h-25.4v-9.9h25.4V89z M106.5,86.5H127v-4.9h-20.5V86.5z"/>
			</g>
			<g>
				<rect x="105.3" y="87.7" class="st4" width="23" height="7.4"/>
				<path class="st4" d="M129.5,96.4h-25.4v-9.9h25.4V96.4z M106.5,93.9H127V89h-20.5V93.9z"/>
			</g>
			<g>
				<rect x="105.3" y="95.2" class="st2" width="23" height="7.4"/>
				<path class="st4" d="M129.5,103.8h-25.4v-9.9h25.4V103.8z M106.5,101.3H127v-4.9h-20.5V101.3z"/>
			</g>
			<g>
				<rect x="105.3" y="102.6" class="st2" width="23" height="7.4"/>
				<path class="st4" d="M129.5,111.2h-25.4v-9.9h25.4V111.2z M106.5,108.8H127v-4.9h-20.5V108.8z"/>
			</g>
			<g>
				<rect x="13.5" y="31.7" class="st3" width="23" height="11.5"/>
				<path class="st4" d="M37.7,44.4H12.2V30.5h25.4V44.4z M14.7,41.9h20.5v-9H14.7V41.9z"/>
			</g>
			<g>
				<rect x="36.4" y="31.7" class="st7" width="23" height="11.5"/>
				<path class="st4" d="M60.6,44.4H35.2V30.5h25.4V44.4z M37.7,41.9h20.5v-9H37.7V41.9z"/>
			</g>
			<g>
				<rect x="59.4" y="31.7" class="st8" width="23" height="11.5"/>
				<path class="st4" d="M83.6,44.4H58.1V30.5h25.4V44.4z M60.6,41.9h20.5v-9H60.6V41.9z"/>
			</g>
			<g>
				<rect x="82.3" y="31.7" class="st9" width="23" height="11.5"/>
				<path class="st4" d="M106.5,44.4H81.1V30.5h25.4V44.4z M83.6,41.9h20.5v-9H83.6V41.9z"/>
			</g>
			<g>
				<rect x="105.3" y="31.7" class="st7" width="23" height="11.5"/>
				<path class="st4" d="M129.5,44.4h-25.4V30.5h25.4V44.4z M106.5,41.9H127v-9h-20.5V41.9z"/>
			</g>
		</g>
		<g>
			<rect x="99.8" y="78.1" class="st5" width="11.3" height="54.8"/>
			
				<rect x="99.8" y="78.1" transform="matrix(6.123234e-17 -1 1 6.123234e-17 4.547474e-13 210.9872)" class="st5" width="11.3" height="54.8"/>
		</g>
	</g>
</g>
</svg>
