<svg version="1.1" xmlns="http://www.w3.org/2000/svg" xmlns:xlink="http://www.w3.org/1999/xlink" x="0px" y="0px"
	 viewBox="0 0 141.7 141.7" style="enable-background:new 0 0 141.7 141.7;" xml:space="preserve">
<g id="Layer_1" class="st0">
	<g class="st1">
		<g>
			<g>
				<defs>
					<rect id="SVGID_1_" x="-38.9" y="-144.7" width="501.6" height="478.6"/>
				</defs>
				<clipPath id="SVGID_2_">
					<use xlink:href="#SVGID_1_"  style="overflow:visible;"/>
				</clipPath>
				<g style="clip-path:url(#SVGID_2_);">
					
						<image style="overflow:visible;" width="1045" height="997" xlink:href="CC588027DDC3F790.jpg"  transform="matrix(0.48 0 0 0.48 -38.9341 -144.7177)">
					</image>
				</g>
			</g>
		</g>
		<g>
			<g>
				<defs>
					<rect id="SVGID_3_" x="-38.9" y="-144.7" width="501.6" height="478.6"/>
				</defs>
				<clipPath id="SVGID_4_">
					<use xlink:href="#SVGID_3_"  style="overflow:visible;"/>
				</clipPath>
				<g style="clip-path:url(#SVGID_4_);">
					
						<image style="overflow:visible;" width="1045" height="997" xlink:href="CC588027DDC3F791.jpg"  transform="matrix(0.48 0 0 0.48 -38.9341 -144.7177)">
					</image>
				</g>
			</g>
		</g>
	</g>
</g>
<g id="Layer_2">
	<g>
		<circle class="st2" cx="70.9" cy="66.7" r="62"/>
		<g>
			<path class="st10" d="M73.9,110.8c-1,0-1.9-0.3-2.8-0.9c-2.2-1.5-2.7-4.6-1.1-6.7c5.2-7.3,7.5-15.5,9.3-22.2
				c2.2-7.8,3.9-13.9,9.4-16c2.5-0.9,5.3,0.3,6.2,2.8c0.9,2.5-0.3,5.2-2.7,6.2c-1.1,0.8-2.6,5.9-3.6,9.6
				c-2.1,7.4-4.6,16.5-10.8,25.2C76.9,110.1,75.4,110.8,73.9,110.8z M92.1,74L92.1,74L92.1,74z"/>
		</g>
		<g>
			<path class="st7" d="M111,110.3c0.1-0.7,2.3-16.2,0.7-35c-0.6-7.6-7.3-13.2-14.9-12.5c-7.6,0.6-13.2,7.3-12.5,14.9
				c1.3,15.4-0.5,28.5-0.5,28.6c-0.2,1.5-0.2,3,0.1,4.4H111C111,110.6,111,110.5,111,110.3z"/>
		</g>
		<path class="st7" d="M127.2,90.5c-1.6-5.1-3.5-9.8-5.8-13.9c-3.2-5.8-8.4-12.8-15.1-13.6c-2.7-0.3-5,1.6-5.3,4.2s1.6,5,4.2,5.3
			c3.1,0.4,11.7,11.1,15.1,30.3C123,99,125.3,94.9,127.2,90.5z"/>
		<g>
			<path class="st11" d="M98.2,71.2c-2.3,0-4.4-1.3-5.4-3.5c-0.3-0.6-2.6-6.1-1.2-12.6c0.7-3.2,3.9-5.2,7.1-4.5
				c3.2,0.7,5.2,3.9,4.5,7.1c-0.6,2.6,0.4,5,0.4,5.1c1.4,3,0,6.5-2.9,7.9C99.9,71,99,71.2,98.2,71.2z"/>
			<g>
				<g>
					<path class="st12" d="M106.8,51.7c-0.6,0-1.2-0.2-1.6-0.7c-0.9-0.9-0.9-2.3,0-3.2l5.5-5.5c0.9-0.9,2.3-0.9,3.2,0
						c0.9,0.9,0.9,2.3,0,3.2l-5.5,5.5C107.9,51.4,107.3,51.7,106.8,51.7z"/>
					<path class="st13" d="M106.8,52.1c-0.7,0-1.4-0.3-1.9-0.8c-0.5-0.5-0.8-1.2-0.8-1.9c0-0.7,0.3-1.4,0.8-1.9l5.5-5.5
						c1-1,2.8-1,3.8,0c0.5,0.5,0.8,1.2,0.8,1.9c0,0.7-0.3,1.4-0.8,1.9l-5.5,5.5C108.2,51.8,107.5,52.1,106.8,52.1z M112.3,42.1
						c-0.5,0-0.9,0.2-1.3,0.5l-5.5,5.5c-0.3,0.3-0.5,0.8-0.5,1.3c0,0.5,0.2,0.9,0.5,1.3c0.7,0.7,1.9,0.7,2.6,0l5.5-5.5
						c0.3-0.3,0.5-0.8,0.5-1.3c0-0.5-0.2-0.9-0.5-1.3C113.2,42.2,112.8,42.1,112.3,42.1z"/>
				</g>
			</g>
			<g>
				<g>
					<path class="st12" d="M82.6,51.7c0.6,0,1.2-0.2,1.6-0.7c0.9-0.9,0.9-2.3,0-3.2l-5.5-5.5c-0.9-0.9-2.3-0.9-3.2,0
						c-0.9,0.9-0.9,2.3,0,3.2L81,51C81.5,51.4,82.1,51.7,82.6,51.7z"/>
					<path class="st13" d="M82.6,52.1c-0.7,0-1.4-0.3-1.9-0.8l-5.5-5.5c-1-1-1-2.7,0-3.8c1-1,2.8-1,3.8,0l5.5,5.5
						c0.5,0.5,0.8,1.2,0.8,1.9c0,0.7-0.3,1.4-0.8,1.9C84,51.8,83.3,52.1,82.6,52.1z M77.1,42.1c-0.5,0-0.9,0.2-1.3,0.5
						c-0.7,0.7-0.7,1.9,0,2.6l5.5,5.5c0.7,0.7,1.9,0.7,2.6,0c0.3-0.3,0.5-0.8,0.5-1.3c0-0.5-0.2-0.9-0.5-1.3l-5.5-5.5
						C78.1,42.2,77.6,42.1,77.1,42.1z"/>
				</g>
			</g>
			<g>
				<path class="st13" d="M94.5,64.3c-9.4,0-16.9-7.6-16.9-16.9v-9.7c0-9.4,7.6-16.9,16.9-16.9c9.4,0,16.9,7.6,16.9,16.9v9.7
					C111.4,56.7,103.8,64.3,94.5,64.3z"/>
			</g>
			<circle cx="83.4" cy="46.3" r="1"/>
			<circle cx="101.2" cy="46.3" r="1"/>
			<path class="st11" d="M93.1,49.8c0,0.9-0.8,1.7-1.7,1.7c-0.9,0-1.7-0.8-1.7-1.7"/>
			<path class="st11" d="M94.5,64.3c-7.6,0-13.7-7.6-13.7-16.9v-9.7c0-9.4,6.1-16.9,13.7-16.9c-9.4,0-16.9,7.6-16.9,16.9v9.7
				C77.5,56.7,85.1,64.3,94.5,64.3z"/>
			<g>
				<path class="st14" d="M77.4,38.5c0-10.3,8.4-18.7,18.7-18.7C96.1,30.1,87.7,38.5,77.4,38.5z"/>
				<path class="st14" d="M77.4,39.8c-0.7,0-1.3-0.6-1.3-1.3c0-11,8.9-20,19.9-20c0.7,0,1.3,0.6,1.3,1.3
					C97.4,30.8,88.4,39.8,77.4,39.8z M94.8,21.1c-8.5,0.6-15.4,7.5-16,16C87.3,36.5,94.1,29.7,94.8,21.1z"/>
			</g>
			<g>
				<path class="st14" d="M111.4,36.5c0-5.7-3.2-10.6-8-13.1C103.4,29.1,106.7,34,111.4,36.5z"/>
				<path class="st14" d="M111.4,37.7c-0.2,0-0.4,0-0.6-0.1c-5.3-2.8-8.7-8.2-8.7-14.2c0-0.4,0.2-0.9,0.6-1.1c0.4-0.2,0.9-0.2,1.2,0
					c5.3,2.8,8.7,8.2,8.7,14.2c0,0.4-0.2,0.9-0.6,1.1C111.9,37.7,111.6,37.7,111.4,37.7z M104.9,25.8c0.6,3.3,2.4,6.2,5,8.2
					C109.3,30.8,107.5,27.8,104.9,25.8z"/>
			</g>
			<g>
				<path class="st14" d="M96.8,21.1c-0.4-1.5,3.8-0.5,4.7,0.8c1.9,7.8-2.9,15.6-10.6,17.7C96,35.1,98.5,28.1,96.8,21.1z"/>
				<path class="st14" d="M91,40.8c-0.5,0-0.9-0.3-1.1-0.7c-0.3-0.5-0.2-1.2,0.3-1.6c4.9-4.3,7-10.9,5.5-17.2l0,0
					c-0.2-0.9,0.2-1.7,1-2.1c1.5-0.7,4.9,0.3,5.9,1.8c0.1,0.1,0.2,0.3,0.2,0.4c2,8.4-3.1,17-11.5,19.2C91.2,40.8,91.1,40.8,91,40.8z
					 M98.3,21.7c0.9,4.8,0.1,9.7-2.4,13.9c3.7-3.1,5.5-8.1,4.5-13.1C100,22.1,99,21.8,98.3,21.7z"/>
			</g>
			<g class="st15">
				<path class="st16" d="M94.5,64.3c8,0,14.7-5.5,16.5-13H78C79.8,58.7,86.5,64.3,94.5,64.3z"/>
			</g>
			<path d="M93.1,60.5c-0.9,0-1.7-0.8-1.7-1.7v-0.7h-2.1c-0.3,0-0.5-0.2-0.5-0.5s0.2-0.5,0.5-0.5h3.7c0.9,0,1.7,0.8,1.7,1.7
				C94.8,59.7,94.1,60.5,93.1,60.5z M92.4,58.2v0.6c0,0.4,0.3,0.7,0.7,0.7c0.4,0,0.7-0.3,0.7-0.7c0-0.4-0.3-0.7-0.7-0.7L92.4,58.2z"
				/>
			<path d="M93.1,57.6c0.7,0,1.2,0.5,1.2,1.2c0,0.7-0.5,1.2-1.2,1.2c-0.7,0-1.2-0.5-1.2-1.2v-1L93.1,57.6"/>
		</g>
		<g>
			<path class="st13" d="M68.1,100.5c-0.1,0-0.1,0-0.2,0c-10.4-0.8-15.5-11-19.2-18.4c-1.8-3.6-4-8.1-5.6-8.3
				c-1.4-0.2-2.4-1.4-2.2-2.8c0.2-1.4,1.4-2.4,2.8-2.2c4.3,0.5,6.8,5.4,9.6,11.1c3.5,7.1,7.4,15.1,15,15.6c1.4,0.1,2.5,1.3,2.3,2.7
				C70.6,99.5,69.5,100.5,68.1,100.5z"/>
			<path class="st13" d="M24.4,104.1c-0.8,0-1.6-0.4-2.1-1.1C15.6,93,17,85,19.3,80c3.3-7,10-11.4,14.8-11.9
				c1.4-0.2,2.7,0.8,2.8,2.2c0.2,1.4-0.8,2.7-2.2,2.8c-2.8,0.3-8.2,3.4-10.8,9c-2.5,5.4-1.6,11.7,2.6,18c0.8,1.2,0.5,2.7-0.7,3.5
				C25.3,104,24.8,104.1,24.4,104.1z"/>
			<g>
				<path class="st17" d="M38.5,104c-5.9,0-10.6-4.7-10.6-10.6v-18c0-5.9,4.7-10.6,10.6-10.6s10.6,4.7,10.6,10.6v18
					C49.1,99.3,44.3,104,38.5,104z"/>
			</g>
			<path class="st13" d="M38.5,77.8c-3,0-5.5-2.5-5.5-5.5v-2c0-3,2.5-5.5,5.5-5.5s5.5,2.5,5.5,5.5v2C44,75.4,41.5,77.8,38.5,77.8z"
				/>
			<circle class="st17" cx="44" cy="80.5" r="6.8"/>
			<circle class="st17" cx="34.1" cy="80.5" r="6.8"/>
			<path class="st11" d="M38.5,71.6c-0.5,0-1.1-0.1-1.6-0.3c-1.9-0.9-2.8-3.1-1.9-5c0-0.1,1.3-3.1,0.6-6.4c-0.5-2.1,0.8-4.1,2.9-4.6
				c2.1-0.5,4.1,0.8,4.6,2.9c1.3,5.8-0.8,10.7-1,11.2C41.3,70.8,39.9,71.6,38.5,71.6z"/>
			<g>
				<g>
					<g>
						<path class="st12" d="M26.4,53.5c0.6,0,1.2-0.2,1.6-0.7c0.9-0.9,0.9-2.3,0-3.2l-5.5-5.5c-0.9-0.9-2.3-0.9-3.2,0
							c-0.9,0.9-0.9,2.3,0,3.2l5.5,5.5C25.2,53.3,25.8,53.5,26.4,53.5z"/>
						<path class="st13" d="M26.4,53.9c-0.7,0-1.4-0.3-1.9-0.8L19,47.6c-0.5-0.5-0.8-1.2-0.8-1.9s0.3-1.4,0.8-1.9c1-1,2.8-1,3.8,0
							l5.5,5.5c1,1,1,2.7,0,3.8C27.8,53.6,27.1,53.9,26.4,53.9z M20.9,43.9c-0.5,0-0.9,0.2-1.3,0.5c-0.3,0.3-0.5,0.8-0.5,1.3
							s0.2,0.9,0.5,1.3l5.5,5.5c0.7,0.7,1.9,0.7,2.6,0c0.7-0.7,0.7-1.9,0-2.6l-5.5-5.5C21.8,44.1,21.4,43.9,20.9,43.9z"/>
					</g>
				</g>
				<g>
					<g>
						<path class="st12" d="M50.5,53.5c-0.6,0-1.2-0.2-1.6-0.7c-0.9-0.9-0.9-2.3,0-3.2l5.5-5.5c0.9-0.9,2.3-0.9,3.2,0
							c0.9,0.9,0.9,2.3,0,3.2l-5.5,5.5C51.7,53.3,51.1,53.5,50.5,53.5z"/>
						<path class="st13" d="M50.5,53.9c-0.7,0-1.4-0.3-1.9-0.8c-0.5-0.5-0.8-1.2-0.8-1.9c0-0.7,0.3-1.4,0.8-1.9l5.5-5.5
							c1-1,2.7-1,3.8,0c1,1,1,2.7,0,3.8l-5.5,5.5C51.9,53.6,51.2,53.9,50.5,53.9z M56.1,43.9c-0.5,0-0.9,0.2-1.3,0.5l-5.5,5.5
							c-0.3,0.3-0.5,0.8-0.5,1.3c0,0.5,0.2,0.9,0.5,1.3c0.7,0.7,1.9,0.7,2.6,0l5.5-5.5c0.7-0.7,0.7-1.9,0-2.6
							C57,44.1,56.5,43.9,56.1,43.9z"/>
					</g>
				</g>
				<g>
					<path class="st13" d="M38.7,66.1c9.4,0,16.9-7.6,16.9-16.9v-9.7c0-9.4-7.6-16.9-16.9-16.9S21.8,30,21.8,39.4v9.7
						C21.8,58.5,29.3,66.1,38.7,66.1z"/>
				</g>
				<path class="st11" d="M38.7,66.1c7.6,0,13.7-7.6,13.7-16.9v-9.7c0-9.4-6.1-16.9-13.7-16.9c9.4,0,16.9,7.6,16.9,16.9v9.7
					C55.6,58.5,48.1,66.1,38.7,66.1z"/>
				<g>
					<path class="st8" d="M55.8,40.3c0-10.3-8.4-18.7-18.7-18.7C37.1,32,45.4,40.3,55.8,40.3z"/>
					<path class="st8" d="M55.8,41.6c-11,0-19.9-8.9-19.9-19.9c0-0.7,0.6-1.3,1.3-1.3c11,0,19.9,8.9,19.9,19.9
						C57,41,56.5,41.6,55.8,41.6z M38.4,23c0.6,8.5,7.5,15.4,16,16C53.8,30.5,46.9,23.6,38.4,23z"/>
				</g>
				<g>
					<path class="st8" d="M21.8,38.3c0-5.7,3.2-10.6,8-13.1C29.7,30.9,26.5,35.9,21.8,38.3z"/>
					<path class="st8" d="M21.8,39.6c-0.2,0-0.5-0.1-0.7-0.2c-0.4-0.2-0.6-0.6-0.6-1.1c0-6,3.3-11.5,8.7-14.2c0.4-0.2,0.9-0.2,1.2,0
						c0.4,0.2,0.6,0.6,0.6,1.1c0,6-3.3,11.5-8.7,14.2C22.2,39.5,22,39.6,21.8,39.6z M28.2,27.7c-2.6,2-4.4,4.9-5,8.2
						C25.9,33.8,27.6,30.9,28.2,27.7z"/>
				</g>
				<g>
					<path class="st8" d="M36.3,22.9c0.4-1.5-3.8-0.5-4.7,0.8c-1.9,7.8,2.9,15.6,10.6,17.7C37.2,36.9,34.7,29.9,36.3,22.9z"/>
					<path class="st8" d="M42.2,42.6c-0.1,0-0.2,0-0.3,0c-8.3-2.2-13.5-10.8-11.5-19.2c0-0.2,0.1-0.3,0.2-0.4c1-1.5,4.4-2.5,6-1.8
						c0.8,0.4,1.2,1.2,1,2.1l0,0c-1.5,6.3,0.6,12.9,5.5,17.2c0.4,0.4,0.6,1,0.3,1.6C43.1,42.4,42.7,42.6,42.2,42.6z M32.8,24.3
						c-1.1,4.9,0.8,9.9,4.5,13.1c-2.4-4.1-3.3-9-2.4-13.9C34.2,23.6,33.2,24,32.8,24.3z M36.3,22.9L36.3,22.9L36.3,22.9z M35.1,22.6
						C35.1,22.6,35.1,22.6,35.1,22.6C35.1,22.6,35.1,22.6,35.1,22.6L35.1,22.6z"/>
				</g>
				<path d="M50.2,46.7c-0.2,0-0.3-0.1-0.3-0.3s0.1-0.3,0.3-0.3c1,0,1.8-0.8,1.8-1.8c0-0.2,0.1-0.3,0.3-0.3s0.3,0.1,0.3,0.3
					C52.6,45.6,51.5,46.7,50.2,46.7z"/>
				<path d="M51.9,46.7h-3.4c-0.2,0-0.3-0.1-0.3-0.3s0.1-0.3,0.3-0.3c1,0,1.8-0.8,1.8-1.8c0-0.2,0.1-0.3,0.3-0.3s0.3,0.1,0.3,0.3
					c0,0.7-0.3,1.4-0.8,1.8h1.8c1,0,1.8-0.8,1.8-1.8c0-0.2,0.1-0.3,0.3-0.3s0.3,0.1,0.3,0.3C54.3,45.6,53.2,46.7,51.9,46.7z"/>
				<path d="M32.4,46.7c-0.2,0-0.3-0.1-0.3-0.3s0.1-0.3,0.3-0.3c1,0,1.8-0.8,1.8-1.8c0-0.2,0.1-0.3,0.3-0.3s0.3,0.1,0.3,0.3
					C34.8,45.6,33.8,46.7,32.4,46.7z"/>
				<path d="M34.1,46.7h-3.4c-0.2,0-0.3-0.1-0.3-0.3s0.1-0.3,0.3-0.3c1,0,1.8-0.8,1.8-1.8c0-0.2,0.1-0.3,0.3-0.3s0.3,0.1,0.3,0.3
					c0,0.7-0.3,1.4-0.8,1.8h1.8c1,0,1.8-0.8,1.8-1.8c0-0.2,0.1-0.3,0.3-0.3s0.3,0.1,0.3,0.3C36.5,45.6,35.4,46.7,34.1,46.7z"/>
				<circle cx="49.8" cy="48.1" r="1"/>
				<circle cx="32" cy="48.1" r="1"/>
				<path class="st11" d="M40,51.6c0,0.9,0.8,1.7,1.7,1.7c0.9,0,1.7-0.8,1.7-1.7"/>
				<ellipse class="st18" cx="41.4" cy="59.6" rx="1.6" ry="1.8"/>
				<ellipse class="st18" cx="40.1" cy="59.6" rx="1.6" ry="1.8"/>
				<path class="st18" d="M38.5,59.6c0,1.6,1,2.8,2.3,2.8c1.3,0,2.3-1.3,2.3-2.8"/>
				<g>
					<ellipse class="st8" cx="35.5" cy="19.3" rx="10.2" ry="6.6"/>
					<path class="st8" d="M35.5,27.1C29,27.1,24,23.7,24,19.3s5-7.8,11.4-7.8s11.4,3.4,11.4,7.8S41.9,27.1,35.5,27.1z M35.5,14
						c-4.8,0-8.9,2.4-8.9,5.3s4.1,5.3,8.9,5.3s8.9-2.4,8.9-5.3S40.3,14,35.5,14z"/>
				</g>
			</g>
		</g>
		<path class="st12" d="M128.2,90.3H13.5c9.3,22.6,31.5,38.5,57.4,38.5S119,112.9,128.2,90.3z"/>
		
			<rect x="69.5" y="97.1" transform="matrix(0.9737 -0.2278 0.2278 0.9737 -23.487 21.6694)" class="st4" width="25.3" height="31.1"/>
		<polygon class="st10" points="57.8,137 34.5,127.2 34.5,122.4 46.7,99.7 70,103.7 70,108.5 		"/>
		<polygon class="st19" points="57.8,136.2 34.5,126.3 34.5,122.4 46.7,96.9 70,103.7 70,107.6 		"/>
		
			<rect x="39.6" y="97.6" transform="matrix(0.9205 0.3907 -0.3907 0.9205 48.3359 -11.4257)" class="st7" width="25.3" height="31.1"/>
		<polygon class="st10" points="34.5,122.4 34.5,127.2 35.4,127.5 35.4,122.8 		"/>
	</g>
</g>
</svg>
