<svg version="1.1" xmlns="http://www.w3.org/2000/svg" xmlns:xlink="http://www.w3.org/1999/xlink" x="0px" y="0px"
	 viewBox="0 0 141.7 141.7" style="enable-background:new 0 0 141.7 141.7;" xml:space="preserve">
<g id="Layer_1" class="st0">
	<g class="st1">
		<g>
			<g>
				<defs>
					<rect id="SVGID_1_" x="-335.6" y="-326.8" width="501.6" height="478.6"/>
				</defs>
				<clipPath id="SVGID_2_">
					<use xlink:href="#SVGID_1_"  style="overflow:visible;"/>
				</clipPath>
				<g style="clip-path:url(#SVGID_2_);">
					
						<image style="overflow:visible;" width="1045" height="997" xlink:href="CD335F72C33886FA.jpg"  transform="matrix(0.48 0 0 0.48 -335.6008 -326.7954)">
					</image>
				</g>
			</g>
		</g>
		<g>
			<g>
				<defs>
					<rect id="SVGID_3_" x="-335.6" y="-326.8" width="501.6" height="478.6"/>
				</defs>
				<clipPath id="SVGID_4_">
					<use xlink:href="#SVGID_3_"  style="overflow:visible;"/>
				</clipPath>
				<g style="clip-path:url(#SVGID_4_);">
					
						<image style="overflow:visible;" width="1045" height="997" xlink:href="CD335F72C33886FE.jpg"  transform="matrix(0.48 0 0 0.48 -335.6008 -326.7954)">
					</image>
				</g>
			</g>
		</g>
	</g>
</g>
<g id="Layer_2">
	<g>
		<circle class="st6" cx="71.8" cy="68" r="62"/>
		<g>
			
				<rect x="38.9" y="23.6" transform="matrix(0.9848 -0.1736 0.1736 0.9848 -10.7108 13.507)" class="st4" width="65.9" height="88.7"/>
			<g>
				
					<rect x="33.3" y="35.6" transform="matrix(0.9848 -0.1739 0.1739 0.9848 -5.2769 12.0675)" class="st2" width="65.9" height="1"/>
				
					<rect x="34.6" y="42.8" transform="matrix(0.9848 -0.1739 0.1739 0.9848 -6.5078 12.3974)" class="st2" width="65.9" height="1"/>
				<rect x="35.8" y="50" transform="matrix(0.9848 -0.1739 0.1739 0.9848 -7.7387 12.7274)" class="st2" width="65.9" height="1"/>
				
					<rect x="37.1" y="57.2" transform="matrix(0.9848 -0.1739 0.1739 0.9848 -8.9695 13.0573)" class="st2" width="65.9" height="1"/>
				
					<rect x="38.4" y="64.4" transform="matrix(0.9848 -0.1739 0.1739 0.9848 -10.2004 13.3873)" class="st2" width="65.9" height="1"/>
				
					<rect x="39.6" y="71.6" transform="matrix(0.9848 -0.1739 0.1739 0.9848 -11.4312 13.7173)" class="st2" width="65.9" height="1"/>
				
					<rect x="40.9" y="78.8" transform="matrix(0.9848 -0.1739 0.1739 0.9848 -12.662 14.0472)" class="st2" width="65.9" height="1"/>
				
					<rect x="42.2" y="86" transform="matrix(0.9848 -0.1739 0.1739 0.9848 -13.8929 14.3772)" class="st2" width="65.9" height="1"/>
				
					<rect x="43.4" y="93.2" transform="matrix(0.9848 -0.1739 0.1739 0.9848 -15.1238 14.7072)" class="st2" width="65.9" height="1"/>
				
					<rect x="44.7" y="100.3" transform="matrix(0.9848 -0.1739 0.1739 0.9848 -16.3546 15.0371)" class="st2" width="65.9" height="1"/>
				
					<rect x="46" y="107.5" transform="matrix(0.9848 -0.1739 0.1739 0.9848 -17.5842 15.3659)" class="st2" width="65.9" height="1"/>
			</g>
			
				<rect x="50.6" y="27.3" transform="matrix(0.9848 -0.1736 0.1736 0.9848 -11.6721 9.9593)" class="st17" width="1" height="88.7"/>
			<g>
				<ellipse transform="matrix(0.9848 -0.1736 0.1736 0.9848 -5.5153 7.2646)" class="st6" cx="38.8" cy="35.2" rx="2.6" ry="2.6"/>
				<ellipse transform="matrix(0.9848 -0.1736 0.1736 0.9848 -9.7954 8.4115)" class="st6" cx="43.2" cy="60.2" rx="2.6" ry="2.6"/>
				
					<ellipse transform="matrix(0.9848 -0.1736 0.1736 0.9848 -14.0755 9.5584)" class="st6" cx="47.6" cy="85.2" rx="2.6" ry="2.6"/>
				
					<ellipse transform="matrix(0.9848 -0.1736 0.1736 0.9848 -18.3556 10.7052)" class="st6" cx="52" cy="110.3" rx="2.6" ry="2.6"/>
			</g>
			<path d="M51.4,59.1c-0.2,0-0.3-0.1-0.4-0.3c0-0.2,0.1-0.4,0.3-0.4l7.2-1.3c0.2,0,0.4,0.1,0.4,0.3c0,0.2-0.1,0.4-0.3,0.4
				L51.4,59.1C51.4,59.1,51.4,59.1,51.4,59.1z"/>
			<g>
				<path d="M48.4,44.8c-0.2,0-0.3-0.1-0.4-0.3c0-0.2,0.1-0.4,0.3-0.4l7.1-1.3c0.2,0,0.4,0.1,0.4,0.3c0,0.2-0.1,0.4-0.3,0.4
					L48.4,44.8C48.5,44.8,48.4,44.8,48.4,44.8z"/>
				<path d="M56.9,43.3c-0.2,0-0.3-0.1-0.4-0.3c0-0.2,0.1-0.4,0.3-0.4l3.2-0.6c0.2,0,0.4,0.1,0.4,0.3c0,0.2-0.1,0.4-0.3,0.4
					L56.9,43.3C57,43.3,57,43.3,56.9,43.3z"/>
				<path d="M61.5,42.5c-0.2,0-0.3-0.1-0.4-0.3c0-0.2,0.1-0.4,0.3-0.4l9.9-1.8c0.2,0,0.4,0.1,0.4,0.3c0,0.2-0.1,0.4-0.3,0.4
					L61.5,42.5C61.6,42.5,61.5,42.5,61.5,42.5z"/>
				<path d="M72.9,40.5c-0.2,0-0.3-0.1-0.4-0.3c0-0.2,0.1-0.4,0.3-0.4l5.1-0.9c0.2,0,0.4,0.1,0.4,0.3c0,0.2-0.1,0.4-0.3,0.4
					L72.9,40.5C72.9,40.5,72.9,40.5,72.9,40.5z"/>
				<path d="M79.4,39.3c-0.2,0-0.3-0.1-0.4-0.3c0-0.2,0.1-0.4,0.3-0.4l8.9-1.6c0.2,0,0.4,0.1,0.4,0.3c0,0.2-0.1,0.4-0.3,0.4
					L79.4,39.3C79.4,39.3,79.4,39.3,79.4,39.3z"/>
				<path d="M89.7,37.5c-0.2,0-0.3-0.1-0.4-0.3c0-0.2,0.1-0.4,0.3-0.4l3.8-0.7c0.2,0,0.4,0.1,0.4,0.3c0,0.2-0.1,0.4-0.3,0.4
					L89.7,37.5C89.7,37.5,89.7,37.5,89.7,37.5z"/>
			</g>
			<g>
				<path d="M74,32.9c-0.2,0-0.3-0.1-0.4-0.3c0-0.2,0.1-0.4,0.3-0.4l3.2-0.6c0.2,0,0.4,0.1,0.4,0.3c0,0.2-0.1,0.4-0.3,0.4L74,32.9
					C74,32.9,74,32.9,74,32.9z"/>
				<path d="M57.5,35.8c-0.2,0-0.3-0.1-0.4-0.3c0-0.2,0.1-0.4,0.3-0.4l5.1-0.9c0.2,0,0.4,0.1,0.4,0.3c0,0.2-0.1,0.4-0.3,0.4
					L57.5,35.8C57.5,35.8,57.5,35.8,57.5,35.8z"/>
				<path d="M64,34.6c-0.2,0-0.3-0.1-0.4-0.3c0-0.2,0.1-0.4,0.3-0.4l8.6-1.5c0.2,0,0.4,0.1,0.4,0.3c0,0.2-0.1,0.4-0.3,0.4L64,34.6
					C64,34.6,64,34.6,64,34.6z"/>
				<path d="M78.6,32.1c-0.2,0-0.3-0.1-0.4-0.3c0-0.2,0.1-0.4,0.3-0.4l9.9-1.8c0.2,0,0.4,0.1,0.4,0.3c0,0.2-0.1,0.4-0.3,0.4
					L78.6,32.1C78.6,32.1,78.6,32.1,78.6,32.1z"/>
				<path d="M46.9,37.7c-0.2,0-0.3-0.1-0.4-0.3c0-0.2,0.1-0.4,0.3-0.4l9.2-1.6c0.2,0,0.4,0.1,0.4,0.3c0,0.2-0.1,0.4-0.3,0.4
					L46.9,37.7C47,37.7,46.9,37.7,46.9,37.7z"/>
			</g>
			<g>
				<path d="M76.2,47.3c-0.2,0-0.3-0.1-0.4-0.3c0-0.2,0.1-0.4,0.3-0.4l5.1-0.9c0.2,0,0.4,0.1,0.4,0.3c0,0.2-0.1,0.4-0.3,0.4
					L76.2,47.3C76.3,47.3,76.3,47.3,76.2,47.3z"/>
				<path d="M82.8,46.2c-0.2,0-0.3-0.1-0.4-0.3c0-0.2,0.1-0.4,0.3-0.4l8.6-1.5c0.2,0,0.4,0.1,0.4,0.3c0,0.2-0.1,0.4-0.3,0.4
					L82.8,46.2C82.8,46.2,82.8,46.2,82.8,46.2z"/>
				<path d="M50.1,51.9c-0.2,0-0.3-0.1-0.4-0.3c0-0.2,0.1-0.4,0.3-0.4l8.9-1.6c0.2,0,0.4,0.1,0.4,0.3c0,0.2-0.1,0.4-0.3,0.4
					L50.1,51.9C50.2,51.9,50.1,51.9,50.1,51.9z"/>
				<path d="M60.4,50.1c-0.2,0-0.3-0.1-0.4-0.3c0-0.2,0.1-0.4,0.3-0.4l3.8-0.7c0.2,0,0.4,0.1,0.4,0.3c0,0.2-0.1,0.4-0.3,0.4
					L60.4,50.1C60.5,50.1,60.5,50.1,60.4,50.1z"/>
				<path d="M65.7,49.2c-0.2,0-0.3-0.1-0.4-0.3c0-0.2,0.1-0.4,0.3-0.4l9.2-1.6c0.2,0,0.4,0.1,0.4,0.3c0,0.2-0.1,0.4-0.3,0.4
					L65.7,49.2C65.7,49.2,65.7,49.2,65.7,49.2z"/>
			</g>
		</g>
		<g>
			<path class="st4" d="M108.6,135.7c-2.2,0-4.2-1.4-4.9-3.4l-3.2-8.5l-2.8,2.7c-1,1-2.3,1.5-3.7,1.5c-2.9,0-5.3-2.4-5.3-5.3
				L88.5,85c0-1.4,0.5-2.8,1.5-3.7c1-1,2.4-1.6,3.8-1.6c1.5,0,3,0.7,4,1.8l24.9,28.6c1.4,1.6,1.7,3.8,0.8,5.7
				c-0.9,1.9-2.7,3.1-4.8,3.1l-0.3,0l-3.9-0.2l3.2,8.5c0.5,1.3,0.5,2.8-0.1,4c-0.6,1.3-1.6,2.3-2.9,2.8l-4.1,1.5
				C109.9,135.6,109.2,135.7,108.6,135.7z"/>
			<path d="M119.9,112.5L95,83.9c-1-1.1-2.8-0.4-2.8,1.1l0.2,37.9c0,1.4,1.7,2.1,2.7,1.1l6.8-6.7l5.2,13.8c0.3,0.8,1.2,1.2,2.1,0.9
				l4.1-1.5c0.8-0.3,1.2-1.2,0.9-2.1l-5.2-13.8l9.6,0.5C120,115.2,120.8,113.5,119.9,112.5z"/>
		</g>
		<g>
			
				<rect x="29.1" y="70.1" transform="matrix(0.7071 0.7071 -0.7071 0.7071 69.6805 2.5384)" class="st9" width="5.3" height="30.6"/>
			<path class="st2" d="M10.4,99.6l6.4-6.4c0.7,0.2,1.5,0,2.1-0.5c0.8-0.8,0.8-2.2,0-3L8.2,100.4c-0.4,0.4-0.4,1.2,0,1.6l1.4,1.4
				l2.3-2.3L10.4,99.6z"/>
			<path class="st9" d="M26.1,95.9L21.3,91L10,102.3c-1.3,1.3-1.3,3.5,0,4.8l0,0c1.3,1.3,3.5,1.3,4.8,0L26.1,95.9z"/>
			
				<rect x="21.8" y="91.7" transform="matrix(0.7071 0.7071 -0.7071 0.7071 72.7274 9.8943)" class="st20" width="5.3" height="2.1"/>
			<g>
				<path class="st2" d="M60,57.3l-6.8,6.8l-1.3-0.7c0,0,1-2.2,0.9-3.7c0,0,4.3-0.3,6.8-2.8L60,57.3z"/>
				<path class="st2" d="M60,57.3l-6.8,6.8l0.7,1.3c0,0,2.2-1,3.7-0.9c0,0,0.3-4.3,2.8-6.8L60,57.3z"/>
			</g>
			<path class="st20" d="M44.1,76.1l-2.9-2.9l9.9-9.9c0.5-0.5,1.2-0.5,1.6,0l1.3,1.3c0.5,0.5,0.5,1.2,0,1.6L44.1,76.1z"/>
			
				<ellipse transform="matrix(0.7071 -0.7071 0.7071 0.7071 -27.7432 57.1784)" class="st6" cx="55.1" cy="62.1" rx="0.9" ry="0.9"/>
			
				<rect x="54.7" y="59.2" transform="matrix(0.7071 -0.7071 0.7071 0.7071 -25.0981 58.2742)" class="st6" width="6.1" height="0.5"/>
		</g>
	</g>
</g>
</svg>
