<svg version="1.1" xmlns="http://www.w3.org/2000/svg" xmlns:xlink="http://www.w3.org/1999/xlink" x="0px" y="0px"
	 viewBox="0 0 141.7 141.7" style="enable-background:new 0 0 141.7 141.7;" xml:space="preserve">
<g id="Layer_1" class="st0">
	<g class="st1">
		<g>
			<g>
				<defs>
					<rect id="SVGID_1_" x="-187.3" y="27.3" width="501.6" height="478.6"/>
				</defs>
				<clipPath id="SVGID_2_">
					<use xlink:href="#SVGID_1_"  style="overflow:visible;"/>
				</clipPath>
				<g style="clip-path:url(#SVGID_2_);">
					
						<image style="overflow:visible;" width="1045" height="997" xlink:href="CC47AA0E69A74EFE.jpg"  transform="matrix(0.48 0 0 0.48 -187.2805 27.2823)">
					</image>
				</g>
			</g>
		</g>
		<g>
			<g>
				<defs>
					<rect id="SVGID_3_" x="-187.3" y="27.3" width="501.6" height="478.6"/>
				</defs>
				<clipPath id="SVGID_4_">
					<use xlink:href="#SVGID_3_"  style="overflow:visible;"/>
				</clipPath>
				<g style="clip-path:url(#SVGID_4_);">
					
						<image style="overflow:visible;" width="1045" height="997" xlink:href="CC47AA0E69A74F02.jpg"  transform="matrix(0.48 0 0 0.48 -187.2805 27.2823)">
					</image>
				</g>
			</g>
		</g>
	</g>
</g>
<g id="Layer_2">
	<g>
		<circle class="st2" cx="70.9" cy="70.9" r="62"/>
		<circle class="st3" cx="70.9" cy="70.9" r="49.9"/>
		<circle class="st4" cx="70.9" cy="70.9" r="39.8"/>
		<path class="st2" d="M33.4,73.2c0-22,17.8-39.8,39.8-39.8c10.4,0,19.9,4,27,10.5C92.9,36,82.5,31,70.9,31C48.9,31,31,48.9,31,70.9
			c0,11.6,5,22,12.9,29.3C37.4,93.1,33.4,83.6,33.4,73.2z"/>
		<g>
			<path d="M70.9,46.7c-0.6,0-1-0.4-1-1V34.2c0-0.6,0.4-1,1-1s1,0.4,1,1v11.5C71.9,46.2,71.4,46.7,70.9,46.7z"/>
			<path d="M70.9,108.6c-0.6,0-1-0.4-1-1V96.1c0-0.6,0.4-1,1-1s1,0.4,1,1v11.5C71.9,108.1,71.4,108.6,70.9,108.6z"/>
		</g>
		<g>
			<path d="M45.7,71.9H34.2c-0.6,0-1-0.4-1-1s0.4-1,1-1h11.5c0.6,0,1,0.4,1,1S46.2,71.9,45.7,71.9z"/>
			<path d="M107.6,71.9H96.1c-0.6,0-1-0.4-1-1s0.4-1,1-1h11.5c0.6,0,1,0.4,1,1S108.1,71.9,107.6,71.9z"/>
		</g>
		<g>
			<path d="M39.1,90.2c-0.3,0-0.7-0.2-0.9-0.5c-0.3-0.5-0.1-1.1,0.4-1.4l4.8-2.8c0.5-0.3,1.1-0.1,1.4,0.4c0.3,0.5,0.1,1.1-0.4,1.4
				l-4.8,2.8C39.4,90.2,39.2,90.2,39.1,90.2z"/>
			<path d="M97.9,56.3c-0.3,0-0.7-0.2-0.9-0.5c-0.3-0.5-0.1-1.1,0.4-1.4l4.8-2.8c0.5-0.3,1.1-0.1,1.4,0.4c0.3,0.5,0.1,1.1-0.4,1.4
				l-4.8,2.8C98.2,56.2,98.1,56.3,97.9,56.3z"/>
		</g>
		<g>
			<path d="M52.5,103.7c-0.2,0-0.3,0-0.5-0.1c-0.5-0.3-0.6-0.9-0.4-1.4l2.8-4.8c0.3-0.5,0.9-0.6,1.4-0.4c0.5,0.3,0.6,0.9,0.4,1.4
				l-2.8,4.8C53.2,103.5,52.9,103.7,52.5,103.7z"/>
			<path d="M86.5,44.8c-0.2,0-0.3,0-0.5-0.1c-0.5-0.3-0.6-0.9-0.4-1.4l2.8-4.8c0.3-0.5,0.9-0.6,1.4-0.4c0.5,0.3,0.6,0.9,0.4,1.4
				l-2.8,4.8C87.2,44.7,86.8,44.8,86.5,44.8z"/>
		</g>
		<g>
			<path d="M89.2,103.7c-0.3,0-0.7-0.2-0.9-0.5l-2.8-4.8c-0.3-0.5-0.1-1.1,0.4-1.4c0.5-0.3,1.1-0.1,1.4,0.4l2.8,4.8
				c0.3,0.5,0.1,1.1-0.4,1.4C89.6,103.6,89.4,103.7,89.2,103.7z"/>
			<path d="M55.3,44.8c-0.3,0-0.7-0.2-0.9-0.5l-2.8-4.8c-0.3-0.5-0.1-1.1,0.4-1.4c0.5-0.3,1.1-0.1,1.4,0.4l2.8,4.8
				c0.3,0.5,0.1,1.1-0.4,1.4C55.6,44.8,55.4,44.8,55.3,44.8z"/>
		</g>
		<g>
			<path d="M102.7,90.2c-0.2,0-0.3,0-0.5-0.1l-4.8-2.8c-0.5-0.3-0.6-0.9-0.4-1.4c0.3-0.5,0.9-0.6,1.4-0.4l4.8,2.8
				c0.5,0.3,0.6,0.9,0.4,1.4C103.3,90,103,90.2,102.7,90.2z"/>
			<path d="M43.8,56.3c-0.2,0-0.3,0-0.5-0.1l-4.8-2.8c-0.5-0.3-0.6-0.9-0.4-1.4s0.9-0.6,1.4-0.4l4.8,2.8c0.5,0.3,0.6,0.9,0.4,1.4
				C44.5,56.1,44.2,56.3,43.8,56.3z"/>
		</g>
		<g>
			<rect x="99.8" y="78.1" class="st5" width="11.3" height="54.8"/>
			
				<rect x="99.8" y="78.1" transform="matrix(6.123234e-17 -1 1 6.123234e-17 -4.547474e-13 210.9872)" class="st5" width="11.3" height="54.8"/>
		</g>
		<path d="M66.5,75.4c-0.7,0-1.4-0.4-1.7-1c-0.6-1-0.2-2.2,0.7-2.7L100,51.7c1-0.6,2.2-0.2,2.7,0.7c0.6,1,0.2,2.2-0.7,2.7L67.5,75.1
			C67.2,75.3,66.9,75.4,66.5,75.4z"/>
		<path d="M73.1,74.6c-0.4,0-0.9-0.1-1.2-0.3l-20-11.6c-1.2-0.7-1.6-2.2-0.9-3.4c0.7-1.2,2.2-1.6,3.4-0.9l20,11.6
			c1.2,0.7,1.6,2.2,0.9,3.4C74.8,74.2,73.9,74.6,73.1,74.6z"/>
		<path class="st3" d="M65.6,80.5c-0.2,0-0.3,0-0.5-0.1c-0.5-0.3-0.6-0.9-0.4-1.4l21.9-37.4c0.3-0.5,0.9-0.6,1.4-0.4
			c0.5,0.3,0.6,0.9,0.4,1.4L66.5,80C66.3,80.4,65.9,80.5,65.6,80.5z"/>
		<circle class="st3" cx="70.9" cy="70.9" r="2.6"/>
	</g>
</g>
</svg>
