<svg version="1.1" xmlns="http://www.w3.org/2000/svg" xmlns:xlink="http://www.w3.org/1999/xlink" x="0px" y="0px"
	 viewBox="0 0 141.7 141.7" style="enable-background:new 0 0 141.7 141.7;" xml:space="preserve">
<g id="Layer_1" class="st0">
	<g class="st1">
		<g>
			<g>
				<defs>
					<rect id="SVGID_1_" x="-38.9" y="-326.8" width="501.6" height="478.6"/>
				</defs>
				<clipPath id="SVGID_2_">
					<use xlink:href="#SVGID_1_"  style="overflow:visible;"/>
				</clipPath>
				<g style="clip-path:url(#SVGID_2_);">
					
						<image style="overflow:visible;" width="1045" height="997" xlink:href="CC71C14E0BEEF46D.jpg"  transform="matrix(0.48 0 0 0.48 -38.9341 -326.7954)">
					</image>
				</g>
			</g>
		</g>
		<g>
			<g>
				<defs>
					<rect id="SVGID_3_" x="-38.9" y="-326.8" width="501.6" height="478.6"/>
				</defs>
				<clipPath id="SVGID_4_">
					<use xlink:href="#SVGID_3_"  style="overflow:visible;"/>
				</clipPath>
				<g style="clip-path:url(#SVGID_4_);">
					
						<image style="overflow:visible;" width="1045" height="997" xlink:href="CC71C14E0BEEF46F.jpg"  transform="matrix(0.48 0 0 0.48 -38.9341 -326.7954)">
					</image>
				</g>
			</g>
		</g>
	</g>
</g>
<g id="Layer_2">
	<g>
		<circle class="st9" cx="70.9" cy="68" r="62"/>
		<path class="st8" d="M112.1,31.3L29.6,95.5l77.9,22.6c9.1-6.7,16.3-15.8,20.7-26.4L112.1,31.3z"/>
		<rect x="29.6" y="31.3" class="st19" width="82.6" height="64.2"/>
		<polygon class="st4" points="106.5,90.3 34.8,90.3 34.8,37 35.8,37 35.8,89.3 106.5,89.3 		"/>
		<g>
			<path d="M100.3,116.2c1.3-3.8,1.1-7.1-0.6-9.5c-0.6-0.9-1.5-1.5-2.4-2c0,0,0-0.1,0.1-0.1c0.6-1,0.7-2.1,0.4-3.2
				c-0.1-0.3-0.3-0.5-0.6-0.5c0,0,0,0,0,0c-0.3,0-0.6,0.2-0.6,0.5c-0.4,1.4-1.7,2.3-3.1,2.2c-0.1-0.2-0.2-0.3-0.2-0.5
				c-0.3-0.8-0.2-1.6,0.1-2.3c0.1-0.3,0.1-0.6-0.2-0.8c-0.2-0.2-0.6-0.2-0.8,0c-0.9,0.7-1.6,1.7-1.8,2.8c0,0.2,0,0.5,0,0.7
				c-2.6-0.1-4.9-2-5.4-4.7c-0.1-0.3-0.3-0.6-0.7-0.6c-0.3,0-0.7,0.2-0.8,0.5c-0.6,1.8-0.4,3.8,0.5,5.5c0.1,0.1,0.1,0.2,0.2,0.3
				c-2.7,0.3-5.4-1.4-6.2-4.1c-0.1-0.4-0.5-0.6-0.9-0.5c-0.4,0.1-0.6,0.4-0.6,0.8c0.3,3.5,1.6,6,4.1,7.7c-0.9,0.4-1.8,0.6-2.8,0.5
				c-1.5-0.1-2.9-0.9-3.9-2.1c-0.2-0.3-0.7-0.4-1-0.1c-0.3,0.2-0.4,0.6-0.2,1c1.5,2.7,4.2,4.4,7.5,5c0,0.4-0.1,0.8-0.1,1.2v2.2
				c-0.5-0.1-1,0-1.4,0.4c-0.3,0.3-0.5,0.7-0.5,1.1s0.2,0.8,0.5,1.1l1.4,1.4c0.2,3.5,2.2,6.6,5.1,8.2c5-1.2,9.8-3,14.3-5.3
				c0.3-0.8,0.5-1.7,0.6-2.6l1.7-1.7c0.3-0.3,0.5-0.7,0.5-1.1c0-0.4-0.2-0.8-0.5-1.1C101.3,116.2,100.8,116.1,100.3,116.2z"/>
			<path d="M72.4,117.7c0-0.4-0.2-0.8-0.5-1.1c-0.4-0.4-1.1-0.5-1.6-0.4v-2.3c0-5.5-4.5-10-10-10c-5.5,0-10,4.5-10,10v2.2
				c-0.5-0.1-1,0-1.4,0.4c-0.3,0.3-0.5,0.7-0.5,1.1c0,0.4,0.2,0.8,0.5,1.1l1.4,1.4c0.2,3.2,1.8,6,4.3,7.8c3.2,0.9,6.5,1.5,9.8,1.8
				c0-0.3-0.1-0.6-0.2-0.9c3.3-1.4,5.7-4.6,6-8.4l1.7-1.7C72.3,118.5,72.4,118.1,72.4,117.7z"/>
		</g>
		<rect x="23" y="20.7" class="st6" width="95.6" height="10.6"/>
		<g>
			<path class="st4" d="M107.6,135.7c-2.2,0-4.2-1.4-4.9-3.4l-3.2-8.5l-2.8,2.7c-1,1-2.3,1.5-3.7,1.5c-2.9,0-5.3-2.4-5.3-5.3
				L87.5,85c0-1.4,0.5-2.8,1.5-3.7c1-1,2.4-1.6,3.8-1.6c1.5,0,3,0.7,4,1.8l24.9,28.6c1.4,1.6,1.7,3.8,0.8,5.7
				c-0.9,1.9-2.7,3.1-4.8,3.1l-0.3,0l-3.9-0.2l3.2,8.5c0.5,1.3,0.5,2.8-0.1,4c-0.6,1.3-1.6,2.3-2.9,2.8l-4.1,1.5
				C108.9,135.6,108.3,135.7,107.6,135.7z"/>
			<path d="M118.9,112.5L94,83.9c-1-1.1-2.8-0.4-2.8,1.1l0.2,37.9c0,1.4,1.7,2.1,2.7,1.1l6.8-6.7l5.2,13.8c0.3,0.8,1.2,1.2,2.1,0.9
				l4.1-1.5c0.8-0.3,1.2-1.2,0.9-2.1l-5.2-13.8l9.6,0.5C119,115.2,119.8,113.5,118.9,112.5z"/>
		</g>
		<path d="M38.7,97.4c-1.4-5-2.5-9-6.1-10.4c-1.6-0.6-3.4,0.2-4,1.8c-0.6,1.6,0.2,3.4,1.8,4c0.7,0.5,1.7,3.8,2.3,6.2
			c0.4,1.6,0.9,3.3,1.5,5c2.2-0.2,4.1-0.9,6-1.7C39.6,100.7,39.1,99,38.7,97.4z M30.4,92.9L30.4,92.9L30.4,92.9z"/>
		<path d="M36.3,104.1c1.5,1.3,3.1,2.8,4.2,4.6c2.7-2.7,5.5-5.9,7.7-9.9c0.5-0.9,0.5-2,0-2.9c-0.3-0.6-0.7-1-1.3-1.4
			c-1.5-0.8-3.4-0.2-4.2,1.3C40.9,99.1,38.6,101.8,36.3,104.1z"/>
		<path class="st4" d="M103,82.5c-0.2,0-0.3-0.1-0.4-0.2l-20.8-33L66.7,63l-3.5-7L55,71.9L45.7,49l-9.9,16.4
			c-0.1,0.2-0.5,0.3-0.7,0.2c-0.2-0.1-0.3-0.5-0.2-0.7l11-18.1l9.3,22.7l8.1-15.7l3.8,7.5l14.9-13.6l21.4,34
			c0.1,0.2,0.1,0.5-0.2,0.7C103.2,82.4,103.1,82.5,103,82.5z"/>
		<g>
			<path d="M44.7,94.4l-0.2-3.1c0-0.5,0.3-0.9,0.8-0.9c0.5,0,0.9,0.3,0.9,0.8l0.2,2.6L44.7,94.4"/>
			<path d="M49.4,90.2c0.3-0.4,0.2-0.9-0.2-1.2c-0.4-0.3-0.9-0.2-1.2,0.2L45,93.4c-0.8,1.2-0.6,2.8,0.6,3.6c1.2,0.8,2.8,0.6,3.6-0.6
				l3.1-4.2c0.3-0.4,0.2-0.9-0.2-1.2c-0.4-0.3-0.9-0.2-1.2,0.2l0.5-0.7c0.3-0.4,0.2-0.9-0.2-1.2c-0.4-0.3-0.9-0.2-1.2,0.2L49.4,90.2
				z"/>
		</g>
		<path d="M39.8,71.7v-1c0,0,0,0,0.1,0c0.5,0,0.8-0.4,0.8-0.8c0-7.1-5.8-12.9-12.9-12.9c-0.3,0-0.6,0.2-0.7,0.4
			c-1.1-0.2-2.9,0.4-3.5,1.3c-0.1,0.1-0.1,0.2-0.1,0.3c0,0.1-0.1,0.3-0.1,0.4c-0.2-0.1-0.5-0.1-0.7,0c-3.5,1.8-5.6,5.3-5.6,9.2
			c0,0.3,0.1,0.6,0.4,0.7c0.1,0.1,0.3,0.1,0.4,0.1c0,0,0,0,0,0v2.4c-0.6-0.2-1.3-0.1-1.8,0.4c-0.3,0.3-0.5,0.8-0.5,1.2
			s0.2,0.9,0.5,1.2l1.8,1.8c0,0.6,0.1,1.2,0.3,1.7h0c0,0.1,0.1,0.3,0.1,0.4c0,0.1,0.1,0.2,0.1,0.4c0.1,0.2,0.2,0.5,0.3,0.7
			c0,0.1,0.1,0.1,0.1,0.2c0.1,0.3,0.3,0.6,0.4,0.9c0.1,0.1,0.1,0.2,0.2,0.3c0.1,0.2,0.2,0.4,0.3,0.6c0.1,0.1,0.1,0.2,0.2,0.3
			c0.1,0.2,0.2,0.3,0.4,0.5c0.1,0.1,0.2,0.2,0.3,0.3c0.1,0.2,0.3,0.3,0.4,0.4c0.1,0.1,0.2,0.2,0.3,0.3c0.2,0.1,0.3,0.3,0.5,0.4
			c0.1,0.1,0.2,0.2,0.3,0.2c0.2,0.2,0.5,0.4,0.7,0.5c0,0,0.1,0,0.1,0.1c0.1,0.1,0.3,0.2,0.4,0.3c-0.1,0.4-0.2,0.7-0.2,0.7
			c-0.1,0.1-0.1,0.2-0.1,0.4c-0.5-0.2-1-0.3-1.6-0.3c-3.1,0.4-5.8,2.9-7.8,5.6c0.9,2.3,2,4.5,3.2,6.7c0.3-0.5,0.6-1,0.9-1.5
			c-0.1,0.9-0.1,1.9-0.1,2.8c4.3,7.3,10.1,13.7,16.9,18.7c0-0.1-0.1-0.3-0.1-0.4c0.1-0.3,0.3-0.7,0.4-1.1h1.2c0.2-0.9,0.2-1.9,0-2.8
			c0-0.1-1.2-8.5-0.3-18.6c0.3-3.7-1.7-7.1-4.8-8.7c0-0.1,0-0.1,0-0.2c0.1,0,0.2,0,0.3,0c0.1,0,0.3-0.1,0.4-0.1
			c0.2,0,0.4-0.1,0.6-0.2c0.1,0,0.3-0.1,0.4-0.1c0.2-0.1,0.4-0.1,0.6-0.2c0.1,0,0.2-0.1,0.4-0.1c0.2-0.1,0.4-0.2,0.6-0.3
			c0.1,0,0.2-0.1,0.3-0.1c0.3-0.2,0.6-0.3,0.8-0.5c0,0,0.1,0,0.1-0.1c0.2-0.2,0.5-0.3,0.7-0.5c0.1-0.1,0.2-0.2,0.3-0.2
			c0.2-0.1,0.3-0.3,0.5-0.4c0.1-0.1,0.2-0.2,0.3-0.3c0.1-0.1,0.3-0.3,0.4-0.4c0.1-0.1,0.2-0.2,0.3-0.3c0.1-0.2,0.2-0.3,0.4-0.5
			c0.1-0.1,0.2-0.2,0.2-0.3c0.1-0.2,0.2-0.4,0.3-0.6c0.1-0.1,0.1-0.2,0.2-0.3c0.2-0.3,0.3-0.6,0.4-0.9c0-0.1,0.1-0.1,0.1-0.2
			c0.1-0.2,0.2-0.5,0.3-0.7c0-0.1,0.1-0.2,0.1-0.4c0-0.1,0.1-0.3,0.1-0.4h0c0.2-0.7,0.3-1.3,0.3-2l1.5-1.5c0.3-0.3,0.5-0.8,0.5-1.2
			s-0.2-0.9-0.5-1.2C40.9,71.7,40.4,71.6,39.8,71.7z"/>
		<path d="M31.7,102.2c0,0,1.9,8.7,4.8,8.4c3-0.3,4-1.8,4-1.8l0.5-3.7l-6-4.6L31.7,102.2z"/>
		<g>
			<path d="M46.4,93.2l-0.6-0.5c-0.4-0.3-0.5-0.9-0.1-1.4l3.5-4.4c0.3-0.4,0.9-0.5,1.4-0.1l0.6,0.5c0.4,0.3,0.5,0.9,0.1,1.4
				l-3.5,4.4C47.5,93.5,46.8,93.6,46.4,93.2z"/>
			<g>
				<line class="st4" x1="51.5" y1="86.3" x2="81.8" y2="48.5"/>
				<path class="st18" d="M51.5,86.8c-0.1,0-0.2,0-0.3-0.1c-0.2-0.2-0.2-0.5-0.1-0.7l30.3-37.8c0.2-0.2,0.5-0.2,0.7-0.1
					c0.2,0.2,0.2,0.5,0.1,0.7L51.9,86.6C51.8,86.7,51.7,86.8,51.5,86.8z"/>
			</g>
		</g>
	</g>
</g>
</svg>
