<svg version="1.1" xmlns="http://www.w3.org/2000/svg" xmlns:xlink="http://www.w3.org/1999/xlink" x="0px" y="0px"
	 viewBox="0 0 141.7 141.7" style="enable-background:new 0 0 141.7 141.7;" xml:space="preserve">
<g id="Layer_1" class="st0">
	<g class="st1">
		<g>
			<g>
				<defs>
					<rect id="SVGID_1_" x="-187.3" y="-326.8" width="501.6" height="478.6"/>
				</defs>
				<clipPath id="SVGID_2_">
					<use xlink:href="#SVGID_1_"  style="overflow:visible;"/>
				</clipPath>
				<g style="clip-path:url(#SVGID_2_);">
					
						<image style="overflow:visible;" width="1045" height="997" xlink:href="CC7A2C5AC5FD48B4.jpg"  transform="matrix(0.48 0 0 0.48 -187.2805 -326.7954)">
					</image>
				</g>
			</g>
		</g>
		<g>
			<g>
				<defs>
					<rect id="SVGID_3_" x="-187.3" y="-326.8" width="501.6" height="478.6"/>
				</defs>
				<clipPath id="SVGID_4_">
					<use xlink:href="#SVGID_3_"  style="overflow:visible;"/>
				</clipPath>
				<g style="clip-path:url(#SVGID_4_);">
					
						<image style="overflow:visible;" width="1045" height="997" xlink:href="CC7A2C5AC5FD48B5.jpg"  transform="matrix(0.48 0 0 0.48 -187.2805 -326.7954)">
					</image>
				</g>
			</g>
		</g>
	</g>
</g>
<g id="Layer_2">
	<g>
		<g>
			<path class="st9" d="M133.3,68c0,34.3-27.8,62-62,62c-34.3,0-62-27.8-62-62c0-34.3,27.8-62,62-62C105.5,6,133.3,33.8,133.3,68"/>
			<path class="st12" d="M128.6,91.6H13.9c9.3,22.6,31.5,38.5,57.4,38.5C97.2,130.1,119.4,114.2,128.6,91.6"/>
			<path class="st2" d="M89.9,84.8H21.3c-2,0-3.9-1.6-4.3-3.6L8.5,32.7c-0.4-2,1-3.6,3-3.6h68.6c2,0,3.9,1.6,4.3,3.6l8.5,48.5
				C93.3,83.2,91.9,84.8,89.9,84.8"/>
			<polyline points="20.5,79.4 12.6,33.1 80.4,33.1 88.4,79.4 20.5,79.4 			"/>
			<path class="st2" d="M120.1,91.6H20.6c-1.8,0-3.3-1.5-3.3-3.3v-3.4h106.1v3.4C123.4,90.1,121.9,91.6,120.1,91.6"/>
			<path class="st6" d="M61.6,84.8H17.3v3.4c0,1.8,1.5,3.3,3.3,3.3h41V84.8"/>
			<rect x="21.2" y="87.1" width="6.6" height="2.5"/>
			<rect x="29.5" y="87.1" width="6.6" height="2.5"/>
			<polyline class="st4" points="71.8,89.6 65.2,89.6 65.2,87.1 71.8,87.1 71.8,89.6 			"/>
			<polyline class="st22" points="75.1,91.6 51.1,91.6 51.1,91.6 75.1,91.6 75.1,91.6 			"/>
			<path class="st23" d="M75.1,91.6h-24l-9.8,17c-1.7,2.9,0.4,6.5,3.7,6.5h36.2c3.3,0,5.4-3.6,3.7-6.5L75.1,91.6"/>
			<polyline class="st24" points="70.1,79.4 56,79.4 56,83 55,84.8 61.6,84.8 71.2,84.8 70.1,83 70.1,79.4 			"/>
			<polyline class="st25" points="70.1,56.2 56,56.2 56,79.4 70.1,79.4 70.1,56.2 			"/>
			<path class="st24" d="M65.2,89.6v-2.5h6.6v2.5H65.2 M71.2,84.8h-9.6v6.7H51.1h24L71.2,84.8"/>
			<polyline class="st26" points="61.6,84.8 55,84.8 51.1,91.6 61.6,91.6 61.6,84.8 			"/>
			<polyline class="st4" points="71.8,87.1 65.2,87.1 65.2,89.6 71.8,89.6 71.8,87.1 			"/>
			<path class="st2" d="M70.1,51.6H56c-1.3,0-2.3,1-2.3,2.3c0,1.3,1,2.3,2.3,2.3h14.1c1.3,0,2.3-1,2.3-2.3
				C72.4,52.6,71.4,51.6,70.1,51.6"/>
			<circle class="st5" cx="66" cy="87.1" r="2.6"/>
			<circle class="st5" cx="62" cy="78.9" r="3.8"/>
			<circle class="st5" cx="59.8" cy="95.4" r="5.8"/>
			<circle class="st5" cx="64.7" cy="65.7" r="2.7"/>
			<path class="st5" d="M76.9,99.3H49.2l-6,10.5c-0.5,0.9-0.2,1.7,0,2s0.7,1,1.8,1h36.2c1.1,0,1.6-0.7,1.8-1c0.2-0.3,0.5-1.1,0-2
				L76.9,99.3z"/>
		</g>
		<g>
			<path class="st4" d="M108,135.7c-2.2,0-4.2-1.4-4.9-3.4l-3.2-8.5l-2.8,2.7c-1,1-2.3,1.5-3.7,1.5c-2.9,0-5.3-2.4-5.3-5.3L87.9,85
				c0-1.4,0.5-2.8,1.5-3.7c1-1,2.4-1.6,3.8-1.6c1.5,0,3,0.7,4,1.8l24.9,28.6c1.4,1.6,1.7,3.8,0.8,5.7c-0.9,1.9-2.7,3.1-4.8,3.1
				l-0.3,0l-3.9-0.2l3.2,8.5c0.5,1.3,0.5,2.8-0.1,4c-0.6,1.3-1.6,2.3-2.9,2.8l-4.1,1.5C109.3,135.6,108.7,135.7,108,135.7z"/>
			<path d="M119.3,112.5L94.4,83.9c-1-1.1-2.8-0.4-2.8,1.1l0.2,37.9c0,1.4,1.7,2.1,2.7,1.1l6.8-6.7l5.2,13.8
				c0.3,0.8,1.2,1.2,2.1,0.9l4.1-1.5c0.8-0.3,1.2-1.2,0.9-2.1l-5.2-13.8l9.6,0.5C119.4,115.2,120.2,113.5,119.3,112.5z"/>
		</g>
	</g>
</g>
</svg>
