<svg version="1.1" xmlns="http://www.w3.org/2000/svg" xmlns:xlink="http://www.w3.org/1999/xlink" x="0px" y="0px"
	 viewBox="0 0 141.7 141.7" style="enable-background:new 0 0 141.7 141.7;" xml:space="preserve">
<g id="Layer_1" class="st0">
	<g class="st1">
		<g>
			<g>
				<defs>
					<rect id="SVGID_1_" x="-335.6" y="-144.7" width="501.6" height="478.6"/>
				</defs>
				<clipPath id="SVGID_2_">
					<use xlink:href="#SVGID_1_"  style="overflow:visible;"/>
				</clipPath>
				<g style="clip-path:url(#SVGID_2_);">
					
						<image style="overflow:visible;" width="1045" height="997" xlink:href="CC69564151E0A022.jpg"  transform="matrix(0.48 0 0 0.48 -335.6008 -144.7177)">
					</image>
				</g>
			</g>
		</g>
		<g>
			<g>
				<defs>
					<rect id="SVGID_3_" x="-335.6" y="-144.7" width="501.6" height="478.6"/>
				</defs>
				<clipPath id="SVGID_4_">
					<use xlink:href="#SVGID_3_"  style="overflow:visible;"/>
				</clipPath>
				<g style="clip-path:url(#SVGID_4_);">
					
						<image style="overflow:visible;" width="1045" height="997" xlink:href="CC69564151E0A026.jpg"  transform="matrix(0.48 0 0 0.48 -335.6008 -144.7177)">
					</image>
				</g>
			</g>
		</g>
	</g>
</g>
<g id="Layer_2">
	<g>
		<circle class="st12" cx="70.9" cy="70.9" r="62"/>
		<g>
			<path class="st27" d="M122.8,91.4H18.9c-1.5,0-2.7-1.2-2.7-2.7V30.5c0-1.5,1.2-2.7,2.7-2.7h103.9c1.5,0,2.7,1.2,2.7,2.7v58.1
				C125.6,90.2,124.3,91.4,122.8,91.4z"/>
			<path class="st3" d="M74.6,88.8H22.9c-2.6,0-4.8-2.1-4.8-4.8V34.7c0-2.6,2.1-4.8,4.8-4.8h51.7"/>
			<path class="st28" d="M70.6,87.5c0-5.6-21.7-10.2-48.6-10.2V26.2c26.8,0,48.6,4.6,48.6,10.2V87.5z"/>
			<path class="st29" d="M70.6,87.5c0-10.1-19.5-18.3-43.5-18.3V18.1c24,0,43.5,8.2,43.5,18.3V87.5z"/>
			<path class="st19" d="M70.6,87.5C70.6,74,53.2,63,31.8,63V11.9c21.4,0,38.8,11,38.8,24.5V87.5z"/>
			<path class="st3" d="M119,29.9H74.6c-2.2,0-4,1.8-4,4v50.9c0,2.2,1.8,4,4,4H119c2.2,0,4-1.8,4-4V33.9
				C123,31.7,121.2,29.9,119,29.9z"/>
			<path class="st28" d="M70.6,87.5c0-5.6,21.7-10.2,48.6-10.2V26.2c-26.8,0-48.6,4.6-48.6,10.2V87.5z"/>
			<path class="st29" d="M70.6,87.5c0-10.1,19.5-18.3,43.5-18.3V18.1c-24,0-43.5,8.2-43.5,18.3V87.5z"/>
			<path class="st19" d="M70.6,87.5C70.6,74,87.9,63,109.3,63V11.9c-21.4,0-38.8,11-38.8,24.5V87.5z"/>
			<path d="M62.3,29.4c-0.1,0-0.2,0-0.2-0.1c-0.9-0.8-1.9-1.5-2.9-2.1c-0.9-0.6-1.9-1.2-2.9-1.7C56,25.4,55.9,25.2,56,25
				c0.1-0.2,0.3-0.2,0.5-0.2c1.1,0.6,2.1,1.1,3,1.7c1,0.7,2.1,1.4,3,2.2c0.2,0.1,0.2,0.4,0.1,0.5C62.5,29.4,62.4,29.4,62.3,29.4z"/>
			<path d="M62.3,32.9c-0.1,0-0.2,0-0.2-0.1c-0.9-0.8-1.9-1.5-2.9-2.1c-0.9-0.6-1.9-1.2-2.9-1.7c-0.2-0.1-0.2-0.3-0.2-0.5
				c0.1-0.2,0.3-0.2,0.5-0.2c1.1,0.6,2.1,1.1,3,1.7c1,0.7,2.1,1.4,3,2.2c0.2,0.1,0.2,0.4,0.1,0.5C62.5,32.8,62.4,32.9,62.3,32.9z"/>
			<path d="M53.3,24.1c0,0-0.1,0-0.1,0c-0.9-0.4-1.8-0.7-3-1.1c-1-0.3-1.9-0.6-3-0.9c-1-0.3-2-0.5-3-0.7c-0.2,0-0.3-0.2-0.3-0.4
				c0-0.2,0.2-0.3,0.4-0.3c1,0.2,2,0.5,3,0.8c1,0.3,2,0.6,3,0.9c1.1,0.4,2.1,0.8,3,1.2c0.2,0.1,0.3,0.3,0.2,0.5
				C53.6,24,53.5,24.1,53.3,24.1z"/>
			<path d="M47.4,56.3C47.4,56.3,47.3,56.3,47.4,56.3c-1.1-0.3-2.1-0.5-3.1-0.8c-0.2,0-0.3-0.2-0.3-0.4s0.2-0.3,0.4-0.3
				c1,0.2,2,0.5,3,0.8c0.2,0.1,0.3,0.3,0.2,0.4C47.7,56.2,47.5,56.3,47.4,56.3z"/>
			<path d="M41.4,20.7C41.4,20.7,41.4,20.7,41.4,20.7c-1.1-0.2-2.1-0.3-3-0.4c-1-0.1-2-0.2-3-0.3c-0.2,0-0.4-0.2-0.3-0.4
				c0-0.2,0.2-0.3,0.4-0.3c1,0.1,1.9,0.1,3,0.3c1,0.1,1.9,0.2,3,0.4c0.2,0,0.3,0.2,0.3,0.4C41.8,20.6,41.6,20.7,41.4,20.7z"/>
			<path d="M68.2,63.7c-0.1,0-0.3-0.1-0.3-0.2c-0.7-1.3-1.7-2.7-2.9-4c-0.1-0.1-0.1-0.4,0-0.5c0.1-0.1,0.4-0.1,0.5,0
				c1.2,1.4,2.3,2.8,3,4.2c0.1,0.2,0,0.4-0.1,0.5C68.4,63.7,68.3,63.7,68.2,63.7z"/>
			<path d="M68.2,67.1c-0.1,0-0.3-0.1-0.3-0.2c-0.7-1.3-1.7-2.7-2.9-4c-0.1-0.1-0.1-0.4,0-0.5c0.1-0.1,0.4-0.1,0.5,0
				c1.2,1.4,2.3,2.8,3,4.2c0.1,0.2,0,0.4-0.1,0.5C68.4,67.1,68.3,67.1,68.2,67.1z"/>
			<path d="M68.2,70.6c-0.1,0-0.3-0.1-0.3-0.2c-0.7-1.3-1.7-2.7-2.9-4c-0.9-1-1.9-1.9-2.9-2.8c-0.9-0.8-1.9-1.5-2.9-2.1
				c-0.2-0.1-0.2-0.3-0.1-0.5c0.1-0.2,0.3-0.2,0.5-0.1c1,0.7,2.1,1.4,3,2.2c1.1,0.9,2.1,1.9,3,2.9c1.2,1.4,2.3,2.8,3,4.2
				c0.1,0.2,0,0.4-0.1,0.5C68.4,70.5,68.3,70.6,68.2,70.6z"/>
			<path d="M68.2,74c-0.1,0-0.3-0.1-0.3-0.2c-0.7-1.3-1.7-2.7-2.9-4c-0.9-1-1.9-1.9-2.9-2.8c-0.2-0.1-0.2-0.4-0.1-0.5
				c0.1-0.2,0.4-0.2,0.5-0.1c1.1,0.9,2.1,1.9,3,2.9c1.2,1.4,2.3,2.8,3,4.2c0.1,0.2,0,0.4-0.1,0.5C68.4,74,68.3,74,68.2,74z"/>
			<path d="M68.2,63.7c-0.1,0-0.3-0.1-0.3-0.2c-0.7-1.3-1.7-2.7-2.9-4c-0.1-0.1-0.1-0.4,0-0.5c0.1-0.1,0.4-0.1,0.5,0
				c1.2,1.4,2.3,2.8,3,4.2c0.1,0.2,0,0.4-0.1,0.5C68.4,63.7,68.3,63.7,68.2,63.7z"/>
			<path d="M68.2,60.3c-0.1,0-0.3-0.1-0.3-0.2c-0.7-1.3-1.7-2.7-2.9-4c-0.1-0.1-0.1-0.4,0-0.5c0.1-0.1,0.4-0.1,0.5,0
				c1.2,1.4,2.3,2.8,3,4.2c0.1,0.2,0,0.4-0.1,0.5C68.4,60.3,68.3,60.3,68.2,60.3z"/>
			<path d="M68.2,36.3c-0.1,0-0.3-0.1-0.3-0.2c-0.7-1.3-1.7-2.7-2.9-4c-0.1-0.1-0.1-0.4,0-0.5c0.1-0.1,0.4-0.1,0.5,0
				c1.2,1.4,2.3,2.8,3,4.2c0.1,0.2,0,0.4-0.1,0.5C68.4,36.3,68.3,36.3,68.2,36.3z"/>
			<path d="M68.2,39.8c-0.1,0-0.3-0.1-0.3-0.2c-0.7-1.3-1.7-2.7-2.9-4c-0.1-0.1-0.1-0.4,0-0.5c0.1-0.1,0.4-0.1,0.5,0
				c1.2,1.4,2.3,2.8,3,4.2c0.1,0.2,0,0.4-0.1,0.5C68.4,39.7,68.3,39.8,68.2,39.8z"/>
			<path d="M56.3,59.8c-0.1,0-0.1,0-0.2,0c-1-0.5-2-1-3-1.4c-0.9-0.4-1.8-0.7-3-1.1c-0.2-0.1-0.3-0.3-0.2-0.5
				c0.1-0.2,0.3-0.3,0.5-0.2c1.1,0.4,2.1,0.8,3,1.2c1,0.4,2,0.9,3,1.4c0.2,0.1,0.2,0.3,0.2,0.5C56.6,59.7,56.5,59.8,56.3,59.8z"/>
			<path d="M38.5,27.1C38.4,27.1,38.4,27.1,38.5,27.1c-1.1-0.1-2-0.2-3-0.3c-0.2,0-0.4-0.2-0.3-0.4c0-0.2,0.2-0.4,0.4-0.3
				c1,0.1,1.9,0.1,3,0.3c0.2,0,0.3,0.2,0.3,0.4C38.8,27,38.6,27.1,38.5,27.1z"/>
			<path d="M47.4,56.3C47.4,56.3,47.3,56.3,47.4,56.3c-1.1-0.3-2.1-0.5-3.1-0.8c-0.2,0-0.3-0.2-0.3-0.4s0.2-0.3,0.4-0.3
				c1,0.2,2,0.5,3,0.8c0.2,0.1,0.3,0.3,0.2,0.4C47.7,56.2,47.5,56.3,47.4,56.3z"/>
			<path d="M56.3,63.2c-0.1,0-0.1,0-0.2,0c-1-0.5-2-1-3-1.4c-0.9-0.4-1.8-0.7-3-1.1c-1-0.3-1.9-0.6-3-0.9c-1-0.3-2-0.5-3-0.7
				c-0.2,0-0.3-0.2-0.3-0.4c0-0.2,0.2-0.3,0.4-0.3c1,0.2,2,0.5,3,0.8c1,0.3,2,0.6,3,0.9c1.1,0.4,2.1,0.8,3,1.2c1,0.4,2,0.9,3,1.4
				c0.2,0.1,0.2,0.3,0.2,0.5C56.6,63.1,56.5,63.2,56.3,63.2z"/>
			<path d="M41.4,54.9C41.4,54.9,41.4,54.9,41.4,54.9c-1.1-0.2-2.1-0.3-3-0.4c-1-0.1-2-0.2-3-0.3c-0.2,0-0.4-0.2-0.3-0.4
				c0-0.2,0.2-0.3,0.4-0.3c1,0.1,1.9,0.1,3,0.3c1,0.1,1.9,0.2,3,0.4c0.2,0,0.3,0.2,0.3,0.4C41.8,54.8,41.6,54.9,41.4,54.9z"/>
			<path d="M41.4,58.4C41.4,58.4,41.4,58.4,41.4,58.4c-1.1-0.2-2.1-0.3-3-0.4c-1-0.1-2-0.2-3-0.3c-0.2,0-0.4-0.2-0.3-0.4
				c0-0.2,0.2-0.3,0.4-0.3c1,0.1,1.9,0.1,3,0.3c1,0.1,1.9,0.2,3,0.4c0.2,0,0.3,0.2,0.3,0.4C41.8,58.2,41.6,58.4,41.4,58.4z"/>
			<path d="M68.2,43.2c-0.1,0-0.3-0.1-0.3-0.2c-0.7-1.3-1.7-2.7-2.9-4c-0.9-1-1.9-1.9-2.9-2.8c-0.2-0.1-0.2-0.4-0.1-0.5
				c0.1-0.2,0.4-0.2,0.5-0.1c1.1,0.9,2.1,1.9,3,2.9c1.2,1.4,2.3,2.8,3,4.2c0.1,0.2,0,0.4-0.1,0.5C68.4,43.2,68.3,43.2,68.2,43.2z"/>
			<path d="M56.3,32.4c-0.1,0-0.1,0-0.2,0c-1-0.5-2-1-3-1.4c-0.9-0.4-1.8-0.7-3-1.1c-0.9-0.3-1.9-0.6-3-0.9
				c-0.2-0.1-0.3-0.3-0.2-0.4s0.3-0.3,0.4-0.2c1,0.3,2,0.6,3,0.9c1.1,0.4,2.1,0.8,3,1.2c1,0.4,2,0.9,3,1.4c0.2,0.1,0.2,0.3,0.2,0.5
				C56.6,32.3,56.5,32.4,56.3,32.4z"/>
			<path d="M53.3,41.2c0,0-0.1,0-0.1,0c-0.9-0.4-1.8-0.7-3-1.1c-1-0.3-1.9-0.6-3-0.9c-0.2-0.1-0.3-0.3-0.2-0.4
				c0.1-0.2,0.3-0.3,0.4-0.2c1,0.3,2,0.6,3,0.9c1.1,0.4,2.1,0.8,3,1.2c0.2,0.1,0.3,0.3,0.2,0.5C53.6,41.1,53.5,41.2,53.3,41.2z"/>
			<path d="M68.2,46.6c-0.1,0-0.3-0.1-0.3-0.2c-0.7-1.3-1.7-2.7-2.9-4c-0.9-1-1.9-1.9-2.9-2.8c-0.9-0.8-1.9-1.5-2.9-2.1
				c-0.9-0.6-1.9-1.2-3-1.7c-1-0.5-2-1-3-1.4c-0.9-0.4-1.8-0.7-3-1.1c-0.9-0.3-1.9-0.6-3-0.9C47.1,32.2,47,32,47,31.8
				c0.1-0.2,0.3-0.3,0.4-0.2c1,0.3,2,0.6,3,0.9c1.1,0.4,2.1,0.8,3,1.2c1,0.4,2,0.9,3,1.4c1.1,0.6,2.1,1.1,3,1.7c1,0.7,2,1.4,3,2.2
				c1.1,0.9,2.1,1.9,3,2.9c1.2,1.4,2.3,2.8,3,4.2c0.1,0.2,0,0.4-0.1,0.5C68.4,46.6,68.3,46.6,68.2,46.6z"/>
			<path d="M68.2,50c-0.1,0-0.3-0.1-0.3-0.2c-0.7-1.3-1.7-2.7-2.9-4c-0.9-1-1.9-1.9-2.9-2.8c-0.9-0.8-1.9-1.5-2.9-2.1
				c-0.9-0.6-1.9-1.2-2.9-1.7c-0.2-0.1-0.2-0.3-0.2-0.5c0.1-0.2,0.3-0.2,0.5-0.2c1.1,0.6,2.1,1.1,3,1.7c1,0.7,2.1,1.4,3,2.2
				c1.1,0.9,2.1,1.9,3,2.9c1.2,1.4,2.3,2.8,3,4.2c0.1,0.2,0,0.4-0.1,0.5C68.4,50,68.3,50,68.2,50z"/>
			<path d="M68.2,53.4c-0.1,0-0.3-0.1-0.3-0.2c-0.7-1.3-1.7-2.7-2.9-4c-0.9-1-1.9-1.9-2.9-2.8c-0.9-0.8-1.9-1.5-2.9-2.1
				c-0.9-0.6-1.9-1.2-2.9-1.7c-0.2-0.1-0.2-0.3-0.2-0.5c0.1-0.2,0.3-0.2,0.5-0.2c1.1,0.6,2.1,1.1,3,1.7c1,0.7,2.1,1.4,3,2.2
				c1.1,0.9,2.1,1.9,3,2.9c1.2,1.4,2.3,2.8,3,4.2c0.1,0.2,0,0.4-0.1,0.5C68.4,53.4,68.3,53.4,68.2,53.4z"/>
			<path d="M41.4,27.5C41.4,27.5,41.4,27.5,41.4,27.5c-1.1-0.2-2.1-0.3-3-0.4c-0.2,0-0.3-0.2-0.3-0.4c0-0.2,0.2-0.3,0.4-0.3
				c1,0.1,1.9,0.2,3,0.4c0.2,0,0.3,0.2,0.3,0.4C41.8,27.4,41.6,27.5,41.4,27.5z"/>
			<path d="M44.4,28.1C44.4,28.1,44.4,28.1,44.4,28.1c-1.1-0.2-2.1-0.4-3-0.6c-0.2,0-0.3-0.2-0.3-0.4c0-0.2,0.2-0.3,0.4-0.3
				c1,0.2,2,0.4,3,0.6c0.2,0,0.3,0.2,0.3,0.4C44.7,28,44.6,28.1,44.4,28.1z"/>
			<path d="M53.3,27.5c0,0-0.1,0-0.1,0c-0.9-0.4-1.8-0.7-3-1.1c-0.9-0.3-1.9-0.6-3-0.9c-1-0.3-2-0.5-3-0.7c-1-0.2-2-0.4-3-0.6
				c-1-0.2-2-0.3-3-0.4c-1-0.1-2-0.2-3-0.3c-0.2,0-0.4-0.2-0.3-0.4c0-0.2,0.2-0.3,0.4-0.3c1,0.1,1.9,0.1,3,0.3c1,0.1,1.9,0.2,3,0.4
				c1,0.2,1.9,0.3,3,0.6c1,0.2,2,0.5,3,0.8c1,0.3,2,0.6,3,0.9c1.1,0.4,2.1,0.8,3,1.2c0.2,0.1,0.3,0.3,0.2,0.5
				C53.6,27.5,53.5,27.5,53.3,27.5z"/>
			<path d="M53.3,48.1c0,0-0.1,0-0.1,0c-0.9-0.4-1.8-0.7-3-1.1c-1-0.3-1.9-0.6-3-0.9c-1-0.3-2-0.5-3-0.7c-1-0.2-2-0.4-3-0.6
				c-1-0.2-2-0.3-3-0.4c-1-0.1-2-0.2-3-0.3c-0.2,0-0.4-0.2-0.3-0.4c0-0.2,0.2-0.4,0.4-0.3c1,0.1,1.9,0.1,3,0.3c1,0.1,1.9,0.2,3,0.4
				c1,0.2,2,0.4,3,0.6c1,0.2,2,0.5,3,0.8c1,0.3,2,0.6,3,0.9c1.1,0.4,2.1,0.8,3,1.2c0.2,0.1,0.3,0.3,0.2,0.5
				C53.6,48,53.5,48.1,53.3,48.1z"/>
			<path d="M50.4,43.5c0,0-0.1,0-0.1,0c-0.9-0.3-1.9-0.6-3-0.9c-1-0.3-2-0.5-3-0.7c-1-0.2-2-0.4-3-0.6c-1-0.2-2-0.3-3-0.4
				c-1-0.1-2-0.2-3-0.3c-0.2,0-0.4-0.2-0.3-0.4c0-0.2,0.2-0.4,0.4-0.3c1,0.1,1.9,0.1,3,0.3c1,0.1,1.9,0.2,3,0.4c1,0.2,2,0.4,3,0.6
				c1,0.2,2,0.5,3,0.8c1,0.3,2,0.6,3,0.9c0.2,0.1,0.3,0.3,0.2,0.5C50.7,43.4,50.5,43.5,50.4,43.5z"/>
			<path d="M44.4,48.7C44.4,48.7,44.4,48.7,44.4,48.7c-1.1-0.2-2.1-0.4-3-0.6l-3-0.4c-1-0.1-2-0.2-3-0.3c-0.2,0-0.4-0.2-0.3-0.4
				c0-0.2,0.2-0.4,0.4-0.3c1,0.1,1.9,0.1,3,0.3l3,0.4c1,0.2,2,0.4,3,0.6c0.2,0,0.3,0.2,0.3,0.4C44.7,48.5,44.6,48.7,44.4,48.7z"/>
			<path d="M44.4,31.5C44.4,31.5,44.4,31.5,44.4,31.5c-1.1-0.2-2.1-0.4-3-0.6c-1-0.2-2-0.3-3-0.4c-1-0.1-2-0.2-3-0.3
				c-0.2,0-0.4-0.2-0.3-0.4c0-0.2,0.2-0.4,0.4-0.3c1,0.1,1.9,0.1,3,0.3c1,0.1,1.9,0.2,3,0.4c1,0.2,1.9,0.3,3,0.6
				c0.2,0,0.3,0.2,0.3,0.4C44.7,31.4,44.6,31.5,44.4,31.5z"/>
			<path d="M53.3,37.8c0,0-0.1,0-0.1,0c-0.9-0.4-1.8-0.7-3-1.1c-1-0.3-1.9-0.6-3-0.9c-1-0.3-2-0.5-3-0.7c-1-0.2-2-0.4-3-0.6
				c-1-0.2-2-0.3-3-0.4c-1-0.1-2-0.2-3-0.3c-0.2,0-0.4-0.2-0.3-0.4c0-0.2,0.2-0.4,0.4-0.3c1,0.1,1.9,0.1,3,0.3c1,0.1,1.9,0.2,3,0.4
				c1,0.2,2,0.4,3,0.6c1,0.2,2,0.5,3,0.8c1,0.3,2,0.6,3,0.9c1.1,0.4,2.1,0.8,3,1.2c0.2,0.1,0.3,0.3,0.2,0.5
				C53.6,37.7,53.5,37.8,53.3,37.8z"/>
			<path d="M44.4,38.4C44.4,38.4,44.4,38.4,44.4,38.4c-1.1-0.2-2.1-0.4-3-0.6c-1-0.2-2-0.3-3-0.4c0,0,0,0,0,0
				c-0.9-0.1-1.8-0.2-2.7-0.2c-0.1,0-0.1,0-0.2,0c0,0-0.1,0-0.1,0l0-0.7c1,0.1,1.9,0.1,3,0.3c1,0.1,1.9,0.2,3,0.4c1,0.2,2,0.4,3,0.6
				c0.2,0,0.3,0.2,0.3,0.4C44.7,38.3,44.6,38.4,44.4,38.4z"/>
			<path d="M68.2,56.9c-0.1,0-0.3-0.1-0.3-0.2c-0.7-1.3-1.7-2.7-2.9-4c-0.9-1-1.9-1.9-2.9-2.8c-0.9-0.8-1.9-1.5-2.9-2.1
				c-0.2-0.1-0.2-0.3-0.1-0.5c0.1-0.2,0.3-0.2,0.5-0.1c1,0.7,2.1,1.4,3,2.2c1.1,0.9,2.1,1.9,3,2.9c1.2,1.4,2.3,2.8,3,4.2
				c0.1,0.2,0,0.4-0.1,0.5C68.4,56.9,68.3,56.9,68.2,56.9z"/>
			<path d="M62.3,53.4c-0.1,0-0.2,0-0.2-0.1c-0.9-0.8-1.9-1.5-2.9-2.1c-0.2-0.1-0.2-0.3-0.1-0.5c0.1-0.2,0.3-0.2,0.5-0.1
				c1,0.7,2.1,1.4,3,2.2c0.2,0.1,0.2,0.4,0.1,0.5C62.5,53.3,62.4,53.4,62.3,53.4z"/>
			<path d="M62.3,53.4c-0.1,0-0.2,0-0.2-0.1c-0.9-0.8-1.9-1.5-2.9-2.1c-0.2-0.1-0.2-0.3-0.1-0.5c0.1-0.2,0.3-0.2,0.5-0.1
				c1,0.7,2.1,1.4,3,2.2c0.2,0.1,0.2,0.4,0.1,0.5C62.5,53.3,62.4,53.4,62.3,53.4z"/>
			<path d="M62.3,56.8c-0.1,0-0.2,0-0.2-0.1c-0.9-0.8-1.9-1.5-2.9-2.1c-0.9-0.6-1.9-1.2-2.9-1.7c-1-0.5-2-1-3-1.4
				c-0.9-0.4-1.8-0.7-3-1.1c-1-0.3-1.9-0.6-3-0.9C47.1,49.3,47,49.1,47,49c0.1-0.2,0.3-0.3,0.4-0.2c1,0.3,2,0.6,3,0.9
				c1.1,0.4,2.1,0.8,3,1.2c1,0.4,2,0.9,3,1.4c1.1,0.6,2.1,1.1,3,1.7c1,0.7,2.1,1.4,3,2.2c0.2,0.1,0.2,0.4,0.1,0.5
				C62.5,56.8,62.4,56.8,62.3,56.8z"/>
			<path d="M62.3,60.2c-0.1,0-0.2,0-0.2-0.1c-0.9-0.8-1.9-1.5-2.9-2.1c-0.9-0.6-1.9-1.2-2.9-1.7c-1-0.5-2-1-3-1.4
				c-0.9-0.4-1.8-0.7-3-1.1c-0.9-0.3-1.9-0.6-3-0.9c-1-0.3-2-0.5-3-0.7c-1-0.2-2-0.4-3-0.6c-1-0.2-2-0.3-3-0.4c-1-0.1-2-0.2-3-0.3
				c-0.2,0-0.4-0.2-0.3-0.4c0-0.2,0.2-0.3,0.4-0.3c1,0.1,1.9,0.1,3,0.3c1,0.1,1.9,0.2,3,0.4c1,0.2,2,0.4,3,0.6c1,0.2,2,0.5,3,0.8
				c1,0.3,2,0.6,3,0.9c1.1,0.4,2.1,0.8,3,1.2c1,0.4,2,0.9,3,1.4c1.1,0.6,2.1,1.1,3,1.7c1,0.7,2.1,1.4,3,2.2c0.2,0.1,0.2,0.4,0.1,0.5
				C62.5,60.2,62.4,60.2,62.3,60.2z"/>
			<path d="M79,29.4c-0.1,0-0.2,0-0.3-0.1c-0.1-0.2-0.1-0.4,0.1-0.5c1-0.8,2-1.5,3-2.2c0.9-0.6,2-1.2,3-1.7c0.2-0.1,0.4,0,0.5,0.2
				c0.1,0.2,0,0.4-0.2,0.5c-1,0.5-2,1.1-2.9,1.7c-1,0.7-2,1.4-2.9,2.1C79.2,29.4,79.1,29.4,79,29.4z"/>
			<path d="M79,32.9c-0.1,0-0.2,0-0.3-0.1c-0.1-0.2-0.1-0.4,0.1-0.5c1-0.8,2-1.5,3-2.2c0.9-0.6,1.9-1.2,3-1.7c0.2-0.1,0.4,0,0.5,0.2
				c0.1,0.2,0,0.4-0.2,0.5c-1,0.5-2,1.1-3,1.7c-1,0.7-2,1.4-2.9,2.1C79.2,32.8,79.1,32.9,79,32.9z"/>
			<path d="M87.9,24.1c-0.1,0-0.3-0.1-0.3-0.2c-0.1-0.2,0-0.4,0.2-0.5c0.9-0.4,1.9-0.8,3-1.2c1-0.3,2-0.7,3-0.9c1-0.3,2-0.5,3-0.8
				c0.2,0,0.4,0.1,0.4,0.3c0,0.2-0.1,0.4-0.3,0.4c-1,0.2-2,0.5-3,0.7c-1,0.3-2,0.6-3,0.9c-1.1,0.4-2.1,0.8-3,1.1
				C88,24.1,88,24.1,87.9,24.1z"/>
			<path d="M93.9,56.3c-0.2,0-0.3-0.1-0.3-0.3c-0.1-0.2,0.1-0.4,0.2-0.4c1-0.3,2-0.5,3-0.8c0.2,0,0.4,0.1,0.4,0.3
				c0,0.2-0.1,0.4-0.3,0.4C96,55.7,95,56,93.9,56.3C94,56.3,93.9,56.3,93.9,56.3z"/>
			<path d="M99.9,20.7c-0.2,0-0.3-0.1-0.4-0.3c0-0.2,0.1-0.4,0.3-0.4c1.1-0.2,2-0.3,3-0.4c1.1-0.1,2-0.2,3-0.3
				c0.2,0,0.4,0.1,0.4,0.3c0,0.2-0.1,0.4-0.3,0.4c-1,0.1-1.9,0.1-3,0.3C101.9,20.4,101,20.5,99.9,20.7
				C99.9,20.7,99.9,20.7,99.9,20.7z"/>
			<path d="M73.1,63.7c-0.1,0-0.1,0-0.2,0c-0.2-0.1-0.2-0.3-0.1-0.5c0.8-1.4,1.8-2.8,3-4.2c0.1-0.1,0.4-0.2,0.5,0
				c0.1,0.1,0.2,0.4,0,0.5c-1.2,1.3-2.2,2.7-2.9,4C73.3,63.6,73.2,63.7,73.1,63.7z"/>
			<path d="M73.1,67.1c-0.1,0-0.1,0-0.2,0c-0.2-0.1-0.2-0.3-0.1-0.5c0.8-1.4,1.8-2.8,3-4.2c0.1-0.1,0.4-0.2,0.5,0
				c0.1,0.1,0.2,0.4,0,0.5c-1.2,1.3-2.2,2.7-2.9,4C73.3,67.1,73.2,67.1,73.1,67.1z"/>
			<path d="M73.1,70.6c-0.1,0-0.1,0-0.2,0c-0.2-0.1-0.2-0.3-0.1-0.5c0.8-1.4,1.8-2.8,3-4.2c0.9-1,1.9-1.9,3-2.9c1-0.8,2-1.5,3-2.2
				c0.2-0.1,0.4-0.1,0.5,0.1c0.1,0.2,0.1,0.4-0.1,0.5c-1,0.7-2,1.4-2.9,2.1c-1.1,0.9-2.1,1.8-2.9,2.8c-1.2,1.3-2.2,2.7-2.9,4
				C73.3,70.5,73.2,70.6,73.1,70.6z"/>
			<path d="M73.1,74c-0.1,0-0.1,0-0.2,0c-0.2-0.1-0.2-0.3-0.1-0.5c0.8-1.4,1.8-2.8,3-4.2c0.9-1,1.9-1.9,3-2.9
				c0.2-0.1,0.4-0.1,0.5,0.1c0.1,0.2,0.1,0.4-0.1,0.5c-1.1,0.9-2.1,1.8-2.9,2.8c-1.2,1.3-2.2,2.7-2.9,4C73.3,73.9,73.2,74,73.1,74z"
				/>
			<path d="M73.1,63.7c-0.1,0-0.1,0-0.2,0c-0.2-0.1-0.2-0.3-0.1-0.5c0.8-1.4,1.8-2.8,3-4.2c0.1-0.1,0.4-0.2,0.5,0
				c0.1,0.1,0.2,0.4,0,0.5c-1.2,1.3-2.2,2.7-2.9,4C73.3,63.6,73.2,63.7,73.1,63.7z"/>
			<path d="M73.1,60.3c-0.1,0-0.1,0-0.2,0c-0.2-0.1-0.2-0.3-0.1-0.5c0.8-1.4,1.8-2.8,3-4.2c0.1-0.1,0.4-0.2,0.5,0
				c0.1,0.1,0.2,0.4,0,0.5c-1.2,1.3-2.2,2.7-2.9,4C73.3,60.2,73.2,60.3,73.1,60.3z"/>
			<path d="M73.1,36.3c-0.1,0-0.1,0-0.2,0c-0.2-0.1-0.2-0.3-0.1-0.5c0.8-1.4,1.8-2.8,3-4.2c0.1-0.1,0.4-0.2,0.5,0
				c0.1,0.1,0.2,0.4,0,0.5c-1.2,1.3-2.2,2.7-2.9,4C73.3,36.3,73.2,36.3,73.1,36.3z"/>
			<path d="M73.1,39.8c-0.1,0-0.1,0-0.2,0c-0.2-0.1-0.2-0.3-0.1-0.5c0.8-1.4,1.8-2.8,3-4.2c0.1-0.1,0.4-0.2,0.5,0
				c0.1,0.1,0.2,0.4,0,0.5c-1.2,1.3-2.2,2.7-2.9,4C73.3,39.7,73.2,39.8,73.1,39.8z"/>
			<path d="M85,59.8c-0.1,0-0.3-0.1-0.3-0.2c-0.1-0.2,0-0.4,0.2-0.5c1-0.5,2-1,3-1.4c0.9-0.4,1.9-0.8,3-1.2c0.2-0.1,0.4,0,0.5,0.2
				c0.1,0.2,0,0.4-0.2,0.5c-1.1,0.4-2.1,0.8-3,1.1c-1,0.4-1.9,0.9-3,1.4C85.1,59.7,85,59.8,85,59.8z"/>
			<path d="M102.8,27.1c-0.2,0-0.3-0.1-0.4-0.3c0-0.2,0.1-0.4,0.3-0.4c1-0.1,2-0.2,3-0.3c0.2,0,0.4,0.1,0.4,0.3
				c0,0.2-0.1,0.4-0.3,0.4C104.9,26.9,103.9,27,102.8,27.1C102.9,27.1,102.9,27.1,102.8,27.1z"/>
			<path d="M93.9,56.3c-0.2,0-0.3-0.1-0.3-0.3c-0.1-0.2,0.1-0.4,0.2-0.4c1-0.3,2-0.5,3-0.8c0.2,0,0.4,0.1,0.4,0.3
				c0,0.2-0.1,0.4-0.3,0.4C96,55.7,95,56,93.9,56.3C94,56.3,93.9,56.3,93.9,56.3z"/>
			<path d="M85,63.2c-0.1,0-0.3-0.1-0.3-0.2c-0.1-0.2,0-0.4,0.2-0.5c1-0.5,2-1,3-1.4c0.9-0.4,1.9-0.8,3-1.2c1-0.3,2-0.7,3-0.9
				c1-0.3,2-0.5,3-0.8c0.2,0,0.4,0.1,0.4,0.3c0,0.2-0.1,0.4-0.3,0.4c-1,0.2-2,0.5-3,0.7c-1,0.3-2,0.6-3,0.9c-1.1,0.4-2.1,0.8-3,1.1
				c-1,0.4-1.9,0.9-3,1.4C85.1,63.2,85,63.2,85,63.2z"/>
			<path d="M99.9,54.9c-0.2,0-0.3-0.1-0.4-0.3c0-0.2,0.1-0.4,0.3-0.4c1.1-0.2,2-0.3,3-0.4c1-0.1,2-0.2,3-0.3c0.2,0,0.4,0.1,0.4,0.3
				c0,0.2-0.1,0.4-0.3,0.4c-1,0.1-1.9,0.1-3,0.3C101.9,54.6,101,54.8,99.9,54.9C99.9,54.9,99.9,54.9,99.9,54.9z"/>
			<path d="M99.9,58.4c-0.2,0-0.3-0.1-0.4-0.3c0-0.2,0.1-0.4,0.3-0.4c1.1-0.2,2-0.3,3-0.4c1.1-0.1,2-0.2,3-0.3
				c0.2,0,0.4,0.1,0.4,0.3c0,0.2-0.1,0.4-0.3,0.4c-1,0.1-1.9,0.1-3,0.3C101.9,58,101,58.2,99.9,58.4C99.9,58.4,99.9,58.4,99.9,58.4z
				"/>
			<path d="M73.1,43.2c-0.1,0-0.1,0-0.2,0c-0.2-0.1-0.2-0.3-0.1-0.5c0.8-1.4,1.8-2.8,3-4.2c0.9-1,1.9-1.9,3-2.9
				c0.2-0.1,0.4-0.1,0.5,0.1c0.1,0.2,0.1,0.4-0.1,0.5c-1.1,0.9-2.1,1.8-2.9,2.8c-1.2,1.3-2.2,2.7-2.9,4
				C73.3,43.1,73.2,43.2,73.1,43.2z"/>
			<path d="M85,32.4c-0.1,0-0.3-0.1-0.3-0.2c-0.1-0.2,0-0.4,0.2-0.5c1-0.5,2-1,3-1.4c0.9-0.4,1.9-0.8,3-1.2c1-0.3,2-0.7,3-0.9
				c0.2-0.1,0.4,0.1,0.4,0.2c0.1,0.2-0.1,0.4-0.2,0.4c-1,0.3-2,0.6-3,0.9c-1.1,0.4-2.1,0.8-3,1.1c-1,0.4-1.9,0.9-3,1.4
				C85.1,32.4,85,32.4,85,32.4z"/>
			<path d="M87.9,41.2c-0.1,0-0.3-0.1-0.3-0.2c-0.1-0.2,0-0.4,0.2-0.5c0.9-0.4,1.9-0.8,3-1.2c1-0.3,2-0.7,3-0.9
				c0.2-0.1,0.4,0.1,0.4,0.2c0.1,0.2-0.1,0.4-0.2,0.4c-1,0.3-2,0.6-3,0.9c-1.1,0.4-2.1,0.8-3,1.1C88,41.2,88,41.2,87.9,41.2z"/>
			<path d="M73.1,46.6c-0.1,0-0.1,0-0.2,0c-0.2-0.1-0.2-0.3-0.1-0.5c0.8-1.4,1.8-2.8,3-4.2c0.9-1,1.9-1.9,3-2.9c1-0.8,2-1.5,3-2.2
				c0.9-0.6,1.9-1.2,3-1.7c1-0.5,2-1,3-1.4c0.9-0.4,1.9-0.8,3-1.2c1-0.3,2-0.7,3-0.9c0.2-0.1,0.4,0.1,0.4,0.2
				c0.1,0.2-0.1,0.4-0.2,0.4c-1,0.3-2,0.6-3,0.9c-1.1,0.4-2.1,0.8-3,1.1c-1,0.4-1.9,0.9-3,1.4c-1,0.5-2,1.1-3,1.7
				c-1,0.7-2,1.4-2.9,2.1c-1.1,0.9-2.1,1.8-2.9,2.8c-1.2,1.3-2.2,2.7-2.9,4C73.3,46.5,73.2,46.6,73.1,46.6z"/>
			<path d="M73.1,50c-0.1,0-0.1,0-0.2,0c-0.2-0.1-0.2-0.3-0.1-0.5c0.8-1.4,1.8-2.8,3-4.2c0.9-1,1.9-1.9,3-2.9c1-0.8,2-1.5,3-2.2
				c0.9-0.6,1.9-1.2,3-1.7c0.2-0.1,0.4,0,0.5,0.2c0.1,0.2,0,0.4-0.2,0.5c-1,0.5-2,1.1-3,1.7c-1,0.7-2,1.4-2.9,2.1
				c-1.1,0.9-2.1,1.8-2.9,2.8c-1.2,1.3-2.2,2.7-2.9,4C73.3,50,73.2,50,73.1,50z"/>
			<path d="M73.1,53.4c-0.1,0-0.1,0-0.2,0c-0.2-0.1-0.2-0.3-0.1-0.5c0.8-1.4,1.8-2.8,3-4.2c0.9-1,1.9-1.9,3-2.9c1-0.8,2-1.5,3-2.2
				c0.9-0.6,2-1.2,3-1.7c0.2-0.1,0.4,0,0.5,0.2c0.1,0.2,0,0.4-0.2,0.5c-1,0.5-2,1.1-3,1.7c-1,0.7-2,1.4-2.9,2.1
				c-1.1,0.9-2.1,1.8-2.9,2.8c-1.2,1.3-2.2,2.7-2.9,4C73.3,53.4,73.2,53.4,73.1,53.4z"/>
			<path d="M99.9,27.5c-0.2,0-0.3-0.1-0.4-0.3c0-0.2,0.1-0.4,0.3-0.4c1.1-0.2,2-0.3,3-0.4c0.2,0,0.4,0.1,0.4,0.3
				c0,0.2-0.1,0.4-0.3,0.4C101.9,27.2,101,27.4,99.9,27.5C99.9,27.5,99.9,27.5,99.9,27.5z"/>
			<path d="M96.9,28.1c-0.2,0-0.3-0.1-0.4-0.3c0-0.2,0.1-0.4,0.3-0.4c1-0.2,2-0.4,3-0.6c0.2,0,0.4,0.1,0.4,0.3
				c0,0.2-0.1,0.4-0.3,0.4C99,27.7,98,27.9,96.9,28.1C96.9,28.1,96.9,28.1,96.9,28.1z"/>
			<path d="M87.9,27.5c-0.1,0-0.3-0.1-0.3-0.2c-0.1-0.2,0-0.4,0.2-0.5c0.9-0.4,1.9-0.8,3-1.2c1-0.3,2-0.7,3-0.9c1-0.3,2-0.5,3-0.8
				c1.1-0.2,2-0.4,3-0.6c1.1-0.2,2-0.3,3-0.4c1-0.1,2-0.2,3-0.3c0.2,0,0.4,0.1,0.4,0.3c0,0.2-0.1,0.4-0.3,0.4c-1,0.1-1.9,0.1-3,0.3
				c-0.9,0.1-1.9,0.2-3,0.4c-1,0.2-1.9,0.3-3,0.6c-1,0.2-2,0.5-3,0.7c-1,0.3-2,0.6-3,0.9c-1.1,0.4-2.1,0.8-3,1.1
				C88,27.5,88,27.5,87.9,27.5z"/>
			<path d="M87.9,48.1c-0.1,0-0.3-0.1-0.3-0.2c-0.1-0.2,0-0.4,0.2-0.5c0.9-0.4,1.9-0.8,3-1.2c1-0.3,2-0.7,3-0.9c1-0.3,2-0.5,3-0.8
				c1-0.2,2-0.4,3-0.6c1.1-0.2,2-0.3,3-0.4c1-0.1,2-0.2,3-0.3c0.2,0,0.4,0.1,0.4,0.3c0,0.2-0.1,0.4-0.3,0.4c-1,0.1-1.9,0.1-3,0.3
				c-0.9,0.1-1.9,0.2-3,0.4c-1,0.2-1.9,0.3-3,0.6c-1,0.2-1.9,0.5-3,0.7c-1,0.3-2,0.6-3,0.9c-1.1,0.4-2.1,0.8-3,1.1
				C88,48.1,88,48.1,87.9,48.1z"/>
			<path d="M90.9,43.5c-0.1,0-0.3-0.1-0.3-0.2c-0.1-0.2,0-0.4,0.2-0.5c1-0.3,2-0.7,3-0.9c1-0.3,2-0.5,3-0.8c1-0.2,2-0.4,3-0.6
				c1-0.2,2-0.3,3-0.4c1.1-0.1,2-0.2,3-0.3c0.2,0,0.4,0.1,0.4,0.3c0,0.2-0.1,0.4-0.3,0.4c-1,0.1-1.9,0.1-3,0.3c-1,0.1-1.9,0.2-3,0.4
				c-1,0.2-1.9,0.3-3,0.6c-1,0.2-2,0.5-3,0.7c-1,0.3-2,0.6-3,0.9C91,43.5,91,43.5,90.9,43.5z"/>
			<path d="M96.9,48.7c-0.2,0-0.3-0.1-0.4-0.3c0-0.2,0.1-0.4,0.3-0.4c1-0.2,2-0.4,3-0.6l3-0.4c1.1-0.1,2-0.2,3-0.3
				c0.2,0,0.4,0.1,0.4,0.3c0,0.2-0.1,0.4-0.3,0.4c-1,0.1-1.9,0.1-3,0.3l-3,0.4C99,48.2,98,48.4,96.9,48.7
				C96.9,48.7,96.9,48.7,96.9,48.7z"/>
			<path d="M96.9,31.5c-0.2,0-0.3-0.1-0.4-0.3c0-0.2,0.1-0.4,0.3-0.4c1.1-0.2,2-0.4,3-0.6c1.1-0.2,2-0.3,3-0.4c1.1-0.1,2-0.2,3-0.3
				c0.2,0,0.4,0.1,0.4,0.3c0,0.2-0.1,0.4-0.3,0.4c-1,0.1-1.9,0.1-3,0.3c-1,0.1-1.9,0.2-3,0.4C99,31.1,98,31.3,96.9,31.5
				C96.9,31.5,96.9,31.5,96.9,31.5z"/>
			<path d="M87.9,37.8c-0.1,0-0.3-0.1-0.3-0.2c-0.1-0.2,0-0.4,0.2-0.5c0.9-0.4,1.9-0.8,3-1.2c1-0.3,2-0.7,3-0.9c1-0.3,2-0.5,3-0.8
				c1-0.2,2-0.4,3-0.6c1.1-0.2,2-0.3,3-0.4c1-0.1,2-0.2,3-0.3c0.2,0,0.4,0.1,0.4,0.3c0,0.2-0.1,0.4-0.3,0.4c-1,0.1-1.9,0.1-3,0.3
				c-1,0.1-1.9,0.2-3,0.4c-1,0.2-1.9,0.3-3,0.6c-1,0.2-2,0.5-3,0.7c-1,0.3-2,0.6-3,0.9c-1.1,0.4-2.1,0.8-3,1.1
				C88,37.8,88,37.8,87.9,37.8z"/>
			<path d="M96.9,38.4c-0.2,0-0.3-0.1-0.4-0.3c0-0.2,0.1-0.4,0.3-0.4c1-0.2,2-0.4,3-0.6c1.1-0.2,2-0.3,3-0.4c0,0,0,0,0,0
				c1-0.1,1.9-0.2,2.8-0.3c0.1,0,0.1,0,0.2,0l0,0.7c-1,0.1-1.9,0.1-3,0.3c-1,0.1-1.9,0.2-3,0.4C99,38,98,38.2,96.9,38.4
				C96.9,38.4,96.9,38.4,96.9,38.4z"/>
			<path d="M73.1,56.9c-0.1,0-0.1,0-0.2,0c-0.2-0.1-0.2-0.3-0.1-0.5c0.8-1.4,1.8-2.8,3-4.2c0.9-1,1.9-1.9,3-2.9c1-0.8,2-1.5,3-2.2
				c0.2-0.1,0.4-0.1,0.5,0.1c0.1,0.2,0.1,0.4-0.1,0.5c-1,0.7-2,1.4-2.9,2.1c-1.1,0.9-2.1,1.8-2.9,2.8c-1.2,1.3-2.2,2.7-2.9,4
				C73.3,56.8,73.2,56.9,73.1,56.9z"/>
			<path d="M79,53.4c-0.1,0-0.2,0-0.3-0.1c-0.1-0.2-0.1-0.4,0.1-0.5c1-0.8,2-1.5,3-2.2c0.2-0.1,0.4-0.1,0.5,0.1
				c0.1,0.2,0.1,0.4-0.1,0.5c-1,0.7-2,1.4-2.9,2.1C79.2,53.4,79.1,53.4,79,53.4z"/>
			<path d="M79,53.4c-0.1,0-0.2,0-0.3-0.1c-0.1-0.2-0.1-0.4,0.1-0.5c1-0.8,2-1.5,3-2.2c0.2-0.1,0.4-0.1,0.5,0.1
				c0.1,0.2,0.1,0.4-0.1,0.5c-1,0.7-2,1.4-2.9,2.1C79.2,53.4,79.1,53.4,79,53.4z"/>
			<path d="M79,56.8c-0.1,0-0.2,0-0.3-0.1c-0.1-0.2-0.1-0.4,0.1-0.5c1-0.8,2-1.5,3-2.2c0.9-0.6,2-1.2,3-1.7c1-0.5,2-1,3-1.4
				c0.9-0.4,1.9-0.8,3-1.2c1-0.3,2-0.7,3-0.9c0.2-0.1,0.4,0.1,0.4,0.2c0.1,0.2-0.1,0.4-0.2,0.4c-1,0.3-2,0.6-3,0.9
				c-1.1,0.4-2.1,0.8-3,1.1c-1,0.4-1.9,0.9-3,1.4c-1,0.5-2,1.1-3,1.7c-1,0.7-2,1.4-2.9,2.1C79.2,56.8,79.1,56.8,79,56.8z"/>
			<path d="M79,60.2c-0.1,0-0.2,0-0.3-0.1c-0.1-0.2-0.1-0.4,0.1-0.5c1-0.8,2-1.5,3-2.2c0.9-0.6,1.9-1.2,3-1.7c1-0.5,2-1,3-1.4
				c0.9-0.4,1.9-0.8,3-1.2c1-0.3,2-0.7,3-0.9c1-0.3,2-0.5,3-0.8c1-0.2,2-0.4,3-0.6c1.1-0.2,2-0.3,3-0.4c1.1-0.1,2-0.2,3-0.3
				c0.2,0,0.4,0.1,0.4,0.3c0,0.2-0.1,0.4-0.3,0.4c-1,0.1-1.9,0.1-3,0.3c-1,0.1-1.9,0.2-3,0.4c-1,0.2-1.9,0.3-3,0.6
				c-1,0.2-2,0.5-3,0.7c-1,0.3-2,0.6-3,0.9c-1.1,0.4-2.1,0.8-3,1.1c-1,0.4-1.9,0.9-3,1.4c-1,0.5-2,1.1-3,1.7c-1,0.7-2,1.4-2.9,2.1
				C79.2,60.2,79.1,60.2,79,60.2z"/>
		</g>
		<circle class="st9" cx="70.9" cy="94.4" r="29.2"/>
		<g>
			<path class="st4" d="M81.7,88.1c-4.4-1.4-7.5-4.9-8.9-11.4c-0.5-2.2-2.6-3.6-4.9-3.1c-2.2,0.5-3.6,2.7-3.1,4.9
				c1.3,5.8,4.6,10,7.2,12.6c-2.4,2.1-3.9,5.2-3.9,8.7c0,6.4,5.2,11.7,11.7,11.7s11.7-5.2,11.7-11.7C91.5,93.7,86.2,89.5,81.7,88.1z
				"/>
			<path class="st4" d="M79.8,88.1H54.3c-2.3,0-4.1,1.8-4.1,4.1c0,1.7,1.1,3.2,2.6,3.8c-1.5,0.6-2.6,2.1-2.6,3.8
				c0,2.3,1.8,4.1,4.1,4.1h2.6c-1.2,0.7-2,2-2,3.5c0,2.3,1.8,4.1,4.1,4.1h20.8V88.1z"/>
		</g>
	</g>
</g>
</svg>
