<?xml version="1.0" encoding="utf-8"?>
<!-- Generator: Adobe Illustrator 21.0.0, SVG Export Plug-In . SVG Version: 6.00 Build 0)  -->
<svg version="1.1" id="Layer_1" xmlns="http://www.w3.org/2000/svg" xmlns:xlink="http://www.w3.org/1999/xlink" x="0px" y="0px"
	 viewBox="0 0 180 180" style="enable-background:new 0 0 180 180;" xml:space="preserve">
<style type="text/css">
	.st0{fill:#E2E1E1;}
	.st1{fill:#BCC6E0;}
	.st2{fill:#1F374F;}
	.st3{fill:#88A0CB;}
	.st4{fill:#E8AC5C;}
	.st5{fill:#C18849;}
	.st6{fill:#575756;}
	.st7{fill:#404040;}
	.st8{fill:#B2B2B2;}
	.st9{fill:#525251;}
	.st10{fill:none;stroke:#000000;stroke-width:5.247194e-02;stroke-miterlimit:10;}
	.st11{fill:#D0D0D0;}
	.st12{fill:none;stroke:#838382;stroke-width:0.6563;stroke-linecap:round;stroke-linejoin:round;stroke-miterlimit:10;}
	.st13{fill:none;stroke:#838382;stroke-width:0.5054;stroke-linecap:round;stroke-linejoin:round;stroke-miterlimit:10;}
	.st14{fill:#A6A6A5;}
	.st15{fill:#C2C2C2;}
	.st16{fill:#838382;}
	.st17{fill:#E30613;}
	.st18{fill:#333333;}
	.st19{fill:#9AA6BB;}
</style>
<g>
	<path class="st0" d="M112.3,100.3c-11.4,0-15.4-6.6-28.3-6.6c-13.4,0-19.7,7.9-35.8,7.9c-17,0-24.6-5.4-38.4-5.4v7.6h102.7
		L112.3,100.3z"/>
	<g>
		<path class="st1" d="M169.2,88.1h-3c-8.3,0-11.2,8.6-18.3,8.6h-3.7c-4.2,0-7-3.1-10.2-5.5c-1.8-1.4-3.8-2.5-6.2-3
			c-6.9,1.2-9.9,8.5-16.4,8.5h-3.7c-5.1,0-8.1-4.5-12.5-7v13.5h74.1V88.1z"/>
	</g>
	<path class="st2" d="M125.9,88.1c-4.5,0-7.4,2.5-10.2,4.9c-2.4,2-4.8,3.8-8.1,3.8h3.7c6.5,0,9.5-7.3,16.4-8.5l0,0
		C127.2,88.2,126.5,88.1,125.9,88.1z"/>
	<path class="st3" d="M89.3,88.1c8.3,0,11.2,8.6,18.3,8.6c3.3,0,5.6-1.8,8.1-3.8c-2.9-2.3-5.8-4.9-10.2-4.9H89.3z"/>
	<path class="st3" d="M125.9,88.1c8.3,0,11.2,8.6,18.3,8.6c3.3,0,5.6-1.8,8.1-3.8c-2.9-2.3-5.8-4.9-10.2-4.9H125.9z"/>
	<g>
		<path class="st2" d="M162.5,88.1c-4.5,0-7.4,2.5-10.2,4.9c-2.4,2-4.8,3.8-8.1,3.8h3.7c7.1,0,10-8.6,18.3-8.6H162.5z"/>
	</g>
	<rect x="97.1" y="97.4" class="st4" width="3.8" height="2.9"/>
	<rect x="97.1" y="100.3" class="st5" width="3.8" height="2.9"/>
	<rect x="100.9" y="97.4" class="st5" width="3.8" height="2.9"/>
	<rect x="100.9" y="100.3" class="st4" width="3.8" height="2.9"/>
	<rect x="104.7" y="97.4" class="st5" width="3.8" height="2.9"/>
	<rect x="104.7" y="100.3" class="st5" width="3.8" height="2.9"/>
	<rect x="108.5" y="97.4" class="st4" width="3.8" height="2.9"/>
	<rect x="108.5" y="100.3" class="st5" width="3.8" height="2.9"/>
	<rect x="112.3" y="97.4" class="st5" width="3.8" height="2.9"/>
	<rect x="112.3" y="100.3" class="st4" width="3.8" height="2.9"/>
	<rect x="116.1" y="97.4" class="st4" width="3.8" height="2.9"/>
	<rect x="116.1" y="100.3" class="st5" width="3.8" height="2.9"/>
	<rect x="119.9" y="97.4" class="st5" width="3.8" height="2.9"/>
	<rect x="119.9" y="100.3" class="st5" width="3.8" height="2.9"/>
	<rect x="123.7" y="97.4" class="st5" width="3.8" height="2.9"/>
	<rect x="123.7" y="100.3" class="st5" width="3.8" height="2.9"/>
	<rect x="127.5" y="97.4" class="st4" width="3.8" height="2.9"/>
	<rect x="127.5" y="100.3" class="st4" width="3.8" height="2.9"/>
	<rect x="131.3" y="97.4" class="st5" width="3.8" height="2.9"/>
	<rect x="131.3" y="100.3" class="st5" width="3.8" height="2.9"/>
	<rect x="135.1" y="97.4" class="st5" width="3.8" height="2.9"/>
	<rect x="135.1" y="100.3" class="st5" width="3.8" height="2.9"/>
	<rect x="138.9" y="97.4" class="st4" width="3.8" height="2.9"/>
	<rect x="138.9" y="100.3" class="st5" width="3.8" height="2.9"/>
	<rect x="142.7" y="97.4" class="st5" width="3.8" height="2.9"/>
	<rect x="142.7" y="100.3" class="st4" width="3.8" height="2.9"/>
	<rect x="146.5" y="97.4" class="st5" width="3.8" height="2.9"/>
	<rect x="146.5" y="100.3" class="st5" width="3.8" height="2.9"/>
	<rect x="150.2" y="97.4" class="st5" width="3.8" height="2.9"/>
	<rect x="150.2" y="100.3" class="st4" width="3.8" height="2.9"/>
	<rect x="154" y="97.4" class="st5" width="3.8" height="2.9"/>
	<rect x="154" y="100.3" class="st5" width="3.8" height="2.9"/>
	<rect x="157.8" y="97.4" class="st5" width="3.8" height="2.9"/>
	<rect x="157.8" y="100.3" class="st5" width="3.8" height="2.9"/>
	<rect x="161.6" y="97.4" class="st4" width="3.8" height="2.9"/>
	<rect x="161.6" y="100.3" class="st5" width="3.8" height="2.9"/>
	<rect x="165.4" y="97.4" class="st5" width="3.8" height="2.9"/>
	<rect x="165.4" y="100.3" class="st4" width="3.8" height="2.9"/>
	<rect x="9.8" y="103.3" class="st6" width="159.4" height="2.2"/>
	<g>
		<path class="st0" d="M88.5,76.1c-1.6,0.2-2.7,0.4-3.2,0.5c-1.6,0.2-5.1,0.9-7.7,1.6c-1.7,0.5-3,1-2.9,1.4c0.1,0.9,6.5,1.4,7.1,1.5
			c0.7,0.1,8.5,0.8,10.8,0.6c2.3-0.2,18.8-2.3,23.5-3.1c4.7-0.8,10.8-1.6,10.6-3.7c-0.1-0.9-2.5-1.4-2.7-1.6c-0.2-0.1-1.3-2-5.4-1.3
			C115.3,72.4,96.4,75,88.5,76.1z"/>
		<path class="st7" d="M74.7,79.5c0.1,0.9,6.5,1.4,7.1,1.5c0.7,0.1,8.5,0.8,10.8,0.6c2.3-0.2,18.8-2.3,23.5-3.1
			c4.7-0.8,10.8-1.6,10.6-3.7c-0.8,1.5-4.5,2.2-6.7,2.6c-3,0.5-22.5,3.4-27.5,3.7c-3.9,0.3-16.9-0.5-17.6-1.7c0-0.1-0.1-0.1-0.1-0.2
			C74.8,79.3,74.7,79.4,74.7,79.5z"/>
		<path class="st8" d="M101.5,79.9l8-1.1l-0.1-0.8c-2.6-0.3-9.6-0.8-11.1-0.6c0,0-1.1,0.2-1.5,0.2c-0.1,0-0.2,0-0.3,0.1
			c0.7,0.2,4.7,1.1,5.3,1.4C102.2,79.4,102,79.8,101.5,79.9z"/>
		<path class="st9" d="M88.5,79.8L88,79.9c-0.2,0-0.3-0.1-0.3-0.2l-0.2-1.6c0-0.2,0.1-0.3,0.2-0.3l0.5-0.1c0.2,0,0.3,0.1,0.3,0.2
			l0.2,1.6C88.8,79.6,88.7,79.8,88.5,79.8z"/>
		<g>
			<path d="M90.4,78.4l-0.2,0c0,0-0.1,0-0.1-0.1L90,77.9c0,0,0-0.1,0.1-0.1l0.2,0c0,0,0.1,0,0.1,0.1l0.1,0.4
				C90.5,78.4,90.4,78.4,90.4,78.4z"/>
			<path d="M91.2,78.3l-0.2,0c0,0-0.1,0-0.1-0.1l-0.1-0.4c0,0,0-0.1,0.1-0.1l0.2,0c0,0,0.1,0,0.1,0.1l0.1,0.4
				C91.3,78.2,91.3,78.3,91.2,78.3z"/>
			<path d="M92.1,78.2l-0.2,0c0,0-0.1,0-0.1-0.1l-0.1-0.4c0,0,0-0.1,0.1-0.1l0.2,0c0,0,0.1,0,0.1,0.1l0.1,0.4
				C92.2,78.1,92.1,78.1,92.1,78.2z"/>
			<path d="M92.9,78l-0.2,0c0,0-0.1,0-0.1-0.1l-0.1-0.4c0,0,0-0.1,0.1-0.1l0.2,0c0,0,0.1,0,0.1,0.1l0.1,0.4C93,78,93,78,92.9,78z"/>
			<path d="M93.8,77.9l-0.2,0c0,0-0.1,0-0.1-0.1l-0.1-0.4c0,0,0-0.1,0.1-0.1l0.2,0c0,0,0.1,0,0.1,0.1l0.1,0.4
				C93.8,77.8,93.8,77.9,93.8,77.9z"/>
			<path d="M94.6,77.8l-0.2,0c0,0-0.1,0-0.1-0.1l-0.1-0.4c0,0,0-0.1,0.1-0.1l0.2,0c0,0,0.1,0,0.1,0.1l0.1,0.4
				C94.7,77.7,94.7,77.8,94.6,77.8z"/>
			<path d="M95.5,77.6l-0.2,0c0,0-0.1,0-0.1-0.1l-0.1-0.4c0,0,0-0.1,0.1-0.1l0.2,0c0,0,0.1,0,0.1,0.1l0.1,0.4
				C95.5,77.6,95.5,77.6,95.5,77.6z"/>
			<path d="M96.3,77.5l-0.2,0c0,0-0.1,0-0.1-0.1L95.9,77c0,0,0-0.1,0.1-0.1l0.2,0c0,0,0.1,0,0.1,0.1l0.1,0.4
				C96.4,77.5,96.4,77.5,96.3,77.5z"/>
			<path d="M97.1,77.4l-0.2,0c0,0-0.1,0-0.1-0.1l-0.1-0.4c0,0,0-0.1,0.1-0.1l0.2,0c0,0,0.1,0,0.1,0.1l0.1,0.4
				C97.2,77.3,97.2,77.4,97.1,77.4z"/>
			<path d="M98,77.2l-0.2,0c0,0-0.1,0-0.1-0.1l-0.1-0.4c0,0,0-0.1,0.1-0.1l0.2,0c0,0,0.1,0,0.1,0.1l0.1,0.4
				C98.1,77.2,98,77.2,98,77.2z"/>
			<path d="M98.8,77.1l-0.2,0c0,0-0.1,0-0.1-0.1l-0.1-0.4c0,0,0-0.1,0.1-0.1l0.2,0c0,0,0.1,0,0.1,0.1l0.1,0.4
				C98.9,77.1,98.9,77.1,98.8,77.1z"/>
			<path d="M99.7,77l-0.2,0c0,0-0.1,0-0.1-0.1l-0.1-0.4c0,0,0-0.1,0.1-0.1l0.2,0c0,0,0.1,0,0.1,0.1l0.1,0.4
				C99.8,76.9,99.7,77,99.7,77z"/>
			<path d="M100.5,76.9l-0.2,0c0,0-0.1,0-0.1-0.1l-0.1-0.4c0,0,0-0.1,0.1-0.1l0.2,0c0,0,0.1,0,0.1,0.1l0.1,0.4
				C100.6,76.8,100.6,76.9,100.5,76.9z"/>
			<path d="M101.4,76.7l-0.2,0c0,0-0.1,0-0.1-0.1l-0.1-0.4c0,0,0-0.1,0.1-0.1l0.2,0c0,0,0.1,0,0.1,0.1l0.1,0.4
				C101.5,76.7,101.4,76.7,101.4,76.7z"/>
			<path d="M102.2,76.6l-0.2,0c0,0-0.1,0-0.1-0.1l-0.1-0.4c0,0,0-0.1,0.1-0.1l0.2,0c0,0,0.1,0,0.1,0.1l0.1,0.4
				C102.3,76.5,102.3,76.6,102.2,76.6z"/>
			<path d="M103.1,76.5l-0.2,0c0,0-0.1,0-0.1-0.1l-0.1-0.4c0,0,0-0.1,0.1-0.1l0.2,0c0,0,0.1,0,0.1,0.1l0.1,0.4
				C103.2,76.4,103.1,76.5,103.1,76.5z"/>
			<path d="M103.9,76.3l-0.2,0c0,0-0.1,0-0.1-0.1l-0.1-0.4c0,0,0-0.1,0.1-0.1l0.2,0c0,0,0.1,0,0.1,0.1l0.1,0.4
				C104,76.3,104,76.3,103.9,76.3z"/>
			<path d="M104.8,76.2l-0.2,0c0,0-0.1,0-0.1-0.1l-0.1-0.4c0,0,0-0.1,0.1-0.1l0.2,0c0,0,0.1,0,0.1,0.1l0.1,0.4
				C104.8,76.2,104.8,76.2,104.8,76.2z"/>
			<path d="M105.6,76.1l-0.2,0c0,0-0.1,0-0.1-0.1l-0.1-0.4c0,0,0-0.1,0.1-0.1l0.2,0c0,0,0.1,0,0.1,0.1l0.1,0.4
				C105.7,76,105.7,76.1,105.6,76.1z"/>
			<path d="M106.5,76l-0.2,0c0,0-0.1,0-0.1-0.1l-0.1-0.4c0,0,0-0.1,0.1-0.1l0.2,0c0,0,0.1,0,0.1,0.1l0.1,0.4
				C106.5,75.9,106.5,76,106.5,76z"/>
			<path d="M107.3,75.8l-0.2,0c0,0-0.1,0-0.1-0.1l-0.1-0.4c0,0,0-0.1,0.1-0.1l0.2,0c0,0,0.1,0,0.1,0.1l0.1,0.4
				C107.4,75.8,107.3,75.8,107.3,75.8z"/>
			<path d="M108.1,75.7l-0.2,0c0,0-0.1,0-0.1-0.1l-0.1-0.4c0,0,0-0.1,0.1-0.1l0.2,0c0,0,0.1,0,0.1,0.1l0.1,0.4
				C108.2,75.6,108.2,75.7,108.1,75.7z"/>
			<path d="M109,75.6l-0.2,0c0,0-0.1,0-0.1-0.1l-0.1-0.4c0,0,0-0.1,0.1-0.1l0.2,0c0,0,0.1,0,0.1,0.1l0.1,0.4
				C109.1,75.5,109,75.6,109,75.6z"/>
			<path d="M109.8,75.4l-0.2,0c0,0-0.1,0-0.1-0.1l-0.1-0.4c0,0,0-0.1,0.1-0.1l0.2,0c0,0,0.1,0,0.1,0.1l0.1,0.4
				C109.9,75.4,109.9,75.4,109.8,75.4z"/>
			<path d="M110.7,75.3l-0.2,0c0,0-0.1,0-0.1-0.1l-0.1-0.4c0,0,0-0.1,0.1-0.1l0.2,0c0,0,0.1,0,0.1,0.1l0.1,0.4
				C110.8,75.3,110.7,75.3,110.7,75.3z"/>
			<path d="M111.5,75.2l-0.2,0c0,0-0.1,0-0.1-0.1l-0.1-0.4c0,0,0-0.1,0.1-0.1l0.2,0c0,0,0.1,0,0.1,0.1l0.1,0.4
				C111.6,75.1,111.6,75.2,111.5,75.2z"/>
			<path d="M112.4,75.1l-0.2,0c0,0-0.1,0-0.1-0.1l-0.1-0.4c0,0,0-0.1,0.1-0.1l0.2,0c0,0,0.1,0,0.1,0.1l0.1,0.4
				C112.5,75,112.4,75,112.4,75.1z"/>
			<path d="M113.2,74.9l-0.2,0c0,0-0.1,0-0.1-0.1l-0.1-0.4c0,0,0-0.1,0.1-0.1l0.2,0c0,0,0.1,0,0.1,0.1l0.1,0.4
				C113.3,74.9,113.3,74.9,113.2,74.9z"/>
			<path d="M114.1,74.8l-0.2,0c0,0-0.1,0-0.1-0.1l-0.1-0.4c0,0,0-0.1,0.1-0.1l0.2,0c0,0,0.1,0,0.1,0.1l0.1,0.4
				C114.1,74.7,114.1,74.8,114.1,74.8z"/>
			<path d="M114.9,74.7l-0.2,0c0,0-0.1,0-0.1-0.1l-0.1-0.4c0,0,0-0.1,0.1-0.1l0.2,0c0,0,0.1,0,0.1,0.1l0.1,0.4
				C115,74.6,115,74.7,114.9,74.7z"/>
			<path d="M115.8,74.5l-0.2,0c0,0-0.1,0-0.1-0.1l-0.1-0.4c0,0,0-0.1,0.1-0.1l0.2,0c0,0,0.1,0,0.1,0.1l0.1,0.4
				C115.8,74.5,115.8,74.5,115.8,74.5z"/>
			<path d="M116.6,74.4l-0.2,0c0,0-0.1,0-0.1-0.1l-0.1-0.4c0,0,0-0.1,0.1-0.1l0.2,0c0,0,0.1,0,0.1,0.1l0.1,0.4
				C116.7,74.4,116.7,74.4,116.6,74.4z"/>
		</g>
		<path class="st9" d="M118.8,75.2l-0.5,0.1c-0.2,0-0.3-0.1-0.3-0.2l-0.2-1.6c0-0.2,0.1-0.3,0.2-0.3l0.5-0.1c0.2,0,0.3,0.1,0.3,0.2
			l0.2,1.6C119.1,75,119,75.2,118.8,75.2z"/>
		<path d="M124.2,73.6l0.7-0.1c-0.4-0.2-0.8-0.3-0.8-0.3c-0.1,0-0.2-0.2-0.4-0.4l-0.4,0.1L124.2,73.6z"/>
		<path d="M122.4,73l-0.3,0c-0.1,0-0.2,0.1-0.1,0.2l0.1,0.6c0,0.1,0.1,0.2,0.2,0.1l0.3,0l0.2,0L122.4,73L122.4,73z"/>
		<polygon points="122.7,72.9 122.9,73.8 124,73.6 123.1,72.9 		"/>
		<g>
			<path class="st9" d="M90.4,78.4l-0.2,0c0,0-0.1,0-0.1-0.1L90,77.9c0,0,0-0.1,0.1-0.1l0.2,0c0,0,0.1,0,0.1,0.1l0.1,0.4
				C90.5,78.4,90.4,78.4,90.4,78.4z"/>
			<path class="st9" d="M91.2,78.3l-0.2,0c0,0-0.1,0-0.1-0.1l-0.1-0.4c0,0,0-0.1,0.1-0.1l0.2,0c0,0,0.1,0,0.1,0.1l0.1,0.4
				C91.3,78.2,91.3,78.3,91.2,78.3z"/>
			<path class="st9" d="M92.1,78.2l-0.2,0c0,0-0.1,0-0.1-0.1l-0.1-0.4c0,0,0-0.1,0.1-0.1l0.2,0c0,0,0.1,0,0.1,0.1l0.1,0.4
				C92.2,78.1,92.1,78.1,92.1,78.2z"/>
			<path class="st9" d="M92.9,78l-0.2,0c0,0-0.1,0-0.1-0.1l-0.1-0.4c0,0,0-0.1,0.1-0.1l0.2,0c0,0,0.1,0,0.1,0.1l0.1,0.4
				C93,78,93,78,92.9,78z"/>
			<path class="st9" d="M93.8,77.9l-0.2,0c0,0-0.1,0-0.1-0.1l-0.1-0.4c0,0,0-0.1,0.1-0.1l0.2,0c0,0,0.1,0,0.1,0.1l0.1,0.4
				C93.8,77.8,93.8,77.9,93.8,77.9z"/>
			<path class="st9" d="M94.6,77.8l-0.2,0c0,0-0.1,0-0.1-0.1l-0.1-0.4c0,0,0-0.1,0.1-0.1l0.2,0c0,0,0.1,0,0.1,0.1l0.1,0.4
				C94.7,77.7,94.7,77.8,94.6,77.8z"/>
			<path class="st9" d="M95.5,77.6l-0.2,0c0,0-0.1,0-0.1-0.1l-0.1-0.4c0,0,0-0.1,0.1-0.1l0.2,0c0,0,0.1,0,0.1,0.1l0.1,0.4
				C95.5,77.6,95.5,77.6,95.5,77.6z"/>
			<path class="st9" d="M96.3,77.5l-0.2,0c0,0-0.1,0-0.1-0.1L95.9,77c0,0,0-0.1,0.1-0.1l0.2,0c0,0,0.1,0,0.1,0.1l0.1,0.4
				C96.4,77.5,96.4,77.5,96.3,77.5z"/>
			<path class="st9" d="M97.1,77.4l-0.2,0c0,0-0.1,0-0.1-0.1l-0.1-0.4c0,0,0-0.1,0.1-0.1l0.2,0c0,0,0.1,0,0.1,0.1l0.1,0.4
				C97.2,77.3,97.2,77.4,97.1,77.4z"/>
			<path class="st9" d="M98,77.2l-0.2,0c0,0-0.1,0-0.1-0.1l-0.1-0.4c0,0,0-0.1,0.1-0.1l0.2,0c0,0,0.1,0,0.1,0.1l0.1,0.4
				C98.1,77.2,98,77.2,98,77.2z"/>
			<path class="st9" d="M98.8,77.1l-0.2,0c0,0-0.1,0-0.1-0.1l-0.1-0.4c0,0,0-0.1,0.1-0.1l0.2,0c0,0,0.1,0,0.1,0.1l0.1,0.4
				C98.9,77.1,98.9,77.1,98.8,77.1z"/>
			<path class="st9" d="M99.7,77l-0.2,0c0,0-0.1,0-0.1-0.1l-0.1-0.4c0,0,0-0.1,0.1-0.1l0.2,0c0,0,0.1,0,0.1,0.1l0.1,0.4
				C99.8,76.9,99.7,77,99.7,77z"/>
			<path class="st9" d="M100.5,76.9l-0.2,0c0,0-0.1,0-0.1-0.1l-0.1-0.4c0,0,0-0.1,0.1-0.1l0.2,0c0,0,0.1,0,0.1,0.1l0.1,0.4
				C100.6,76.8,100.6,76.9,100.5,76.9z"/>
			<path class="st9" d="M101.4,76.7l-0.2,0c0,0-0.1,0-0.1-0.1l-0.1-0.4c0,0,0-0.1,0.1-0.1l0.2,0c0,0,0.1,0,0.1,0.1l0.1,0.4
				C101.5,76.7,101.4,76.7,101.4,76.7z"/>
			<path class="st9" d="M102.2,76.6l-0.2,0c0,0-0.1,0-0.1-0.1l-0.1-0.4c0,0,0-0.1,0.1-0.1l0.2,0c0,0,0.1,0,0.1,0.1l0.1,0.4
				C102.3,76.5,102.3,76.6,102.2,76.6z"/>
			<path class="st9" d="M103.1,76.5l-0.2,0c0,0-0.1,0-0.1-0.1l-0.1-0.4c0,0,0-0.1,0.1-0.1l0.2,0c0,0,0.1,0,0.1,0.1l0.1,0.4
				C103.2,76.4,103.1,76.5,103.1,76.5z"/>
			<path class="st9" d="M103.9,76.3l-0.2,0c0,0-0.1,0-0.1-0.1l-0.1-0.4c0,0,0-0.1,0.1-0.1l0.2,0c0,0,0.1,0,0.1,0.1l0.1,0.4
				C104,76.3,104,76.3,103.9,76.3z"/>
			<path class="st9" d="M104.8,76.2l-0.2,0c0,0-0.1,0-0.1-0.1l-0.1-0.4c0,0,0-0.1,0.1-0.1l0.2,0c0,0,0.1,0,0.1,0.1l0.1,0.4
				C104.8,76.2,104.8,76.2,104.8,76.2z"/>
			<path class="st9" d="M105.6,76.1l-0.2,0c0,0-0.1,0-0.1-0.1l-0.1-0.4c0,0,0-0.1,0.1-0.1l0.2,0c0,0,0.1,0,0.1,0.1l0.1,0.4
				C105.7,76,105.7,76.1,105.6,76.1z"/>
			<path class="st9" d="M106.5,76l-0.2,0c0,0-0.1,0-0.1-0.1l-0.1-0.4c0,0,0-0.1,0.1-0.1l0.2,0c0,0,0.1,0,0.1,0.1l0.1,0.4
				C106.5,75.9,106.5,76,106.5,76z"/>
			<path class="st9" d="M107.3,75.8l-0.2,0c0,0-0.1,0-0.1-0.1l-0.1-0.4c0,0,0-0.1,0.1-0.1l0.2,0c0,0,0.1,0,0.1,0.1l0.1,0.4
				C107.4,75.8,107.3,75.8,107.3,75.8z"/>
			<path class="st9" d="M108.1,75.7l-0.2,0c0,0-0.1,0-0.1-0.1l-0.1-0.4c0,0,0-0.1,0.1-0.1l0.2,0c0,0,0.1,0,0.1,0.1l0.1,0.4
				C108.2,75.6,108.2,75.7,108.1,75.7z"/>
			<path class="st9" d="M109,75.6l-0.2,0c0,0-0.1,0-0.1-0.1l-0.1-0.4c0,0,0-0.1,0.1-0.1l0.2,0c0,0,0.1,0,0.1,0.1l0.1,0.4
				C109.1,75.5,109,75.6,109,75.6z"/>
			<path class="st9" d="M109.8,75.4l-0.2,0c0,0-0.1,0-0.1-0.1l-0.1-0.4c0,0,0-0.1,0.1-0.1l0.2,0c0,0,0.1,0,0.1,0.1l0.1,0.4
				C109.9,75.4,109.9,75.4,109.8,75.4z"/>
			<path class="st9" d="M110.7,75.3l-0.2,0c0,0-0.1,0-0.1-0.1l-0.1-0.4c0,0,0-0.1,0.1-0.1l0.2,0c0,0,0.1,0,0.1,0.1l0.1,0.4
				C110.8,75.3,110.7,75.3,110.7,75.3z"/>
			<path class="st9" d="M111.5,75.2l-0.2,0c0,0-0.1,0-0.1-0.1l-0.1-0.4c0,0,0-0.1,0.1-0.1l0.2,0c0,0,0.1,0,0.1,0.1l0.1,0.4
				C111.6,75.1,111.6,75.2,111.5,75.2z"/>
			<path class="st9" d="M112.4,75.1l-0.2,0c0,0-0.1,0-0.1-0.1l-0.1-0.4c0,0,0-0.1,0.1-0.1l0.2,0c0,0,0.1,0,0.1,0.1l0.1,0.4
				C112.5,75,112.4,75,112.4,75.1z"/>
			<path class="st9" d="M113.2,74.9l-0.2,0c0,0-0.1,0-0.1-0.1l-0.1-0.4c0,0,0-0.1,0.1-0.1l0.2,0c0,0,0.1,0,0.1,0.1l0.1,0.4
				C113.3,74.9,113.3,74.9,113.2,74.9z"/>
			<path class="st9" d="M114.1,74.8l-0.2,0c0,0-0.1,0-0.1-0.1l-0.1-0.4c0,0,0-0.1,0.1-0.1l0.2,0c0,0,0.1,0,0.1,0.1l0.1,0.4
				C114.1,74.7,114.1,74.8,114.1,74.8z"/>
			<path class="st9" d="M114.9,74.7l-0.2,0c0,0-0.1,0-0.1-0.1l-0.1-0.4c0,0,0-0.1,0.1-0.1l0.2,0c0,0,0.1,0,0.1,0.1l0.1,0.4
				C115,74.6,115,74.7,114.9,74.7z"/>
			<path class="st9" d="M115.8,74.5l-0.2,0c0,0-0.1,0-0.1-0.1l-0.1-0.4c0,0,0-0.1,0.1-0.1l0.2,0c0,0,0.1,0,0.1,0.1l0.1,0.4
				C115.8,74.5,115.8,74.5,115.8,74.5z"/>
			<path class="st9" d="M116.6,74.4l-0.2,0c0,0-0.1,0-0.1-0.1l-0.1-0.4c0,0,0-0.1,0.1-0.1l0.2,0c0,0,0.1,0,0.1,0.1l0.1,0.4
				C116.7,74.4,116.7,74.4,116.6,74.4z"/>
		</g>
		<path class="st10" d="M113,79.1c0,0-2,0.2-6.6,1"/>
		<path class="st9" d="M124.2,73.6l0.7-0.1c-0.4-0.2-0.8-0.3-0.8-0.3c-0.1,0-0.2-0.2-0.4-0.4l-0.4,0.1L124.2,73.6z"/>
		<path class="st9" d="M122.4,73l-0.3,0c-0.1,0-0.2,0.1-0.1,0.2l0.1,0.6c0,0.1,0.1,0.2,0.2,0.1l0.3,0l0.2,0L122.4,73L122.4,73z"/>
		<polygon class="st9" points="122.7,72.9 122.9,73.8 124,73.6 123.1,72.9 		"/>
		<path class="st11" d="M113.2,79.3l-12,1.6c-0.3,0-0.6-0.2-0.6-0.5v0c0-0.3,0.2-0.6,0.5-0.6l12-1.6c0.3,0,0.6,0.2,0.6,0.5l0,0
			C113.7,79,113.5,79.3,113.2,79.3z"/>
		<line class="st12" x1="96.9" y1="78.5" x2="99.8" y2="77.8"/>
		<line class="st12" x1="99.5" y1="78.8" x2="102.5" y2="78.1"/>
		<line class="st12" x1="101.4" y1="79.2" x2="104.3" y2="78.5"/>
		<polyline class="st13" points="111.3,77.9 98.6,77.2 96,77.6 		"/>
		<path class="st14" d="M112,77.7c0.6-0.1,0.8-0.1,0.8-0.1c0.1,0,0.3,0.7,0.4,1.5c0.1,0.8,0.1,1.4-0.1,1.5c-0.3,0.1-0.8,0.2-0.8,0.2
			L112,77.7z"/>
		<path d="M107.1,78.8c-1.4,0.3-2,0.5-2.4,0.6c-0.1,0-0.1,0.5,0,1c0.1,0.5,0.3,1,0.4,1c0.4,0,1.1,0,2.4-0.2
			C108.9,81,107.1,78.8,107.1,78.8z"/>
		<path class="st15" d="M106.9,81.4c0,0,2.6,0,5.7-0.6c0.1,0,0.2-0.7,0.1-1.6c-0.1-0.9-0.3-1.6-0.4-1.6c-3.3,0.1-5.8,1.1-5.8,1.1
			c-0.1,0-0.1,0.6,0,1.4C106.5,80.9,106.7,81.4,106.9,81.4z"/>
		<path class="st16" d="M126.8,74.8c0-0.3-0.4-0.6-0.8-0.8l0.3,1.9C126.7,75.5,126.8,75.2,126.8,74.8z"/>
		<g>
			<path class="st17" d="M83.7,74c-0.8-0.8-2.2-2-3.5-3.1l-1,1.4c0,0.1-0.1,0.1-0.2,0.1s-0.1,0-0.2,0c-0.1-0.1-0.1-0.2-0.1-0.4
				l1.1-1.5c-0.1-0.1-0.2-0.2-0.3-0.3l-1.8,2.5c-0.1,0.1-0.2,0.1-0.3,0.2s-0.2,0-0.3-0.1c-0.2-0.1-0.2-0.4-0.1-0.6l1.9-2.5
				c-0.6-0.5-1.1-0.9-1.2-1c-0.9-0.6-3.4,0-3.4,0l3.5,8.5c0.2,0.6-0.3,0.8-0.3,0.8c2.6-0.7,6.1-1.4,7.7-1.6c0.4-0.1,1.6-0.2,3.2-0.5
				C87.1,76.2,85.4,75.5,83.7,74z M80,72.8l-1.9,2.6c0,0.1-0.1,0.1-0.2,0.1c-0.1,0-0.1,0-0.2,0c-0.1-0.1-0.1-0.2-0.1-0.4l1.9-2.6
				c0.1-0.1,0.2-0.1,0.4-0.1C80.1,72.5,80.1,72.7,80,72.8z"/>
			<path class="st0" d="M77.2,72.9c0.1,0.1,0.2,0.1,0.3,0.1s0.2-0.1,0.3-0.2l1.8-2.5c-0.2-0.2-0.4-0.4-0.6-0.5l-1.9,2.5
				C77,72.5,77,72.7,77.2,72.9z"/>
			<path class="st0" d="M78.8,72.4c0.1,0,0.1,0.1,0.2,0s0.1,0,0.2-0.1l1-1.4c-0.1-0.1-0.3-0.2-0.4-0.3L78.8,72
				C78.7,72.1,78.7,72.3,78.8,72.4z"/>
			<path class="st0" d="M79.6,72.5L77.7,75c-0.1,0.1-0.1,0.3,0.1,0.4c0.1,0,0.1,0.1,0.2,0c0.1,0,0.1,0,0.2-0.1l1.9-2.6
				c0.1-0.1,0.1-0.3-0.1-0.4C79.9,72.3,79.7,72.4,79.6,72.5z"/>
		</g>
		<path class="st8" d="M83,78.7c-0.3-0.4-5.9-0.9-6.5-0.9c-0.7,0-2.9,0.2-2.9,0.2l4.5,1.7c0.3,0,4.2-0.6,4.5-0.7
			C83,78.9,83.1,78.8,83,78.7z"/>
		<polyline class="st13" points="83,78.7 76.1,77.6 73.6,78 		"/>
	</g>
</g>
<g>
	<rect x="138.3" y="72.6" class="st6" width="0.8" height="3.4"/>
	<path class="st18" d="M142.7,71.1c0-0.9,0.2-1.7,0.6-2.4H134c-0.4,0.7-0.6,1.6-0.6,2.4s0.2,1.7,0.6,2.4h9.2
		C142.9,72.9,142.7,72,142.7,71.1z"/>
	<rect x="133.6" y="84.2" class="st1" width="6" height="19"/>
	<rect x="139.6" y="84.2" class="st19" width="6" height="19"/>
	<g>
		<polygon class="st18" points="129.5,76.6 128.3,75.1 151.1,75.1 149.9,76.6 		"/>
	</g>
	<polygon class="st4" points="137,76.6 142.2,76.6 139.6,84.2 	"/>
	<path class="st1" d="M143.8,71.1c0-0.9,0.2-1.7,0.6-2.4h-9.2c-0.4,0.7-0.6,1.6-0.6,2.4s0.2,1.7,0.6,2.4h9.2
		C144,72.9,143.8,72,143.8,71.1z"/>
	<circle class="st6" cx="143.9" cy="71.2" r="0.7"/>
	<rect x="139.4" y="70.9" class="st6" width="4.5" height="0.7"/>
	<g>
		<path class="st5" d="M144.7,80.3c-0.1,0.1-0.3,0.2-0.4,0.2c-0.2,0-0.3-0.1-0.4-0.2c-0.2-0.2-0.2-0.6,0-0.8l2.8-2.8h-4.5l-2.6,7.6
			h6l1.7-5.1l-0.8,0.8c-0.1,0.1-0.2,0.1-0.3,0.1c-0.1,0-0.2,0-0.3-0.1c-0.2-0.2-0.2-0.4,0-0.6l2-2l0.2-0.5L144.7,80.3z M145.8,80.6
			l-1.3,1.3c-0.1,0.1-0.1,0.1-0.2,0.1c-0.1,0-0.1,0-0.2-0.1c-0.1-0.1-0.1-0.3,0-0.4l1.3-1.3c0.1-0.1,0.3-0.1,0.4,0
			C145.9,80.3,145.9,80.5,145.8,80.6z"/>
		<path class="st4" d="M143.9,80.3c0.1,0.1,0.3,0.2,0.4,0.2c0.2,0,0.3-0.1,0.4-0.2l3.5-3.5l0.1-0.2h-1.6l-2.8,2.8
			C143.6,79.7,143.6,80.1,143.9,80.3z"/>
		<path class="st4" d="M146,79.9c0.1,0.1,0.2,0.1,0.3,0.1c0.1,0,0.2,0,0.3-0.1l0.8-0.8l0.6-1.8l-2,2C145.9,79.5,145.9,79.8,146,79.9
			z"/>
		<path class="st4" d="M145.4,80.2l-1.3,1.3c-0.1,0.1-0.1,0.3,0,0.4c0.1,0.1,0.1,0.1,0.2,0.1c0.1,0,0.1,0,0.2-0.1l1.3-1.3
			c0.1-0.1,0.1-0.3,0-0.4C145.7,80.1,145.5,80.1,145.4,80.2z"/>
	</g>
	<g>
		<path class="st5" d="M137.3,77.5l-1.6,1.6c-0.1,0.1-0.2,0.1-0.3,0.1c-0.1,0-0.2,0-0.3-0.1c-0.2-0.2-0.2-0.4,0-0.6l1.8-1.8h-0.4
			l-2.8,2.8c-0.1,0.1-0.3,0.2-0.4,0.2c-0.2,0-0.3-0.1-0.4-0.2c-0.2-0.2-0.2-0.6,0-0.8l1.9-1.9H131l2.6,7.6h6L137.3,77.5z
			 M134.9,79.7l-1.3,1.3c-0.1,0.1-0.1,0.1-0.2,0.1c-0.1,0-0.1,0-0.2-0.1c-0.1-0.1-0.1-0.3,0-0.4l1.3-1.3c0.1-0.1,0.3-0.1,0.4,0
			C135,79.4,135,79.6,134.9,79.7z"/>
		<path class="st4" d="M133,79.4c0.1,0.1,0.3,0.2,0.4,0.2c0.2,0,0.3-0.1,0.4-0.2l2.8-2.8h-1.7l-1.9,1.9
			C132.7,78.8,132.7,79.2,133,79.4z"/>
		<path class="st4" d="M135.1,79.1c0.1,0.1,0.2,0.1,0.3,0.1c0.1,0,0.2,0,0.3-0.1l1.6-1.6l-0.3-0.8H137l-1.8,1.8
			C135,78.6,135,78.9,135.1,79.1z"/>
		<path class="st4" d="M134.5,79.3l-1.3,1.3c-0.1,0.1-0.1,0.3,0,0.4c0.1,0.1,0.1,0.1,0.2,0.1c0.1,0,0.1,0,0.2-0.1l1.3-1.3
			c0.1-0.1,0.1-0.3,0-0.4C134.8,79.2,134.6,79.2,134.5,79.3z"/>
	</g>
</g>
</svg>
