<?xml version="1.0" encoding="utf-8"?>
<!-- Generator: Adobe Illustrator 21.0.0, SVG Export Plug-In . SVG Version: 6.00 Build 0)  -->
<svg version="1.1" id="Layer_1" xmlns="http://www.w3.org/2000/svg" xmlns:xlink="http://www.w3.org/1999/xlink" x="0px" y="0px"
	 viewBox="0 0 180 180" style="enable-background:new 0 0 180 180;" xml:space="preserve">
<style type="text/css">
	.st0{fill:#E2E1E1;}
	.st1{fill:#596F34;}
	.st2{fill:#A08227;}
	.st3{fill:#E8AC5C;}
	.st4{fill:#3C3C3B;}
	.st5{fill:#B2B2B2;}
	.st6{fill:#BCC6E0;}
	.st7{fill:none;stroke:#FFFFFF;stroke-width:1.0753;stroke-linecap:round;}
	.st8{fill:#333F1F;}
	.st9{fill:none;stroke:#B2B2B2;stroke-width:1.1849;stroke-linecap:round;}
	.st10{fill:none;stroke:#B2B2B2;stroke-width:3.0074;stroke-linecap:round;}
	.st11{fill:#706F6F;}
	.st12{fill:#878787;}
	.st13{fill:#FFFFFF;}
	.st14{fill:#C6C6C6;}
	.st15{fill:none;stroke:#000000;stroke-width:1.3844;stroke-linecap:round;}
	.st16{fill:none;stroke:#000000;stroke-width:0.6784;stroke-linecap:round;}
	.st17{fill:none;stroke:#646363;stroke-width:0.3392;stroke-linecap:round;stroke-linejoin:round;}
</style>
<g>
	<circle class="st0" cx="133.3" cy="91.5" r="5"/>
	<circle class="st0" cx="141.2" cy="86.4" r="8.2"/>
	<circle class="st0" cx="141.1" cy="78.1" r="5.3"/>
	<circle class="st0" cx="148" cy="90.1" r="4.5"/>
	<circle class="st0" cx="147.8" cy="83.4" r="5.4"/>
	<polyline points="50.7,86.5 116.4,87.5 119.7,97 45.2,96.9 50.7,86.5 	"/>
	<path class="st1" d="M131.2,81.5c-0.6-1.1-3.3-1.7-7.9-2.2c-4.6-0.6-4.1-0.2-5.5-0.9c-0.2-0.1-0.5-0.3-0.8-0.7
		c-0.7,0.6-2.1,1.3-3,0.3c-0.4-0.4-5.7-7.2-6-7.8c-0.4-0.7,0.3-1.3,0.7-1.6c0,0-0.5-0.5-1.4-0.7c-3.2-0.8-19.7-0.8-21.4-0.8
		c-6.2,0.1-8.1,0.2-9.8,1.8c-0.1,0.1-0.2,0.2-0.3,0.3c0.3,0.3,0.3,0.8,0.1,1.1c-0.4,0.6-5.6,7.7-6.5,9c-0.7,1-1.9,0.4-2.7-0.1
		c0,0-5.2,0.2-13.2,1.4c-8.7,1.3-10.5,2.8-10.9,3.5C42,85,42.3,93.7,43,95.6c0.3,0.8,1.2,1.3,2.1,1.3c1,0.1,2-0.4,2.4-1.3
		c0.6-1.4,1.1-3.4,1.8-4.7c1.1-2.1,3.2-2.7,6.6-2.7c0.4,0,0.8,0,1.2,0c0.4-1.4,1.6-2.4,3.1-2.4c1.8,0,3.2,1.4,3.2,3.2
		c0,0.8-0.3,1.6-0.8,2.1c1,2.2,1.5,5.9,4.3,5.9c1.2,0,20.3,0,29.2,0C96,96.7,96,96.5,96,96.3c0-1.8,1.4-3.2,3.2-3.2
		c1.2,0,2.3,0.7,2.8,1.7c0.5-1.3,0.9-2.8,1.4-3.9c1.1-2.1,3.2-2.7,6.6-2.7s5.5,0.6,6.6,2.7s1.7,6.1,3,6.1c5.3,0,9.1-1,10.1-2.9
		C130.3,93.3,131.8,82.6,131.2,81.5z M125.2,94.3c-1.8,0-3.2-1.4-3.2-3.2c0-1.8,1.4-3.2,3.2-3.2c1.8,0,3.2,1.4,3.2,3.2
		S126.9,94.3,125.2,94.3z"/>
	<path class="st2" d="M60.2,85.8c-1.5,0-2.7,1-3.1,2.4c0.6,0,1.2,0.1,1.7,0.2c0.2-0.5,0.8-0.9,1.4-0.9c0.8,0,1.5,0.7,1.5,1.5
		c0,0.2-0.1,0.5-0.1,0.7c0.4,0.3,0.7,0.8,0.9,1.2c0,0.1,0.1,0.1,0.1,0.2c0.5-0.6,0.8-1.3,0.8-2.1C63.4,87.2,62,85.8,60.2,85.8z"/>
	<path class="st3" d="M61.7,89c0-0.8-0.7-1.5-1.5-1.5c-0.6,0-1.2,0.4-1.4,0.9c1.2,0.2,2.1,0.6,2.8,1.3C61.7,89.4,61.7,89.2,61.7,89z
		"/>
	<path class="st2" d="M99.2,93.1c-1.8,0-3.2,1.4-3.2,3.2c0,0.2,0,0.5,0.1,0.7c0.7,0,1.2,0,1.8,0c-0.1-0.2-0.2-0.4-0.2-0.7
		c0-0.8,0.7-1.5,1.5-1.5s1.5,0.7,1.5,1.5c0,0.2-0.1,0.5-0.2,0.7c0.6-0.1,1-1,1.5-2.2C101.5,93.8,100.5,93.1,99.2,93.1z"/>
	<path class="st3" d="M100.6,97c0.1-0.2,0.2-0.4,0.2-0.7c0-0.8-0.7-1.5-1.5-1.5s-1.5,0.7-1.5,1.5c0,0.3,0.1,0.5,0.2,0.7
		C99.4,97,100.4,97,100.6,97C100.5,97,100.5,97,100.6,97z"/>
	<path class="st2" d="M125.2,87.9c-1.8,0-3.2,1.4-3.2,3.2c0,1.8,1.4,3.2,3.2,3.2c1.8,0,3.2-1.4,3.2-3.2S126.9,87.9,125.2,87.9z
		 M125.2,92.6c-0.8,0-1.5-0.7-1.5-1.5s0.7-1.5,1.5-1.5s1.5,0.7,1.5,1.5S126,92.6,125.2,92.6z"/>
	<circle class="st3" cx="125.2" cy="91.1" r="1.5"/>
	<path class="st4" d="M48.8,96.3c0-3.9,3.2-7.1,7.1-7.1s7.1,3.2,7.1,7.1s-3.2,7.1-7.1,7.1S48.8,100.2,48.8,96.3"/>
	<path class="st5" d="M51.3,96.3c0-2.6,2.1-4.6,4.6-4.6c2.6,0,4.6,2.1,4.6,4.6s-2.1,4.6-4.6,4.6C53.4,100.9,51.3,98.8,51.3,96.3"/>
	<path class="st4" d="M48.8,96.3c0-3.9,3.2-7.1,7.1-7.1s7.1,3.2,7.1,7.1s-3.2,7.1-7.1,7.1S48.8,100.2,48.8,96.3"/>
	<path class="st5" d="M51.3,96.3c0-2.6,2.1-4.6,4.6-4.6c2.6,0,4.6,2.1,4.6,4.6s-2.1,4.6-4.6,4.6C53.4,100.9,51.3,98.8,51.3,96.3"/>
	<path class="st4" d="M102.8,96.3c0-3.9,3.2-7.1,7.1-7.1s7.1,3.2,7.1,7.1s-3.2,7.1-7.1,7.1S102.8,100.2,102.8,96.3"/>
	<path class="st5" d="M105.3,96.3c0-2.5,2.1-4.6,4.6-4.6s4.6,2.1,4.6,4.6s-2.1,4.6-4.6,4.6S105.3,98.8,105.3,96.3"/>
	<path class="st6" d="M71.5,79.6c-0.6,0-0.8-0.4-0.4-0.8l5.8-7.8c0.4-0.5,1.1-0.8,1.7-0.8L91,70.3c0.6,0,1.1,0.5,1.1,1.1v7.2
		c0,0.6-0.5,1.1-1.1,1.1L71.5,79.6"/>
	<path class="st6" d="M106.4,79.6c0.6,0,0.8-0.4,0.4-0.8L101,71c-0.4-0.5-1.1-0.8-1.7-0.8l-5.2,0.1c-0.6,0-1.1,0.5-1.1,1.1v7.2
		c0,0.6,0.5,1.1,1.1,1.1L106.4,79.6"/>
	<path d="M111.3,78.6h-2.9c-0.5,0-0.9-0.4-0.9-0.9s0.4-0.9,0.9-0.9h2.9c0.5,0,0.9,0.4,0.9,0.9C112.2,78.2,111.8,78.6,111.3,78.6"/>
	<path class="st6" d="M75.9,69.2c0.3,0.3,0.3,0.8,0.1,1.1c-0.4,0.6-5.6,7.7-6.5,9c-0.7,1-1.9,0.4-2.7-0.1L75.9,69.2"/>
	<path class="st6" d="M117,77.8c-0.7,0.6-2.1,1.3-3,0.3c-0.4-0.4-5.7-7.2-6-7.8c-0.4-0.7,0.3-1.3,0.7-1.6L117,77.8"/>
	<path d="M75.6,76.3c-0.2,0.1-0.3,0.4-0.2,0.6l1.3,2.6h1l-1.4-3C76.1,76.3,75.9,76.2,75.6,76.3"/>
	<line class="st7" x1="60.5" y1="82.1" x2="62.4" y2="82.1"/>
	<path class="st8" d="M89.6,83.2h-0.5c-0.5,0-0.9-0.4-0.9-0.9v-0.4c0-0.5,0.4-0.9,0.9-0.9h0.5c0.5,0,0.9,0.4,0.9,0.9v0.4
		C90.5,82.8,90.1,83.2,89.6,83.2"/>
	<path d="M87.2,82.2c0-0.5,5.1-0.9,5.1-0.1C92.3,82.9,87.2,82.7,87.2,82.2"/>
	<line class="st9" x1="67.1" y1="86.2" x2="107.1" y2="86.2"/>
	<line class="st10" x1="41.8" y1="92.9" x2="45.9" y2="92.9"/>
	<line class="st10" x1="124.2" y1="93" x2="130.5" y2="93"/>
	<path class="st11" d="M51.5,96.3c0-2.4,2-4.4,4.4-4.4s4.4,2,4.4,4.4s-2,4.4-4.4,4.4C53.5,100.7,51.5,98.7,51.5,96.3"/>
	<path class="st12" d="M53.8,96.3c0-1.2,0.9-2.1,2.1-2.1c1.2,0,2.1,0.9,2.1,2.1s-1,2.1-2.1,2.1S53.8,97.5,53.8,96.3"/>
	<path class="st13" d="M55.9,92.8c-1.9,0-3.5,1.6-3.5,3.5s1.6,3.5,3.5,3.5s3.5-1.6,3.5-3.5C59.4,94.3,57.9,92.8,55.9,92.8
		 M58.9,96.9c-0.1,0.4-0.2,0.7-0.4,1c0,0.1,0,0.2-0.1,0.3l-0.5,0.5c-0.1,0.1-0.2,0.1-0.3,0.1c-0.3,0.2-0.6,0.3-1,0.4
		c-0.1,0.1-0.2,0.2-0.3,0.2h-0.7c-0.1,0-0.2-0.1-0.3-0.2c-0.4-0.1-0.7-0.2-1-0.4c-0.1,0-0.2,0-0.3-0.1l-0.5-0.5
		c-0.1-0.1-0.1-0.2-0.1-0.3c-0.2-0.3-0.3-0.6-0.4-1c-0.1,0-0.2-0.2-0.2-0.3v-0.7c0-0.1,0.1-0.2,0.2-0.3c0.1-0.4,0.2-0.7,0.4-1
		c0-0.1,0-0.2,0.1-0.3l0.5-0.5c0.1-0.1,0.2-0.1,0.3-0.1c0.3-0.2,0.6-0.3,1-0.4c0.1-0.1,0.2-0.2,0.3-0.2h0.7c0.1,0,0.2,0.1,0.3,0.2
		c0.4,0.1,0.7,0.2,1,0.4c0.1,0,0.3,0,0.3,0.1l0.5,0.5c0.1,0.1,0.1,0.2,0.1,0.3c0.2,0.3,0.3,0.6,0.4,1c0.1,0,0.2,0.2,0.2,0.3v0.7
		C59.1,96.8,59,96.9,58.9,96.9z"/>
	<path class="st14" d="M58.4,96.6v-0.7c0-0.2,0.1-0.3,0.3-0.3h0.1c-0.1-0.4-0.2-0.7-0.4-1c0,0,0,0.1-0.1,0.1c-0.1,0.1-0.3,0.1-0.4,0
		l-0.5-0.5c-0.1-0.1-0.1-0.3,0-0.5l0.1-0.1c-0.3-0.2-0.6-0.3-1-0.4v0.1c0,0.2-0.1,0.3-0.3,0.3h-0.7c-0.2,0-0.3-0.1-0.3-0.3v-0.1
		c-0.4,0.1-0.7,0.2-1,0.4c0,0,0.1,0,0.1,0.1c0.1,0.1,0.1,0.3,0,0.5l-0.5,0.5c-0.1,0.1-0.3,0.1-0.5,0l-0.1-0.1
		c-0.2,0.3-0.3,0.6-0.4,1h0.1c0.2,0,0.3,0.1,0.3,0.3v0.7c0,0.2-0.1,0.3-0.3,0.3h-0.1c0.1,0.4,0.2,0.7,0.4,1c0,0,0-0.1,0.1-0.1
		c0.1-0.1,0.3-0.1,0.5,0l0.5,0.5c0.1,0.1,0.1,0.3,0,0.5l-0.1,0.1c0.3,0.2,0.6,0.3,1,0.4v-0.1c0-0.2,0.1-0.3,0.3-0.3h0.7
		c0.2,0,0.3,0.1,0.3,0.3v0.1c0.4-0.1,0.7-0.2,1-0.4c0,0-0.1,0-0.1-0.1c-0.1-0.1-0.1-0.3,0-0.5l0.5-0.5c0.1-0.1,0.3-0.1,0.4,0
		l0.1,0.1c0.2-0.3,0.3-0.6,0.4-1h-0.1C58.6,96.9,58.4,96.8,58.4,96.6 M55.9,98.4c-1.2,0-2.1-0.9-2.1-2.1s0.9-2.1,2.1-2.1
		c1.2,0,2.1,0.9,2.1,2.1S57.1,98.4,55.9,98.4z"/>
	<path class="st4" d="M102.8,96.3c0-3.9,3.2-7.1,7.1-7.1s7.1,3.2,7.1,7.1s-3.2,7.1-7.1,7.1S102.8,100.2,102.8,96.3"/>
	<path class="st5" d="M105.3,96.3c0-2.6,2.1-4.6,4.6-4.6c2.6,0,4.6,2.1,4.6,4.6s-2.1,4.6-4.6,4.6S105.3,98.8,105.3,96.3"/>
	<path class="st4" d="M102.8,96.3c0-3.9,3.2-7.1,7.1-7.1s7.1,3.2,7.1,7.1s-3.2,7.1-7.1,7.1S102.8,100.2,102.8,96.3"/>
	<path class="st5" d="M105.3,96.3c0-2.6,2.1-4.6,4.6-4.6c2.6,0,4.6,2.1,4.6,4.6s-2.1,4.6-4.6,4.6S105.3,98.8,105.3,96.3"/>
	<path class="st11" d="M105.5,96.3c0-2.4,2-4.4,4.4-4.4s4.4,2,4.4,4.4s-2,4.4-4.4,4.4C107.5,100.7,105.5,98.7,105.5,96.3"/>
	<path class="st12" d="M107.8,96.3c0-1.2,0.9-2.1,2.1-2.1s2.1,0.9,2.1,2.1s-1,2.1-2.1,2.1C108.7,98.4,107.8,97.5,107.8,96.3"/>
	<path class="st13" d="M109.9,92.8c-1.9,0-3.5,1.6-3.5,3.5s1.6,3.5,3.5,3.5s3.5-1.6,3.5-3.5C113.4,94.3,111.9,92.8,109.9,92.8
		 M112.9,96.9c-0.1,0.4-0.2,0.7-0.4,1c0,0.1,0,0.2-0.1,0.3l-0.5,0.5c-0.1,0.1-0.2,0.1-0.3,0.1c-0.3,0.2-0.6,0.3-1,0.4
		c-0.1,0.1-0.2,0.2-0.3,0.2h-0.7c-0.1,0-0.2-0.1-0.3-0.2c-0.4-0.1-0.7-0.2-1-0.4c-0.1,0-0.2,0-0.3-0.1l-0.5-0.5
		c-0.1-0.1-0.1-0.2-0.1-0.3c-0.2-0.3-0.3-0.6-0.4-1c-0.1,0-0.2-0.2-0.2-0.3v-0.7c0-0.1,0.1-0.2,0.2-0.3c0.1-0.4,0.2-0.7,0.4-1
		c0-0.1,0-0.2,0.1-0.3l0.5-0.5c0.1-0.1,0.2-0.1,0.3-0.1c0.3-0.2,0.6-0.3,1-0.4c0.1-0.1,0.2-0.2,0.3-0.2h0.7c0.1,0,0.2,0.1,0.3,0.2
		c0.4,0.1,0.7,0.2,1,0.4c0.1,0,0.3,0,0.3,0.1l0.5,0.5c0.1,0.1,0.1,0.2,0.1,0.3c0.2,0.3,0.3,0.6,0.4,1c0.1,0,0.2,0.2,0.2,0.3v0.7
		C113,96.8,113,96.9,112.9,96.9z"/>
	<path class="st14" d="M112.4,96.6v-0.7c0-0.2,0.1-0.3,0.3-0.3h0.1c-0.1-0.4-0.2-0.7-0.4-1c0,0,0,0.1-0.1,0.1
		c-0.1,0.1-0.3,0.1-0.4,0l-0.5-0.5c-0.1-0.1-0.1-0.3,0-0.5l0.1-0.1c-0.3-0.2-0.6-0.3-1-0.4v0.1c0,0.2-0.1,0.3-0.3,0.3h-0.7
		c-0.2,0-0.3-0.1-0.3-0.3v-0.1c-0.4,0.1-0.7,0.2-1,0.4c0,0,0.1,0,0.1,0.1c0.1,0.1,0.1,0.3,0,0.5l-0.5,0.5c-0.1,0.1-0.3,0.1-0.5,0
		l-0.1-0.1c-0.2,0.3-0.3,0.6-0.4,1h0.1c0.2,0,0.3,0.1,0.3,0.3v0.7c0,0.2-0.1,0.3-0.3,0.3h-0.1c0.1,0.4,0.2,0.7,0.4,1
		c0,0,0-0.1,0.1-0.1c0.1-0.1,0.3-0.1,0.5,0l0.5,0.5c0.1,0.1,0.1,0.3,0,0.5l-0.1,0.1c0.3,0.2,0.6,0.3,1,0.4v-0.1
		c0-0.2,0.1-0.3,0.3-0.3h0.7c0.2,0,0.3,0.1,0.3,0.3v0.1c0.4-0.1,0.7-0.2,1-0.4c0,0-0.1,0-0.1-0.1c-0.1-0.1-0.1-0.3,0-0.5l0.5-0.5
		c0.1-0.1,0.3-0.1,0.4,0l0.1,0.1c0.2-0.3,0.3-0.6,0.4-1h-0.1C112.6,96.9,112.4,96.8,112.4,96.6 M109.9,98.4c-1.2,0-2.1-0.9-2.1-2.1
		s0.9-2.1,2.1-2.1s2.1,0.9,2.1,2.1S111.1,98.4,109.9,98.4z"/>
	<path class="st13" d="M79.4,78.7c0.2,0.2,0.5,0.3,0.8,0.3s0.6-0.1,0.8-0.3l8-8c0.1-0.1,0.2-0.3,0.3-0.5h-2.9l-6.9,6.9
		C78.9,77.5,78.9,78.2,79.4,78.7z"/>
	<path class="st13" d="M86,75.3c0.1,0.1,0.3,0.2,0.5,0.2s0.4-0.1,0.5-0.2l4.8-4.8c-0.2-0.2-0.4-0.3-0.7-0.3h-0.9L86,74.3
		C85.7,74.6,85.7,75,86,75.3z"/>
	<path class="st13" d="M96.6,77c0.1,0.1,0.3,0.2,0.5,0.2s0.4-0.1,0.5-0.2l4.6-4.6l-0.8-1.1L96.6,76C96.3,76.3,96.3,76.7,96.6,77z"/>
	<path class="st13" d="M101,75.5c0.1,0.1,0.3,0.2,0.4,0.2c0.2,0,0.3-0.1,0.4-0.2l1.4-1.5l-0.7-1l-1.6,1.7
		C100.8,74.9,100.8,75.3,101,75.5z"/>
	<line class="st15" x1="70.5" y1="76.3" x2="71.5" y2="79.6"/>
	<path class="st16" d="M70.6,78.1c0,0-1.7,0.4-1.7,2.6"/>
	<polyline class="st17" points="101,70.9 100.1,71.5 101.1,72.6 98.9,73.9 96.1,73.7 96.3,75.8 96.5,77.4 93.9,77.5 	"/>
	<polyline class="st17" points="97.7,71.8 98.2,73 99,72.8 98.9,73.9 	"/>
</g>
</svg>
