<?xml version="1.0" encoding="utf-8"?>
<!-- Generator: Adobe Illustrator 21.0.0, SVG Export Plug-In . SVG Version: 6.00 Build 0)  -->
<svg version="1.1" id="Layer_1" xmlns="http://www.w3.org/2000/svg" xmlns:xlink="http://www.w3.org/1999/xlink" x="0px" y="0px"
	 viewBox="0 0 180 180" style="enable-background:new 0 0 180 180;" xml:space="preserve">
<style type="text/css">
	.st0{fill:#BCC6E0;}
	.st1{fill:#FFCE00;}
	.st2{fill:none;stroke:#000000;stroke-width:0.8013;stroke-linecap:round;}
	.st3{fill:#ECBF00;}
	.st4{fill:#3C3C3B;}
	.st5{fill:#B2B2B2;}
	.st6{fill:#FFFFFF;}
	.st7{fill:none;stroke:#FFFFFF;stroke-width:1.0753;stroke-linecap:round;}
	.st8{fill:none;stroke:#B2B2B2;stroke-width:3.0074;stroke-linecap:round;}
	.st9{fill:#F4992B;}
	.st10{fill:none;stroke:#B2B2B2;stroke-width:1.1849;stroke-linecap:round;}
	.st11{fill:none;stroke:#6D6D6C;stroke-width:0.3205;}
	.st12{fill:#6D6D6C;}
</style>
<g>
	<g>
		<g>
			<polyline points="45.6,98.3 126.7,97.7 127,90.3 118.3,82.1 51.2,84.8 45.6,98.3 			"/>
			<path class="st0" d="M63.7,78.1c0,0,3.5-3.1,7.3-5.5c3.7-2.4,9-5.5,15.8-6.1c7.6-0.7,11.1-0.3,11.1-0.3l-0.1-0.7
				c-5.9-0.2-12.2,0-16.4,1.2c-7.6,2.3-16.1,8-17.2,8.8c-1.1,0.8-2.8,1.9-5.9,2.7h-0.1C61.3,78.1,63.7,78.1,63.7,78.1"/>
			<path class="st1" d="M127.7,85.5c-0.6-0.8,0-1-0.7-3.4c-0.6-1.9-2-2.6-2.4-2.7s-2.4-2.9-3.1-3c-3.6-4.8-5.8-6.6-5.8-6.6
				c-1.1-1-2.6-2.9-5.6-3.2c-3.2-0.4-7.7-0.8-12.3-1l0.1,0.7c0,0-3.5-0.4-11.1,0.3c-6.8,0.6-12.1,3.7-15.8,6
				c-3.7,2.4-7.3,5.5-7.3,5.5s-2.3-0.1-5.6,0.2c-5.8,1.3-9.2,2.5-10.7,3.5s-2.1,2.1-2.4,2.5c-0.3,0.4-1.2,0.9-1.5,1.2
				c-0.3,0.2-0.8,1.3-1,1.9s-0.3,2.1-0.4,2.4c-0.1,0.3-0.7,0.8-0.9,1.1c-0.2,0.3-0.3,1.3-0.3,1.7c0,0.4,0.5,0.2,0.8,0.8
				c0.3,0.6,1.5,4.9,1.7,5c0.1,0.1,4.2,0.5,6.1,0.5c0.4,0,0.8-0.2,0.8-0.8c0-0.6,0-1.4,0-1.4c0-2.3,0.3-10.1,8.6-10.1
				s8.6,7.7,8.6,10.1c0,0,0,1.6,0,2.1s0.3,0.6,0.6,0.6c0.4,0,40-0.3,40.2-0.6c0.2-0.2,0.3-2.1,0.3-2.1c0-2.3,0.3-10.1,8.6-10.1
				s8.6,7.7,8.6,10.1c0,0,0,0.1,0,0.5c0,0.3,0.3,0.7,0.8,0.5c0.3-0.1,0.7-0.3,1.1-0.5c0.8-0.5,1.8-4.4,1.8-5.6
				C129.6,90.4,128.6,86.8,127.7,85.5"/>
			<path class="st2" d="M126.7,97.7c0.3-0.1,0.7-0.3,1.1-0.5"/>
			<path class="st2" d="M68.2,99.4c0.4,0,40-0.3,40.2-0.6"/>
			<path class="st2" d="M43.3,98.4c0.1,0.1,4.2,0.5,6.1,0.5"/>
			<path class="st3" d="M69.1,84.6c0,2.1,0.4,8.4,0.6,9.6s0.9,1.3,1.3,1.3s21.1-0.2,21.1-0.2s2.8,0.2,5.3-1.1
				c3.9-2,3.4-10.3,3.4-12.5c0-1.8-0.6-3.9-0.9-4.7c-9.7,0.3-23.3,1-29.9,1.3C69.7,79.4,69.1,82.8,69.1,84.6"/>
			<path class="st0" d="M66,78.4c0,0,4.3-3.3,5.3-4s6.2-5,12.6-6.1s12.7-0.6,14.4-0.5c1.7,0.1,6.8,0.5,9,2s5.9,5.4,5.5,6.1
				c-0.2,0.5-0.7,0.5-2,0.5S66,78.4,66,78.4"/>
			<path class="st4" d="M51.3,95.9c0-4.2,3.4-7.5,7.5-7.5c4.2,0,7.5,3.4,7.5,7.5c0,4.2-3.4,7.5-7.5,7.5
				C54.6,103.4,51.3,100,51.3,95.9"/>
			<path class="st5" d="M53.4,95.9c0-3,2.4-5.4,5.4-5.4s5.4,2.4,5.4,5.4s-2.4,5.4-5.4,5.4C55.8,101.2,53.4,98.8,53.4,95.9"/>
			<path class="st4" d="M109.9,96c0-4.2,3.4-7.5,7.5-7.5c4.2,0,7.5,3.4,7.5,7.5c0,4.2-3.4,7.5-7.5,7.5S109.9,100.2,109.9,96"/>
			<path class="st5" d="M112,96c0-3,2.4-5.4,5.4-5.4s5.4,2.4,5.4,5.4s-2.4,5.4-5.4,5.4S112,99,112,96"/>
			<path class="st5" d="M44.3,90.4c0.5,0.4,1.3,0.2,1.8-0.5c0.5-0.6,0.6-1.5,0.1-1.9s-1.3-0.2-1.8,0.5C43.9,89.2,43.8,90,44.3,90.4"
				/>
			<path class="st6" d="M44.9,87.2c0.5,0.4,1.8-0.3,2.9-1.6c1.1-1.3,1.5-2.7,1-3.2C48.3,82,47,82.7,45.9,84
				C44.9,85.3,44.4,86.7,44.9,87.2"/>
			<path class="st4" d="M110.1,67.7v-1.1c0,0,1.6,0.1,4.3,0.4c2.7,0.3,4,0.6,4,0.8c0,0.2-1.3,0.3-2.1,1c-0.7,0.7-1.2,2-1.5,1.6
				C114.4,70.2,112.7,68.5,110.1,67.7"/>
			<path d="M71.3,74.5c-1,0.7-5.3,4-5.3,4s2.7-0.1,6.7-0.3v-4.7C72,73.9,71.5,74.3,71.3,74.5"/>
			<path d="M98.3,67.8c-0.4,0-1-0.1-1.7-0.1l0.3,9.3c1,0,1.9-0.1,2.8-0.1l-1.3-9.1C98.4,67.8,98.4,67.8,98.3,67.8"/>
			<path class="st0" d="M114.7,70.5c2.6,2.6,5,5.9,5,5.9h1.7h-0.1c-3.6-4.8-5.8-6.6-5.8-6.6l-0.1-0.1
				C115.2,70.3,114.9,70.7,114.7,70.5"/>
			<path class="st4" d="M69.9,77.1c0,0,1-1.5,1.9-1.9c0.8-0.4,2-0.3,2.3-0.3c0.3,0.1,1,0.6,1,1.3c0,0.7-0.1,1.2-0.5,1.3
				c-0.6,0.2-2.1,0.2-2.1,0.2s-1.9,0-2.2,0C69.8,77.8,69.7,77.4,69.9,77.1"/>
			<path d="M76.1,74.8c-0.2,0.1-0.3,0.4-0.2,0.6l1.2,2.5c0.3,0,0.7,0,1,0L76.8,75C76.6,74.8,76.4,74.7,76.1,74.8"/>
		</g>
		<line class="st7" x1="61" y1="82.1" x2="63" y2="82.1"/>
		<line class="st8" x1="41.8" y1="91.8" x2="43.1" y2="91.8"/>
		<line class="st8" x1="126.8" y1="91.4" x2="129.7" y2="91.4"/>
		<path class="st9" d="M93.9,82.1h-0.7c-0.7,0-1.2-0.5-1.2-1.2v-0.5c0-0.7,0.5-1.2,1.2-1.2h0.7c0.7,0,1.2,0.5,1.2,1.2v0.5
			C95.2,81.6,94.6,82.1,93.9,82.1"/>
		<path d="M90.6,80.7c0-0.7,7.1-1.2,7.1-0.1C97.6,81.7,90.6,81.5,90.6,80.7"/>
		<line class="st10" x1="67.7" y1="86.2" x2="107.7" y2="86.2"/>
		<path class="st11" d="M53.4,95.9c0-3,2.4-5.4,5.4-5.4s5.4,2.4,5.4,5.4s-2.4,5.4-5.4,5.4C55.8,101.2,53.4,98.8,53.4,95.9"/>
		<g>
			<path d="M58.4,93.5L58,91.3c-1.4,0.2-2.6,1.1-3.3,2.4l1.9,1C57,94.1,57.6,93.6,58.4,93.5z"/>
			<path d="M56.3,95.9c0-0.1,0-0.2,0-0.3l-2.1-0.3c0,0.2,0,0.4,0,0.6c0,1.2,0.5,2.4,1.3,3.2l1.5-1.5C56.6,97.1,56.3,96.5,56.3,95.9z
				"/>
			<path d="M60.9,94.7l1.9-1c-0.7-1.2-1.8-2.1-3.3-2.4l-0.4,2.1C60,93.6,60.6,94.1,60.9,94.7z"/>
			<path d="M63.3,95.2l-2.1,0.3c0,0.1,0,0.2,0,0.3c0,0.7-0.3,1.3-0.7,1.7L62,99c0.8-0.8,1.3-1.9,1.3-3.2
				C63.4,95.6,63.4,95.4,63.3,95.2z"/>
			<path d="M58.8,98.3c-0.4,0-0.7-0.1-1.1-0.2l-0.9,1.9c0.6,0.3,1.3,0.5,2,0.5s1.4-0.2,2-0.5l-0.9-2C59.5,98.2,59.2,98.3,58.8,98.3z
				"/>
		</g>
		<path class="st12" d="M57.5,95.9c0-0.7,0.6-1.3,1.3-1.3s1.3,0.6,1.3,1.3c0,0.7-0.6,1.3-1.3,1.3C58.1,97.2,57.5,96.6,57.5,95.9"/>
		<path class="st11" d="M112,96c0-3,2.4-5.4,5.4-5.4s5.4,2.4,5.4,5.4s-2.4,5.4-5.4,5.4S112,99,112,96"/>
		<g>
			<path d="M117,93.6l-0.4-2.1c-1.4,0.2-2.6,1.1-3.3,2.4l1.9,1C115.6,94.2,116.2,93.8,117,93.6z"/>
			<path d="M115,96c0-0.1,0-0.2,0-0.3l-2.1-0.3c0,0.2,0,0.4,0,0.6c0,1.2,0.5,2.4,1.3,3.2l1.5-1.5C115.2,97.3,115,96.7,115,96z"/>
			<path d="M119.6,94.9l1.9-1c-0.7-1.2-1.8-2.1-3.3-2.4l-0.4,2.1C118.6,93.8,119.2,94.2,119.6,94.9z"/>
			<path d="M121.9,95.4l-2.1,0.3c0,0.1,0,0.2,0,0.3c0,0.7-0.3,1.3-0.7,1.7l1.5,1.5c0.8-0.8,1.3-1.9,1.3-3.2
				C122,95.8,122,95.6,121.9,95.4z"/>
			<path d="M117.4,98.5c-0.4,0-0.7-0.1-1.1-0.2l-0.9,1.9c0.6,0.3,1.3,0.5,2,0.5s1.4-0.2,2-0.5l-0.9-1.9
				C118.2,98.4,117.8,98.5,117.4,98.5z"/>
		</g>
		<path class="st12" d="M116.1,96c0-0.7,0.6-1.3,1.3-1.3c0.7,0,1.3,0.6,1.3,1.3c0,0.7-0.6,1.3-1.3,1.3S116.1,96.7,116.1,96"/>
	</g>
	<g>
		<path class="st6" d="M83.2,75.4c0.2,0.2,0.5,0.3,0.8,0.3s0.6-0.1,0.8-0.3l7.8-7.8c-1,0-2.1,0-3.3,0.1l-6.1,6.1
			C82.7,74.3,82.7,75,83.2,75.4z"/>
		<path class="st6" d="M89.8,72.1c0.1,0.1,0.3,0.2,0.5,0.2s0.4-0.1,0.5-0.2l4.4-4.4c-0.6,0-1.2,0-1.9,0l-3.4,3.4
			C89.5,71.4,89.5,71.8,89.8,72.1z"/>
		<path class="st6" d="M100.4,73.8c0.1,0.1,0.3,0.2,0.5,0.2s0.4-0.1,0.5-0.2l4.6-4.6c-0.5-0.2-1-0.3-1.5-0.5l-4.1,4.1
			C100.1,73.1,100.1,73.5,100.4,73.8z"/>
		<path class="st6" d="M104.8,72.2c0.1,0.1,0.3,0.2,0.4,0.2c0.2,0,0.3-0.1,0.4-0.2l2-2.2c-0.1-0.1-0.2-0.2-0.3-0.2
			c-0.2-0.1-0.5-0.3-0.7-0.4l-1.9,2C104.6,71.6,104.6,72,104.8,72.2z"/>
	</g>
</g>
</svg>
