<?xml version="1.0" encoding="utf-8"?>
<!-- Generator: Adobe Illustrator 21.0.0, SVG Export Plug-In . SVG Version: 6.00 Build 0)  -->
<svg version="1.1" id="Layer_1" xmlns="http://www.w3.org/2000/svg" xmlns:xlink="http://www.w3.org/1999/xlink" x="0px" y="0px"
	 viewBox="0 0 180 180" style="enable-background:new 0 0 180 180;" xml:space="preserve">
<style type="text/css">
	.st0{fill:#2690A8;}
	.st1{fill:#3C3C3B;}
	.st2{fill:#575756;}
	.st3{fill:#B2B2B2;}
	.st4{fill:#BCC6E0;}
	.st5{fill:none;}
	.st6{fill:#333333;}
	.st7{fill:#CACACA;}
	.st8{fill:#FFFFFF;}
	.st9{fill:none;stroke:#FFFFFF;stroke-width:1.0753;stroke-linecap:round;}
</style>
<g>
	<g>
		<polyline points="56,100.7 75.4,100.6 108.1,99.6 125,100.3 144.9,98.6 145.9,92.8 141.2,84.2 126.6,84.2 80.1,92.2 69.1,85.5 
			59.1,85.7 54.2,92.6 56,100.7 		"/>
		<path class="st0" d="M147.3,82.3c4.1-1.9,4.9-2.7,4.6-3.3s0.3,0.7-15.5,0.3c-0.1,0-0.2,0-0.4,0c-2.7-0.8-10.7-2.9-21.5-4.7
			c-13.3-2.2-19.7-1.8-26.3,0.3S74,82,64.9,83.2c-9.1,1.1-15.6,4.7-17.5,5.6c-1.9,1-4.4,2.4-4.6,3.2c-0.1,0.7,0.4,1.3,0.6,2
			c-1,1.3-1.2,3.2-1.3,4c-0.2,0-0.6,0.1-0.6,0.4c0,0.2-0.6,2.3,15,2.6c-0.6-2.7-0.6-4.3-0.6-5.7c0-5,4.3-9.1,9.5-9.1
			c5.3,0,9.4,3.8,9.7,9.1c0.1,1.8,0,3.4-0.3,5.6c0,0,8.6-0.6,22.1-0.6c13.2,0,28.2,0.3,28.9,0.3c-0.7-2.7-0.6-4.8-0.5-5.8
			c0.1-5,4.3-9.1,9.7-9.1c1.5,0,2.9,0.3,4.1,0.9c3.3,1.4,5.6,4.6,5.6,8.2c0,0.9,0,1.6-0.1,2.5c2.9-0.9,4.9-1.9,5.7-2.9
			c0.8-1,1.9-6.8,1.6-7.5s-2.7-2-4-3.6C147.7,83,147.4,82.7,147.3,82.3L147.3,82.3"/>
		<path class="st1" d="M120,83.9c-0.3-0.5-5.1-0.3-11.3,0.4c-0.3,0.5-0.7,0.8-0.7,1.2l0,0c5.1-0.3,9-0.6,9.4-0.4
			c1,0.4-0.4,2.5-1.6,3.5c-1.1,1-5,2.2-11.9,3.5c-0.9,1.2-1.8,2.4-2.6,3.6c3.3-0.4,6-0.8,7.2-1c4.5-0.7,6.9-3.4,8.6-5.3
			C118.8,87.5,120.4,84.6,120,83.9"/>
		<path class="st2" d="M117.4,85.1c-0.3-0.1-4.3,0.1-9.4,0.4c-0.3,1-2.1,3.8-4.1,6.6c6.9-1.3,10.8-2.5,11.9-3.5
			C117,87.6,118.4,85.5,117.4,85.1"/>
		<path class="st1" d="M151.4,95.2c1.1-2.2,0.7-3.7,1.2-3.7c0.2,0,0.3,0,0.5,0c-0.1-0.2-0.4-0.3-0.6-0.5c-0.4-0.4,0.5-3.9,0.2-4.2
			c-0.2-0.1-0.9-0.4-1.4-0.5c0.3,0.3,0.6,0.5,0.7,0.7c0.3,0.7-0.8,6.5-1.6,7.5c-0.8,0.9-2.8,1.9-5.7,2.9c0,0.5-0.1,1-0.2,1.7
			c1.6-0.5,2.9-0.8,3.9-1.2C149.6,97.2,150.9,96.3,151.4,95.2"/>
		<path class="st3" d="M152.7,91.5c-0.6,0.1-0.2,1.5-1.2,3.7c-0.5,1.1-1.8,2-3.1,2.6c2.7-0.8,3.6-1.3,4-1.8c0.6-0.7,1-3.2,1-4
			c0-0.3-0.1-0.5-0.1-0.6C153,91.5,152.8,91.5,152.7,91.5"/>
		<path class="st1" d="M57.2,95.2c0-4.5,3.7-8.2,8.2-8.2s8.2,3.7,8.2,8.2s-3.7,8.2-8.2,8.2S57.2,99.7,57.2,95.2"/>
		<path class="st3" d="M58.7,95.2c0-3.7,3-6.7,6.7-6.7s6.7,3,6.7,6.7s-3,6.7-6.7,6.7C61.7,101.8,58.7,98.8,58.7,95.2"/>
		<path class="st1" d="M126.7,95.2c0-4.5,3.7-8.2,8.2-8.2s8.2,3.7,8.2,8.2s-3.7,8.2-8.2,8.2S126.7,99.7,126.7,95.2"/>
		<path class="st3" d="M128.2,95.2c0-3.7,3-6.7,6.7-6.7c3.7,0,6.7,3,6.7,6.7s-3,6.7-6.7,6.7C131.2,101.8,128.2,98.8,128.2,95.2"/>
		<path class="st4" d="M77.1,83.2c0.5-0.5,9.7-6.2,17.5-7.5c7.9-1.3,17.1,0.7,19.5,1.2s8.4,1.7,8.4,2.2c-0.1,0.5-1.7,0.7-4.3,1
			s-17.2,2-24,2.8C87.5,83.6,76,84.3,77.1,83.2"/>
		<path class="st2" d="M42.3,98c-0.2,0-0.6,0.1-0.6,0.4c0,0.2-0.6,2.3,15,2.6c-0.6-2.7-0.6-4.3-0.6-5.7c0-0.5,0-1,0.1-1.4
			c-0.6,0.1-4,0.7-5.1,1.4c-1.3,0.8-2.4,4-2.4,4s-1.4,0-2.3-0.3c-0.5-0.1-0.6-0.6-0.4-1.3c0.2-0.7,0.7-2,1.8-3.1c0,0,2-2.1,2.9-3.6
			c-1.1,0.2-5,1-6.5,2.4c-0.2,0.2-0.4,0.4-0.5,0.6c-0.1,0.1-0.1,0.2-0.2,0.3l0,0c-0.2,0.3-0.3,0.5-0.4,0.8l0,0
			c-0.1,0.3-0.2,0.6-0.3,0.8l0,0c-0.1,0.3-0.1,0.5-0.2,0.8v0.1c0,0.1,0,0.1,0,0.2v0.1c0,0.1,0,0.2-0.1,0.3v0.1c0,0.1,0,0.1,0,0.2
			v0.1C42.3,97.8,42.3,97.9,42.3,98"/>
		<path class="st4" d="M73.1,82.3c4.1-1.1,11-5.1,15.5-6.6c-0.1-0.2-0.2-0.5-0.3-0.8c-5.5,1.7-11.8,5.6-19,7.4
			C70.8,82.5,72.2,82.6,73.1,82.3"/>
		<path class="st3" d="M54.5,87.1c-1-1.2-8.5,2.6-8.3,3s4.4-1.3,4.8-0.4c0.4,0.9-3.3,4.9-3.3,4.9C48.9,93.5,55.4,88.3,54.5,87.1"/>
		<path d="M77.1,83.2c-0.6,0.6,2.2,0.6,5.9,0.5l-1-3.4C79.2,81.7,77.3,83,77.1,83.2"/>
		<path d="M104.4,75.4l1.8,6c0.7-0.1,1.4-0.2,2.1-0.2l-2.2-5.6C105.5,75.5,105,75.5,104.4,75.4"/>
		<path class="st1" d="M81.2,80c-1.7,0.2-3,1.1-2.9,2s1.6,1.4,3.3,1.2c0.8-0.1,1.5-0.3,2-0.7l-0.3-2.4C82.7,80,82,79.9,81.2,80"/>
		<path class="st3" d="M97,99.1c4.9,0,7.8,0,7.8,0s1-0.2,0.9-1.3c-10.4,0.2-28,1.6-30.6,1.8c0,0.1,0,0.2,0,0.3
			C78.5,99.7,89.6,99,97,99.1"/>
		<path class="st1" d="M105.6,97.8c0.1,1.1-0.9,1.3-0.9,1.3s-3,0-7.8,0C89.5,99,78.4,99.7,75,99.9c0,0.3-0.1,0.7-0.1,1
			c0,0,8.6-0.6,22.1-0.6c13.2,0,28.2,0.3,28.9,0.3c-0.1-0.5-0.2-1-0.3-1.4c-4.7-0.9-11.4-1.2-15.5-1.3
			C108.9,97.8,107.4,97.8,105.6,97.8"/>
		<path class="st1" d="M148.5,91.6c0.2-0.6,0.7-2.6,0.8-3c0.1-0.3-0.1-0.5-0.3-0.6c-0.2,0.1-0.4,0.2-0.5,0.2
			c-0.7,0.5-1.9,4.3-1.6,4.7C147.9,92.9,148.3,92.2,148.5,91.6"/>
		<path class="st1" d="M42.3,98c0,0-0.6,0-0.6,0.4c0,0.2-0.6,2.3,15,2.6c-0.1-0.3-0.1-0.6-0.2-0.8c-1,0-3.2,0-6.6-0.3
			C42.1,99.4,41.9,98.4,42.3,98"/>
		<path d="M85.6,80.5c-0.3,0.1-0.4,0.4-0.2,0.7l1.1,2.3c0.4,0,0.7-0.1,1.1-0.1l-1.3-2.6C86.2,80.5,85.9,80.4,85.6,80.5"/>
	</g>
	<path class="st3" d="M58.7,95.2c0-3.7,3-6.7,6.7-6.7s6.7,3,6.7,6.7s-3,6.7-6.7,6.7C61.7,101.8,58.7,98.8,58.7,95.2"/>
	<path class="st2" d="M62.3,95.2c0-1.7,1.4-3.1,3.1-3.1c1.7,0,3.1,1.4,3.1,3.1c0,1.7-1.4,3.1-3.1,3.1C63.7,98.2,62.3,96.9,62.3,95.2
		"/>
	<path class="st3" d="M63.3,95.2c0-1.1,0.9-2.1,2.1-2.1c1.1,0,2.1,0.9,2.1,2.1c0,1.1-0.9,2.1-2.1,2.1C64.3,97.2,63.3,96.3,63.3,95.2
		"/>
	<g>
		<path class="st5" d="M63.1,92.5l-1.8-2.4c-0.2,0.2-0.4,0.4-0.7,0.6l1.8,2.6C62.7,93,62.9,92.7,63.1,92.5z"/>
		<path class="st5" d="M62.1,94l-2.8-1.2c-0.1,0.3-0.2,0.6-0.3,0.8l2.8,1.3C62,94.6,62,94.3,62.1,94z"/>
		<path class="st5" d="M62.8,97.4l-2.4,1.8c0.2,0.2,0.4,0.4,0.6,0.7l2.6-1.8C63.2,97.9,63,97.7,62.8,97.4z"/>
		<path class="st5" d="M62,95.8l-3,0.4c0,0.3,0.1,0.6,0.2,0.9l3.1-0.3C62.2,96.4,62.1,96.1,62,95.8z"/>
		<path class="st5" d="M64.8,91.8l-0.4-3c-0.3,0-0.6,0.1-0.9,0.2l0.3,3.1C64.1,91.9,64.4,91.8,64.8,91.8z"/>
		<path class="st5" d="M64.2,98.4l-1.2,2.8c0.3,0.1,0.6,0.2,0.8,0.3l1.3-2.8C64.9,98.6,64.5,98.5,64.2,98.4z"/>
		<path class="st5" d="M68.8,94.5l3-0.4c0-0.3-0.1-0.6-0.2-0.9l-3.1,0.3C68.6,93.9,68.7,94.2,68.8,94.5z"/>
		<path class="st5" d="M68,92.9l2.4-1.8c-0.2-0.2-0.4-0.4-0.6-0.7l-2.6,1.8C67.5,92.4,67.8,92.6,68,92.9z"/>
		<path class="st5" d="M66.5,91.9l1.2-2.8c-0.3-0.1-0.6-0.2-0.8-0.3l-1.3,2.8C65.9,91.7,66.2,91.8,66.5,91.9z"/>
		<path class="st5" d="M68.7,96.3l2.8,1.2c0.1-0.3,0.2-0.6,0.3-0.8L69,95.4C68.8,95.7,68.8,96,68.7,96.3z"/>
		<path class="st5" d="M67.6,97.8l1.8,2.4c0.2-0.2,0.4-0.4,0.7-0.6L68.3,97C68.1,97.3,67.9,97.6,67.6,97.8z"/>
		<path class="st5" d="M66,98.6l0.4,3c0.3,0,0.6-0.1,0.9-0.2L67,98.3C66.7,98.4,66.4,98.5,66,98.6z"/>
		<path class="st6" d="M65.1,91.7l0.5-3c-0.1,0-0.2,0-0.2,0c-0.3,0-0.7,0-1,0.1l0.4,3C64.9,91.7,65,91.7,65.1,91.7z"/>
		<path class="st7" d="M65.1,91.7c0.1,0,0.2,0,0.3,0s0.1,0,0.2,0l1.3-2.8c-0.4-0.1-0.8-0.2-1.2-0.2L65.1,91.7z"/>
		<path class="st6" d="M63.4,92.3l-1.1-2.8c-0.4,0.2-0.7,0.4-1,0.7l1.8,2.4C63.2,92.4,63.3,92.4,63.4,92.3z"/>
		<path class="st7" d="M63.4,92.3c0.1-0.1,0.2-0.1,0.4-0.2L63.5,89c-0.4,0.1-0.8,0.3-1.2,0.5L63.4,92.3z"/>
		<path class="st6" d="M62.3,93.6L60,91.7c-0.2,0.3-0.4,0.7-0.6,1.1l2.8,1.2C62.2,93.9,62.2,93.8,62.3,93.6z"/>
		<path class="st7" d="M62.3,93.6c0.1-0.1,0.1-0.2,0.2-0.4l-1.8-2.6c-0.3,0.3-0.5,0.6-0.8,1L62.3,93.6z"/>
		<path class="st6" d="M61.9,95.4l-3-0.5c0,0.1,0,0.2,0,0.2c0,0.3,0,0.7,0.1,1l3-0.4C62,95.7,61.9,95.5,61.9,95.4z"/>
		<path class="st7" d="M61.9,95.4c0-0.1,0-0.2,0-0.3s0-0.1,0-0.2l-2.8-1.3c-0.1,0.4-0.2,0.8-0.2,1.2L61.9,95.4z"/>
		<path class="st6" d="M62.5,97.1l-2.8,1.1c0.2,0.4,0.4,0.7,0.7,1l2.4-1.8C62.7,97.3,62.6,97.2,62.5,97.1z"/>
		<path class="st7" d="M62.5,97.1c-0.1-0.1-0.1-0.2-0.2-0.4L59.2,97c0.1,0.4,0.3,0.8,0.5,1.2L62.5,97.1z"/>
		<path class="st6" d="M63.9,98.3l-1.9,2.3c0.3,0.2,0.7,0.4,1.1,0.6l1.2-2.8C64.1,98.4,64,98.3,63.9,98.3z"/>
		<path class="st7" d="M63.9,98.3c-0.1-0.1-0.2-0.1-0.4-0.2l-2.6,1.8c0.3,0.3,0.6,0.5,1,0.8L63.9,98.3z"/>
		<path class="st6" d="M65.6,98.6l-0.5,3c0.1,0,0.2,0,0.2,0c0.3,0,0.7,0,1-0.1l-0.4-3C65.9,98.6,65.8,98.6,65.6,98.6z"/>
		<path class="st7" d="M65.6,98.6c-0.1,0-0.2,0-0.3,0s-0.1,0-0.2,0l-1.3,2.8c0.4,0.1,0.8,0.2,1.2,0.2L65.6,98.6z"/>
		<path class="st6" d="M67.3,98l1.1,2.8c0.4-0.2,0.7-0.4,1-0.7l-1.8-2.4C67.5,97.9,67.4,97.9,67.3,98z"/>
		<path class="st7" d="M67.3,98c-0.1,0.1-0.2,0.1-0.4,0.2l0.3,3.1c0.4-0.1,0.8-0.3,1.2-0.5L67.3,98z"/>
		<path class="st6" d="M68.5,96.7l2.3,1.9c0.2-0.3,0.4-0.7,0.6-1.1l-2.8-1.2C68.6,96.4,68.6,96.5,68.5,96.7z"/>
		<path class="st7" d="M68.5,96.7c-0.1,0.1-0.1,0.2-0.2,0.4l1.8,2.6c0.3-0.3,0.5-0.6,0.8-1L68.5,96.7z"/>
		<path class="st6" d="M68.8,94.9l3,0.5c0-0.1,0-0.2,0-0.2c0-0.3,0-0.7-0.1-1l-3,0.4C68.8,94.6,68.8,94.8,68.8,94.9z"/>
		<path class="st7" d="M68.8,94.9c0,0.1,0,0.2,0,0.3s0,0.1,0,0.2l2.8,1.3c0.1-0.4,0.2-0.8,0.2-1.2L68.8,94.9z"/>
		<path class="st6" d="M68.3,93.2l2.8-1.1c-0.2-0.4-0.4-0.7-0.7-1L68,92.9C68.1,93,68.2,93.1,68.3,93.2z"/>
		<path class="st7" d="M68.3,93.2c0.1,0.1,0.1,0.2,0.2,0.4l3.1-0.3c-0.1-0.4-0.3-0.8-0.5-1.2L68.3,93.2z"/>
		<path class="st6" d="M66.9,92l1.9-2.3c-0.3-0.2-0.7-0.4-1.1-0.6l-1.2,2.8C66.7,91.9,66.8,92,66.9,92z"/>
		<path class="st7" d="M66.9,92c0.1,0.1,0.2,0.1,0.4,0.2l2.6-1.8c-0.3-0.3-0.6-0.5-1-0.8L66.9,92z"/>
	</g>
	<path class="st3" d="M128.2,95.2c0-3.7,3-6.7,6.7-6.7c3.7,0,6.7,3,6.7,6.7s-3,6.7-6.7,6.7C131.2,101.8,128.2,98.8,128.2,95.2"/>
	<path class="st2" d="M131.8,95.2c0-1.7,1.4-3.1,3.1-3.1s3.1,1.4,3.1,3.1c0,1.7-1.4,3.1-3.1,3.1C133.2,98.2,131.8,96.9,131.8,95.2"
		/>
	<path class="st3" d="M132.8,95.2c0-1.1,0.9-2.1,2.1-2.1c1.1,0,2.1,0.9,2.1,2.1c0,1.1-0.9,2.1-2.1,2.1
		C133.8,97.2,132.8,96.3,132.8,95.2"/>
	<g>
		<path class="st5" d="M132.6,92.5l-1.8-2.4c-0.2,0.2-0.4,0.4-0.7,0.6l1.8,2.6C132.2,93,132.4,92.7,132.6,92.5z"/>
		<path class="st5" d="M131.6,94l-2.8-1.2c-0.1,0.3-0.2,0.6-0.3,0.8l2.8,1.3C131.5,94.6,131.5,94.3,131.6,94z"/>
		<path class="st5" d="M132.3,97.4l-2.4,1.8c0.2,0.2,0.4,0.4,0.6,0.7l2.6-1.8C132.7,97.9,132.5,97.7,132.3,97.4z"/>
		<path class="st5" d="M131.5,95.8l-3,0.4c0,0.3,0.1,0.6,0.2,0.9l3.1-0.3C131.7,96.4,131.6,96.1,131.5,95.8z"/>
		<path class="st5" d="M134.3,91.8l-0.4-3c-0.3,0-0.6,0.1-0.9,0.2l0.3,3.1C133.6,91.9,133.9,91.8,134.3,91.8z"/>
		<path class="st5" d="M133.7,98.4l-1.2,2.8c0.3,0.1,0.6,0.2,0.8,0.3l1.3-2.8C134.4,98.6,134.1,98.5,133.7,98.4z"/>
		<path class="st5" d="M138.3,94.5l3-0.4c0-0.3-0.1-0.6-0.2-0.9l-3.1,0.3C138.1,93.9,138.2,94.2,138.3,94.5z"/>
		<path class="st5" d="M137.5,92.9l2.4-1.8c-0.2-0.2-0.4-0.4-0.6-0.7l-2.6,1.8C137,92.4,137.3,92.6,137.5,92.9z"/>
		<path class="st5" d="M136,91.9l1.2-2.8c-0.3-0.1-0.6-0.2-0.8-0.3l-1.3,2.8C135.4,91.7,135.7,91.8,136,91.9z"/>
		<path class="st5" d="M138.2,96.3l2.8,1.2c0.1-0.3,0.2-0.6,0.3-0.8l-2.8-1.3C138.3,95.7,138.3,96,138.2,96.3z"/>
		<path class="st5" d="M137.1,97.8l1.8,2.4c0.2-0.2,0.4-0.4,0.7-0.6l-1.8-2.6C137.6,97.3,137.4,97.6,137.1,97.8z"/>
		<path class="st5" d="M135.5,98.6l0.4,3c0.3,0,0.6-0.1,0.9-0.2l-0.3-3.2C136.2,98.4,135.9,98.5,135.5,98.6z"/>
		<path class="st6" d="M134.6,91.7l0.5-3c-0.1,0-0.2,0-0.2,0c-0.3,0-0.7,0-1,0.1l0.4,3C134.4,91.7,134.5,91.7,134.6,91.7z"/>
		<path class="st7" d="M134.6,91.7c0.1,0,0.2,0,0.3,0c0.1,0,0.1,0,0.2,0l1.3-2.8c-0.4-0.1-0.8-0.2-1.2-0.2L134.6,91.7z"/>
		<path class="st6" d="M133,92.3l-1.1-2.8c-0.4,0.2-0.7,0.4-1,0.7l1.8,2.4C132.7,92.4,132.8,92.4,133,92.3z"/>
		<path class="st7" d="M133,92.3c0.1-0.1,0.2-0.1,0.4-0.2l-0.3-3.1c-0.4,0.1-0.8,0.3-1.2,0.5L133,92.3z"/>
		<path class="st6" d="M131.8,93.6l-2.3-1.9c-0.2,0.3-0.4,0.7-0.6,1.1l2.8,1.2C131.7,93.9,131.7,93.8,131.8,93.6z"/>
		<path class="st7" d="M131.8,93.6c0.1-0.1,0.1-0.2,0.2-0.4l-1.8-2.6c-0.3,0.3-0.5,0.6-0.8,1L131.8,93.6z"/>
		<path class="st6" d="M131.4,95.4l-3-0.5c0,0.1,0,0.2,0,0.2c0,0.3,0,0.7,0.1,1l3-0.4C131.5,95.7,131.5,95.5,131.4,95.4z"/>
		<path class="st7" d="M131.4,95.4c0-0.1,0-0.2,0-0.3s0-0.1,0-0.2l-2.8-1.3c-0.1,0.4-0.2,0.8-0.2,1.2L131.4,95.4z"/>
		<path class="st6" d="M132,97.1l-2.8,1.1c0.2,0.4,0.4,0.7,0.7,1l2.4-1.8C132.2,97.3,132.1,97.2,132,97.1z"/>
		<path class="st7" d="M132,97.1c-0.1-0.1-0.1-0.2-0.2-0.4l-3.1,0.3c0.1,0.4,0.3,0.8,0.5,1.2L132,97.1z"/>
		<path class="st6" d="M133.4,98.3l-1.9,2.3c0.3,0.2,0.7,0.4,1.1,0.6l1.2-2.8C133.6,98.4,133.5,98.3,133.4,98.3z"/>
		<path class="st7" d="M133.4,98.3c-0.1-0.1-0.2-0.1-0.4-0.2l-2.6,1.8c0.3,0.3,0.6,0.5,1,0.8L133.4,98.3z"/>
		<path class="st6" d="M135.1,98.6l-0.5,3c0.1,0,0.2,0,0.2,0c0.3,0,0.7,0,1-0.1l-0.4-3C135.4,98.6,135.3,98.6,135.1,98.6z"/>
		<path class="st7" d="M135.1,98.6c-0.1,0-0.2,0-0.3,0c-0.1,0-0.1,0-0.2,0l-1.3,2.8c0.4,0.1,0.8,0.2,1.2,0.2L135.1,98.6z"/>
		<path class="st6" d="M136.8,98l1.1,2.8c0.4-0.2,0.7-0.4,1-0.7l-1.8-2.4C137,97.9,136.9,97.9,136.8,98z"/>
		<path class="st7" d="M136.8,98c-0.1,0.1-0.2,0.1-0.4,0.2l0.3,3.1c0.4-0.1,0.8-0.3,1.2-0.5L136.8,98z"/>
		<path class="st6" d="M138,96.7l2.3,1.9c0.2-0.3,0.4-0.7,0.6-1.1l-2.8-1.2C138.1,96.4,138.1,96.5,138,96.7z"/>
		<path class="st7" d="M138,96.7c-0.1,0.1-0.1,0.2-0.2,0.4l1.8,2.6c0.3-0.3,0.5-0.6,0.8-1L138,96.7z"/>
		<path class="st6" d="M138.3,94.9l3,0.5c0-0.1,0-0.2,0-0.2c0-0.3,0-0.7-0.1-1l-3,0.4C138.3,94.6,138.3,94.8,138.3,94.9z"/>
		<path class="st7" d="M138.3,94.9c0,0.1,0,0.2,0,0.3s0,0.1,0,0.2l2.8,1.3c0.1-0.4,0.2-0.8,0.2-1.2L138.3,94.9z"/>
		<path class="st6" d="M137.8,93.2l2.8-1.1c-0.2-0.4-0.4-0.7-0.7-1l-2.4,1.8C137.6,93,137.7,93.1,137.8,93.2z"/>
		<path class="st7" d="M137.8,93.2c0.1,0.1,0.1,0.2,0.2,0.4l3.1-0.3c-0.1-0.4-0.3-0.8-0.5-1.2L137.8,93.2z"/>
		<path class="st6" d="M136.4,92l1.9-2.3c-0.3-0.2-0.7-0.4-1.1-0.6l-1.2,2.8C136.2,91.9,136.3,92,136.4,92z"/>
		<path class="st7" d="M136.4,92c0.1,0.1,0.2,0.1,0.4,0.2l2.6-1.8c-0.3-0.3-0.6-0.5-1-0.8L136.4,92z"/>
	</g>
	<g>
		<path class="st8" d="M92,82.1c0.2,0.2,0.5,0.3,0.8,0.3s0.6-0.1,0.8-0.3l6.8-6.8c-1.1,0-2.2,0-3.3,0.1L92,80.5
			C91.6,80.9,91.6,81.6,92,82.1z"/>
		<path class="st8" d="M98.7,78.7c0.1,0.1,0.3,0.2,0.5,0.2s0.4-0.1,0.5-0.2l3.4-3.4c-0.6,0-1.3-0.1-1.9-0.1l-2.5,2.5
			C98.4,78,98.4,78.4,98.7,78.7z"/>
		<path class="st8" d="M109.2,80.4c0.1,0.1,0.3,0.2,0.5,0.2s0.4-0.1,0.5-0.2l3.6-3.6c-0.4-0.1-1-0.2-1.6-0.3l-2.9,2.9
			C109,79.7,109,80.1,109.2,80.4z"/>
		<path class="st8" d="M113.7,78.9c0.1,0.1,0.3,0.2,0.4,0.2c0.2,0,0.3-0.1,0.4-0.2l1.5-1.6c-0.5-0.1-1-0.2-1.4-0.3l-1,1.1
			C113.4,78.3,113.4,78.7,113.7,78.9z"/>
	</g>
	<line class="st9" x1="68.7" y1="84.6" x2="70.6" y2="84.6"/>
</g>
</svg>
