<?xml version="1.0" encoding="utf-8"?>
<!-- Generator: Adobe Illustrator 21.0.0, SVG Export Plug-In . SVG Version: 6.00 Build 0)  -->
<svg version="1.1" id="Layer_1" xmlns="http://www.w3.org/2000/svg" xmlns:xlink="http://www.w3.org/1999/xlink" x="0px" y="0px"
	 viewBox="0 0 180 180" style="enable-background:new 0 0 180 180;" xml:space="preserve">
<style type="text/css">
	.st0{fill:#93B253;}
	.st1{fill:#6A7643;}
</style>
<path class="st0" d="M170,111.9h-62.6H85.9H17.2c-3.4,0-6.4,1.9-7.8,4.7c-4.4,0.5-7.8,4.3-7.8,8.8c0,4.9,4,8.9,8.9,8.9h21.5
	c1,3.8,4.4,6.7,8.6,6.7h43.8c4.9,0,8.9-4,8.9-8.9c0-0.9-0.1-1.7-0.4-2.5h14.7H170c4.9,0,8.9-4,8.9-8.9
	C178.8,115.9,174.9,111.9,170,111.9z"/>
<path class="st1" d="M55,116.5c-0.2-0.1-0.5-0.1-0.7,0.2l-0.8,1.3l-0.2-3.4c0-0.3-0.3-0.5-0.5-0.5c-0.3,0-0.5,0.3-0.5,0.5l0.2,2.4
	l-0.4-0.8c-0.1-0.3-0.4-0.4-0.7-0.2c-0.2,0.1-0.4,0.4-0.2,0.7l1.5,3.2c0,0,0,0,0,0c0,0,0,0,0,0c0,0,0,0.1,0.1,0.1c0,0,0,0,0,0
	c0,0,0,0,0,0c0,0,0,0,0,0c0,0,0,0,0,0c0,0,0,0,0,0c0,0,0,0,0.1,0c0,0,0.1,0,0.1,0c0,0,0,0,0.1,0c0,0,0,0,0,0c0,0,0,0,0,0
	c0,0,0.1,0,0.1,0c0,0,0,0,0,0c0,0,0,0,0,0c0,0,0,0,0,0c0,0,0,0,0.1-0.1c0,0,0,0,0,0c0,0,0,0,0,0c0,0,0,0,0,0c0,0,0,0,0,0l1.6-2.7
	C55.3,117,55.2,116.6,55,116.5z"/>
<path class="st1" d="M73.4,133.8c-0.3-0.1-0.5,0.1-0.6,0.3l-0.6,1.8l-0.2-2.4c0-0.3-0.3-0.5-0.5-0.5c-0.3,0-0.5,0.3-0.5,0.5l0.2,2.4
	l-0.4-0.8c-0.1-0.3-0.4-0.4-0.7-0.2c-0.3,0.1-0.4,0.4-0.2,0.7l1.5,3.2c0,0,0,0,0,0c0,0,0,0,0,0.1c0,0,0,0.1,0.1,0.1c0,0,0,0,0,0
	c0,0,0,0,0,0c0,0,0,0,0,0c0,0,0.1,0.1,0.1,0.1c0,0,0,0,0,0c0,0,0,0,0,0c0,0,0,0,0.1,0c0,0,0.1,0,0.1,0c0,0,0,0,0,0c0,0,0,0,0,0
	c0,0,0.1,0,0.1,0c0,0,0,0,0.1,0c0,0,0,0,0,0c0,0,0,0,0,0c0,0,0,0,0.1,0c0,0,0,0,0,0c0,0,0,0,0,0c0,0,0,0,0,0c0,0,0,0,0,0
	c0,0,0-0.1,0.1-0.1c0,0,0,0,0-0.1c0,0,0,0,0,0c0,0,0,0,0,0l1.4-4.3C73.8,134.2,73.6,133.9,73.4,133.8z"/>
<g>
	<path class="st1" d="M106.9,120.1h-2.3c0.2-0.2,0.3-0.4,0.3-0.7c0-0.5-0.4-0.9-0.9-0.9h-3.5c-0.5,0-0.9,0.4-0.9,0.9
		c0,0.3,0.1,0.5,0.3,0.7h-0.6c-0.4,0-0.7,0.3-0.7,0.7c0,0.4,0.3,0.7,0.7,0.7h7.6c0.4,0,0.7-0.3,0.7-0.7
		C107.6,120.4,107.3,120.1,106.9,120.1z"/>
	<path class="st1" d="M97.2,120.1H96c-0.4,0-0.7,0.3-0.7,0.7c0,0.4,0.3,0.7,0.7,0.7h1.2c0.4,0,0.7-0.3,0.7-0.7
		C97.9,120.4,97.6,120.1,97.2,120.1z"/>
</g>
<g>
	<path class="st1" d="M158.4,117.6H156c0.2-0.2,0.3-0.4,0.3-0.7c0-0.5-0.4-0.9-0.9-0.9h-3.5c-0.5,0-0.9,0.4-0.9,0.9
		c0,0.3,0.1,0.5,0.3,0.7h-0.6c-0.4,0-0.7,0.3-0.7,0.7c0,0.4,0.3,0.7,0.7,0.7h7.6c0.4,0,0.7-0.3,0.7-0.7
		C159,117.9,158.7,117.6,158.4,117.6z"/>
	<path class="st1" d="M148.6,117.6h-1.2c-0.4,0-0.7,0.3-0.7,0.7c0,0.4,0.3,0.7,0.7,0.7h1.2c0.4,0,0.7-0.3,0.7-0.7
		C149.3,117.9,149,117.6,148.6,117.6z"/>
</g>
<path class="st1" d="M96.5,109.3c-0.2-0.1-0.5,0-0.7,0.2l-0.3,0.7l-0.2-3.2c0-0.3-0.3-0.5-0.5-0.5c-0.3,0-0.5,0.3-0.5,0.5l0.2,2.4
	l-0.4-0.8c-0.1-0.3-0.4-0.4-0.7-0.2c-0.3,0.1-0.4,0.4-0.2,0.7l1.5,3.2c0,0,0,0,0,0c0,0,0,0,0,0c0,0,0,0,0.1,0.1c0,0,0,0,0,0
	c0,0,0,0,0,0c0,0,0,0,0,0c0,0,0,0,0,0c0,0,0,0,0,0c0,0,0,0,0,0c0,0,0,0,0.1,0c0,0,0.1,0,0.1,0c0,0,0,0,0,0c0,0,0,0,0,0
	c0,0,0,0,0.1,0c0,0,0.1,0,0.1,0c0,0,0,0,0,0c0,0,0,0,0,0c0,0,0,0,0,0c0,0,0.1,0,0.1-0.1c0,0,0,0,0,0c0,0,0,0,0-0.1c0,0,0,0,0,0
	l1.2-2.2C96.8,109.7,96.7,109.4,96.5,109.3z"/>
</svg>
