<?xml version="1.0" encoding="utf-8"?>
<!-- Generator: Adobe Illustrator 21.0.0, SVG Export Plug-In . SVG Version: 6.00 Build 0)  -->
<svg version="1.1" id="Layer_1" xmlns="http://www.w3.org/2000/svg" xmlns:xlink="http://www.w3.org/1999/xlink" x="0px" y="0px"
	 viewBox="0 0 100 100" style="enable-background:new 0 0 100 100;" xml:space="preserve">
<style type="text/css">
	.st0{fill:#BE1622;}
	.st1{fill:#7A1520;}
	.st2{fill:none;stroke:#1F374F;stroke-width:0.7319;stroke-linecap:round;}
	.st3{fill:#1F374F;}
	.st4{fill:#BCC6E0;}
	.st5{fill:#9AA6BB;}
	.st6{fill:#88A0CB;}
	.st7{fill:#E8AC5C;}
	.st8{fill:none;}
	.st9{fill:#C18849;}
	.st10{fill:#6D4D46;}
</style>
<g>
	<polygon class="st0" points="17.3,12.2 27.1,12.2 27.2,8.1 17.3,8.1 	"/>
	<polygon class="st1" points="22.2,17.4 22.2,13.3 27.2,8.3 27.2,12.2 	"/>
	<polygon class="st0" points="29.8,15.3 31.3,17.4 22.2,17.4 22.2,13.3 31.3,13.3 	"/>
	<polygon class="st0" points="54.3,12.2 64.1,12.2 64.2,8.1 54.3,8.1 	"/>
	<polygon class="st1" points="59.2,17.4 59.2,13.3 64.2,8.3 64.2,12.2 	"/>
	<polygon class="st0" points="66.8,15.3 68.3,17.4 59.2,17.4 59.2,13.3 68.3,13.3 	"/>
	<line class="st2" x1="54.3" y1="24.2" x2="54.3" y2="6.3"/>
	<line class="st2" x1="17.3" y1="24.2" x2="17.3" y2="6.3"/>
	<circle class="st3" cx="17.3" cy="6.3" r="0.9"/>
	<rect x="14.6" y="34.2" class="st4" width="48.9" height="42"/>
	<rect x="8.8" y="23.5" class="st5" width="5.8" height="52.7"/>
	<rect x="14.6" y="23.5" class="st4" width="12.5" height="10.6"/>
	<rect x="14.6" y="20.8" class="st4" width="2.5" height="2.8"/>
	<rect x="13.5" y="20.8" class="st5" width="1.1" height="2.8"/>
	<rect x="9.9" y="20.8" class="st4" width="2.5" height="2.8"/>
	<rect x="8.8" y="20.8" class="st5" width="1.1" height="2.8"/>
	<rect x="24.5" y="20.8" class="st4" width="2.5" height="2.8"/>
	<rect x="23.5" y="20.8" class="st5" width="1.1" height="2.8"/>
	<rect x="19.4" y="20.8" class="st4" width="2.5" height="2.8"/>
	<rect x="18.3" y="20.8" class="st5" width="1.1" height="2.8"/>
	<rect x="51" y="20.8" class="st4" width="2.5" height="2.8"/>
	<rect x="49.9" y="20.8" class="st5" width="1.1" height="2.8"/>
	<rect x="46.3" y="20.8" class="st4" width="2.5" height="2.8"/>
	<rect x="45.2" y="20.8" class="st5" width="1.1" height="2.8"/>
	<rect x="61" y="20.8" class="st4" width="2.5" height="2.8"/>
	<rect x="59.9" y="20.8" class="st5" width="1.1" height="2.8"/>
	<rect x="55.8" y="20.8" class="st4" width="2.5" height="2.8"/>
	<rect x="54.7" y="20.8" class="st5" width="1.1" height="2.8"/>
	<g>
		<path class="st6" d="M39,45.6c-8.6,0-15.6,1.1-15.6,2.4v28.2c0,0.9,3.4,1.8,8.5,2.2V63.5c0-4.7,3.6-8.5,8.3-8.9c0,0,0,0,0,0
			c0.1,0,0.2,0,0.3,0c0,0,0,0,0.1,0c0.1,0,0.2,0,0.3,0c4.9,0,8.9,4,8.9,8.9V78c3.1-0.4,5-1.1,5-1.8V48C54.6,46.7,47.6,45.6,39,45.6z
			"/>
		<path class="st5" d="M40.1,54.6c0.1,0,0.2,0,0.3,0C40.3,54.6,40.2,54.6,40.1,54.6z"/>
		<path class="st5" d="M40.5,54.6c0.1,0,0.2,0,0.3,0C40.6,54.6,40.5,54.6,40.5,54.6z"/>
		<path class="st3" d="M40.4,54.6C40.4,54.6,40.4,54.6,40.4,54.6C40.4,54.6,40.4,54.6,40.4,54.6z"/>
		<path class="st3" d="M40.1,54.6C40.1,54.6,40.1,54.6,40.1,54.6C40.1,54.6,40.1,54.6,40.1,54.6z"/>
		<path class="st3" d="M40.7,54.6c-0.1,0-0.2,0-0.3,0c0,0,0,0-0.1,0c-0.1,0-0.2,0-0.3,0c0,0,0,0,0,0c-0.6,0-1.2,0.2-1.8,0.3
			c3.7,1.1,6.5,4.5,6.5,8.5v15c1.8-0.1,3.4-0.3,4.8-0.5V63.5C49.6,58.6,45.6,54.6,40.7,54.6z"/>
	</g>
	<rect x="51" y="23.5" class="st4" width="12.5" height="10.6"/>
	<rect x="45.2" y="23.5" class="st5" width="5.8" height="10.6"/>
	<g>
		<path class="st5" d="M18.7,65.3C18.7,65.3,18.7,65.3,18.7,65.3C18.7,65.3,18.7,65.3,18.7,65.3z"/>
		<path class="st5" d="M18.8,65.3C18.8,65.3,18.8,65.3,18.8,65.3C18.8,65.3,18.8,65.3,18.8,65.3z"/>
		<path class="st7" d="M20,67.9c0-1.2-0.8-2.2-1.9-2.5c0.2,0,0.3-0.1,0.5-0.1c-1.4,0.1-2.4,1.2-2.4,2.6v2.4H20V67.9z"/>
		<path class="st3" d="M18.7,65.3C18.7,65.3,18.8,65.3,18.7,65.3C18.8,65.3,18.7,65.3,18.7,65.3z"/>
		<path class="st3" d="M18.7,65.3C18.7,65.3,18.7,65.3,18.7,65.3C18.7,65.3,18.7,65.3,18.7,65.3z"/>
		<path class="st3" d="M18.8,65.3C18.8,65.3,18.8,65.3,18.8,65.3c-0.1,0-0.1,0-0.1,0c0,0-0.1,0-0.1,0c0,0,0,0,0,0
			c-0.2,0-0.4,0-0.5,0.1c1.1,0.3,1.9,1.3,1.9,2.5v2.4h1.4v-2.4C21.4,66.5,20.3,65.3,18.8,65.3z"/>
	</g>
	<g>
		<path class="st5" d="M18.7,56.7C18.7,56.7,18.7,56.7,18.7,56.7C18.7,56.7,18.7,56.7,18.7,56.7z"/>
		<path class="st5" d="M18.8,56.7C18.8,56.7,18.8,56.7,18.8,56.7C18.8,56.7,18.8,56.7,18.8,56.7z"/>
		<path class="st7" d="M20,59.3c0-1.2-0.8-2.2-1.9-2.5c0.2,0,0.3-0.1,0.5-0.1c-1.4,0.1-2.4,1.2-2.4,2.6v2.4H20V59.3z"/>
		<path class="st3" d="M18.7,56.7C18.7,56.7,18.8,56.7,18.7,56.7C18.8,56.7,18.7,56.7,18.7,56.7z"/>
		<path class="st3" d="M18.7,56.7C18.7,56.7,18.7,56.7,18.7,56.7C18.7,56.7,18.7,56.7,18.7,56.7z"/>
		<path class="st3" d="M18.8,56.7C18.8,56.7,18.8,56.7,18.8,56.7c-0.1,0-0.1,0-0.1,0c0,0-0.1,0-0.1,0c0,0,0,0,0,0
			c-0.2,0-0.4,0-0.5,0.1c1.1,0.3,1.9,1.3,1.9,2.5v2.4h1.4v-2.4C21.4,57.9,20.3,56.7,18.8,56.7z"/>
	</g>
	<g>
		<path class="st5" d="M18.7,48.1C18.7,48.1,18.7,48.1,18.7,48.1C18.7,48.1,18.7,48.1,18.7,48.1z"/>
		<path class="st5" d="M18.8,48.1C18.8,48.1,18.8,48.1,18.8,48.1C18.8,48.1,18.8,48.1,18.8,48.1z"/>
		<path class="st5" d="M20,50.7c0-1.2-0.8-2.2-1.9-2.5c0.2,0,0.3-0.1,0.5-0.1c-1.4,0.1-2.4,1.2-2.4,2.6v2.4H20V50.7z"/>
		<path class="st3" d="M18.7,48.1C18.7,48.1,18.8,48.1,18.7,48.1C18.8,48.1,18.7,48.1,18.7,48.1z"/>
		<path class="st3" d="M18.7,48.1C18.7,48.1,18.7,48.1,18.7,48.1C18.7,48.1,18.7,48.1,18.7,48.1z"/>
		<path class="st3" d="M18.8,48.1C18.8,48.1,18.8,48.1,18.8,48.1c-0.1,0-0.1,0-0.1,0c0,0-0.1,0-0.1,0c0,0,0,0,0,0
			c-0.2,0-0.4,0-0.5,0.1c1.1,0.3,1.9,1.3,1.9,2.5v2.4h1.4v-2.4C21.4,49.2,20.3,48.1,18.8,48.1z"/>
	</g>
	<g>
		<path class="st5" d="M58.4,65.3C58.4,65.3,58.4,65.3,58.4,65.3C58.4,65.3,58.4,65.3,58.4,65.3z"/>
		<path class="st5" d="M58.5,65.3C58.5,65.3,58.5,65.3,58.5,65.3C58.5,65.3,58.5,65.3,58.5,65.3z"/>
		<path class="st7" d="M59.8,67.9c0-1.2-0.8-2.2-1.9-2.5c0.2,0,0.3-0.1,0.5-0.1C57,65.4,56,66.5,56,67.9v2.4h3.8V67.9z"/>
		<path class="st3" d="M58.5,65.3C58.5,65.3,58.5,65.3,58.5,65.3C58.5,65.3,58.5,65.3,58.5,65.3z"/>
		<path class="st3" d="M58.4,65.3C58.4,65.3,58.4,65.3,58.4,65.3C58.4,65.3,58.4,65.3,58.4,65.3z"/>
		<path class="st3" d="M58.6,65.3C58.5,65.3,58.5,65.3,58.6,65.3c-0.1,0-0.1,0-0.1,0c0,0-0.1,0-0.1,0c0,0,0,0,0,0
			c-0.2,0-0.4,0-0.5,0.1c1.1,0.3,1.9,1.3,1.9,2.5v2.4h1.4v-2.4C61.2,66.5,60,65.3,58.6,65.3z"/>
	</g>
	<g>
		<path class="st5" d="M58.4,56.7C58.4,56.7,58.4,56.7,58.4,56.7C58.4,56.7,58.4,56.7,58.4,56.7z"/>
		<path class="st5" d="M58.5,56.7C58.5,56.7,58.5,56.7,58.5,56.7C58.5,56.7,58.5,56.7,58.5,56.7z"/>
		<path class="st5" d="M59.8,59.3c0-1.2-0.8-2.2-1.9-2.5c0.2,0,0.3-0.1,0.5-0.1C57,56.8,56,57.9,56,59.3v2.4h3.8V59.3z"/>
		<path class="st3" d="M58.5,56.7C58.5,56.7,58.5,56.7,58.5,56.7C58.5,56.7,58.5,56.7,58.5,56.7z"/>
		<path class="st3" d="M58.4,56.7C58.4,56.7,58.4,56.7,58.4,56.7C58.4,56.7,58.4,56.7,58.4,56.7z"/>
		<path class="st3" d="M58.6,56.7C58.5,56.7,58.5,56.7,58.6,56.7c-0.1,0-0.1,0-0.1,0c0,0-0.1,0-0.1,0c0,0,0,0,0,0
			c-0.2,0-0.4,0-0.5,0.1c1.1,0.3,1.9,1.3,1.9,2.5v2.4h1.4v-2.4C61.2,57.9,60,56.7,58.6,56.7z"/>
	</g>
	<g>
		<path class="st5" d="M58.4,48.1C58.4,48.1,58.4,48.1,58.4,48.1C58.4,48.1,58.4,48.1,58.4,48.1z"/>
		<path class="st5" d="M58.5,48.1C58.5,48.1,58.5,48.1,58.5,48.1C58.5,48.1,58.5,48.1,58.5,48.1z"/>
		<path class="st7" d="M59.8,50.7c0-1.2-0.8-2.2-1.9-2.5c0.2,0,0.3-0.1,0.5-0.1C57,48.2,56,49.3,56,50.7v2.4h3.8V50.7z"/>
		<path class="st3" d="M58.5,48.1C58.5,48.1,58.5,48.1,58.5,48.1C58.5,48.1,58.5,48.1,58.5,48.1z"/>
		<path class="st3" d="M58.4,48.1C58.4,48.1,58.4,48.1,58.4,48.1C58.4,48.1,58.4,48.1,58.4,48.1z"/>
		<path class="st3" d="M58.6,48.1C58.5,48.1,58.5,48.1,58.6,48.1c-0.1,0-0.1,0-0.1,0c0,0-0.1,0-0.1,0c0,0,0,0,0,0
			c-0.2,0-0.4,0-0.5,0.1c1.1,0.3,1.9,1.3,1.9,2.5v2.4h1.4v-2.4C61.2,49.2,60,48.1,58.6,48.1z"/>
	</g>
	<g>
		<path class="st3" d="M40.7,52c1.8-0.5,3.2-2.2,3.2-4.2v-4h-6.3v4C37.6,49.8,38.9,51.5,40.7,52z"/>
	</g>
	<circle class="st3" cx="54.3" cy="6.3" r="0.9"/>
	<rect x="8.8" y="74.3" class="st4" width="2.8" height="1.9"/>
	<rect x="11.7" y="62.6" class="st4" width="2.8" height="1.9"/>
	<rect x="11.7" y="29.9" class="st4" width="2.8" height="1.9"/>
	<rect x="9.4" y="44.5" class="st4" width="2.8" height="1.9"/>
	<rect x="10.6" y="42.6" class="st4" width="2.8" height="1.9"/>
	<rect x="46.9" y="29.5" class="st4" width="2.8" height="1.9"/>
	<rect x="48.1" y="27.6" class="st4" width="2.8" height="1.9"/>
	<g>
		<rect x="44.1" y="71.9" class="st7" width="0.7" height="1.6"/>
		<rect x="31.9" y="69.5" class="st7" width="0.6" height="1.6"/>
		<path class="st7" d="M44.1,75.3L44.1,75.3c0.3,0,0.4,0.2,0.3,0.3l-0.5,0.8c-0.1,0.2-0.3,0.2-0.4,0l-0.5-0.8
			c-0.1-0.2,0-0.3,0.2-0.3h0.1v-1.1h-2v1.2h0.1c0.2,0,0.3,0.2,0.2,0.3l-0.5,0.8c-0.1,0.2-0.3,0.2-0.4,0l-0.5-0.8
			c-0.1-0.2,0-0.3,0.2-0.3h0.1v-1.2h-2v1.3h0.1c0.2,0,0.3,0.2,0.2,0.3l-0.5,0.8c-0.1,0.2-0.3,0.2-0.4,0l-0.5-0.8
			c-0.1-0.2,0-0.3,0.2-0.3h0.1v-1.3h-2v1.2H36c0.2,0,0.3,0.2,0.2,0.3l-0.5,0.8c-0.1,0.2-0.3,0.2-0.4,0l-0.5-0.8
			c-0.1-0.2,0-0.3,0.2-0.3h0.1v-1.2h-2v1.1h0.1c0.2,0,0.3,0.2,0.2,0.3L33,76.4c-0.1,0.2-0.3,0.2-0.4,0l-0.5-0.8
			c-0.1-0.2,0-0.3,0.2-0.3h0.1v-1.1h-0.6v4.2c2.1,0.2,4.6,0.3,7.2,0.3c2,0,4-0.1,5.8-0.2v-4.3h-0.7V75.3z"/>
		<rect x="31.9" y="71.9" class="st7" width="0.6" height="1.6"/>
		<path class="st7" d="M44.1,64.1h0.7v-0.6c0-0.4,0-0.7-0.1-1.1h-0.6V64.1z"/>
		<rect x="31.9" y="67.1" class="st7" width="0.6" height="1.6"/>
		<path class="st7" d="M44.1,61.7h0.5c-0.1-0.6-0.3-1.1-0.5-1.6h0V61.7z"/>
		<rect x="44.1" y="69.5" class="st7" width="0.7" height="1.6"/>
		<rect x="44.1" y="67.1" class="st7" width="0.7" height="1.6"/>
		<path class="st7" d="M41.4,59.4h2v-0.7c-0.2-0.3-0.5-0.7-0.7-1h-1.3V59.4z"/>
		<rect x="44.1" y="64.8" class="st7" width="0.7" height="1.6"/>
		<rect x="33.2" y="71.9" class="st7" width="2" height="1.6"/>
		<rect x="31.9" y="64.8" class="st7" width="0.6" height="1.6"/>
		<path class="st7" d="M42,57c-0.2-0.2-0.4-0.4-0.6-0.5V57H42z"/>
		<path class="st7" d="M35.2,57v-0.5c-0.2,0.2-0.4,0.3-0.6,0.5H35.2z"/>
		<path class="st7" d="M38.6,57h2v-1c-0.4-0.2-0.8-0.4-1.2-0.6h-0.9V57z"/>
		<path class="st7" d="M32.5,62.4h-0.6c0,0.3-0.1,0.7-0.1,1.1v0.6h0.6V62.4z"/>
		<path class="st7" d="M32.5,60.2c-0.2,0.5-0.3,1-0.5,1.5h0.5V60.2z"/>
		<path class="st7" d="M33.2,59.4h2v-1.6H34c-0.3,0.3-0.6,0.7-0.8,1.1V59.4z"/>
		<path class="st7" d="M35.9,57h2v-1.6h-0.8c-0.4,0.2-0.8,0.4-1.2,0.7V57z"/>
		<rect x="38.6" y="60.1" class="st7" width="2" height="1.6"/>
		<rect x="38.6" y="62.4" class="st7" width="2" height="1.6"/>
		<rect x="38.6" y="69.5" class="st7" width="2" height="1.6"/>
		<rect x="38.6" y="64.8" class="st7" width="2" height="1.6"/>
		<rect x="33.2" y="69.5" class="st7" width="2" height="1.6"/>
		<rect x="41.4" y="71.9" class="st7" width="2" height="1.6"/>
		<rect x="38.6" y="57.7" class="st7" width="2" height="1.6"/>
		<rect x="41.4" y="60.1" class="st7" width="2" height="1.6"/>
		<rect x="41.4" y="62.4" class="st7" width="2" height="1.6"/>
		<rect x="41.4" y="69.5" class="st7" width="2" height="1.6"/>
		<rect x="41.4" y="67.1" class="st7" width="2" height="1.6"/>
		<rect x="41.4" y="64.8" class="st7" width="2" height="1.6"/>
		<rect x="38.6" y="67.1" class="st7" width="2" height="1.6"/>
		<rect x="33.2" y="60.1" class="st7" width="2" height="1.6"/>
		<rect x="33.2" y="62.4" class="st7" width="2" height="1.6"/>
		<rect x="35.9" y="71.9" class="st7" width="2" height="1.6"/>
		<rect x="38.6" y="71.9" class="st7" width="2" height="1.6"/>
		<rect x="35.9" y="69.5" class="st7" width="2" height="1.6"/>
		<rect x="33.2" y="67.1" class="st7" width="2" height="1.6"/>
		<rect x="33.2" y="64.8" class="st7" width="2" height="1.6"/>
		<rect x="35.9" y="67.1" class="st7" width="2" height="1.6"/>
		<rect x="35.9" y="60.1" class="st7" width="2" height="1.6"/>
		<rect x="35.9" y="57.7" class="st7" width="2" height="1.6"/>
		<rect x="35.9" y="62.4" class="st7" width="2" height="1.6"/>
		<rect x="35.9" y="64.8" class="st7" width="2" height="1.6"/>
		<g>
			<rect x="35.9" y="64.8" class="st8" width="2" height="1.6"/>
			<rect x="35.9" y="57.7" class="st8" width="2" height="1.6"/>
			<rect x="35.9" y="67.1" class="st8" width="2" height="1.6"/>
			<rect x="35.9" y="69.5" class="st8" width="2" height="1.6"/>
			<rect x="35.9" y="62.4" class="st8" width="2" height="1.6"/>
			<rect x="35.9" y="60.1" class="st8" width="2" height="1.6"/>
			<rect x="35.9" y="71.9" class="st8" width="2" height="1.6"/>
			<rect x="33.2" y="67.1" class="st8" width="2" height="1.6"/>
			<rect x="33.2" y="69.5" class="st8" width="2" height="1.6"/>
			<rect x="33.2" y="71.9" class="st8" width="2" height="1.6"/>
			<rect x="33.2" y="64.8" class="st8" width="2" height="1.6"/>
			<rect x="38.6" y="71.9" class="st8" width="2" height="1.6"/>
			<rect x="33.2" y="60.1" class="st8" width="2" height="1.6"/>
			<rect x="33.2" y="62.4" class="st8" width="2" height="1.6"/>
			<rect x="38.6" y="69.5" class="st8" width="2" height="1.6"/>
			<rect x="41.4" y="69.5" class="st8" width="2" height="1.6"/>
			<rect x="41.4" y="62.4" class="st8" width="2" height="1.6"/>
			<rect x="41.4" y="67.1" class="st8" width="2" height="1.6"/>
			<rect x="41.4" y="60.1" class="st8" width="2" height="1.6"/>
			<rect x="41.4" y="64.8" class="st8" width="2" height="1.6"/>
			<rect x="38.6" y="64.8" class="st8" width="2" height="1.6"/>
			<rect x="38.6" y="67.1" class="st8" width="2" height="1.6"/>
			<rect x="38.6" y="62.4" class="st8" width="2" height="1.6"/>
			<rect x="41.4" y="71.9" class="st8" width="2" height="1.6"/>
			<rect x="38.6" y="57.7" class="st8" width="2" height="1.6"/>
			<rect x="38.6" y="60.1" class="st8" width="2" height="1.6"/>
			<path d="M44.8,64.8v-0.7h-0.7v-1.6h0.6c0-0.2-0.1-0.5-0.1-0.7h-0.5v-1.6h0c-0.2-0.5-0.4-0.9-0.7-1.4v0.7h-2v-1.6h1.3
				c-0.2-0.2-0.4-0.5-0.7-0.7h-0.6v-0.5c-0.2-0.2-0.5-0.3-0.7-0.5v1h-2v-1.6h0.9c-0.4-0.2-0.8-0.3-1.2-0.4v0
				c-0.4,0.1-0.8,0.3-1.2,0.4h0.8V57h-2v-1c-0.2,0.2-0.5,0.3-0.7,0.5V57h-0.6c-0.2,0.2-0.5,0.5-0.7,0.7h1.2v1.6h-2v-0.6
				c-0.3,0.4-0.5,0.9-0.7,1.4v1.5H32c0,0.2-0.1,0.5-0.1,0.7h0.6v1.6h-0.6v0.7h0.6v1.6h-0.6v0.7h0.6v1.6h-0.6v0.7h0.6v1.6h-0.6v0.7
				h0.6v1.6h-0.6v0.7h0.6v1.1h-0.1c-0.2,0-0.3,0.2-0.2,0.3l0.5,0.8c0.1,0.2,0.3,0.2,0.4,0l0.5-0.8c0.1-0.2,0-0.3-0.2-0.3h-0.1v-1.1
				h2v1.2h-0.1c-0.2,0-0.3,0.2-0.2,0.3l0.5,0.8c0.1,0.2,0.3,0.2,0.4,0l0.5-0.8c0.1-0.2,0-0.3-0.2-0.3h-0.1v-1.2h2v1.3h-0.1
				c-0.2,0-0.3,0.2-0.2,0.3l0.5,0.8c0.1,0.2,0.3,0.2,0.4,0l0.5-0.8c0.1-0.2,0-0.3-0.2-0.3h-0.1v-1.3h2v1.2h-0.1
				c-0.2,0-0.3,0.2-0.2,0.3l0.5,0.8c0.1,0.2,0.3,0.2,0.4,0l0.5-0.8c0.1-0.2,0-0.3-0.2-0.3h-0.1v-1.2h2v1.1h-0.1
				c-0.2,0-0.3,0.2-0.2,0.3l0.5,0.8c0.1,0.2,0.3,0.2,0.4,0l0.5-0.8c0.1-0.2,0-0.3-0.2-0.3h-0.1v-1.1h0.7v-0.7h-0.7v-1.6h0.7v-0.7
				h-0.7v-1.6h0.7v-0.7h-0.7v-1.6h0.7v-0.7h-0.7v-1.6H44.8z M35.2,73.5h-2v-1.6h2V73.5z M35.2,71.1h-2v-1.6h2V71.1z M35.2,68.8h-2
				v-1.6h2V68.8z M35.2,66.4h-2v-1.6h2V66.4z M35.2,64.1h-2v-1.6h2V64.1z M35.2,61.7h-2v-1.6h2V61.7z M37.9,73.5h-2v-1.6h2V73.5z
				 M37.9,71.1h-2v-1.6h2V71.1z M37.9,68.8h-2v-1.6h2V68.8z M37.9,66.4h-2v-1.6h2V66.4z M37.9,64.1h-2v-1.6h2V64.1z M37.9,61.7h-2
				v-1.6h2V61.7z M37.9,59.4h-2v-1.6h2V59.4z M40.7,73.5h-2v-1.6h2V73.5z M40.7,71.1h-2v-1.6h2V71.1z M40.7,68.8h-2v-1.6h2V68.8z
				 M40.7,66.4h-2v-1.6h2V66.4z M40.7,64.1h-2v-1.6h2V64.1z M40.7,61.7h-2v-1.6h2V61.7z M40.7,59.4h-2v-1.6h2V59.4z M43.4,73.5h-2
				v-1.6h2V73.5z M43.4,71.1h-2v-1.6h2V71.1z M43.4,68.8h-2v-1.6h2V68.8z M43.4,66.4h-2v-1.6h2V66.4z M43.4,64.1h-2v-1.6h2V64.1z
				 M43.4,61.7h-2v-1.6h2V61.7z"/>
		</g>
	</g>
	<g>
		<g>
			<path class="st3" d="M19.3,35c-0.2,0-0.4,0-0.6,0.1c1.3,0.3,2.3,1.4,2.3,2.8v5.6h1.2v-5.6C22.2,36.3,20.9,35,19.3,35z"/>
			<path class="st7" d="M18.7,35.1c-1.3,0.3-2.3,1.4-2.3,2.8v5.6H21v-5.6C21,36.5,20,35.4,18.7,35.1z"/>
		</g>
		<path class="st9" d="M18.7,35.1c-1.3,0.3-2.3,1.4-2.3,2.8v1.4H21v-1.4C21,36.5,20,35.4,18.7,35.1z"/>
		<g>
			<g>
				<path class="st10" d="M22.4,44.1h-6.1v-6.2c0-1.7,1.4-3.1,3.1-3.1c1.7,0,3.1,1.4,3.1,3.1V44.1z M16.6,43.3H22v-5.4
					c0-1.5-1.2-2.7-2.7-2.7c-1.5,0-2.7,1.2-2.7,2.7V43.3z"/>
			</g>
		</g>
		<g>
			<path class="st7" d="M20,37.2c-0.1,0.1-0.1,0.1-0.1,0.2c0,0.1,0,0.1,0.1,0.2l1,1v-0.7l-0.6-0.6C20.3,37.1,20.1,37.1,20,37.2z"/>
			<path class="st7" d="M20.2,38.1c0,0-0.1,0.1-0.1,0.1c0,0,0,0.1,0.1,0.1l0.8,0.8v-0.5l-0.6-0.6C20.4,38.1,20.3,38.1,20.2,38.1z"/>
		</g>
	</g>
	<g>
		<g>
			<path class="st3" d="M58.1,35c-0.2,0-0.4,0-0.6,0.1c1.3,0.3,2.3,1.4,2.3,2.8v5.6H61v-5.6C61,36.3,59.7,35,58.1,35z"/>
			<path class="st7" d="M57.5,35.1c-1.3,0.3-2.3,1.4-2.3,2.8v5.6h4.6v-5.6C59.8,36.5,58.8,35.4,57.5,35.1z"/>
		</g>
		<path class="st9" d="M57.5,35.1c-1.3,0.3-2.3,1.4-2.3,2.8v1.4h4.6v-1.4C59.8,36.5,58.8,35.4,57.5,35.1z"/>
		<g>
			<g>
				<path class="st10" d="M61.2,44.1h-6.1v-6.2c0-1.7,1.4-3.1,3.1-3.1c1.7,0,3.1,1.4,3.1,3.1V44.1z M55.4,43.3h5.4v-5.4
					c0-1.5-1.2-2.7-2.7-2.7c-1.5,0-2.7,1.2-2.7,2.7V43.3z"/>
			</g>
		</g>
		<g>
			<path class="st7" d="M58.8,37.2c-0.1,0.1-0.1,0.1-0.1,0.2c0,0.1,0,0.1,0.1,0.2l1,1v-0.7l-0.6-0.6C59.1,37.1,58.9,37.1,58.8,37.2z
				"/>
			<path class="st7" d="M59,38.1c0,0-0.1,0.1-0.1,0.1c0,0,0,0.1,0.1,0.1l0.8,0.8v-0.5l-0.6-0.6C59.2,38.1,59.1,38.1,59,38.1z"/>
		</g>
	</g>
</g>
</svg>
