<?xml version="1.0" encoding="utf-8"?>
<!-- Generator: Adobe Illustrator 21.0.0, SVG Export Plug-In . SVG Version: 6.00 Build 0)  -->
<svg version="1.1" id="Layer_1" xmlns="http://www.w3.org/2000/svg" xmlns:xlink="http://www.w3.org/1999/xlink" x="0px" y="0px"
	 viewBox="0 0 100 100" style="enable-background:new 0 0 100 100;" xml:space="preserve">
<style type="text/css">
	.st0{fill:#9AA6BB;}
	.st1{fill:#6D4D46;}
	.st2{fill:#3699CF;}
	.st3{fill:#4460AA;}
	.st4{fill:#BCC6E0;}
	.st5{fill:#976153;}
	.st6{fill:#6B4C47;}
	.st7{fill:#DF7561;stroke:#DF7561;stroke-width:1.2549;stroke-linejoin:round;}
	.st8{fill:none;stroke:#F4A17D;stroke-width:0.9845;stroke-linecap:round;}
	.st9{fill:#1F374F;}
	.st10{fill:none;stroke:#DADADA;stroke-width:3.9879;stroke-linecap:round;}
	.st11{fill:none;stroke:#DADADA;stroke-width:2.3927;stroke-linecap:round;}
	.st12{fill:none;stroke:#1F374F;stroke-width:0.8269;stroke-linecap:round;}
	.st13{fill:#E8AC5C;}
	.st14{fill:#C18849;}
	.st15{opacity:0.5;fill:#6D4D46;}
</style>
<g>
	<rect x="49.8" y="61.1" class="st0" width="13.6" height="15.2"/>
	<rect x="49.8" y="63.1" class="st1" width="11.9" height="13.2"/>
	<rect x="49.8" y="63.7" class="st2" width="11.3" height="12.6"/>
	<rect x="60.6" y="63.7" class="st3" width="0.6" height="12.6"/>
	<g>
		<g>
			<g>
				<polygon class="st3" points="57.2,64.5 57.2,65.9 56.2,65.9 55.8,66.3 57.6,66.3 57.6,64.1 				"/>
			</g>
			<g>
				<polygon class="st3" points="59.5,64.5 59.5,65.9 58.5,65.9 58.1,66.3 59.9,66.3 59.9,64.1 				"/>
			</g>
			<g>
				<polygon class="st3" points="57.2,67.4 57.2,68.8 56.2,68.8 55.8,69.3 57.6,69.3 57.6,67 				"/>
			</g>
			<g>
				<polygon class="st3" points="59.5,67.4 59.5,68.8 58.5,68.8 58.1,69.3 59.9,69.3 59.9,67 				"/>
			</g>
			<g>
				<polygon class="st3" points="57.2,70.3 57.2,71.8 56.2,71.8 55.8,72.2 57.6,72.2 57.6,69.9 				"/>
			</g>
			<g>
				<polygon class="st3" points="59.5,70.3 59.5,71.8 58.5,71.8 58.1,72.2 59.9,72.2 59.9,69.9 				"/>
			</g>
			<g>
				<polygon class="st3" points="57.2,73.2 57.2,74.7 56.2,74.7 55.8,75.1 57.6,75.1 57.6,72.8 				"/>
			</g>
			<g>
				<polygon class="st3" points="59.5,73.2 59.5,74.7 58.5,74.7 58.1,75.1 59.9,75.1 59.9,72.8 				"/>
			</g>
		</g>
		<g>
			<g>
				<polygon class="st3" points="52.4,64.5 52.4,65.9 51.5,65.9 51.1,66.3 52.8,66.3 52.8,64.1 				"/>
			</g>
			<g>
				<polygon class="st3" points="54.8,64.5 54.8,65.9 53.8,65.9 53.4,66.3 55.2,66.3 55.2,64.1 				"/>
			</g>
			<g>
				<polygon class="st3" points="52.4,67.4 52.4,68.8 51.5,68.8 51.1,69.3 52.8,69.3 52.8,67 				"/>
			</g>
			<g>
				<polygon class="st3" points="54.8,67.4 54.8,68.8 53.8,68.8 53.4,69.3 55.2,69.3 55.2,67 				"/>
			</g>
			<g>
				<polygon class="st3" points="52.4,70.3 52.4,71.8 51.5,71.8 51.1,72.2 52.8,72.2 52.8,69.9 				"/>
			</g>
			<g>
				<polygon class="st3" points="54.8,70.3 54.8,71.8 53.8,71.8 53.4,72.2 55.2,72.2 55.2,69.9 				"/>
			</g>
			<g>
				<polygon class="st3" points="52.4,73.2 52.4,74.7 51.5,74.7 51.1,75.1 52.8,75.1 52.8,72.8 				"/>
			</g>
			<g>
				<polygon class="st3" points="54.8,73.2 54.8,74.7 53.8,74.7 53.4,75.1 55.2,75.1 55.2,72.8 				"/>
			</g>
		</g>
		<g>
			<g>
				<polygon class="st3" points="50.1,64.5 50.1,65.9 49.1,65.9 48.7,66.3 50.5,66.3 50.5,64.1 				"/>
			</g>
			<g>
				<polygon class="st3" points="50.1,67.4 50.1,68.8 49.1,68.8 48.7,69.3 50.5,69.3 50.5,67 				"/>
			</g>
			<g>
				<polygon class="st3" points="50.1,70.3 50.1,71.8 49.1,71.8 48.7,72.2 50.5,72.2 50.5,69.9 				"/>
			</g>
			<g>
				<polygon class="st3" points="50.1,73.2 50.1,74.7 49.1,74.7 48.7,75.1 50.5,75.1 50.5,72.8 				"/>
			</g>
		</g>
	</g>
	<rect x="18" y="44.8" class="st4" width="31.9" height="31.4"/>
	<g>
		<polygon class="st5" points="49.8,58.3 49.8,61.1 65.6,61.1 59.7,58.3 		"/>
		<polygon class="st6" points="49.8,58.7 62.1,58.7 56.2,55.9 49.8,55.9 		"/>
		<polygon class="st5" points="49.8,56.3 58.6,56.3 52.7,53.6 49.8,53.6 		"/>
		<polygon class="st6" points="49.8,51.2 49.8,53.9 55,53.9 49.8,51.2 		"/>
	</g>
	<g>
		<polygon class="st5" points="17.6,42.3 18,44.8 50.7,44.8 50.4,42.3 		"/>
		<polygon class="st6" points="17.3,39.7 17.6,42.3 50.4,42.3 50.1,39.7 		"/>
		<polygon class="st5" points="17,37.2 17.3,39.7 50.1,39.7 49.8,37.2 		"/>
		<polygon class="st6" points="16.7,34.7 17,37.2 49.8,37.2 49.5,34.7 		"/>
		<polygon class="st5" points="16.4,32.2 16.7,34.7 49.5,34.7 49.1,32.2 		"/>
		<polygon class="st6" points="16,29.6 16.4,32.2 49.1,32.2 48.8,29.6 		"/>
		<polygon class="st5" points="15.7,27.1 16,29.6 48.8,29.6 48.5,27.1 		"/>
		<polygon class="st6" points="15.4,24.6 15.7,27.1 48.5,27.1 48.2,24.6 		"/>
	</g>
	<polygon class="st0" points="14.1,76.2 14.1,44.8 15.4,24.6 18,44.8 18,76.2 	"/>
	<polygon class="st7" points="42.1,28.1 42.9,30.5 46.3,30.5 46.3,20 42.1,20 	"/>
	<g>
		<polygon class="st5" points="48,20.7 40.4,20.7 41.6,18.3 47.1,18.3 		"/>
	</g>
	<line class="st8" x1="45.7" y1="30.4" x2="45.7" y2="25.8"/>
	<line class="st8" x1="45.7" y1="23.4" x2="45.7" y2="21.5"/>
	<polygon class="st9" points="12.8,44.8 15.4,24.6 14.1,44.8 	"/>
	<line class="st10" x1="43.7" y1="15.5" x2="35.7" y2="15.5"/>
	<line class="st11" x1="46.5" y1="12.7" x2="42.7" y2="12.7"/>
	<line class="st11" x1="37" y1="9.8" x2="38.5" y2="9.8"/>
	<line class="st12" x1="37.7" y1="76.2" x2="37.7" y2="63.7"/>
	<line class="st12" x1="47.3" y1="76.2" x2="47.3" y2="63.7"/>
	<polygon class="st5" points="36.4,64.5 48.7,64.5 46.7,61.9 37.3,61.9 	"/>
	<polygon class="st6" points="36.4,63.6 48.7,63.6 46.7,60.9 37.3,60.9 	"/>
	<g>
		<path class="st9" d="M33.9,46.8c-0.2,0-0.4,0-0.6,0.1c1.3,0.3,2.3,1.4,2.3,2.8v5.6h1.2v-5.6C36.8,48.1,35.5,46.8,33.9,46.8z"/>
		<path class="st13" d="M33.3,46.9C32,47.2,31,48.3,31,49.7v5.6h4.6v-5.6C35.6,48.3,34.6,47.2,33.3,46.9z"/>
	</g>
	<path class="st14" d="M33.3,46.9C32,47.2,31,48.3,31,49.7v1.4h4.6v-1.4C35.6,48.3,34.6,47.2,33.3,46.9z"/>
	<g>
		<g>
			<path class="st9" d="M24,46.8c-0.2,0-0.4,0-0.6,0.1c1.3,0.3,2.3,1.4,2.3,2.8v5.6h1.2v-5.6C26.9,48.1,25.6,46.8,24,46.8z"/>
			<path class="st13" d="M23.5,46.9c-1.3,0.3-2.3,1.4-2.3,2.8v5.6h4.6v-5.6C25.8,48.3,24.8,47.2,23.5,46.9z"/>
		</g>
		<path class="st14" d="M23.5,46.9c-1.3,0.3-2.3,1.4-2.3,2.8v1.4h4.6v-1.4C25.8,48.3,24.8,47.2,23.5,46.9z"/>
		<g>
			<g>
				<path class="st1" d="M27.1,55.9H21v-6.2c0-1.7,1.4-3.1,3.1-3.1s3.1,1.4,3.1,3.1V55.9z M21.3,55.1h5.4v-5.4
					c0-1.5-1.2-2.7-2.7-2.7c-1.5,0-2.7,1.2-2.7,2.7V55.1z"/>
			</g>
		</g>
		<g>
			<path class="st13" d="M24.7,49c-0.1,0.1-0.1,0.1-0.1,0.2c0,0.1,0,0.1,0.1,0.2l1,1v-0.7L25.1,49C25,48.9,24.8,48.9,24.7,49z"/>
			<path class="st13" d="M24.9,50c0,0-0.1,0.1-0.1,0.1s0,0.1,0.1,0.1l0.8,0.8v-0.5L25.2,50C25.1,49.9,25,49.9,24.9,50z"/>
		</g>
	</g>
	<g>
		<g>
			<path class="st9" d="M43.8,46.8c-0.2,0-0.4,0-0.6,0.1c1.3,0.3,2.3,1.4,2.3,2.8v5.6h1.2v-5.6C46.7,48.1,45.4,46.8,43.8,46.8z"/>
			<path class="st13" d="M43.2,46.9c-1.3,0.3-2.3,1.4-2.3,2.8v5.6h4.6v-5.6C45.5,48.3,44.5,47.2,43.2,46.9z"/>
		</g>
		<path class="st14" d="M43.2,46.9c-1.3,0.3-2.3,1.4-2.3,2.8v1.4h4.6v-1.4C45.5,48.3,44.5,47.2,43.2,46.9z"/>
		<g>
			<g>
				<path class="st1" d="M46.8,55.9h-6.1v-6.2c0-1.7,1.4-3.1,3.1-3.1s3.1,1.4,3.1,3.1V55.9z M41.1,55.1h5.4v-5.4
					c0-1.5-1.2-2.7-2.7-2.7s-2.7,1.2-2.7,2.7V55.1z"/>
			</g>
		</g>
		<g>
			<path class="st13" d="M44.5,49c-0.1,0.1-0.1,0.1-0.1,0.2c0,0.1,0,0.1,0.1,0.2l1,1v-0.7L44.9,49C44.8,48.9,44.6,48.9,44.5,49z"/>
			<path class="st13" d="M44.7,50c0,0-0.1,0.1-0.1,0.1s0,0.1,0.1,0.1l0.8,0.8v-0.5L44.9,50C44.9,49.9,44.7,49.9,44.7,50z"/>
		</g>
	</g>
	<g>
		<g>
			<path class="st3" d="M42.5,65.4c-0.2,0-0.5,0-0.7,0.1c1.6,0.3,2.7,1.7,2.7,3.4v6.7h1.4v-6.7C45.9,66.9,44.4,65.4,42.5,65.4z"/>
			<path class="st2" d="M41.8,65.4c-1.6,0.3-2.7,1.7-2.7,3.4v6.7h5.5v-6.7C44.6,67.1,43.4,65.7,41.8,65.4z"/>
		</g>
		<g>
			<g>
				<path class="st1" d="M46.2,76.2h-7.3v-7.4c0-2,1.6-3.7,3.7-3.7c2,0,3.7,1.6,3.7,3.7V76.2z M39.3,75.2h6.4v-6.5
					c0-1.8-1.4-3.2-3.2-3.2s-3.2,1.4-3.2,3.2V75.2z"/>
			</g>
		</g>
		<g>
			<g>
				<polygon class="st3" points="40.4,67.5 40.4,68.5 39.7,68.5 39.4,68.8 40.7,68.8 40.7,67.2 				"/>
			</g>
			<g>
				<polygon class="st3" points="42,67.5 42,68.5 41.4,68.5 41.1,68.8 42.3,68.8 42.3,67.2 				"/>
			</g>
			<g>
				<polygon class="st3" points="40.4,69.5 40.4,70.5 39.7,70.5 39.4,70.8 40.7,70.8 40.7,69.2 				"/>
			</g>
			<g>
				<polygon class="st3" points="42,69.5 42,70.5 41.4,70.5 41.1,70.8 42.3,70.8 42.3,69.2 				"/>
			</g>
			<g>
				<polygon class="st3" points="40.4,71.5 40.4,72.6 39.7,72.6 39.4,72.8 40.7,72.8 40.7,71.3 				"/>
			</g>
			<g>
				<polygon class="st3" points="42,71.5 42,72.6 41.4,72.6 41.1,72.8 42.3,72.8 42.3,71.3 				"/>
			</g>
			<g>
				<polygon class="st3" points="40.4,73.6 40.4,74.6 39.7,74.6 39.4,74.9 40.7,74.9 40.7,73.3 				"/>
			</g>
			<g>
				<polygon class="st3" points="42,73.6 42,74.6 41.4,74.6 41.1,74.9 42.3,74.9 42.3,73.3 				"/>
			</g>
			<g>
				<polygon class="st3" points="43.7,67.5 43.7,68.5 43,68.5 42.7,68.8 43.9,68.8 43.9,67.2 				"/>
			</g>
			<g>
				<polygon class="st3" points="43.7,69.5 43.7,70.5 43,70.5 42.7,70.8 43.9,70.8 43.9,69.2 				"/>
			</g>
			<g>
				<polygon class="st3" points="43.7,71.5 43.7,72.6 43,72.6 42.7,72.8 43.9,72.8 43.9,71.3 				"/>
			</g>
			<g>
				<polygon class="st3" points="43.7,73.6 43.7,74.6 43,74.6 42.7,74.9 43.9,74.9 43.9,73.3 				"/>
			</g>
		</g>
		<circle class="st13" cx="44" cy="71" r="0.6"/>
	</g>
	<g>
		<path class="st13" d="M32.1,50.8c0.1-0.1,0.1-0.1,0.1-0.2c0-0.1,0-0.1-0.1-0.2l-1-1v0.7l0.6,0.6C31.9,50.9,32,50.9,32.1,50.8z"/>
		<path class="st13" d="M32,49.8c0,0,0.1-0.1,0.1-0.1s0-0.1-0.1-0.1l-0.8-0.8v0.5l0.6,0.6C31.8,49.9,31.9,49.9,32,49.8z"/>
	</g>
	<g>
		<g>
			<path class="st1" d="M37,55.9h-6.1v-6.2c0-1.7,1.4-3.1,3.1-3.1c1.7,0,3.1,1.4,3.1,3.1V55.9z M31.2,55.1h5.4v-5.4
				c0-1.5-1.2-2.7-2.7-2.7c-1.5,0-2.7,1.2-2.7,2.7V55.1z"/>
		</g>
	</g>
	<g>
		<path class="st9" d="M24,63.5c-0.2,0-0.4,0-0.6,0.1c1.3,0.3,2.3,1.4,2.3,2.8v5.6h1.2v-5.6C26.9,64.8,25.6,63.5,24,63.5z"/>
		<path class="st13" d="M23.5,63.5c-1.3,0.3-2.3,1.4-2.3,2.8v5.6h4.6h4.2h4.6v-5.6c0-1.4-1-2.6-2.3-2.8"/>
		<path class="st14" d="M23.5,63.5c-1.3,0.3-2.3,1.4-2.3,2.8v1.4h13.4v-1.4c0-1.4-1-2.6-2.3-2.8"/>
		<path class="st9" d="M32.2,63.5c0.2,0,0.4-0.1,0.6-0.1c1.6,0,2.9,1.3,2.9,2.9v5.6h-1.2v-5.6C34.5,65,33.6,63.8,32.2,63.5h-8.8"/>
		<g>
			<path class="st13" d="M33.5,65.6c-0.1,0.1-0.1,0.1-0.1,0.2c0,0.1,0,0.1,0.1,0.2l1,1v-0.7l-0.6-0.6C33.8,65.5,33.6,65.5,33.5,65.6
				z"/>
			<path class="st13" d="M33.7,66.6c0,0-0.1,0.1-0.1,0.1c0,0,0,0.1,0.1,0.1l0.8,0.8v-0.5L34,66.6C33.9,66.5,33.8,66.5,33.7,66.6z"/>
		</g>
		<g>
			<path class="st1" d="M21,72.6v-6.2c0-1.7,1.4-3.1,3.1-3.1h8.8c1.7,0,3.1,1.4,3.1,3.1v6.2H21z M30.1,71.8h5.4v-5.4
				c0-1.5-1.2-2.7-2.7-2.7H24c-1.5,0-2.7,1.2-2.7,2.7v5.4H30.1z"/>
		</g>
	</g>
	<path class="st15" d="M25.7,63.5h-2.3c-1.3,0.3-2.3,1.4-2.3,2.8v4C24.7,68.8,25.5,65.4,25.7,63.5z"/>
	<path class="st15" d="M32.2,63.5h-1.1c0.2,1.7,0.9,4.4,3.4,6.2v-3.4C34.5,65,33.6,63.8,32.2,63.5z"/>
</g>
</svg>
