<?xml version="1.0" encoding="utf-8"?>
<!-- Generator: Adobe Illustrator 21.0.0, SVG Export Plug-In . SVG Version: 6.00 Build 0)  -->
<svg version="1.1" id="Layer_1" xmlns="http://www.w3.org/2000/svg" xmlns:xlink="http://www.w3.org/1999/xlink" x="0px" y="0px"
	 viewBox="0 0 180 180" style="enable-background:new 0 0 180 180;" xml:space="preserve">
<style type="text/css">
	.st0{fill:#E5007E;}
	.st1{fill:#FFFFFF;}
	.st2{fill:#1D1D1B;}
	.st3{font-family:'VAGRundschriftD';}
	.st4{font-size:5.0657px;}
</style>
<path class="st0" d="M90.4,82.7c-0.1,0.4-0.2,0.7-0.2,0.9c1.6,1.8,0.9,5,0.5,6.2c0.2,0.1,0.3,0.1,0.4,0.2c0.2,0.1,0.3,0.3,0.2,0.5
	c0,0,0,0,0,0C91.4,90.3,93.2,85.2,90.4,82.7z"/>
<path class="st1" d="M97.6,88.1l-13.6,2c-0.2,0-0.4,0.2-0.3,0.5l1.4,9.2c0,0.2,0.2,0.4,0.5,0.3l13.6-2c0.2,0,0.4-0.2,0.3-0.5
	L98,88.5C98,88.3,97.8,88.1,97.6,88.1z M91.1,91.2c-0.4,0.1-0.8-0.2-0.9-0.6c-0.1-0.4,0.2-0.8,0.6-0.9c0.4-0.1,0.8,0.2,0.9,0.6
	C91.8,90.7,91.5,91.1,91.1,91.2z"/>
<text transform="matrix(0.9907 -0.136 0.136 0.9907 87.541 96.2536)" class="st2 st3 st4">CEO</text>
<path class="st0" d="M91.1,90c-0.1-0.1-0.3-0.1-0.4-0.2c-2-1-6.1-3.4-6.2-5.3c0-0.3,0.1-0.6,0.3-0.8c0-0.4,0-0.9,0.2-1.3
	c-0.9,0.6-1.4,1.3-1.3,2.2c0.2,2.9,6.4,5.9,7.1,6.2c0,0,0,0,0,0c0.1,0,0.1,0,0.2,0c0.1,0,0.2,0,0.2-0.1c0,0,0,0,0.1-0.1
	c0,0,0.1-0.1,0.1-0.1C91.4,90.3,91.3,90.1,91.1,90z"/>
</svg>
