<?xml version="1.0" encoding="utf-8"?>
<!-- Generator: Adobe Illustrator 21.0.0, SVG Export Plug-In . SVG Version: 6.00 Build 0)  -->
<svg version="1.1" id="Layer_1" xmlns="http://www.w3.org/2000/svg" xmlns:xlink="http://www.w3.org/1999/xlink" x="0px" y="0px"
	 viewBox="0 0 180 180" style="enable-background:new 0 0 180 180;" xml:space="preserve">
<style type="text/css">
	.st0{fill:#E2E1E1;}
	.st1{fill:#666665;}
	.st2{fill:#BCC6E0;}
	.st3{fill:#9AA6BB;}
	.st4{fill:#9B1915;}
	.st5{fill:#E30613;}
	.st6{fill:#333333;}
	.st7{fill:#A6A6A5;}
	.st8{fill:#FFCE00;}
	.st9{fill:#976153;}
	.st10{fill:#6B4C47;}
	.st11{fill:#575756;}
	.st12{fill:#F0F0F0;}
	.st13{fill:#1F374F;}
	.st14{fill:#E8AC5C;}
	.st15{fill:#C18849;}
	.st16{fill:none;stroke:#6D4D46;stroke-width:0.4217;stroke-miterlimit:10;}
	.st17{fill-rule:evenodd;clip-rule:evenodd;fill:#004996;}
	.st18{fill-rule:evenodd;clip-rule:evenodd;fill:#E40520;}
</style>
<g>
	<polygon class="st0" points="159,80.9 155.1,84.8 150.4,80.1 145.2,85.3 145.2,95.4 140,95.4 140,84.9 137.2,82.1 134.5,84.9 
		131.3,81.7 127.4,85.7 124.1,82.4 118.6,87.8 118.6,100 114.5,100 114.5,95 111.7,92.2 108.5,95.4 108.5,83 99,83 99,90 96.8,87.7 
		93.7,90.7 90.7,87.7 86.8,91.6 86.8,100.2 84.1,100.2 84.1,93.3 80.1,89.2 75.9,93.4 68.8,93.4 68.8,103.3 166.7,103.3 166.7,88.6 
			"/>
</g>
<rect x="141.8" y="81.2" class="st1" width="0.6" height="2.2"/>
<rect x="147.7" y="81.2" class="st1" width="0.5" height="2.7"/>
<g>
	<rect x="67.9" y="89" class="st2" width="0.8" height="14.9"/>
	<rect x="68.7" y="89" class="st3" width="0.8" height="14.9"/>
	<g>
		<path class="st4" d="M67.3,98.9h-1v4.5h2.1V100C68.3,99.4,67.9,98.9,67.3,98.9z"/>
	</g>
	<g>
		<path class="st5" d="M67.3,100c0-0.6-0.5-1-1-1c-0.6,0-1,0.5-1,1v3.4h2.1V100z"/>
	</g>
	<ellipse class="st6" cx="66.7" cy="98.3" rx="1" ry="0.6"/>
</g>
<g>
	<rect x="53.8" y="89" class="st2" width="0.8" height="14.9"/>
	<rect x="54.6" y="89" class="st3" width="0.8" height="14.9"/>
	<g>
		<path class="st4" d="M57.2,98.9h-1v4.5h2.1V100C58.2,99.4,57.8,98.9,57.2,98.9z"/>
	</g>
	<g>
		<path class="st5" d="M57.2,100c0-0.6-0.5-1-1-1c-0.6,0-1,0.5-1,1v3.4h2.1V100z"/>
	</g>
	<ellipse class="st6" cx="56.6" cy="98.3" rx="1" ry="0.6"/>
</g>
<rect x="39.7" y="89" class="st2" width="0.8" height="14.9"/>
<rect x="40.5" y="89" class="st3" width="0.8" height="14.9"/>
<rect x="70.7" y="93.3" class="st2" width="8.1" height="10.6"/>
<rect x="78.7" y="93.3" class="st3" width="8.1" height="10.6"/>
<rect x="90.1" y="86.7" class="st1" width="1.1" height="16.7"/>
<rect x="83" y="85.4" class="st7" width="15.3" height="1.5"/>
<path class="st8" d="M94,74.8c-1.6,0-2.7,2.6-3.3,5.2c-0.6-2.6-1.6-5.2-3.2-5.2c-3.4,0-4.2,11-4.2,11H85c0,0,0.4-10.2,2.5-10.2
	c2,0,2.4,10.2,2.4,10.2h1.7c0,0,0.4-10.2,2.5-10.2c2,0,2.4,10.2,2.4,10.2h1.7C98.1,85.8,97.4,74.8,94,74.8z"/>
<g>
	<polygon class="st6" points="67.4,91.9 69,93.3 86.8,93.3 86.8,91.9 	"/>
</g>
<rect x="107" y="90" class="st9" width="11.6" height="15.1"/>
<rect x="103.1" y="90" transform="matrix(-1 -1.224647e-16 1.224647e-16 -1 210.0992 195.0996)" class="st10" width="4" height="15.1"/>
<rect x="9.8" y="103.3" class="st11" width="156.9" height="2.2"/>
<g>
	<polygon class="st6" points="34.2,88.1 35.7,89.5 75.3,89.5 76.8,88.1 	"/>
</g>
<rect x="26.9" y="84.6" class="st6" width="5" height="19.3"/>
<rect x="26.9" y="84.6" class="st5" width="5" height="1"/>
<rect x="26.9" y="98.7" class="st5" width="5" height="1"/>
<rect x="26.9" y="85.6" class="st12" width="5" height="13.1"/>
<ellipse class="st6" cx="29.3" cy="82.7" rx="2.4" ry="1.6"/>
<g>
	<path class="st4" d="M43.1,98.9h-1v4.5h2.1V100C44.1,99.4,43.7,98.9,43.1,98.9z"/>
</g>
<g>
	<path class="st5" d="M43.1,100c0-0.6-0.5-1-1-1c-0.6,0-1,0.5-1,1v3.4h2.1V100z"/>
</g>
<ellipse class="st6" cx="42.5" cy="98.3" rx="1" ry="0.6"/>
<g>
	<polygon class="st6" points="98.9,88.3 100.9,90 118.7,90 118.7,88.3 	"/>
</g>
<rect x="26.9" y="95.5" class="st6" width="5" height="0.5"/>
<rect x="26.9" y="87.8" class="st6" width="5" height="0.5"/>
<rect x="26.9" y="91.5" class="st6" width="5" height="0.5"/>
<g>
	<polygon class="st2" points="129.8,82 129.8,103.3 141.5,103.3 141.5,84.2 	"/>
	<polygon class="st3" points="166.7,88.8 141.5,84.2 141.5,103.3 166.7,103.3 	"/>
</g>
<polygon class="st6" points="122.8,79 168.4,87.5 166.7,88.8 124.5,81 "/>
<line class="st6" x1="166.7" y1="90.9" x2="124.5" y2="83.1"/>
<g>
	<g>
		<path class="st2" d="M81.1,98.2c0,1,0.8,1.8,1.8,1.8c1,0,1.8-0.8,1.8-1.8v-0.6h-3.5V98.2z"/>
		<path class="st3" d="M82.8,94.2c-1,0-1.8,0.8-1.8,1.8v1.6h3.5V96C84.6,95,83.8,94.2,82.8,94.2z"/>
	</g>
	<path class="st13" d="M82.8,94.2c-0.2,0-0.3,0-0.5,0.1c0.7,0.2,1.3,0.9,1.3,1.7v2.2c0,0.8-0.5,1.5-1.3,1.7c0.2,0,0.3,0.1,0.5,0.1
		c1,0,1.8-0.8,1.8-1.8V96C84.6,95,83.8,94.2,82.8,94.2z"/>
</g>
<g>
	<g>
		<path class="st14" d="M111.8,98c0,1.2,1,2.2,2.2,2.2c1.2,0,2.2-1,2.2-2.2v-0.7h-4.4V98z"/>
		<rect x="111.8" y="93.6" class="st15" width="4.4" height="3.7"/>
		<path class="st16" d="M111.8,98c0,1.2,1,2.2,2.2,2.2c1.2,0,2.2-1,2.2-2.2v-4.4h-4.4V98z"/>
	</g>
	<path class="st10" d="M116.3,93.6V98c0,1.2-1,2.2-2.2,2.2c-0.2,0-0.4,0-0.6-0.1c0.9-0.3,1.6-1.1,1.6-2.1v-4.4H116.3z"/>
</g>
<g>
	<polygon class="st6" points="120.8,92.4 119.3,94 111.4,94 111.4,92.4 	"/>
</g>
<rect x="78" y="90.9" class="st5" width="5" height="1"/>
<ellipse class="st6" cx="80.5" cy="89" rx="2.4" ry="1.6"/>
<rect x="143.9" y="96.6" class="st14" width="4.3" height="3.3"/>
<rect x="143.9" y="99.9" class="st15" width="4.3" height="3.3"/>
<rect x="148.2" y="96.6" class="st15" width="4.3" height="3.3"/>
<rect x="148.2" y="99.9" class="st14" width="4.3" height="3.3"/>
<rect x="152.5" y="96.6" class="st15" width="4.3" height="3.3"/>
<rect x="152.5" y="99.9" class="st15" width="4.3" height="3.3"/>
<rect x="156.8" y="96.6" class="st14" width="4.3" height="3.3"/>
<rect x="156.8" y="99.9" class="st15" width="4.3" height="3.3"/>
<rect x="161.1" y="96.6" class="st15" width="4.3" height="3.3"/>
<rect x="161.1" y="99.9" class="st14" width="4.3" height="3.3"/>
<rect x="143.9" y="93.3" class="st15" width="4.3" height="3.3"/>
<rect x="148.2" y="93.3" class="st15" width="4.3" height="3.3"/>
<rect x="152.5" y="93.3" class="st15" width="4.3" height="3.3"/>
<rect x="156.8" y="93.3" class="st14" width="4.3" height="3.3"/>
<rect x="161.1" y="93.3" class="st15" width="4.3" height="3.3"/>
<g>
	<g>
		<rect x="131" y="96.6" class="st14" width="4.3" height="3.3"/>
		<rect x="131" y="99.9" class="st15" width="4.3" height="3.3"/>
		<rect x="135.3" y="96.6" class="st15" width="4.3" height="3.3"/>
		<rect x="139.6" y="96.6" class="st15" width="2" height="3.3"/>
		<rect x="139.6" y="99.9" class="st15" width="2" height="3.3"/>
		<rect x="131" y="90" class="st14" width="4.3" height="3.3"/>
		<rect x="131" y="93.3" class="st15" width="4.3" height="3.3"/>
		<rect x="135.3" y="90" class="st15" width="4.3" height="3.3"/>
		<rect x="139.6" y="90" class="st14" width="2" height="3.3"/>
		<rect x="139.6" y="93.3" class="st15" width="2" height="3.3"/>
		<rect x="131" y="86.6" class="st14" width="4.3" height="3.3"/>
		<rect x="135.3" y="86.6" class="st15" width="4.3" height="3.3"/>
		<rect x="139.6" y="86.6" class="st15" width="2" height="3.3"/>
	</g>
	<rect x="135.3" y="99.9" class="st14" width="4.3" height="3.3"/>
	<rect x="135.3" y="93.3" class="st14" width="4.3" height="3.3"/>
</g>
<g>
	<rect x="143.9" y="90" class="st14" width="4.3" height="3.3"/>
	<rect x="148.2" y="90" class="st15" width="4.3" height="3.3"/>
	<rect x="152.5" y="90" class="st14" width="4.3" height="3.3"/>
	<rect x="156.8" y="90" class="st14" width="4.3" height="3.3"/>
	<polygon class="st14" points="161.4,90 161.1,90 161.1,93.3 165.4,93.3 165.4,90.7 	"/>
	<polygon class="st14" points="148.2,87.5 143.9,86.7 143.9,90 148.2,90 	"/>
	<polygon class="st15" points="148.2,87.5 148.2,90 152.5,90 152.5,88.3 	"/>
	<polygon class="st15" points="152.5,88.3 152.5,90 156.8,90 156.8,89.1 	"/>
	<polygon class="st14" points="156.8,89.1 156.8,90 161.1,90 161.1,89.9 	"/>
	<polygon class="st14" points="161.1,90 161.4,90 161.1,89.9 	"/>
</g>
<g>
	<path class="st17" d="M138.8,80.7h1.8c0,0,0,0,0,0c-0.2,0.1-0.5,0.4-0.5,0.4c-0.2,0.2-0.4,0.3-0.7,0.3h-1.7c0,0,0,0,0,0
		c0.2-0.1,0.5-0.4,0.5-0.4C138.3,80.9,138.6,80.7,138.8,80.7L138.8,80.7z"/>
	<path class="st17" d="M150.7,80.7h1.8c0,0,0,0,0,0c-0.2,0.1-0.5,0.4-0.5,0.4c-0.2,0.2-0.4,0.3-0.7,0.3h-1.7c0,0,0,0,0,0
		c0.2-0.1,0.5-0.4,0.5-0.4C150.2,80.9,150.4,80.7,150.7,80.7L150.7,80.7z"/>
	<path class="st17" d="M141.8,80.7h1.8c0,0,0,0,0,0c-0.2,0.1-0.5,0.4-0.5,0.4c-0.2,0.2-0.4,0.3-0.7,0.3h-1.7c0,0,0,0,0,0
		c0.2-0.1,0.5-0.4,0.5-0.4C141.3,80.9,141.5,80.7,141.8,80.7L141.8,80.7z"/>
	<path class="st17" d="M144.8,80.7h1.8c0,0,0,0,0,0c-0.2,0.1-0.5,0.4-0.5,0.4c-0.2,0.2-0.4,0.3-0.7,0.3h-1.7c0,0,0,0,0,0
		c0.2-0.1,0.5-0.4,0.5-0.4C144.2,80.9,144.5,80.7,144.8,80.7L144.8,80.7z"/>
	<path class="st17" d="M147.7,80.7h1.8c0,0,0,0,0,0c-0.2,0.1-0.5,0.4-0.5,0.4c-0.2,0.2-0.4,0.3-0.7,0.3h-1.7c0,0,0,0,0,0
		c0.2-0.1,0.5-0.4,0.5-0.4C147.2,80.9,147.4,80.7,147.7,80.7L147.7,80.7z"/>
	<path class="st18" d="M148.2,77.2c-1.1,0-1.9,0.6-1.9,1.5c0,0.8,0.7,1.4,1.7,1.4c0.3,0,0.6,0,1-0.1v-0.7c-0.2,0.3-0.5,0.4-0.9,0.4
		c-0.6,0-1-0.4-1-1c0-0.6,0.4-1,1-1c0.3,0,0.6,0.1,0.8,0.3v-0.7C148.8,77.3,148.5,77.2,148.2,77.2L148.2,77.2z"/>
	<path class="st18" d="M139.7,77.7c0.4,0,0.9,0.1,1.1,0.3v-0.7h-3V78c0.2-0.2,0.7-0.3,1.2-0.3v1.8c0,0.3,0,0.3-0.1,0.5h1
		c-0.1-0.1-0.1-0.2-0.1-0.5V77.7L139.7,77.7z"/>
	<path class="st18" d="M142.8,78.4c-0.2,0.1-0.5,0.1-0.6,0.1h-0.3v-0.7h0.3c0.3,0,0.8,0.1,1,0.2v-0.6h-2.2c0.1,0.1,0.1,0.2,0.1,0.5
		v1.7c0,0.3,0,0.3-0.1,0.5h2.3v-0.7c-0.3,0.2-0.9,0.2-1.2,0.2h-0.3v-0.7h0.2c0.2,0,0.5,0,0.7,0.1V78.4L142.8,78.4z"/>
	<path class="st18" d="M146,77.4c-0.3-0.1-0.8-0.2-1.2-0.2c-0.6,0-1.2,0.2-1.2,0.9c0,1.2,1.9,0.5,1.9,1.3c0,0.2-0.3,0.3-0.6,0.3
		c-0.5,0-0.8-0.1-1.2-0.4v0.6c0.3,0.1,0.7,0.2,1.2,0.2c0.7,0,1.3-0.2,1.3-0.9c0-1.2-1.9-0.7-1.9-1.3c0-0.2,0.3-0.3,0.6-0.3
		c0.4,0,0.9,0.1,1.2,0.4V77.4L146,77.4z"/>
	<path class="st18" d="M150.9,77.3c-1,0-1.8,0.6-1.8,1.4c0,0.8,0.7,1.4,1.6,1.4c1,0,1.8-0.6,1.8-1.4
		C152.5,77.8,151.9,77.3,150.9,77.3L150.9,77.3z M150.8,79.7c-0.5,0-0.9-0.4-0.9-1c0-0.5,0.3-1,0.9-1c0.5,0,0.9,0.4,0.9,1
		C151.7,79.2,151.4,79.7,150.8,79.7L150.8,79.7z"/>
</g>
</svg>
