<?xml version="1.0" encoding="utf-8"?>
<!-- Generator: Adobe Illustrator 21.0.0, SVG Export Plug-In . SVG Version: 6.00 Build 0)  -->
<svg version="1.1" id="Layer_1" xmlns="http://www.w3.org/2000/svg" xmlns:xlink="http://www.w3.org/1999/xlink" x="0px" y="0px"
	 viewBox="0 0 180 180" style="enable-background:new 0 0 180 180;" xml:space="preserve">
<style type="text/css">
	.st0{fill:#976153;}
	.st1{fill:#333333;}
	.st2{fill:#FFFFFF;}
	.st3{fill:#E2E1E1;}
	.st4{fill:#F7DEC0;}
	.st5{fill:#E8AC5C;}
	.st6{fill:#C18849;}
	.st7{fill:#B56E46;}
	.st8{fill:#EDBC7D;}
	.st9{fill:#F2CE9F;}
	.st10{fill:#FBEFE0;}
	.st11{fill:#5E616D;}
	.st12{fill:#9AA6BB;}
	.st13{fill:#515B6F;}
	.st14{fill:#BCC6E0;}
	.st15{fill:#575B5C;}
	.st16{fill:#63A4B9;}
	.st17{fill:#9F9E95;}
	.st18{fill:#89B5C6;}
	.st19{fill:none;stroke:#D0D0D0;stroke-width:0.2677;stroke-linecap:round;stroke-miterlimit:10;}
	.st20{fill:none;stroke:#000000;stroke-width:0.5773;stroke-linecap:round;stroke-miterlimit:10;}
	.st21{fill:#DDE7EE;}
	.st22{fill:#B9D0DB;}
	.st23{fill:#1F90A8;}
	.st24{fill:#91BACA;}
	.st25{opacity:0.7;fill:#254E6C;}
	.st26{fill:#575756;}
</style>
<g>
	<rect x="125.1" y="69.5" class="st0" width="0.6" height="3.3"/>
	<rect x="133.2" y="69.5" class="st0" width="0.6" height="3.3"/>
	<rect x="123.5" y="65" class="st1" width="11.9" height="5.4"/>
	<g>
		<path class="st2" d="M124,69.9h11v-4.4h-11V69.9z"/>
	</g>
</g>
<polygon class="st3" points="65.9,102.9 64.2,92.4 62,86.1 59,91.9 56.7,84.9 53.7,91.4 51.5,83.9 48.4,90.9 46.2,82.8 43.2,90.4 
	41,81.4 37.9,89.9 37.9,102.4 9.8,102.4 9.8,104.6 164.9,104.6 164.9,83.5 162.4,81 157.9,81 157.9,77.7 155.5,75.2 151.6,75.2 
	151.6,84.9 105.8,84.9 105.8,75.4 103.9,73.5 100.4,73.5 100.4,80.8 96.5,80.8 96.5,70.6 94.7,68.8 90.8,68.8 90.8,94.6 76,94.6 
	76,78.2 73.2,78.2 73.2,96.8 68.8,96.8 68.8,81.8 64.3,81.8 64.3,99.9 62,99.9 "/>
<g>
	<path class="st4" d="M93.4,91L93.4,91C93.4,91,93.4,91,93.4,91L93.4,91z"/>
	<path class="st4" d="M118.3,91L118.3,91L118.3,91C118.3,91,118.3,91,118.3,91z"/>
	<path class="st4" d="M93.4,90.9L93.4,90.9L93.4,90.9C93.4,90.9,93.4,90.9,93.4,90.9z"/>
	<path class="st4" d="M118.3,91L118.3,91L118.3,91C118.3,90.9,118.3,90.9,118.3,91z"/>
	<path class="st4" d="M93.1,97.1c0,0.1,0.1,0.3,0.1,0.4l0.2-0.4H93.1z"/>
	<path class="st5" d="M93.2,97.5c0.2,0.9,0.5,1.8,0.9,2.7h1.1l-1.8-3.1L93.2,97.5z"/>
	<polygon class="st6" points="93.4,97.1 95.2,100.2 97,97.1 	"/>
	<polygon class="st7" points="97,97.1 95.2,100.2 98.7,100.2 	"/>
	<polygon class="st6" points="97,97.1 98.7,100.2 100.5,97.1 	"/>
	<polygon class="st6" points="98.7,100.2 102.3,100.2 100.5,97.1 	"/>
	<polygon class="st4" points="100.5,97.1 102.3,100.2 104.1,97.1 	"/>
	<polygon class="st4" points="102.3,100.2 105.9,100.2 104.1,97.1 	"/>
	<polygon class="st5" points="104.1,97.1 105.9,100.2 107.6,97.1 	"/>
	<polygon class="st4" points="105.9,100.2 109.4,100.2 107.6,97.1 	"/>
	<polygon class="st8" points="107.6,97.1 109.4,100.2 111.2,97.1 	"/>
	<polygon class="st4" points="109.4,100.2 113,100.2 111.2,97.1 	"/>
	<polygon class="st9" points="113,100.2 114.7,97.1 111.2,97.1 	"/>
	<polygon class="st4" points="113,100.2 116.5,100.2 114.7,97.1 	"/>
	<polygon class="st4" points="114.7,97.1 116.5,100.2 118.3,97.1 	"/>
	<path class="st4" d="M93,96.4c0,0.3,0.1,0.5,0.1,0.7h0.3L93,96.4z"/>
	<path class="st4" d="M95.2,94h-2.3c0,0.2,0,0.4,0,0.7c0,0.6,0,1.1,0.1,1.7l0.4,0.7L95.2,94z"/>
	<polygon class="st6" points="93.4,97.1 97,97.1 95.2,94 	"/>
	<polygon class="st7" points="95.2,94 97,97.1 98.7,94 	"/>
	<polygon class="st4" points="98.7,94 97,97.1 100.5,97.1 	"/>
	<polygon class="st6" points="98.7,94 100.5,97.1 102.3,94 	"/>
	<polygon class="st5" points="100.5,97.1 104.1,97.1 102.3,94 	"/>
	<polygon class="st4" points="102.3,94 104.1,97.1 105.9,94 	"/>
	<polygon class="st4" points="104.1,97.1 107.6,97.1 105.9,94 	"/>
	<polygon class="st8" points="105.9,94 107.6,97.1 109.4,94 	"/>
	<polygon class="st5" points="107.6,97.1 111.2,97.1 109.4,94 	"/>
	<polygon class="st4" points="111.2,97.1 113,94 109.4,94 	"/>
	<polygon class="st4" points="111.2,97.1 114.7,97.1 113,94 	"/>
	<polygon class="st9" points="114.7,97.1 116.5,94 113,94 	"/>
	<polygon class="st10" points="118.3,97.1 116.5,94 114.7,97.1 	"/>
	<path class="st4" d="M118.3,97.1l0.4-0.7c0.1-0.5,0.1-1.1,0.1-1.7c0-0.2,0-0.4,0-0.7h-2.3L118.3,97.1z"/>
	<path class="st4" d="M94.6,101.2l0.6-1h-1.1C94.2,100.5,94.4,100.9,94.6,101.2z"/>
	<path class="st5" d="M95.2,100.2l-0.6,1c0.4,0.7,0.9,1.4,1.5,2.1H97L95.2,100.2z"/>
	<polygon class="st6" points="95.2,100.2 97,103.3 98.7,100.2 	"/>
	<polygon class="st7" points="97,103.3 100.5,103.3 98.7,100.2 	"/>
	<polygon class="st7" points="98.7,100.2 100.5,103.3 102.3,100.2 	"/>
	<polygon class="st6" points="100.5,103.3 104.1,103.3 102.3,100.2 	"/>
	<polygon class="st8" points="102.3,100.2 104.1,103.3 105.9,100.2 	"/>
	<polygon class="st5" points="104.1,103.3 107.6,103.3 105.9,100.2 	"/>
	<polygon class="st4" points="105.9,100.2 107.6,103.3 109.4,100.2 	"/>
	<polygon class="st8" points="107.6,103.3 111.2,103.3 109.4,100.2 	"/>
	<polygon class="st4" points="109.4,100.2 111.2,103.3 113,100.2 	"/>
	<polygon class="st9" points="111.2,103.3 114.7,103.3 113,100.2 	"/>
	<polygon class="st8" points="114.7,103.3 116.5,100.2 113,100.2 	"/>
	<path class="st10" d="M116.5,100.2l-1.8,3.1h0.9c0.6-0.6,1.1-1.3,1.5-2.1L116.5,100.2z"/>
	<path class="st4" d="M117.1,101.2c0.2-0.3,0.4-0.7,0.5-1h-1.1L117.1,101.2z"/>
	<path class="st6" d="M93.4,91c-0.3,1-0.5,2-0.5,3.1h2.3L93.4,91z"/>
	<path class="st5" d="M97,91h-3.5c0,0,0,0,0,0l1.8,3.1L97,91z"/>
	<polygon class="st6" points="97,91 95.2,94 98.7,94 	"/>
	<polygon class="st7" points="100.5,91 97,91 98.7,94 	"/>
	<polygon class="st6" points="100.5,91 98.7,94 102.3,94 	"/>
	<polygon class="st4" points="104.1,91 100.5,91 102.3,94 	"/>
	<polygon class="st5" points="105.9,94 104.1,91 102.3,94 	"/>
	<polygon class="st5" points="107.6,91 104.1,91 105.9,94 	"/>
	<polygon class="st4" points="109.4,94 107.6,91 105.9,94 	"/>
	<polygon class="st5" points="109.4,94 111.2,91 107.6,91 	"/>
	<polygon class="st9" points="113,94 111.2,91 109.4,94 	"/>
	<polygon class="st4" points="113,94 114.7,91 111.2,91 	"/>
	<polygon class="st8" points="116.5,94 114.7,91 113,94 	"/>
	<path class="st4" d="M114.7,91l1.8,3.1l1.8-3.1c0,0,0,0,0,0H114.7z"/>
	<path class="st6" d="M94.8,87.9c-0.6,0.9-1,2-1.4,3l1.8-3H94.8z"/>
	<path class="st5" d="M97,91l-1.8-3.1l-1.8,3c0,0,0,0,0,0H97z"/>
	<polygon class="st6" points="95.2,87.9 97,91 98.7,87.9 	"/>
	<polygon class="st7" points="98.7,87.9 97,91 100.5,91 	"/>
	<polygon class="st4" points="102.3,87.9 98.7,87.9 100.5,91 	"/>
	<polygon class="st6" points="104.1,91 102.3,87.9 100.5,91 	"/>
	<polygon class="st6" points="105.9,87.9 102.3,87.9 104.1,91 	"/>
	<polygon class="st4" points="107.6,91 105.9,87.9 104.1,91 	"/>
	<polygon class="st4" points="109.4,87.9 105.9,87.9 107.6,91 	"/>
	<polygon class="st5" points="111.2,91 109.4,87.9 107.6,91 	"/>
	<polygon class="st5" points="113,87.9 109.4,87.9 111.2,91 	"/>
	<polygon class="st8" points="111.2,91 114.7,91 113,87.9 	"/>
	<polygon class="st9" points="113,87.9 114.7,91 116.5,87.9 	"/>
	<path class="st4" d="M114.7,91h3.5c0,0,0,0,0,0l-1.8-3L114.7,91z"/>
	<path class="st4" d="M118.3,90.9c-0.3-1.1-0.8-2.1-1.4-3h-0.4L118.3,90.9z"/>
	<path class="st4" d="M95,87.6c-0.1,0.1-0.1,0.2-0.2,0.3h0.4L95,87.6z"/>
	<path class="st4" d="M96.3,85.8c-0.5,0.5-0.9,1.1-1.4,1.7l0.2,0.3L96.3,85.8z"/>
	<path class="st5" d="M98.7,87.9l-1.6-2.8c-0.3,0.2-0.5,0.5-0.8,0.8l-1.2,2H98.7z"/>
	<path class="st6" d="M98.7,87.9l1.8-3.1h-3.1c-0.1,0.1-0.2,0.2-0.3,0.3L98.7,87.9z"/>
	<polygon class="st6" points="100.5,84.8 98.7,87.9 102.3,87.9 	"/>
	<polygon class="st7" points="102.3,87.9 104.1,84.8 100.5,84.8 	"/>
	<polygon class="st7" points="105.9,87.9 104.1,84.8 102.3,87.9 	"/>
	<polygon class="st6" points="107.6,84.8 104.1,84.8 105.9,87.9 	"/>
	<polygon class="st5" points="109.4,87.9 107.6,84.8 105.9,87.9 	"/>
	<polygon class="st5" points="111.2,84.8 107.6,84.8 109.4,87.9 	"/>
	<polygon class="st4" points="111.2,84.8 109.4,87.9 113,87.9 	"/>
	<path class="st9" d="M113,87.9l1.6-2.8c-0.1-0.1-0.2-0.2-0.3-0.3h-3.1L113,87.9z"/>
	<path class="st9" d="M115.4,85.8c-0.2-0.3-0.5-0.5-0.8-0.8l-1.6,2.8h3.6L115.4,85.8z"/>
	<path class="st4" d="M116.7,87.6c-0.4-0.6-0.9-1.2-1.4-1.7l1.2,2L116.7,87.6z"/>
	<path class="st4" d="M116.5,87.9h0.4c-0.1-0.1-0.1-0.2-0.2-0.3L116.5,87.9z"/>
	<path class="st5" d="M99.6,83.3c-0.8,0.4-1.5,0.9-2.2,1.5h3.1L99.6,83.3z"/>
	<path class="st4" d="M101.9,82.3c-0.8,0.3-1.6,0.6-2.3,1l0.9,1.5L101.9,82.3z"/>
	<path class="st6" d="M104.1,84.8l-1.5-2.7c-0.2,0.1-0.4,0.1-0.6,0.2l-1.4,2.5H104.1z"/>
	<path class="st7" d="M104.1,84.8l1.8-3.1c-1.1,0-2.3,0.1-3.3,0.4L104.1,84.8z"/>
	<polygon class="st6" points="107.6,84.8 105.9,81.7 104.1,84.8 	"/>
	<path class="st7" d="M109.2,82.1c-1.1-0.3-2.2-0.4-3.3-0.4l1.8,3.1L109.2,82.1z"/>
	<path class="st6" d="M109.8,82.3c-0.2-0.1-0.4-0.1-0.6-0.2l-1.5,2.7h3.6L109.8,82.3z"/>
	<path class="st4" d="M112.1,83.3c-0.7-0.4-1.5-0.7-2.3-1l1.4,2.5L112.1,83.3z"/>
	<path class="st5" d="M114.2,84.8c-0.7-0.6-1.4-1.1-2.2-1.5l-0.9,1.5H114.2z"/>
	<path class="st10" d="M118.8,94c-0.1-1.1-0.2-2.1-0.5-3.1l-1.8,3.1H118.8z"/>
	<path class="st10" d="M116.5,100.2h1.1c0.4-0.8,0.7-1.7,0.9-2.7l-0.2-0.4L116.5,100.2z"/>
	<path class="st4" d="M118.5,97.5c0-0.1,0.1-0.3,0.1-0.4h-0.3L118.5,97.5z"/>
	<path class="st4" d="M118.6,97.1c0-0.2,0.1-0.5,0.1-0.7l-0.4,0.7H118.6z"/>
</g>
<g>
	<polygon class="st11" points="139.9,103.3 137.8,103.3 146.9,59.8 	"/>
	<polygon class="st12" points="140.5,69.1 143.6,78.4 145.1,69.1 	"/>
	<polygon class="st13" points="152.3,69.1 148.7,69.1 150.4,78.4 	"/>
	<polygon class="st12" points="141.6,92.4 153.1,92.4 152.1,87 142.5,87 	"/>
	<polygon class="st14" points="142.5,87 152.1,87 151,81.5 143.4,81.5 	"/>
	<polygon class="st12" points="139.9,103.3 155.2,103.3 154.2,97.8 140.8,97.8 	"/>
	<polygon class="st14" points="140.8,97.8 154.2,97.8 153.1,92.4 141.6,92.4 	"/>
	<polygon class="st14" points="146.9,59.8 146,65.2 147.9,65.2 	"/>
	<polygon class="st14" points="145.1,70.6 144.3,76.1 150,76.1 149,70.6 	"/>
	<polygon class="st12" points="143.4,81.5 151,81.5 150,76.1 144.3,76.1 	"/>
	<polygon class="st12" points="147.9,65.2 146,65.2 145.1,70.6 149,70.6 	"/>
	<polygon class="st13" points="141.4,69.1 143.6,78.4 145.1,69.1 	"/>
</g>
<circle class="st3" cx="66.4" cy="81" r="4.9"/>
<circle class="st3" cx="74.5" cy="76.9" r="3.9"/>
<g>
	<g>
		<path class="st15" d="M80.6,87.8c-0.2,0-0.5,0-0.7,0.1c-0.1,0-0.1,0.1-0.1,0.1c0,0,0,0,0,0.1c0,1.3-1,2.3-2.3,2.3
			c-0.1,0-0.2,0-0.4,0c-0.1,0-0.1,0-0.1,0.1c-0.2,0.8,0.1,1.3,1,1.3h9.8c0.1,0,0.1-0.1,0.1-0.1V88c0-0.1-0.1-0.1-0.1-0.1H80.6z"/>
		<path class="st16" d="M79.8,88.1L79.8,88.1c0-0.1-0.1-0.1-0.2-0.1c-0.9,0.3-1.8,1-2.3,1.8c-0.1,0.1-0.2,0.3-0.2,0.4
			c0,0.1,0,0.2,0.1,0.2c0.1,0,0.2,0,0.3,0C78.7,90.4,79.8,89.4,79.8,88.1z"/>
	</g>
	<path class="st17" d="M81.8,91.1h-0.3c-0.3,0-0.6-0.3-0.6-0.6v-1.2c0-0.3,0.3-0.6,0.6-0.6h0.3c0.3,0,0.6,0.3,0.6,0.6v1.2
		C82.4,90.8,82.1,91.1,81.8,91.1z"/>
	<path class="st18" d="M78,91.8h9.8c0.1,0,0.1-0.1,0.1-0.1v-0.9h-11C76.8,91.4,77.2,91.8,78,91.8z"/>
	<path class="st16" d="M83.7,90.3h-0.5c-0.1,0-0.1-0.1-0.1-0.1v-0.8c0-0.1,0.1-0.1,0.1-0.1h0.5c0.1,0,0.1,0.1,0.1,0.1v0.8
		C83.8,90.2,83.8,90.3,83.7,90.3z"/>
	<path class="st16" d="M87.3,90.3h-0.5c-0.1,0-0.1-0.1-0.1-0.1v-0.8c0-0.1,0.1-0.1,0.1-0.1h0.5c0.1,0,0.1,0.1,0.1,0.1v0.8
		C87.4,90.2,87.4,90.3,87.3,90.3z"/>
	<path class="st16" d="M86.1,90.3h-0.5c-0.1,0-0.1-0.1-0.1-0.1v-0.8c0-0.1,0.1-0.1,0.1-0.1h0.5c0.1,0,0.1,0.1,0.1,0.1v0.8
		C86.2,90.2,86.2,90.3,86.1,90.3z"/>
	<path class="st16" d="M84.9,90.3h-0.5c-0.1,0-0.1-0.1-0.1-0.1v-0.8c0-0.1,0.1-0.1,0.1-0.1h0.5c0.1,0,0.1,0.1,0.1,0.1v0.8
		C85,90.2,85,90.3,84.9,90.3z"/>
	<line class="st19" x1="78.1" y1="90.7" x2="87.9" y2="90.7"/>
</g>
<g>
	<g>
		<path class="st15" d="M116.4,87.8c0.2,0,0.5,0,0.7,0.1c0.1,0,0.1,0.1,0.1,0.1c0,0,0,0,0,0.1c0,1.3,1,2.3,2.3,2.3
			c0.1,0,0.2,0,0.4,0c0.1,0,0.1,0,0.1,0.1c0.2,0.8-0.1,1.3-1,1.3h-9.8c-0.1,0-0.1-0.1-0.1-0.1V88c0-0.1,0.1-0.1,0.1-0.1H116.4z"/>
		<path class="st16" d="M117.2,88.1L117.2,88.1c0-0.1,0.1-0.1,0.2-0.1c0.9,0.3,1.8,1,2.3,1.8c0.1,0.1,0.2,0.3,0.2,0.4
			c0,0.1,0,0.2-0.1,0.2c-0.1,0-0.2,0-0.3,0C118.3,90.4,117.2,89.4,117.2,88.1z"/>
	</g>
	<path class="st17" d="M115.2,91.1h0.3c0.3,0,0.6-0.3,0.6-0.6v-1.2c0-0.3-0.3-0.6-0.6-0.6h-0.3c-0.3,0-0.6,0.3-0.6,0.6v1.2
		C114.6,90.8,114.9,91.1,115.2,91.1z"/>
	<path class="st18" d="M119,91.8h-9.8c-0.1,0-0.1-0.1-0.1-0.1v-0.9h11C120.1,91.4,119.8,91.8,119,91.8z"/>
	<path class="st16" d="M113.3,90.3h0.5c0.1,0,0.1-0.1,0.1-0.1v-0.8c0-0.1-0.1-0.1-0.1-0.1h-0.5c-0.1,0-0.1,0.1-0.1,0.1v0.8
		C113.1,90.2,113.2,90.3,113.3,90.3z"/>
	<path class="st16" d="M109.7,90.3h0.5c0.1,0,0.1-0.1,0.1-0.1v-0.8c0-0.1-0.1-0.1-0.1-0.1h-0.5c-0.1,0-0.1,0.1-0.1,0.1v0.8
		C109.6,90.2,109.6,90.3,109.7,90.3z"/>
	<path class="st16" d="M110.9,90.3h0.5c0.1,0,0.1-0.1,0.1-0.1v-0.8c0-0.1-0.1-0.1-0.1-0.1h-0.5c-0.1,0-0.1,0.1-0.1,0.1v0.8
		C110.8,90.2,110.8,90.3,110.9,90.3z"/>
	<path class="st16" d="M112.1,90.3h0.5c0.1,0,0.1-0.1,0.1-0.1v-0.8c0-0.1-0.1-0.1-0.1-0.1h-0.5c-0.1,0-0.1,0.1-0.1,0.1v0.8
		C111.9,90.2,112,90.3,112.1,90.3z"/>
	<line class="st19" x1="118.9" y1="90.7" x2="109.1" y2="90.7"/>
</g>
<g>
	<path class="st15" d="M88.3,87.8c-0.1,0-0.1,0.1-0.1,0.1v3.7c0,0.1,0.1,0.1,0.1,0.1h9.9c0.1,0,0.1-0.1,0.1-0.1V88
		c0-0.1-0.1-0.1-0.1-0.1H88.3z"/>
	<path class="st17" d="M96.9,91.1h-0.3c-0.3,0-0.6-0.3-0.6-0.6v-1.2c0-0.3,0.3-0.6,0.6-0.6h0.3c0.3,0,0.6,0.3,0.6,0.6v1.2
		C97.5,90.8,97.2,91.1,96.9,91.1z"/>
	<path class="st18" d="M88.3,91.8h9.9c0.1,0,0.1-0.1,0.1-0.1v-0.9H88.2v0.9C88.2,91.7,88.2,91.8,88.3,91.8z"/>
	<path class="st16" d="M89.3,90.3h-0.5c-0.1,0-0.1-0.1-0.1-0.1v-0.8c0-0.1,0.1-0.1,0.1-0.1h0.5c0.1,0,0.1,0.1,0.1,0.1v0.8
		C89.5,90.2,89.4,90.3,89.3,90.3z"/>
	<path class="st16" d="M92.9,90.3h-0.5c-0.1,0-0.1-0.1-0.1-0.1v-0.8c0-0.1,0.1-0.1,0.1-0.1h0.5c0.1,0,0.1,0.1,0.1,0.1v0.8
		C93,90.2,93,90.3,92.9,90.3z"/>
	<path class="st16" d="M91.7,90.3h-0.5c-0.1,0-0.1-0.1-0.1-0.1v-0.8c0-0.1,0.1-0.1,0.1-0.1h0.5c0.1,0,0.1,0.1,0.1,0.1v0.8
		C91.8,90.2,91.8,90.3,91.7,90.3z"/>
	<path class="st16" d="M90.5,90.3H90c-0.1,0-0.1-0.1-0.1-0.1v-0.8c0-0.1,0.1-0.1,0.1-0.1h0.5c0.1,0,0.1,0.1,0.1,0.1v0.8
		C90.6,90.2,90.6,90.3,90.5,90.3z"/>
	<line class="st19" x1="88.2" y1="90.7" x2="98.3" y2="90.7"/>
	<path class="st16" d="M95.3,90.3h-0.5c-0.1,0-0.1-0.1-0.1-0.1v-0.8c0-0.1,0.1-0.1,0.1-0.1h0.5c0.1,0,0.1,0.1,0.1,0.1v0.8
		C95.4,90.2,95.3,90.3,95.3,90.3z"/>
	<path class="st16" d="M94.1,90.3h-0.5c-0.1,0-0.1-0.1-0.1-0.1v-0.8c0-0.1,0.1-0.1,0.1-0.1h0.5c0.1,0,0.1,0.1,0.1,0.1v0.8
		C94.2,90.2,94.2,90.3,94.1,90.3z"/>
</g>
<g>
	<path class="st15" d="M98.8,87.8c-0.1,0-0.1,0.1-0.1,0.1v3.7c0,0.1,0.1,0.1,0.1,0.1h9.9c0.1,0,0.1-0.1,0.1-0.1V88
		c0-0.1-0.1-0.1-0.1-0.1H98.8z"/>
	<path class="st17" d="M107.4,91.1h-0.3c-0.3,0-0.6-0.3-0.6-0.6v-1.2c0-0.3,0.3-0.6,0.6-0.6h0.3c0.3,0,0.6,0.3,0.6,0.6v1.2
		C108,90.8,107.7,91.1,107.4,91.1z"/>
	<path class="st18" d="M98.8,91.8h9.9c0.1,0,0.1-0.1,0.1-0.1v-0.9H98.7v0.9C98.7,91.7,98.7,91.8,98.8,91.8z"/>
	<path class="st16" d="M99.8,90.3h-0.5c-0.1,0-0.1-0.1-0.1-0.1v-0.8c0-0.1,0.1-0.1,0.1-0.1h0.5c0.1,0,0.1,0.1,0.1,0.1v0.8
		C99.9,90.2,99.9,90.3,99.8,90.3z"/>
	<path class="st16" d="M103.4,90.3h-0.5c-0.1,0-0.1-0.1-0.1-0.1v-0.8c0-0.1,0.1-0.1,0.1-0.1h0.5c0.1,0,0.1,0.1,0.1,0.1v0.8
		C103.5,90.2,103.5,90.3,103.4,90.3z"/>
	<path class="st16" d="M102.2,90.3h-0.5c-0.1,0-0.1-0.1-0.1-0.1v-0.8c0-0.1,0.1-0.1,0.1-0.1h0.5c0.1,0,0.1,0.1,0.1,0.1v0.8
		C102.3,90.2,102.3,90.3,102.2,90.3z"/>
	<path class="st16" d="M101,90.3h-0.5c-0.1,0-0.1-0.1-0.1-0.1v-0.8c0-0.1,0.1-0.1,0.1-0.1h0.5c0.1,0,0.1,0.1,0.1,0.1v0.8
		C101.1,90.2,101.1,90.3,101,90.3z"/>
	<line class="st19" x1="98.7" y1="90.7" x2="108.8" y2="90.7"/>
	<path class="st16" d="M105.8,90.3h-0.5c-0.1,0-0.1-0.1-0.1-0.1v-0.8c0-0.1,0.1-0.1,0.1-0.1h0.5c0.1,0,0.1,0.1,0.1,0.1v0.8
		C105.9,90.2,105.8,90.3,105.8,90.3z"/>
	<path class="st16" d="M104.6,90.3H104c-0.1,0-0.1-0.1-0.1-0.1v-0.8c0-0.1,0.1-0.1,0.1-0.1h0.5c0.1,0,0.1,0.1,0.1,0.1v0.8
		C104.7,90.2,104.6,90.3,104.6,90.3z"/>
</g>
<line class="st20" x1="59" y1="92.1" x2="170" y2="92.1"/>
<rect x="75.1" y="92" width="1.7" height="11.6"/>
<rect x="159" y="92" width="1.7" height="11.6"/>
<rect x="95.9" y="92" width="1.7" height="11.6"/>
<rect x="116.5" y="92" width="1.7" height="11.6"/>
<g>
	<g>
		<rect x="135.7" y="100.7" class="st21" width="2.6" height="2.6"/>
		<rect x="138.3" y="100.7" class="st22" width="2.6" height="2.6"/>
		<rect x="133.1" y="100.7" class="st23" width="2.6" height="2.6"/>
		<rect x="127.9" y="100.7" class="st21" width="2.6" height="2.6"/>
		<rect x="130.5" y="100.7" class="st22" width="2.6" height="2.6"/>
		<rect x="125.3" y="100.7" class="st16" width="2.6" height="2.6"/>
		<rect x="135.7" y="98.1" class="st12" width="2.6" height="2.6"/>
		<rect x="138.3" y="98.1" class="st21" width="2.6" height="2.6"/>
		<rect x="133.1" y="98.1" class="st22" width="2.6" height="2.6"/>
		<rect x="127.9" y="98.1" class="st23" width="2.6" height="2.6"/>
		<rect x="130.5" y="98.1" class="st16" width="2.6" height="2.6"/>
		<rect x="125.3" y="98.1" class="st16" width="2.6" height="2.6"/>
		<rect x="135.7" y="95.5" class="st23" width="2.6" height="2.6"/>
		<rect x="138.3" y="95.5" class="st22" width="2.6" height="2.6"/>
		<rect x="133.1" y="95.5" class="st22" width="2.6" height="2.6"/>
		<rect x="127.9" y="95.5" class="st22" width="2.6" height="2.6"/>
		<rect x="130.5" y="95.5" class="st21" width="2.6" height="2.6"/>
		<rect x="125.3" y="95.5" class="st12" width="2.6" height="2.6"/>
		<rect x="135.7" y="93" class="st16" width="2.6" height="2.6"/>
		<rect x="138.3" y="93" class="st21" width="2.6" height="2.6"/>
		<rect x="133.1" y="93" class="st21" width="2.6" height="2.6"/>
		<rect x="127.9" y="93" class="st16" width="2.6" height="2.6"/>
		<rect x="130.5" y="93" class="st23" width="2.6" height="2.6"/>
		<rect x="125.3" y="93" class="st23" width="2.6" height="2.6"/>
		<rect x="135.7" y="90.4" class="st12" width="2.6" height="2.6"/>
		<rect x="138.3" y="90.4" class="st16" width="2.6" height="2.6"/>
		<rect x="133.1" y="90.4" class="st22" width="2.6" height="2.6"/>
		<rect x="127.9" y="90.4" class="st21" width="2.6" height="2.6"/>
		<rect x="130.5" y="90.4" class="st24" width="2.6" height="2.6"/>
		<rect x="125.3" y="90.4" class="st22" width="2.6" height="2.6"/>
		<rect x="135.7" y="87.8" class="st23" width="2.6" height="2.6"/>
		<rect x="138.3" y="87.8" class="st22" width="2.6" height="2.6"/>
		<rect x="133.1" y="87.8" class="st12" width="2.6" height="2.6"/>
		<rect x="127.9" y="87.8" class="st22" width="2.6" height="2.6"/>
		<rect x="130.5" y="87.8" class="st23" width="2.6" height="2.6"/>
		<rect x="125.3" y="87.8" class="st16" width="2.6" height="2.6"/>
		<rect x="135.7" y="85.2" class="st22" width="2.6" height="2.6"/>
		<rect x="138.3" y="85.2" class="st12" width="2.6" height="2.6"/>
		<rect x="133.1" y="85.2" class="st21" width="2.6" height="2.6"/>
		<rect x="127.9" y="85.2" class="st23" width="2.6" height="2.6"/>
		<rect x="130.5" y="85.2" class="st16" width="2.6" height="2.6"/>
		<rect x="125.3" y="85.2" class="st12" width="2.6" height="2.6"/>
		<rect x="135.7" y="82.6" class="st23" width="2.6" height="2.6"/>
		<rect x="138.3" y="82.6" class="st16" width="2.6" height="2.6"/>
		<rect x="133.1" y="82.6" class="st16" width="2.6" height="2.6"/>
		<rect x="127.9" y="82.6" class="st22" width="2.6" height="2.6"/>
		<rect x="130.5" y="82.6" class="st12" width="2.6" height="2.6"/>
		<rect x="125.3" y="82.6" class="st21" width="2.6" height="2.6"/>
		<rect x="135.7" y="80" class="st12" width="2.6" height="2.6"/>
		<rect x="138.3" y="80" class="st16" width="2.6" height="2.6"/>
		<rect x="133.1" y="80" class="st22" width="2.6" height="2.6"/>
		<rect x="127.9" y="80" class="st21" width="2.6" height="2.6"/>
		<rect x="130.5" y="80" class="st24" width="2.6" height="2.6"/>
		<rect x="125.3" y="80" class="st22" width="2.6" height="2.6"/>
		<rect x="135.7" y="77.5" class="st23" width="2.6" height="2.6"/>
		<rect x="138.3" y="77.5" class="st22" width="2.6" height="2.6"/>
		<rect x="133.1" y="77.5" class="st12" width="2.6" height="2.6"/>
		<rect x="127.9" y="77.5" class="st22" width="2.6" height="2.6"/>
		<rect x="130.5" y="77.5" class="st23" width="2.6" height="2.6"/>
		<rect x="125.3" y="77.5" class="st16" width="2.6" height="2.6"/>
		<rect x="135.7" y="74.9" class="st22" width="2.6" height="2.6"/>
		<rect x="138.3" y="74.9" class="st12" width="2.6" height="2.6"/>
		<rect x="133.1" y="74.9" class="st21" width="2.6" height="2.6"/>
		<rect x="127.9" y="74.9" class="st23" width="2.6" height="2.6"/>
		<rect x="130.5" y="74.9" class="st16" width="2.6" height="2.6"/>
		<rect x="125.3" y="74.9" class="st12" width="2.6" height="2.6"/>
		<rect x="135.7" y="72.3" class="st23" width="2.6" height="2.6"/>
		<rect x="138.3" y="72.3" class="st16" width="2.6" height="2.6"/>
		<rect x="133.1" y="72.3" class="st16" width="2.6" height="2.6"/>
		<rect x="127.9" y="72.3" class="st22" width="2.6" height="2.6"/>
		<rect x="130.5" y="72.3" class="st12" width="2.6" height="2.6"/>
		<rect x="125.3" y="72.3" class="st21" width="2.6" height="2.6"/>
	</g>
	<g>
		<g>
			<rect x="120.2" y="100.7" class="st21" width="2.6" height="2.6"/>
			<rect x="122.8" y="100.7" class="st22" width="2.6" height="2.6"/>
			<rect x="117.6" y="100.7" class="st23" width="2.6" height="2.6"/>
			<rect x="120.2" y="98.1" class="st12" width="2.6" height="2.6"/>
			<rect x="122.8" y="98.1" class="st21" width="2.6" height="2.6"/>
			<rect x="117.6" y="98.1" class="st22" width="2.6" height="2.6"/>
			<rect x="120.2" y="95.5" class="st23" width="2.6" height="2.6"/>
			<rect x="122.8" y="95.5" class="st22" width="2.6" height="2.6"/>
			<rect x="117.6" y="95.5" class="st22" width="2.6" height="2.6"/>
			<rect x="120.2" y="93" class="st16" width="2.6" height="2.6"/>
			<rect x="122.8" y="93" class="st21" width="2.6" height="2.6"/>
			<rect x="117.6" y="93" class="st21" width="2.6" height="2.6"/>
			<rect x="120.2" y="90.4" class="st12" width="2.6" height="2.6"/>
			<rect x="122.8" y="90.4" class="st16" width="2.6" height="2.6"/>
			<rect x="117.6" y="90.4" class="st22" width="2.6" height="2.6"/>
			<rect x="120.2" y="87.8" class="st23" width="2.6" height="2.6"/>
			<rect x="122.8" y="87.8" class="st22" width="2.6" height="2.6"/>
			<rect x="117.6" y="87.8" class="st12" width="2.6" height="2.6"/>
			<rect x="120.2" y="85.2" class="st22" width="2.6" height="2.6"/>
			<rect x="122.8" y="85.2" class="st12" width="2.6" height="2.6"/>
			<rect x="117.6" y="85.2" class="st21" width="2.6" height="2.6"/>
			<rect x="120.2" y="82.6" class="st23" width="2.6" height="2.6"/>
			<rect x="122.8" y="82.6" class="st16" width="2.6" height="2.6"/>
			<rect x="117.6" y="82.6" class="st16" width="2.6" height="2.6"/>
			<rect x="120.2" y="80" class="st12" width="2.6" height="2.6"/>
			<rect x="122.8" y="80" class="st16" width="2.6" height="2.6"/>
			<rect x="117.6" y="80" class="st22" width="2.6" height="2.6"/>
			<rect x="120.2" y="77.5" class="st23" width="2.6" height="2.6"/>
			<rect x="122.8" y="77.5" class="st22" width="2.6" height="2.6"/>
			<rect x="117.6" y="77.5" class="st12" width="2.6" height="2.6"/>
			<rect x="120.2" y="74.9" class="st22" width="2.6" height="2.6"/>
			<rect x="122.8" y="74.9" class="st12" width="2.6" height="2.6"/>
			<rect x="117.6" y="74.9" class="st21" width="2.6" height="2.6"/>
			<rect x="120.2" y="72.3" class="st23" width="2.6" height="2.6"/>
			<rect x="122.8" y="72.3" class="st16" width="2.6" height="2.6"/>
			<rect x="117.6" y="72.3" class="st16" width="2.6" height="2.6"/>
		</g>
		<rect x="117.6" y="72.3" class="st25" width="7.7" height="31"/>
	</g>
</g>
<rect x="9.8" y="103.3" class="st26" width="160.3" height="2.1"/>
</svg>
