<?xml version="1.0" encoding="utf-8"?>
<!-- Generator: Adobe Illustrator 21.0.0, SVG Export Plug-In . SVG Version: 6.00 Build 0)  -->
<svg version="1.1" id="Layer_1" xmlns="http://www.w3.org/2000/svg" xmlns:xlink="http://www.w3.org/1999/xlink" x="0px" y="0px"
	 viewBox="0 0 100 100" style="enable-background:new 0 0 100 100;" xml:space="preserve">
<style type="text/css">
	.st0{fill:#C4C4C4;}
	.st1{fill:#666666;}
	.st2{fill:#976153;}
	.st3{fill:none;stroke:#9D9D9C;stroke-width:1.1302;stroke-linecap:square;stroke-linejoin:round;}
	.st4{fill:#6D6D6C;}
</style>
<rect x="46.6" y="57.5" class="st0" width="6.1" height="8.3"/>
<rect x="46.6" y="57.5" class="st1" width="1.3" height="8.3"/>
<g>
	<path class="st2" d="M49.6,60.7c-0.3,0-0.6-0.3-0.6-0.6v-15c-0.5-0.5-1.7-1.7-1.7-4.2c0-0.3,0.3-0.6,0.6-0.6h3.4
		c0.3,0,0.6,0.3,0.6,0.6c0,2.5-1.2,3.7-1.7,4.2v15C50.1,60.5,49.9,60.7,49.6,60.7z M48.5,41.6c0.1,1.4,0.7,2.2,1.1,2.6
		c0.4-0.4,1-1.2,1.1-2.6H48.5z"/>
</g>
<line class="st3" x1="49.6" y1="60.2" x2="49.6" y2="56.3"/>
<circle class="st4" cx="49.6" cy="56.5" r="0.3"/>
<circle class="st4" cx="49.6" cy="58.2" r="0.3"/>
</svg>
