<?xml version="1.0" encoding="utf-8"?>
<!-- Generator: Adobe Illustrator 21.0.0, SVG Export Plug-In . SVG Version: 6.00 Build 0)  -->
<svg version="1.1" id="Layer_1" xmlns="http://www.w3.org/2000/svg" xmlns:xlink="http://www.w3.org/1999/xlink" x="0px" y="0px"
	 viewBox="0 0 100 100" style="enable-background:new 0 0 100 100;" xml:space="preserve">
<style type="text/css">
	.st0{fill:#FBC670;}
	.st1{opacity:0.5;fill:#FBC670;}
	.st2{fill:#FFFFFF;}
</style>
<g>
	<path class="st0" d="M42.1,46.2c0-4.7,3.8-8.4,8.4-8.4c4.7,0,8.4,3.8,8.4,8.4s-3.8,8.4-8.4,8.4C45.9,54.7,42.1,50.9,42.1,46.2"/>
	<path class="st1" d="M39.1,46.2c0-6.3,5.1-11.4,11.4-11.4c6.3,0,11.4,5.1,11.4,11.4c0,6.3-5.1,11.4-11.4,11.4
		C44.2,57.7,39.1,52.6,39.1,46.2"/>
	<g>
		<path class="st2" d="M58.6,51.2h7.6c0.4,0,0.7-0.3,0.7-0.7s-0.3-0.7-0.7-0.7h-7.6c-0.4,0-0.7,0.3-0.7,0.7S58.3,51.2,58.6,51.2"/>
		<path class="st2" d="M59.8,50h3.5c0.5,0,0.9-0.4,0.9-0.9c0-0.5-0.4-0.9-0.9-0.9h-3.5c-0.5,0-0.9,0.4-0.9,0.9
			C58.9,49.6,59.3,50,59.8,50"/>
		<path class="st2" d="M55.3,51.2h1.2c0.4,0,0.7-0.3,0.7-0.7s-0.3-0.7-0.7-0.7h-1.2c-0.4,0-0.7,0.3-0.7,0.7S54.9,51.2,55.3,51.2"/>
	</g>
	<g>
		<path class="st2" d="M54.1,41.8h7.6c0.4,0,0.7-0.3,0.7-0.7s-0.3-0.7-0.7-0.7h-7.6c-0.4,0-0.7,0.3-0.7,0.7S53.7,41.8,54.1,41.8"/>
		<path class="st2" d="M55.2,40.6h3.5c0.5,0,0.9-0.4,0.9-0.9c0-0.5-0.4-0.9-0.9-0.9h-3.5c-0.5,0-0.9,0.4-0.9,0.9
			C54.3,40.2,54.7,40.6,55.2,40.6"/>
		<path class="st2" d="M50.7,41.8H52c0.4,0,0.7-0.3,0.7-0.7s-0.3-0.7-0.7-0.7h-1.2c-0.4,0-0.7,0.3-0.7,0.7S50.4,41.8,50.7,41.8"/>
	</g>
	<g>
		<path class="st2" d="M40,53.1h7.6c0.4,0,0.7-0.3,0.7-0.7s-0.3-0.7-0.7-0.7H40c-0.4,0-0.7,0.3-0.7,0.7S39.6,53.1,40,53.1"/>
		<path class="st2" d="M41.2,51.9h3.5c0.5,0,0.9-0.4,0.9-0.9c0-0.5-0.4-0.9-0.9-0.9h-3.5c-0.5,0-0.9,0.4-0.9,0.9
			C40.3,51.5,40.7,51.9,41.2,51.9"/>
		<path class="st2" d="M36.7,53.1h1.2c0.4,0,0.7-0.3,0.7-0.7s-0.3-0.7-0.7-0.7h-1.2c-0.4,0-0.7,0.3-0.7,0.7S36.3,53.1,36.7,53.1"/>
	</g>
</g>
</svg>
