<?xml version="1.0" encoding="utf-8"?>
<!-- Generator: Adobe Illustrator 21.0.0, SVG Export Plug-In . SVG Version: 6.00 Build 0)  -->
<svg version="1.1" id="Layer_1" xmlns="http://www.w3.org/2000/svg" xmlns:xlink="http://www.w3.org/1999/xlink" x="0px" y="0px"
	 viewBox="0 0 100 100" style="enable-background:new 0 0 100 100;" xml:space="preserve">
<style type="text/css">
	.st0{fill:none;stroke:#706F6F;stroke-width:5.975782e-02;}
	.st1{fill:#1F90A8;}
	.st2{fill:#976153;}
</style>
<g>
	<rect x="48.9" y="55.3" class="st0" width="0.7" height="0.7"/>
	<path class="st0" d="M46.1,51.2L46.1,51.2C46.1,51.2,46.1,51.2,46.1,51.2c-0.1,0.3-0.1,0.5,0,0.7h0V51.2z"/>
	<rect x="46.1" y="50.5" class="st0" width="0.7" height="0.7"/>
	<rect x="49.6" y="55.3" class="st0" width="0.7" height="0.7"/>
	<rect x="48.2" y="55.3" class="st0" width="0.7" height="0.7"/>
	<path class="st0" d="M49,58.8c0.1,0.2,0.2,0.5,0.3,0.7h0.3v-0.7H49z"/>
	<rect x="50.3" y="55.3" class="st0" width="0.7" height="0.7"/>
	<path class="st0" d="M46.1,50.5L46.1,50.5c-0.1,0.2-0.1,0.4-0.1,0.7h0.1V50.5z"/>
	<path class="st0" d="M47.5,55.3v0.4c0,0.1,0.1,0.2,0.1,0.3h0.5v-0.7H47.5z"/>
	<path class="st0" d="M47.5,54.6V54h-0.7v0.4c0,0.1,0.1,0.2,0.1,0.3H47.5z"/>
	<rect x="49.6" y="50.5" class="st0" width="0.7" height="0.7"/>
	<rect x="48.2" y="50.5" class="st0" width="0.7" height="0.7"/>
	<rect x="50.3" y="50.5" class="st0" width="0.7" height="0.7"/>
	<rect x="48.9" y="50.5" class="st0" width="0.7" height="0.7"/>
	<rect x="51" y="50.5" class="st0" width="0.7" height="0.7"/>
	<rect x="51" y="51.2" class="st0" width="0.7" height="0.7"/>
	<path class="st0" d="M46.8,52.6v-0.7h-0.7v0.3c0,0.1,0,0.2,0.1,0.4H46.8z"/>
	<rect x="47.5" y="50.5" class="st0" width="0.7" height="0.7"/>
	<path class="st0" d="M46.1,51.9c0,0.1,0,0.2,0,0.3L46.1,51.9L46.1,51.9z"/>
	<rect x="46.8" y="50.5" class="st0" width="0.7" height="0.7"/>
	<rect x="51" y="53.3" class="st0" width="0.7" height="0.7"/>
	<rect x="51" y="54.6" class="st0" width="0.7" height="0.7"/>
	<path class="st0" d="M51.9,55.3c0.1-0.2,0.2-0.5,0.3-0.7h-0.5v0.7H51.9z"/>
	<rect x="51" y="54" class="st0" width="0.7" height="0.7"/>
	<rect x="51" y="51.9" class="st0" width="0.7" height="0.7"/>
	<path class="st0" d="M51.6,55.8c0.1-0.1,0.1-0.3,0.2-0.4h-0.2V55.8z"/>
	<rect x="51" y="52.6" class="st0" width="0.7" height="0.7"/>
	<path class="st0" d="M49.6,58.8v0.7h0.3c0.1-0.2,0.2-0.5,0.3-0.7H49.6z"/>
	<path class="st0" d="M51,55.3V56h0.5c0-0.1,0.1-0.2,0.1-0.3v-0.4H51z"/>
	<path class="st0" d="M47,54.6c0.1,0.2,0.2,0.5,0.3,0.7h0.2v-0.7H47z"/>
	<rect x="48.2" y="52.6" class="st0" width="0.7" height="0.7"/>
	<rect x="48.9" y="54" class="st0" width="0.7" height="0.7"/>
	<rect x="48.2" y="51.9" class="st0" width="0.7" height="0.7"/>
	<rect x="48.2" y="53.3" class="st0" width="0.7" height="0.7"/>
	<rect x="48.9" y="53.3" class="st0" width="0.7" height="0.7"/>
	<rect x="48.9" y="52.6" class="st0" width="0.7" height="0.7"/>
	<rect x="49.6" y="51.9" class="st0" width="0.7" height="0.7"/>
	<rect x="46.8" y="53.3" class="st0" width="0.7" height="0.7"/>
	<rect x="48.9" y="51.9" class="st0" width="0.7" height="0.7"/>
	<rect x="49.6" y="54" class="st0" width="0.7" height="0.7"/>
	<rect x="49.6" y="53.3" class="st0" width="0.7" height="0.7"/>
	<rect x="49.6" y="52.6" class="st0" width="0.7" height="0.7"/>
	<rect x="48.2" y="54" class="st0" width="0.7" height="0.7"/>
	<path class="st0" d="M46.7,54c0.1,0.1,0.1,0.3,0.2,0.4V54H46.7z"/>
	<path class="st0" d="M46.8,48.2c-0.1,0.1-0.1,0.2-0.1,0.3h0.1V48.2z"/>
	<path class="st0" d="M51.6,47.4v0.4H52C51.9,47.6,51.8,47.5,51.6,47.4z"/>
	<path class="st0" d="M50.3,58.5c0.1-0.1,0.1-0.3,0.2-0.4h-0.2V58.5z"/>
	<path class="st0" d="M47.5,47.4c-0.1,0.1-0.2,0.2-0.4,0.4h0.4V47.4z"/>
	<path class="st0" d="M48.9,58.5v-0.4h-0.2C48.8,58.2,48.8,58.3,48.9,58.5z"/>
	<rect x="46.1" y="51.2" class="st0" width="0.7" height="0.7"/>
	<rect x="51.6" y="53.3" class="st0" width="0.7" height="0.7"/>
	<path class="st0" d="M46.1,50.1c0,0.1,0,0.3-0.1,0.4h0.1V50.1z"/>
	<path class="st0" d="M51,57.1c0.1-0.1,0.1-0.2,0.2-0.4H51V57.1z"/>
	<path class="st0" d="M48.2,57.1v-0.4H48C48.1,56.8,48.1,56.9,48.2,57.1z"/>
	<path class="st0" d="M52.3,48.2v0.2h0.1C52.4,48.4,52.4,48.3,52.3,48.2z"/>
	<rect x="48.2" y="51.2" class="st0" width="0.7" height="0.7"/>
	<rect x="48.9" y="51.2" class="st0" width="0.7" height="0.7"/>
	<rect x="49.6" y="51.2" class="st0" width="0.7" height="0.7"/>
	<rect x="47.5" y="51.2" class="st0" width="0.7" height="0.7"/>
	<rect x="50.3" y="51.2" class="st0" width="0.7" height="0.7"/>
	<rect x="47.5" y="51.9" class="st0" width="0.7" height="0.7"/>
	<path class="st0" d="M46.8,53.3h-0.4c0.1,0.2,0.2,0.5,0.3,0.7h0.2V53.3z"/>
	<rect x="46.8" y="51.2" class="st0" width="0.7" height="0.7"/>
	<rect x="50.3" y="51.9" class="st0" width="0.7" height="0.7"/>
	<rect x="46.8" y="52.6" class="st0" width="0.7" height="0.7"/>
	<rect x="46.8" y="51.9" class="st0" width="0.7" height="0.7"/>
	<path class="st0" d="M46.8,52.6h-0.6c0.1,0.2,0.1,0.5,0.2,0.7h0.4V52.6z"/>
	<rect x="47.5" y="54.6" class="st0" width="0.7" height="0.7"/>
	<rect x="47.5" y="54" class="st0" width="0.7" height="0.7"/>
	<rect x="50.3" y="52.6" class="st0" width="0.7" height="0.7"/>
	<rect x="48.2" y="54.6" class="st0" width="0.7" height="0.7"/>
	<rect x="47.5" y="53.3" class="st0" width="0.7" height="0.7"/>
	<rect x="47.5" y="52.6" class="st0" width="0.7" height="0.7"/>
	<rect x="50.3" y="54" class="st0" width="0.7" height="0.7"/>
	<rect x="50.3" y="53.3" class="st0" width="0.7" height="0.7"/>
	<rect x="48.9" y="54.6" class="st0" width="0.7" height="0.7"/>
	<rect x="49.6" y="54.6" class="st0" width="0.7" height="0.7"/>
	<rect x="50.3" y="54.6" class="st0" width="0.7" height="0.7"/>
	<path class="st0" d="M47.5,55.8v-0.4h-0.2C47.4,55.5,47.4,55.6,47.5,55.8z"/>
	<rect x="49.6" y="49.1" class="st0" width="0.7" height="0.7"/>
	<rect x="51.6" y="49.1" class="st0" width="0.7" height="0.7"/>
	<rect x="48.9" y="57.4" class="st0" width="0.7" height="0.7"/>
	<rect x="50.3" y="49.1" class="st0" width="0.7" height="0.7"/>
	<rect x="51" y="49.1" class="st0" width="0.7" height="0.7"/>
	<rect x="48.2" y="49.1" class="st0" width="0.7" height="0.7"/>
	<path class="st0" d="M46.8,49.8v-0.7h-0.5c-0.1,0.2-0.1,0.4-0.2,0.7H46.8z"/>
	<rect x="47.5" y="49.1" class="st0" width="0.7" height="0.7"/>
	<path class="st0" d="M48.4,57.4c0.1,0.2,0.2,0.5,0.3,0.7h0.2v-0.7H48.4z"/>
	<rect x="46.8" y="49.1" class="st0" width="0.7" height="0.7"/>
	<rect x="48.9" y="49.1" class="st0" width="0.7" height="0.7"/>
	<path class="st0" d="M53,49.8c-0.1-0.2-0.1-0.5-0.2-0.7h-0.4v0.7H53z"/>
	<path class="st0" d="M53,52.2c0-0.1,0-0.2,0-0.3h0V52.2z"/>
	<path class="st0" d="M52.3,51.9v0.7h0.6c0-0.1,0.1-0.2,0.1-0.4v-0.3H52.3z"/>
	<rect x="51" y="47.8" class="st0" width="0.7" height="0.7"/>
	<rect x="50.3" y="47.8" class="st0" width="0.7" height="0.7"/>
	<path class="st0" d="M53,51.9L53,51.9c0.1-0.2,0.1-0.4,0.1-0.7c0,0,0,0,0,0H53V51.9z"/>
	<path class="st0" d="M52.3,49.8v0.7H53v-0.4c0-0.1,0-0.2-0.1-0.3H52.3z"/>
	<path class="st0" d="M53,51.2L53,51.2c0.1-0.2,0.1-0.5,0.1-0.7H53V51.2z"/>
	<path class="st0" d="M52.3,48.5v-0.2c-0.1-0.2-0.2-0.3-0.3-0.4h-0.4v0.7H52.3z"/>
	<rect x="50.3" y="47.1" class="st0" width="0.7" height="0.7"/>
	<path class="st0" d="M53.1,50.5c0-0.1,0-0.3-0.1-0.4L53.1,50.5L53.1,50.5z"/>
	<rect x="49.6" y="47.8" class="st0" width="0.7" height="0.7"/>
	<rect x="48.9" y="48.5" class="st0" width="0.7" height="0.7"/>
	<rect x="48.9" y="47.8" class="st0" width="0.7" height="0.7"/>
	<rect x="50.3" y="48.5" class="st0" width="0.7" height="0.7"/>
	<rect x="49.6" y="48.5" class="st0" width="0.7" height="0.7"/>
	<path class="st0" d="M46.8,49.1v-0.7h-0.1c-0.1,0.2-0.2,0.4-0.3,0.7H46.8z"/>
	<rect x="46.8" y="48.5" class="st0" width="0.7" height="0.7"/>
	<rect x="51" y="48.5" class="st0" width="0.7" height="0.7"/>
	<rect x="47.5" y="48.5" class="st0" width="0.7" height="0.7"/>
	<rect x="48.2" y="48.5" class="st0" width="0.7" height="0.7"/>
	<path class="st0" d="M49.6,59.5h-0.3c0.1,0.2,0.1,0.5,0.2,0.7h0.1V59.5z"/>
	<path class="st0" d="M48.9,58.1v0.4c0,0.1,0.1,0.2,0.1,0.3h0.6v-0.7H48.9z"/>
	<rect x="49.6" y="57.4" class="st0" width="0.7" height="0.7"/>
	<path class="st0" d="M50.3,58.1h-0.7v0.7h0.6c0-0.1,0.1-0.2,0.1-0.3V58.1z"/>
	<rect x="51.6" y="48.5" class="st0" width="0.7" height="0.7"/>
	<path class="st0" d="M50.3,57.4v0.7h0.2c0.1-0.2,0.2-0.5,0.3-0.7H50.3z"/>
	<path class="st0" d="M52.8,49.1c-0.1-0.2-0.2-0.5-0.3-0.7h-0.1v0.7H52.8z"/>
	<path class="st0" d="M49.5,60.1c0,0.1,0.1,0.3,0.1,0.4h0.1v-0.4H49.5z"/>
	<path class="st0" d="M49.6,59.5v0.7h0.1c0-0.2,0.1-0.5,0.2-0.7H49.6z"/>
	<path class="st0" d="M49.6,60.6L49.6,60.6c0.1-0.1,0.1-0.3,0.1-0.4h-0.1V60.6z"/>
	<rect x="46.8" y="49.8" class="st0" width="0.7" height="0.7"/>
	<rect x="51.6" y="50.5" class="st0" width="0.7" height="0.7"/>
	<rect x="52.3" y="50.5" class="st0" width="0.7" height="0.7"/>
	<rect x="51.6" y="51.2" class="st0" width="0.7" height="0.7"/>
	<rect x="51.6" y="49.8" class="st0" width="0.7" height="0.7"/>
	<rect x="52.3" y="51.2" class="st0" width="0.7" height="0.7"/>
	<rect x="51.6" y="51.9" class="st0" width="0.7" height="0.7"/>
	<rect x="48.2" y="49.8" class="st0" width="0.7" height="0.7"/>
	<rect x="49.6" y="49.8" class="st0" width="0.7" height="0.7"/>
	<rect x="48.9" y="49.8" class="st0" width="0.7" height="0.7"/>
	<rect x="50.3" y="49.8" class="st0" width="0.7" height="0.7"/>
	<rect x="49.6" y="47.1" class="st0" width="0.7" height="0.7"/>
	<path class="st0" d="M51.5,56H51v0.7h0.2c0-0.1,0.1-0.1,0.1-0.2C51.3,56.3,51.4,56.2,51.5,56z"/>
	<rect x="49.6" y="56" class="st0" width="0.7" height="0.7"/>
	<rect x="50.3" y="56" class="st0" width="0.7" height="0.7"/>
	<rect x="51.6" y="52.6" class="st0" width="0.7" height="0.7"/>
	<rect x="48.2" y="56" class="st0" width="0.7" height="0.7"/>
	<rect x="48.9" y="56" class="st0" width="0.7" height="0.7"/>
	<path class="st0" d="M52.3,54h0.2c0.1-0.2,0.2-0.5,0.3-0.7h-0.4V54z"/>
	<path class="st0" d="M52.7,53.3c0.1-0.2,0.1-0.5,0.2-0.7h-0.6v0.7H52.7z"/>
	<path class="st0" d="M51.6,54v0.7h0.5c0-0.1,0.1-0.2,0.1-0.3V54H51.6z"/>
	<path class="st0" d="M52.3,54.3c0.1-0.1,0.1-0.3,0.2-0.4h-0.2V54.3z"/>
	<rect x="51" y="49.8" class="st0" width="0.7" height="0.7"/>
	<rect x="49.6" y="56.7" class="st0" width="0.7" height="0.7"/>
	<path class="st0" d="M51,56.7h-0.7v0.7h0.5c0.1-0.1,0.1-0.2,0.2-0.3V56.7z"/>
	<path class="st0" d="M48.2,56.7v0.4c0.1,0.1,0.1,0.2,0.2,0.3h0.5v-0.7H48.2z"/>
	<rect x="48.9" y="56.7" class="st0" width="0.7" height="0.7"/>
	<path class="st0" d="M47.5,47.8h0.7v-0.7H48c-0.2,0.1-0.3,0.2-0.4,0.3V47.8z"/>
	<path class="st0" d="M46.8,48.5h0.7v-0.7h-0.4c-0.1,0.1-0.2,0.3-0.3,0.4V48.5z"/>
	<rect x="48.9" y="47.1" class="st0" width="0.7" height="0.7"/>
	<rect x="47.5" y="47.8" class="st0" width="0.7" height="0.7"/>
	<rect x="48.2" y="47.1" class="st0" width="0.7" height="0.7"/>
	<rect x="48.2" y="47.8" class="st0" width="0.7" height="0.7"/>
	<path class="st0" d="M46.1,50.5h0.7v-0.7h-0.6c0,0.1,0,0.2,0,0.3V50.5z"/>
	<path class="st0" d="M48.2,46.9C48.1,47,48,47,48,47.1h0.2V46.9z"/>
	<path class="st0" d="M51,47.8h0.7v-0.4c-0.1-0.1-0.3-0.2-0.4-0.3H51V47.8z"/>
	<rect x="47.5" y="49.8" class="st0" width="0.7" height="0.7"/>
	<path class="st0" d="M47.7,56c0.1,0.2,0.2,0.3,0.3,0.5c0,0.1,0.1,0.1,0.1,0.2h0.2V56H47.7z"/>
	<path class="st0" d="M51.2,47.1C51.2,47,51.1,47,51,46.9v0.2H51.2z"/>
	<path class="st0" d="M51,47.1v-0.2c-0.2-0.1-0.4-0.2-0.7-0.2v0.4H51z"/>
	<path class="st0" d="M48.9,47.1v-0.4c-0.2,0.1-0.5,0.1-0.7,0.2v0.1H48.9z"/>
	<path class="st0" d="M49.6,47.1v-0.5c-0.2,0-0.5,0-0.7,0.1v0.4H49.6z"/>
	<path class="st0" d="M50.3,47.1v-0.4c-0.2,0-0.4-0.1-0.7-0.1v0.5H50.3z"/>
</g>
<g>
	<path class="st1" d="M50,61h-0.8c-0.2,0-0.4-0.2-0.4-0.4c0-1.1-0.7-2.5-1.5-3.9c-0.9-1.7-1.8-3.5-1.8-5.3c0-1.6,0.4-2.9,1.3-3.9
		c0.7-0.8,1.8-1.3,2.8-1.3c1.1,0,2.1,0.5,2.8,1.3c0.9,0.9,1.3,2.3,1.3,3.9c0,1.8-0.9,3.6-1.8,5.3c-0.7,1.4-1.5,2.8-1.5,3.9
		C50.4,60.8,50.2,61,50,61z M49.5,60.2h0.1c0.1-1.2,0.8-2.5,1.5-3.9c0.9-1.6,1.8-3.3,1.8-5c0-2.1-1-4.4-3.3-4.4
		c-1.6,0-3.3,1.4-3.3,4.4c0,1.6,0.9,3.3,1.8,5C48.7,57.7,49.4,59,49.5,60.2z"/>
</g>
<path class="st2" d="M49.8,65.9h-0.5c-0.4,0-0.8-0.4-0.8-0.8v-4.7c0-0.4,0.4-0.8,0.8-0.8h0.5c0.4,0,0.8,0.4,0.8,0.8v4.7
	C50.6,65.6,50.3,65.9,49.8,65.9z"/>
</svg>
