<?xml version="1.0" encoding="utf-8"?>
<!-- Generator: Adobe Illustrator 21.0.0, SVG Export Plug-In . SVG Version: 6.00 Build 0)  -->
<svg version="1.1" id="Layer_1" xmlns="http://www.w3.org/2000/svg" xmlns:xlink="http://www.w3.org/1999/xlink" x="0px" y="0px"
	 viewBox="0 0 100 100" style="enable-background:new 0 0 100 100;" xml:space="preserve">
<style type="text/css">
	.st0{fill:#C18849;}
	.st1{fill:#745449;}
	.st2{fill:#3F3532;}
	.st3{fill:none;stroke:#636362;stroke-width:2.8139;stroke-linecap:round;}
	.st4{fill:#9099AA;}
	.st5{fill:#BCC6DF;}
	.st6{opacity:0.7;fill:#1D1D1B;}
	.st7{fill:#BD1622;}
	.st8{fill:none;stroke:#CE6026;stroke-width:0.6618;stroke-linecap:round;}
</style>
<g>
	<polygon class="st0" points="76.7,25.4 24,25.4 6.3,65.3 94.4,65.3 	"/>
	<polygon points="55.7,49 75,26.5 50.3,26.5 25.7,26.5 45,49 42,63.1 58.6,63.1 	"/>
	<polygon class="st1" points="25.7,26.5 9.5,63.1 42,63.1 45,49 	"/>
	<polygon class="st2" points="58.6,63.1 91.2,63.1 75,26.5 55.7,49 	"/>
</g>
<line class="st3" x1="61" y1="7.7" x2="50.3" y2="24.8"/>
<g>
	<path class="st4" d="M56.3,24.8c0-3.3-2.7-6-6-6s-6,2.7-6,6v1h11.9V24.8z"/>
	<path class="st5" d="M44.4,26.1c0-3.3,2.7-6,6-6s6,2.7,6,6"/>
	<path class="st6" d="M44.4,26.1c0,1.5,2.7,2.6,6,2.6s6-1.2,6-2.6"/>
</g>
<g>
	<ellipse transform="matrix(0.5 -0.866 0.866 0.5 23.8357 56.7215)" class="st7" cx="61" cy="7.7" rx="4" ry="4"/>
	<path class="st8" d="M58.7,6.4c0.5-0.8,1.3-1.3,2.1-1.3c0.5,0,1,0.1,1.5,0.3"/>
</g>
</svg>
