<svg version="1.1" id="Layer_1" xmlns="http://www.w3.org/2000/svg" xmlns:xlink="http://www.w3.org/1999/xlink" x="0px" y="0px"
	 viewBox="0 0 100 100" style="enable-background:new 0 0 100 100;" xml:space="preserve">
<path d="M49.3,56.8h-2.1c-0.2,0-0.4-0.2-0.4-0.4l0,0c0-0.2,0.2-0.4,0.4-0.4h2.1c0.2,0,0.4,0.2,0.4,0.4l0,0
	C49.7,56.7,49.5,56.8,49.3,56.8z"/>
<line class="st0" x1="47" y1="59.8" x2="48.2" y2="56.5"/>
<polyline class="st1" points="57.6,46.8 57.4,45.5 60.4,45 "/>
<polyline class="st1" points="44,47.6 43.1,43.8 42.2,43.8 "/>
<circle class="st2" cx="37.6" cy="58.4" r="7"/>
<circle class="st2" cx="61.6" cy="58.4" r="7"/>
<circle class="st3" cx="37.6" cy="58.4" r="7"/>
<circle class="st4" cx="37.6" cy="58.4" r="2"/>
<circle class="st5" cx="37.6" cy="58.4" r="1.5"/>
<circle class="st6" cx="37.6" cy="58.4" r="1"/>
<circle class="st3" cx="61.6" cy="58.4" r="7"/>
<polyline class="st7" points="37.6,58.4 44,47.6 47,59.9 58,49.3 57.6,46.8 44,47.6 "/>
<line class="st7" x1="37.6" y1="58.4" x2="47" y2="59.9"/>
<path class="st7" d="M58,49.3c0,0,1.1,8,3.5,9"/>
<circle cx="60.4" cy="45" r="0.7"/>
<g>
	<polyline class="st8" points="45.2,43 43.7,43.7 41.6,43.9 40.2,42.8 	"/>
	<path class="st9" d="M39.6,42.6c0.1-0.3,1.5,0.2,3.1,0.2c1.5-0.1,3.7-0.5,3.8,0.4c0,0-1.2-0.1-2.5,0.1c-1.3,0.2-1,0.6-1.8,0.7
		c-0.5,0-0.8-0.6-1.6-0.9C40,42.7,39.5,42.8,39.6,42.6z"/>
</g>
<circle class="st4" cx="47" cy="59.8" r="1.6"/>
<line class="st10" x1="45.8" y1="63.2" x2="47" y2="59.9"/>
<path d="M46.9,63.8h-2.1c-0.2,0-0.4-0.2-0.4-0.4l0,0c0-0.2,0.2-0.4,0.4-0.4h2.1c0.2,0,0.4,0.2,0.4,0.4l0,0
	C47.3,63.6,47.1,63.8,46.9,63.8z"/>
</svg>
