<svg version="1.1" id="Layer_1" xmlns="http://www.w3.org/2000/svg" xmlns:xlink="http://www.w3.org/1999/xlink" x="0px" y="0px"
	 viewBox="0 0 100 100" style="enable-background:new 0 0 100 100;" xml:space="preserve">
<g>
	<g>
		<path class="st0" d="M52.1,59.2l-11.3-1.8c0.8-0.2,10.5-3.6,10.5-3.6l11.3,1.8L52.1,59.2z"/>
		<path class="st0" d="M52.1,61.3l-11.3-1.8c0.8-0.2,10.5-3.6,10.5-3.6l11.3,1.8L52.1,61.3z"/>
		<polygon class="st1" points="61.8,56 61.8,58 52.1,61.3 51.4,60.2 52.1,59.2 		"/>
		<line class="st2" x1="62.5" y1="55.6" x2="52.1" y2="59.2"/>
		<line class="st2" x1="62.5" y1="57.7" x2="52.1" y2="61.3"/>
		<path class="st3" d="M52.1,61.3c-0.3,0-0.5-0.5-0.5-1s0.2-1,0.5-1l-11.3-1.8c-0.3,0-0.5,0.5-0.5,1c0,0.6,0.2,1,0.5,1L52.1,61.3z"
			/>
		<path class="st0" d="M52.1,59.2l-11.3-1.8c0.8-0.2,10.5-3.6,10.5-3.6l11.3,1.8L52.1,59.2z"/>
		<path class="st0" d="M52.1,61.3l-11.3-1.8c0.8-0.2,10.5-3.6,10.5-3.6l11.3,1.8L52.1,61.3z"/>
		<polygon class="st1" points="61.8,56 61.8,58 52.1,61.3 51.4,60.2 52.1,59.2 		"/>
		<line class="st2" x1="62.5" y1="55.6" x2="52.1" y2="59.2"/>
		<line class="st2" x1="62.5" y1="57.7" x2="52.1" y2="61.3"/>
		<path class="st3" d="M52.1,61.3c-0.3,0-0.5-0.5-0.5-1s0.2-1,0.5-1l-11.3-1.8c-0.3,0-0.5,0.5-0.5,1c0,0.6,0.2,1,0.5,1L52.1,61.3z"
			/>
	</g>
	<g>
		<path class="st4" d="M53.2,55.5l-11.3-1.8c0.8-0.2,10.5-3.6,10.5-3.6l11.3,1.8L53.2,55.5z"/>
		<path class="st4" d="M53.2,57.5l-11.3-1.8c0.8-0.2,10.5-3.6,10.5-3.6L63.7,54L53.2,57.5z"/>
		<polygon class="st1" points="62.9,52.3 62.9,54.2 53.2,57.5 52.5,56.5 53.2,55.5 		"/>
		<line class="st5" x1="63.7" y1="51.9" x2="53.2" y2="55.5"/>
		<line class="st5" x1="63.7" y1="54" x2="53.2" y2="57.5"/>
		<path class="st6" d="M53.2,57.5c-0.3,0-0.5-0.5-0.5-1c0-0.6,0.2-1,0.5-1l-11.3-1.8c-0.3,0-0.5,0.5-0.5,1c0,0.6,0.2,1,0.5,1
			L53.2,57.5z"/>
	</g>
	<g>
		<path class="st7" d="M48.6,53.2l-11.3-1.8c0.8-0.2,10.5-3.6,10.5-3.6l11.3,1.8L48.6,53.2z"/>
		<path class="st7" d="M48.6,55.2l-11.3-1.8c0.8-0.2,10.5-3.6,10.5-3.6l11.3,1.8L48.6,55.2z"/>
		<polygon class="st1" points="58.3,50 58.3,51.9 48.6,55.2 47.9,54.2 48.6,53.2 		"/>
		<line class="st8" x1="59.1" y1="49.6" x2="48.6" y2="53.2"/>
		<line class="st8" x1="59.1" y1="51.6" x2="48.6" y2="55.2"/>
		<path class="st9" d="M48.6,55.2c-0.3,0-0.5-0.5-0.5-1c0-0.6,0.2-1,0.5-1l-11.3-1.8c-0.3,0-0.5,0.5-0.5,1c0,0.6,0.2,1,0.5,1
			L48.6,55.2z"/>
	</g>
	<g>
		<path class="st10" d="M50.1,49.4l-11.3-1.8c0.8-0.2,10.5-3.6,10.5-3.6l11.3,1.8L50.1,49.4z"/>
		<path class="st10" d="M50.1,51.4l-11.3-1.8c0.8-0.2,10.5-3.6,10.5-3.6l11.3,1.8L50.1,51.4z"/>
		<polygon class="st1" points="59.7,46.1 59.7,48.1 50.1,51.4 49.3,50.4 50.1,49.4 		"/>
		<line class="st11" x1="60.5" y1="45.8" x2="50.1" y2="49.4"/>
		<line class="st11" x1="60.5" y1="47.8" x2="50.1" y2="51.4"/>
		<path class="st12" d="M50.1,51.4c-0.3,0-0.5-0.5-0.5-1c0-0.6,0.2-1,0.5-1l-11.3-1.8c-0.3,0-0.5,0.5-0.5,1c0,0.6,0.2,1,0.5,1
			L50.1,51.4z"/>
	</g>
</g>
</svg>
