<svg version="1.1" id="Layer_1" xmlns="http://www.w3.org/2000/svg" xmlns:xlink="http://www.w3.org/1999/xlink" x="0px" y="0px"
	 viewBox="0 0 180 180" style="enable-background:new 0 0 180 180;" xml:space="preserve">
<svg x="10">
	<g>
		<polyline points="44.2,97 119.4,96.7 134.1,96 119.5,83.6 46.8,84.6 44.2,97 		"/>
		<g>
			<path class="st0" d="M130.7,87.8c0-0.3-0.7-3.5-3.7-7.1c-0.8-1-1.9-2-3.1-3.2c-5.4-0.4-9.9-3.8-11.8-8.6
				c-4.1-2.2-9.6-3.8-17.9-3.8c-12.3,0-17.5,2.2-17.8,2.7c-0.2,0.3-2.9,4.5-4.9,7.7c-0.4,0.6-1.5,0.6-2.6,0.6
				c-16.3,0.3-21.1,6.1-21.9,7.1c-1.1,0.4-1.8,0.8-1.9,1.1c-0.4,0.7-0.4,4.1-1.3,6.6c-0.5,1.6-1.5,3.9-0.5,3.9h0.9
				c1.4,0,0.6-2.1,2.1-4.5c1.1-1.9,3.4-4.5,8.2-4.5c6.1,0,9.1,5.7,9.1,9.5c0,1.7,1.7,1.7,2.2,1.7s2.3,0,2.3,0l35.6-0.2
				c1.1,0.3,2.6,0,2.8-1.4c0.2-1.4,1.3-9.7,9.6-9.7c6,0,7.6,4.1,9.1,6.2c1.4,1.9,3.1,3.9,9,3.9c1.6,0-0.4-3.1-1.7-5
				C132.5,91.1,130.7,88.8,130.7,87.8z"/>
		</g>
		<line class="st1" x1="125.8" y1="80.4" x2="128.1" y2="80.4"/>
		<path class="st2" d="M128.9,89.1c0.5,0,0.6-1.5,0.5-2.7c-0.1-1.1-0.5-2.6-1-2.6c-0.6,0-5.9,0-5.9,0L128.9,89.1"/>
		<path class="st3" d="M128.1,89.1c0.5,0,0.6-1.5,0.5-2.7c-0.1-1.1-0.5-2.6-1-2.6h0.8c0.6,0,0.9,1.5,1,2.6s-0.1,2.7-0.5,2.7H128.1"
			/>
		<path class="st4" d="M106.4,95.6c0.2-1.4,1.3-9.7,9.6-9.7c6,0,7.6,4.1,9.1,6.2c1.4,1.9,3.1,3.9,9,3.9c1.6,0-0.4-3.1-1.7-5
			c0,0-0.1-0.2-0.4-0.5c-2.5-0.1-4.7-3-5.2-3.7c-0.8-1.1-3.8-5.5-11-5.5c-10.3,0-12.4,10.8-12.4,13.8l-1.3,1.8h1.3
			C104.7,97.4,106.2,97.1,106.4,95.6"/>
		<path class="st2" d="M43.6,90.3c-0.1-0.8-0.2-4.9,0.4-5.5c0.3-0.4,1.1-0.4,1.1-0.4"/>
		<path class="st4" d="M59,82.4c-4.6-1.3-9.4-0.1-12,0.9c-0.5,0.2-1,0.4-1.3,0.6l0,0c-0.1,0-0.1,0.1-0.2,0.1l0,0l-0.1,0.1l0,0
			l-0.1,0.1l0,0l-0.1,0.1l0,0c-0.4,0.7-1.4,6.2-2.3,8.7c-0.7,1.7-1,4,0.1,4h1.3c1.4,0,0.5-3.3,2.4-6.6c1.1-1.9,3.4-4.5,7.8-4.5
			c6.1,0,9.1,5.7,9.1,9.5c0,1.7,1.7,1.7,2.2,1.7s2.3,0,2.3,0h1.3V95C68.9,92.5,66.8,84.7,59,82.4z"/>
		<path class="st5" d="M94.7,76.6c0-1.4,0-5.7,0-6.3c0-0.6,0.2-1.5,1.4-1.5c1.1,0,4.7,0,10,1.6s6.7,4.4,6.7,5.8s-0.9,2.5-3.4,2.5
			s-11.9,0-12.9,0C95.5,78.7,94.7,78.2,94.7,76.6"/>
		<path class="st6" d="M90.8,82.2h-0.5c-0.5,0-0.9-0.4-0.9-0.9v-0.4c0-0.5,0.4-0.9,0.9-0.9h0.5c0.5,0,0.9,0.4,0.9,0.9v0.4
			C91.7,81.8,91.3,82.2,90.8,82.2"/>
		<path d="M90.8,76.2c-0.6,0.3-1.8,1.7-2.4,2.4c1.5,0,2.6,0,2.9,0c1.1,0,1.9-0.5,1.9-1.6c0-0.1,0-0.1,0-0.2
			C92.7,76.1,91.6,75.8,90.8,76.2"/>
		<path class="st5" d="M91.6,75.6c-1,0-1.8-1.2-1.8-2.7s0.8-2.7,1.8-2.7c0.7,0,1.3,0.6,1.6,1.5c0-0.9,0-1.5,0-1.5
			c0-1-0.5-1.3-1.2-1.3s-10.2,0-13.7,1.3c-1,0.4-2.1,1-2.9,2c-0.5,0.6-1.7,2.7-2.1,3.4c-0.6,1.1-0.8,3.1,0.9,3.1c0,0,9.3,0,14.1,0
			c0.6-0.7,1.8-2.1,2.4-2.4c0.8-0.4,1.9-0.1,2.4,0.6c0-0.6,0-1.6,0-2.7C92.9,75,92.3,75.6,91.6,75.6"/>
		<path d="M91.6,70.3c-1,0-1.8,1.2-1.8,2.7s0.8,2.7,1.8,2.7c0.7,0,1.3-0.6,1.6-1.5c0-0.8,0-1.7,0-2.4C92.9,70.8,92.3,70.3,91.6,70.3
			"/>
		<path d="M88.4,81.2c0-0.5,5-0.9,5-0.1S88.4,81.7,88.4,81.2"/>
		<rect x="69.8" y="79.7" class="st6" width="0.9" height="1.8"/>
		<rect x="69.8" y="92.5" class="st6" width="0.9" height="1.8"/>
		<path class="st7" d="M46.6,95.5c0-4.3,3.5-7.8,7.8-7.8s7.8,3.5,7.8,7.8s-3.5,7.8-7.8,7.8C50.1,103.4,46.6,99.9,46.6,95.5"/>
		<path class="st2" d="M47.9,95.5c0-3.6,2.9-6.5,6.5-6.5s6.5,2.9,6.5,6.5S58,102,54.4,102C50.8,102.1,47.9,99.2,47.9,95.5"/>
		<path d="M49.4,95.5c0-2.8,2.2-5,5-5s5,2.2,5,5s-2.2,5-5,5C51.7,100.6,49.4,98.3,49.4,95.5"/>
		<path class="st3" d="M51.3,95.5c0-1.7,1.4-3.2,3.1-3.2c1.7,0,3.2,1.4,3.2,3.2c0,1.7-1.4,3.2-3.2,3.2
			C52.7,98.7,51.3,97.3,51.3,95.5"/>
		<path class="st8" d="M54.4,90.3c-2.9,0-5.2,2.3-5.2,5.2c0,2.9,2.3,5.2,5.2,5.2s5.2-2.3,5.2-5.2C59.7,92.6,57.3,90.3,54.4,90.3
			 M58.8,96.5c-0.1,0.5-0.3,1.1-0.6,1.5c0.1,0.2,0,0.4-0.1,0.5l-0.7,0.7c-0.1,0.1-0.3,0.2-0.5,0.1c-0.5,0.3-1,0.5-1.5,0.6
			c-0.1,0.2-0.2,0.3-0.4,0.3h-1c-0.2,0-0.4-0.1-0.4-0.3c-0.5-0.1-1.1-0.3-1.5-0.6c-0.2,0.1-0.4,0-0.5-0.1l-0.7-0.7
			c-0.1-0.1-0.2-0.3-0.1-0.5c-0.3-0.5-0.5-1-0.6-1.5c-0.2-0.1-0.3-0.2-0.3-0.4v-1c0-0.2,0.1-0.4,0.3-0.4c0.1-0.5,0.3-1.1,0.6-1.5
			c-0.1-0.2,0-0.4,0.1-0.5l0.7-0.7c0.1-0.1,0.3-0.2,0.5-0.1c0.5-0.3,1-0.5,1.5-0.6c0.1-0.2,0.2-0.3,0.4-0.3h1c0.2,0,0.4,0.1,0.4,0.3
			c0.5,0.1,1.1,0.3,1.5,0.6c0.2-0.1,0.4,0,0.5,0.1l0.7,0.7c0.1,0.1,0.2,0.3,0.1,0.5c0.3,0.5,0.5,1,0.6,1.5c0.2,0.1,0.3,0.2,0.3,0.4
			v1C59.1,96.2,59,96.4,58.8,96.5z"/>
		<path class="st9" d="M58.2,96v-1c0-0.3,0.2-0.5,0.5-0.5c0.1,0,0.1,0,0.2,0c-0.1-0.5-0.3-1.1-0.6-1.5c0,0.1-0.1,0.1-0.1,0.2
			c-0.2,0.2-0.5,0.2-0.7,0l-0.7-0.7c-0.2-0.2-0.2-0.5,0-0.7c0,0,0.1-0.1,0.2-0.1c-0.5-0.3-1-0.5-1.5-0.6c0,0.1,0,0.1,0,0.2
			c0,0.3-0.2,0.5-0.5,0.5h-1c-0.3,0-0.5-0.2-0.5-0.5c0-0.1,0-0.1,0-0.2c-0.5,0.1-1.1,0.3-1.5,0.6c0.1,0,0.1,0.1,0.2,0.1
			c0.2,0.2,0.2,0.5,0,0.7l-0.7,0.7c-0.2,0.2-0.5,0.2-0.7,0c0,0-0.1-0.1-0.1-0.2c-0.3,0.5-0.5,1-0.6,1.5c0.1,0,0.1,0,0.2,0
			c0.3,0,0.5,0.2,0.5,0.5v1c0,0.3-0.2,0.5-0.5,0.5c-0.1,0-0.1,0-0.2,0c0.1,0.5,0.3,1.1,0.6,1.5c0-0.1,0.1-0.1,0.1-0.2
			c0.2-0.2,0.5-0.2,0.7,0l0.7,0.7c0.2,0.2,0.2,0.5,0,0.7c0,0-0.1,0.1-0.2,0.1c0.5,0.3,1,0.5,1.5,0.6c0-0.1,0-0.1,0-0.2
			c0-0.3,0.2-0.5,0.5-0.5h1c0.3,0,0.5,0.2,0.5,0.5c0,0.1,0,0.1,0,0.2c0.5-0.1,1.1-0.3,1.5-0.6c-0.1,0-0.1-0.1-0.2-0.1
			c-0.2-0.2-0.2-0.5,0-0.7l0.7-0.7c0.2-0.2,0.5-0.2,0.7,0c0,0,0.1,0.1,0.1,0.2c0.3-0.5,0.5-1,0.6-1.5c-0.1,0-0.1,0-0.2,0
			C58.4,96.5,58.2,96.3,58.2,96 M54.4,98.7c-1.7,0-3.1-1.4-3.1-3.2c0-1.7,1.4-3.2,3.1-3.2c1.7,0,3.2,1.4,3.2,3.2
			C57.6,97.3,56.2,98.7,54.4,98.7z"/>
		<path class="st7" d="M108.2,95.5c0-4.3,3.5-7.8,7.8-7.8s7.8,3.5,7.8,7.8s-3.5,7.8-7.8,7.8C111.7,103.4,108.2,99.9,108.2,95.5"/>
		<path class="st2" d="M109.5,95.5c0-3.6,2.9-6.5,6.5-6.5s6.5,2.9,6.5,6.5s-2.9,6.5-6.5,6.5C112.5,102.1,109.5,99.2,109.5,95.5"/>
		<path d="M111.1,95.5c0-2.8,2.2-5,5-5s5,2.2,5,5s-2.2,5-5,5C113.3,100.6,111.1,98.3,111.1,95.5"/>
		<path class="st3" d="M112.9,95.5c0-1.7,1.4-3.2,3.2-3.2c1.7,0,3.2,1.4,3.2,3.2c0,1.7-1.4,3.2-3.2,3.2S112.9,97.3,112.9,95.5"/>
		<path class="st8" d="M116.1,90.3c-2.9,0-5.2,2.3-5.2,5.2c0,2.9,2.3,5.2,5.2,5.2c2.9,0,5.2-2.3,5.2-5.2
			C121.3,92.6,119,90.3,116.1,90.3 M120.5,96.5c-0.1,0.5-0.3,1.1-0.6,1.5c0.1,0.2,0,0.4-0.1,0.5l-0.7,0.7c-0.1,0.1-0.3,0.2-0.5,0.1
			c-0.5,0.3-1,0.5-1.5,0.6c-0.1,0.2-0.2,0.3-0.4,0.3h-1c-0.2,0-0.4-0.1-0.4-0.3c-0.5-0.1-1.1-0.3-1.5-0.6c-0.2,0.1-0.4,0-0.5-0.1
			l-0.7-0.7c-0.1-0.1-0.2-0.3-0.1-0.5c-0.3-0.5-0.5-1-0.6-1.5c-0.2-0.1-0.3-0.2-0.3-0.4v-1c0-0.2,0.1-0.4,0.3-0.4
			c0.1-0.5,0.3-1.1,0.6-1.5c-0.1-0.2,0-0.4,0.1-0.5l0.7-0.7c0.1-0.1,0.3-0.2,0.5-0.1c0.5-0.3,1-0.5,1.5-0.6c0.1-0.2,0.2-0.3,0.4-0.3
			h1c0.2,0,0.4,0.1,0.4,0.3c0.5,0.1,1.1,0.3,1.5,0.6c0.2-0.1,0.4,0,0.5,0.1l0.7,0.7c0.1,0.1,0.2,0.3,0.1,0.5c0.3,0.5,0.5,1,0.6,1.5
			c0.2,0.1,0.3,0.2,0.3,0.4v1C120.7,96.2,120.6,96.4,120.5,96.5z"/>
		<path class="st9" d="M119.8,96v-1c0-0.3,0.2-0.5,0.5-0.5c0.1,0,0.1,0,0.2,0c-0.1-0.5-0.3-1.1-0.6-1.5c0,0.1-0.1,0.1-0.1,0.2
			c-0.2,0.2-0.5,0.2-0.7,0l-0.7-0.7c-0.2-0.2-0.2-0.5,0-0.7c0,0,0.1-0.1,0.2-0.1c-0.5-0.3-1-0.5-1.5-0.6c0,0.1,0,0.1,0,0.2
			c0,0.3-0.2,0.5-0.5,0.5h-1c-0.3,0-0.5-0.2-0.5-0.5c0-0.1,0-0.1,0-0.2c-0.5,0.1-1.1,0.3-1.5,0.6c0.1,0,0.1,0.1,0.2,0.1
			c0.2,0.2,0.2,0.5,0,0.7l-0.7,0.7c-0.2,0.2-0.5,0.2-0.7,0c0,0-0.1-0.1-0.1-0.2c-0.3,0.5-0.5,1-0.6,1.5c0.1,0,0.1,0,0.2,0
			c0.3,0,0.5,0.2,0.5,0.5v1c0,0.3-0.2,0.5-0.5,0.5c-0.1,0-0.1,0-0.2,0c0.1,0.5,0.3,1.1,0.6,1.5c0-0.1,0.1-0.1,0.1-0.2
			c0.2-0.2,0.5-0.2,0.7,0l0.7,0.7c0.2,0.2,0.2,0.5,0,0.7c0,0-0.1,0.1-0.2,0.1c0.5,0.3,1,0.5,1.5,0.6c0-0.1,0-0.1,0-0.2
			c0-0.3,0.2-0.5,0.5-0.5h1c0.3,0,0.5,0.2,0.5,0.5c0,0.1,0,0.1,0,0.2c0.5-0.1,1.1-0.3,1.5-0.6c-0.1,0-0.1-0.1-0.2-0.1
			c-0.2-0.2-0.2-0.5,0-0.7l0.7-0.7c0.2-0.2,0.5-0.2,0.7,0c0,0,0.1,0.1,0.1,0.2c0.3-0.5,0.5-1,0.6-1.5c-0.1,0-0.1,0-0.2,0
			C120,96.5,119.8,96.3,119.8,96 M116.1,98.7c-1.7,0-3.2-1.4-3.2-3.2c0-1.7,1.4-3.2,3.2-3.2c1.7,0,3.2,1.4,3.2,3.2
			C119.2,97.3,117.8,98.7,116.1,98.7z"/>
		<polyline points="91.9,77 91.1,76.9 91.4,74.6 92.3,74.7 91.9,77 		"/>
		<path d="M76.3,75.7c-0.1-0.2-0.4-0.3-0.7-0.2c-0.2,0.1-0.3,0.4-0.2,0.7l1.2,2.6h1.1L76.3,75.7"/>
		<line class="st10" x1="69.7" y1="86.6" x2="103.8" y2="86.6"/>
		<line class="st11" x1="65.4" y1="79.9" x2="67.4" y2="79.9"/>
		<line class="st12" x1="99.7" y1="77.1" x2="102" y2="74.7"/>
		<line class="st13" x1="41.8" y1="93.3" x2="43.2" y2="93.3"/>
		<line class="st13" x1="132.1" y1="93.3" x2="135.4" y2="93.3"/>
		<g>
			<path class="st8" d="M79.6,76.3c0.2,0.2,0.6,0.4,0.9,0.4s0.6-0.1,0.9-0.4l7.4-7.4c-1.1,0-2.4,0.1-3.7,0.2l-5.5,5.5
				C79.2,75,79.2,75.8,79.6,76.3z"/>
			<path class="st8" d="M87.1,71.5c-0.3,0.3-0.3,0.8,0,1.1c0.2,0.2,0.3,0.2,0.5,0.2s0.4-0.1,0.5-0.2l3.7-3.7c-0.3,0-1.1,0-2.2,0
				L87.1,71.5z"/>
		</g>
		<line class="st14" x1="69.4" y1="96.3" x2="102.8" y2="96.3"/>
		<g>
			<path class="st8" d="M98.9,74.5c0.2,0.2,0.3,0.2,0.5,0.2s0.4-0.1,0.5-0.2l4.5-4.5c-0.6-0.2-1.2-0.3-1.8-0.4l-3.8,3.8
				C98.6,73.7,98.6,74.2,98.9,74.5z"/>
			<path class="st8" d="M103.8,72.8c0.1,0.1,0.3,0.2,0.5,0.2s0.4-0.1,0.5-0.2l2-2.1c-0.2-0.1-0.4-0.1-0.7-0.2
				c-0.2-0.1-0.5-0.1-0.7-0.2l-1.5,1.6C103.6,72.1,103.6,72.5,103.8,72.8z"/>
		</g>
		<path class="st5" d="M123.9,77.5c-5.4-0.4-9.9-3.8-11.8-8.6C115.9,70.8,120.5,74.4,123.9,77.5z"/>
	</g>
	<path d="M76,78.5c0.1,1-0.4,1.9-1.2,2c-0.8,0.1-2.2-0.6-2.3-1.6c-0.1-1,1.1-2,1.9-2.1C75.2,76.7,75.9,77.5,76,78.5z"/>
</svg>
</svg>
