<svg version="1.1" id="Layer_1" xmlns="http://www.w3.org/2000/svg" xmlns:xlink="http://www.w3.org/1999/xlink" x="0px" y="0px"
	 viewBox="0 0 180 180" style="enable-background:new 0 0 180 180;" xml:space="preserve">
<g>
	<path class="st0" d="M54.3,94.4c0-3.9,3.2-7,7-7c3.9,0,7,3.2,7,7c0,3.9-3.2,7-7,7S54.3,98.3,54.3,94.4"/>
	<g>
		<polyline points="52.3,99.4 101.9,98.6 145.1,99.3 146.4,82.7 127,82 52.1,82.6 48.1,91.3 52.3,99.4 		"/>
		<path class="st1" d="M42.6,87.4c0-1,6.3-4.6,12.4-6c6.1-1.5,15.9-2.5,15.9-2.5s11.9-5.9,21.4-8.8c9.4-2.9,18.2-2.3,22.7-1.9
			s14.9,1.6,26,5.6c11.1,4.1,14.8,3.9,14.8,3.9s-0.3,2.4,0.1,4.7c0.4,2.3,1.1,6.2,2,7c1,0.8,0.2,3.4,0.2,3.4s-1.2,0.3-1.7,1.5
			S145.5,96,145.1,96c-0.5,0,0.3-4.2-2.9-8.1c-3.3-3.9-10.5-4.3-14.6,0.1c-3.2,3.5-2.5,8.5-2.5,8.5l-53.8,0.7c0,0,0.4-5.1-2.4-8.7
			c-2.8-3.7-9.9-6.2-15.3,0.4c-2.7,3.4-1.8,8.4-1.8,8.4s-7.9,0-9.1,0c-1.2,0-0.3-0.5,0.1-0.8c0.3-0.3,0.4-1.6-0.4-2.8
			c-0.8-1.3-0.8-4-0.5-4.1c0.3-0.2,0.7-0.2,0.7-0.4C42.5,88.9,42.6,88.4,42.6,87.4"/>
		<path class="st2" d="M107.5,69.7c-14,0-25.2,7.8-27.8,9.6c-0.3,0.2-0.5,0.4-0.7,0.6c2.6,0,14.3-0.2,25.2-0.7l3.5-9.5H107.5"/>
		<path class="st2" d="M109.9,69.7l-1.5,9.3c6.1-0.3,12.7-0.8,18.1-1.6l-3.7-6.8C119.6,70.2,115.6,69.8,109.9,69.7"/>
		<path d="M107.6,69.7l-3.5,9.5c0.4,0,0.9,0,1.3-0.1c0.9,0,1.9-0.1,2.9-0.2l1.5-9.3C109.2,69.7,108.4,69.7,107.6,69.7"/>
		<path class="st2" d="M123.4,70.7l3.9,6.6c4.7-0.7,8.3-1.8,9.2-3.2c-2.2-0.8-4.4-1.5-5.9-1.9C128.8,71.8,126.6,71.2,123.4,70.7"/>
		<path d="M122.7,70.6l3.7,6.8c0.3,0,0.6-0.1,0.8-0.1l-3.9-6.6C123.2,70.7,123,70.6,122.7,70.6"/>
		<path class="st3" d="M153.1,97.7c2.6-0.7,3.4-1.1,3.8-1.5c0.5-0.4,0.5-1.4,0.9-2s0.4-1.5,0.4-1.5v-0.8H153L153.1,97.7"/>
		<path class="st4" d="M42.4,97.1c0,0,0.4,0.8,1.7,1.1c1.3,0.3,5.1,0.3,5.8,0.6c0.7,0.3,1,0.6,1.2,0.7s1.2,0,1.2,0S52,99,51.8,97.2"
			/>
		<path class="st4" d="M71.3,97.2c0,0-0.1,1-0.1,1.3s0,1,0,1s5.9-0.4,25.6-0.4c19.8,0,28.2,0.5,28.2,0.5s0.2-1.1,0.2-1.9
			s-0.1-1.3-0.1-1.3"/>
		<path class="st4" d="M156.5,94.2c-0.2,0.7-1.2,2.7-3.4,3.5c-2.2,0.7-5.2,1.6-8,1.6c0,0,0.2-0.5,0.1-3.4"/>
		<path class="st4" d="M52.4,94.4c0-5,4-9,9-9s9,4,9,9s-4,9-9,9S52.4,99.4,52.4,94.4"/>
		<path class="st4" d="M126.1,94.4c0-5,4-9,9-9s9,4,9,9s-4,9-9,9C130.2,103.4,126.1,99.4,126.1,94.4"/>
		<path class="st4" d="M97.1,82.4c0.5,0,4.2-0.2,4.7-0.3c0.5-0.2,1.1-0.9,0.8-0.9c-0.3,0-3.8,0.2-4.1,0.3
			C98.1,81.6,96.7,82.4,97.1,82.4"/>
		<path class="st4" d="M122.6,81c0.5-0.1,4.2-0.2,4.7-0.3c0.5-0.2,1.1-0.9,0.8-0.9s-3.8,0.2-4.1,0.3C123.6,80.3,122.1,81.1,122.6,81
			"/>
		<path class="st2" d="M77.3,78.4c2.8-1.1,15.6-9.9,31.4-9.9c10.6,0,17.6,1.1,21,1.8c-6.4-1.5-11.7-2-14.6-2.3
			c-4.5-0.4-13.3-1-22.7,1.9S71,78.7,71,78.7S74.5,79.5,77.3,78.4"/>
		<path class="st0" d="M54.3,94.4c0-3.9,3.2-7,7-7c3.9,0,7,3.2,7,7c0,3.9-3.2,7-7,7S54.3,98.3,54.3,94.4"/>
		<path class="st1" d="M59.5,94.4c0-1,0.8-1.9,1.9-1.9c1,0,1.9,0.8,1.9,1.9c0,1-0.8,1.9-1.9,1.9S59.5,95.4,59.5,94.4"/>
		<path class="st0" d="M128.1,94.4c0-3.9,3.2-7,7-7c3.9,0,7,3.2,7,7c0,3.9-3.2,7-7,7C131.2,101.4,128.1,98.3,128.1,94.4"/>
		<path class="st2" d="M152.4,79.6c-2.5,0.5-4.8,2.4-4.8,2.9s1.4,0.7,4.6,0.7c2.1,0,3.4,0,3.9-0.1c-0.1-0.3-0.1-0.6-0.1-0.8
			c-0.1-0.8-0.2-1.6-0.2-2.3C155.3,79.7,154.2,79.3,152.4,79.6"/>
		<path class="st2" d="M53.9,83.9c-1.6-0.1-3.7,0-5.3,0.2c-1.7,0.7-3.2,1.6-4.7,2.6l-0.1,0.1c0,0.2,0.1,0.8,0.5,0.8
			c0.5,0,2.1,0.1,4.2-0.5C50.4,86.6,52.5,84.4,53.9,83.9L53.9,83.9"/>
		<path d="M79.7,79.3c-0.3,0.2-0.5,0.4-0.7,0.6c1.1,0,3.7,0,7.3-0.1l-1.7-3.6C82.2,77.6,80.5,78.7,79.7,79.3"/>
		<path class="st4" d="M82.2,79c0,0,1.2-1.7,2.2-2.2s2.4-0.4,2.7-0.3c0.3,0.1,1.2,0.7,1.2,1.5c-0.1,0.8-0.1,1.4-0.6,1.6
			c-0.7,0.2-2.5,0.2-2.5,0.2s-2.2,0-2.6,0C82.2,79.8,82,79.3,82.2,79"/>
		<path d="M89.2,76.1c-0.3,0.1-0.4,0.5-0.3,0.7l1.4,2.9c0.4,0,0.8,0,1.2,0l-1.6-3.3C89.8,76.1,89.4,75.9,89.2,76.1"/>
	</g>
	<g>
		<path class="st5" d="M59.1,91.8l-1.8-2.4c-0.2,0.2-0.4,0.4-0.7,0.6l1.8,2.6C58.7,92.2,58.9,92,59.1,91.8z"/>
		<path class="st5" d="M58.1,93.3l-2.8-1.2c-0.1,0.3-0.2,0.6-0.3,0.8l2.8,1.3C57.9,93.9,58,93.6,58.1,93.3z"/>
		<path class="st5" d="M58.8,96.7l-2.4,1.8c0.2,0.2,0.4,0.4,0.6,0.7l2.6-1.8C59.2,97.1,59,96.9,58.8,96.7z"/>
		<path class="st5" d="M58,95l-3,0.4c0,0.3,0.1,0.6,0.2,0.9l3.1-0.3C58.2,95.7,58,95.4,58,95z"/>
		<path class="st5" d="M60.7,91l-0.4-3c-0.3,0-0.6,0.1-0.9,0.2l0.3,3.1C60.1,91.2,60.4,91.1,60.7,91z"/>
		<path class="st5" d="M60.2,97.7l-1.2,2.8c0.3,0.1,0.6,0.2,0.8,0.3l1.3-2.8C60.9,97.8,60.5,97.8,60.2,97.7z"/>
		<path class="st5" d="M64.8,93.8l3-0.4c0-0.3-0.1-0.6-0.2-0.9l-3.1,0.3C64.6,93.1,64.7,93.4,64.8,93.8z"/>
		<path class="st5" d="M64,92.2l2.4-1.8c-0.2-0.2-0.4-0.4-0.6-0.7l-2.6,1.8C63.5,91.7,63.8,91.9,64,92.2z"/>
		<path class="st5" d="M62.5,91.1l1.2-2.8c-0.3-0.1-0.6-0.2-0.8-0.3l-1.3,2.8C61.9,91,62.2,91,62.5,91.1z"/>
		<path class="st5" d="M64.6,95.6l2.8,1.2c0.1-0.3,0.2-0.6,0.3-0.8l-2.8-1.3C64.8,94.9,64.8,95.2,64.6,95.6z"/>
		<path class="st5" d="M63.6,97l1.8,2.4c0.2-0.2,0.4-0.4,0.7-0.6l-1.8-2.6C64.1,96.6,63.9,96.8,63.6,97z"/>
		<path class="st5" d="M62,97.8l0.4,3c0.3,0,0.6-0.1,0.9-0.2L63,97.5C62.7,97.6,62.4,97.7,62,97.8z"/>
		<path class="st6" d="M61.1,91l0.5-3c-0.1,0-0.2,0-0.2,0c-0.3,0-0.7,0-1,0.1l0.4,3C60.9,91,61,91,61.1,91z"/>
		<path class="st7" d="M61.1,91c0.1,0,0.2,0,0.3,0s0.1,0,0.2,0l1.3-2.8C62.5,88,62.1,88,61.6,88L61.1,91z"/>
		<path class="st6" d="M59.4,91.5l-1.1-2.8c-0.4,0.2-0.7,0.4-1,0.7l1.8,2.4C59.2,91.7,59.3,91.6,59.4,91.5z"/>
		<path class="st7" d="M59.4,91.5c0.1-0.1,0.2-0.1,0.4-0.2l-0.3-3.1c-0.4,0.1-0.8,0.3-1.2,0.5L59.4,91.5z"/>
		<path class="st6" d="M58.3,92.9L55.9,91c-0.2,0.3-0.4,0.7-0.6,1.1l2.8,1.2C58.2,93.1,58.2,93,58.3,92.9z"/>
		<path class="st7" d="M58.3,92.9c0.1-0.1,0.1-0.2,0.2-0.4L56.7,90c-0.3,0.3-0.5,0.6-0.8,1L58.3,92.9z"/>
		<path class="st6" d="M57.9,94.7l-3-0.5c0,0.1,0,0.2,0,0.2c0,0.3,0,0.7,0.1,1l3-0.4C58,94.9,57.9,94.8,57.9,94.7z"/>
		<path class="st7" d="M57.9,94.7c0-0.1,0-0.2,0-0.3c0-0.1,0-0.1,0-0.2l-2.8-1.3c-0.1,0.4-0.2,0.8-0.2,1.2L57.9,94.7z"/>
		<path class="st6" d="M58.5,96.3l-2.8,1.1c0.2,0.4,0.4,0.7,0.7,1l2.4-1.8C58.7,96.6,58.6,96.5,58.5,96.3z"/>
		<path class="st7" d="M58.5,96.3c-0.1-0.1-0.1-0.2-0.2-0.4l-3.1,0.3c0.1,0.4,0.3,0.8,0.5,1.2L58.5,96.3z"/>
		<path class="st6" d="M59.9,97.5L58,99.8c0.3,0.2,0.7,0.4,1.1,0.6l1.2-2.8C60.1,97.6,60,97.6,59.9,97.5z"/>
		<path class="st7" d="M59.9,97.5c-0.1-0.1-0.2-0.1-0.4-0.2L57,99.1c0.3,0.3,0.6,0.5,1,0.8L59.9,97.5z"/>
		<path class="st6" d="M61.6,97.9l-0.5,3c0.1,0,0.2,0,0.2,0c0.3,0,0.7,0,1-0.1l-0.4-3C61.9,97.8,61.8,97.8,61.6,97.9z"/>
		<path class="st7" d="M61.6,97.9c-0.1,0-0.2,0-0.3,0s-0.1,0-0.2,0l-1.3,2.8c0.4,0.1,0.8,0.2,1.2,0.2L61.6,97.9z"/>
		<path class="st6" d="M63.3,97.3l1.1,2.8c0.4-0.2,0.7-0.4,1-0.7L63.6,97C63.5,97.1,63.4,97.2,63.3,97.3z"/>
		<path class="st7" d="M63.3,97.3c-0.1,0.1-0.2,0.1-0.4,0.2l0.3,3.1c0.4-0.1,0.8-0.3,1.2-0.5L63.3,97.3z"/>
		<path class="st6" d="M64.5,95.9l2.3,1.9c0.2-0.3,0.4-0.7,0.6-1.1l-2.8-1.2C64.6,95.7,64.6,95.8,64.5,95.9z"/>
		<path class="st7" d="M64.5,95.9c-0.1,0.1-0.1,0.2-0.2,0.4l1.8,2.6c0.3-0.3,0.5-0.6,0.8-1L64.5,95.9z"/>
		<path class="st6" d="M64.8,94.2l3,0.5c0-0.1,0-0.2,0-0.2c0-0.3,0-0.7-0.1-1l-3,0.4C64.8,93.9,64.8,94,64.8,94.2z"/>
		<path class="st7" d="M64.8,94.2c0,0.1,0,0.2,0,0.3c0,0.1,0,0.1,0,0.2l2.8,1.3c0.1-0.4,0.2-0.8,0.2-1.2L64.8,94.2z"/>
		<path class="st6" d="M64.2,92.5l2.8-1.1c-0.2-0.4-0.4-0.7-0.7-1L64,92.2C64.1,92.3,64.2,92.4,64.2,92.5z"/>
		<path class="st7" d="M64.2,92.5c0.1,0.1,0.1,0.2,0.2,0.4l3.1-0.3c-0.1-0.4-0.3-0.8-0.5-1.2L64.2,92.5z"/>
		<path class="st6" d="M62.9,91.3l1.9-2.3c-0.3-0.2-0.7-0.4-1.1-0.6l-1.2,2.8C62.7,91.2,62.8,91.2,62.9,91.3z"/>
		<path class="st7" d="M62.9,91.3c0.1,0.1,0.2,0.1,0.4,0.2l2.6-1.8c-0.3-0.3-0.6-0.5-1-0.8L62.9,91.3z"/>
	</g>
	<path class="st0" d="M128.1,94.4c0-3.9,3.2-7,7-7c3.9,0,7,3.2,7,7c0,3.9-3.2,7-7,7C131.2,101.4,128.1,98.3,128.1,94.4"/>
	<path class="st1" d="M133.2,94.4c0-1,0.8-1.9,1.9-1.9c1,0,1.9,0.8,1.9,1.9c0,1-0.8,1.9-1.9,1.9C134.1,96.3,133.2,95.4,133.2,94.4"
		/>
	<g>
		<path class="st5" d="M132.9,91.8l-1.8-2.4c-0.2,0.2-0.4,0.4-0.7,0.6l1.8,2.6C132.4,92.2,132.6,92,132.9,91.8z"/>
		<path class="st5" d="M131.9,93.3l-2.8-1.2c-0.1,0.3-0.2,0.6-0.3,0.8l2.8,1.3C131.7,93.9,131.7,93.6,131.9,93.3z"/>
		<path class="st5" d="M132.5,96.7l-2.4,1.8c0.2,0.2,0.4,0.4,0.6,0.7l2.6-1.8C133,97.1,132.7,96.9,132.5,96.7z"/>
		<path class="st5" d="M131.7,95l-3,0.4c0,0.3,0.1,0.6,0.2,0.9L132,96C131.9,95.7,131.8,95.4,131.7,95z"/>
		<path class="st5" d="M134.5,91l-0.4-3c-0.3,0-0.6,0.1-0.9,0.2l0.3,3.1C133.8,91.2,134.1,91.1,134.5,91z"/>
		<path class="st5" d="M134,97.7l-1.2,2.8c0.3,0.1,0.6,0.2,0.8,0.3l1.3-2.8C134.6,97.8,134.3,97.8,134,97.7z"/>
		<path class="st5" d="M138.5,93.8l3-0.4c0-0.3-0.1-0.6-0.2-0.9l-3.1,0.3C138.3,93.1,138.5,93.4,138.5,93.8z"/>
		<path class="st5" d="M137.7,92.2l2.4-1.8c-0.2-0.2-0.4-0.4-0.6-0.7l-2.6,1.8C137.3,91.7,137.5,91.9,137.7,92.2z"/>
		<path class="st5" d="M136.3,91.1l1.2-2.8c-0.3-0.1-0.6-0.2-0.8-0.3l-1.3,2.8C135.6,91,136,91,136.3,91.1z"/>
		<path class="st5" d="M138.4,95.6l2.8,1.2c0.1-0.3,0.2-0.6,0.3-0.8l-2.8-1.3C138.6,94.9,138.5,95.2,138.4,95.6z"/>
		<path class="st5" d="M137.4,97l1.8,2.4c0.2-0.2,0.4-0.4,0.7-0.6l-1.8-2.6C137.8,96.6,137.6,96.8,137.4,97z"/>
		<path class="st5" d="M135.8,97.8l0.4,3c0.3,0,0.6-0.1,0.9-0.2l-0.3-3.1C136.4,97.6,136.1,97.7,135.8,97.8z"/>
		<path class="st6" d="M134.9,91l0.5-3c-0.1,0-0.2,0-0.2,0c-0.3,0-0.7,0-1,0.1l0.4,3C134.6,91,134.7,91,134.9,91z"/>
		<path class="st7" d="M134.9,91c0.1,0,0.2,0,0.3,0s0.1,0,0.2,0l1.3-2.8c-0.4-0.1-0.8-0.2-1.2-0.2L134.9,91z"/>
		<path class="st6" d="M133.2,91.5l-1.1-2.8c-0.4,0.2-0.7,0.4-1,0.7l1.8,2.4C133,91.7,133.1,91.6,133.2,91.5z"/>
		<path class="st7" d="M133.2,91.5c0.1-0.1,0.2-0.1,0.4-0.2l-0.3-3.1c-0.4,0.1-0.8,0.3-1.2,0.5L133.2,91.5z"/>
		<path class="st6" d="M132,92.9l-2.3-1.9c-0.2,0.3-0.4,0.7-0.6,1.1l2.8,1.2C131.9,93.1,131.9,93,132,92.9z"/>
		<path class="st7" d="M132,92.9c0.1-0.1,0.1-0.2,0.2-0.4l-1.8-2.6c-0.3,0.3-0.5,0.6-0.8,1L132,92.9z"/>
		<path class="st6" d="M131.7,94.7l-3-0.5c0,0.1,0,0.2,0,0.2c0,0.3,0,0.7,0.1,1l3-0.4C131.7,94.9,131.7,94.8,131.7,94.7z"/>
		<path class="st7" d="M131.7,94.7c0-0.1,0-0.2,0-0.3c0-0.1,0-0.1,0-0.2l-2.8-1.3c-0.1,0.4-0.2,0.8-0.2,1.2L131.7,94.7z"/>
		<path class="st6" d="M132.3,96.3l-2.8,1.1c0.2,0.4,0.4,0.7,0.7,1l2.4-1.8C132.4,96.6,132.3,96.5,132.3,96.3z"/>
		<path class="st7" d="M132.3,96.3c-0.1-0.1-0.1-0.2-0.2-0.4l-3.1,0.3c0.1,0.4,0.3,0.8,0.5,1.2L132.3,96.3z"/>
		<path class="st6" d="M133.6,97.5l-1.9,2.3c0.3,0.2,0.7,0.4,1.1,0.6l1.2-2.8C133.8,97.6,133.7,97.6,133.6,97.5z"/>
		<path class="st7" d="M133.6,97.5c-0.1-0.1-0.2-0.1-0.4-0.2l-2.6,1.8c0.3,0.3,0.6,0.5,1,0.8L133.6,97.5z"/>
		<path class="st6" d="M135.4,97.9l-0.5,3c0.1,0,0.2,0,0.2,0c0.3,0,0.7,0,1-0.1l-0.4-3C135.6,97.8,135.5,97.8,135.4,97.9z"/>
		<path class="st7" d="M135.4,97.9c-0.1,0-0.2,0-0.3,0s-0.1,0-0.2,0l-1.3,2.8c0.4,0.1,0.8,0.2,1.2,0.2L135.4,97.9z"/>
		<path class="st6" d="M137.1,97.3l1.1,2.8c0.4-0.2,0.7-0.4,1-0.7l-1.8-2.4C137.3,97.1,137.2,97.2,137.1,97.3z"/>
		<path class="st7" d="M137.1,97.3c-0.1,0.1-0.2,0.1-0.4,0.2l0.3,3.1c0.4-0.1,0.8-0.3,1.2-0.5L137.1,97.3z"/>
		<path class="st6" d="M138.2,95.9l2.3,1.9c0.2-0.3,0.4-0.7,0.6-1.1l-2.8-1.2C138.3,95.7,138.3,95.8,138.2,95.9z"/>
		<path class="st7" d="M138.2,95.9c-0.1,0.1-0.1,0.2-0.2,0.4l1.8,2.6c0.3-0.3,0.5-0.6,0.8-1L138.2,95.9z"/>
		<path class="st6" d="M138.6,94.2l3,0.5c0-0.1,0-0.2,0-0.2c0-0.3,0-0.7-0.1-1l-3,0.4C138.5,93.9,138.6,94,138.6,94.2z"/>
		<path class="st7" d="M138.6,94.2c0,0.1,0,0.2,0,0.3c0,0.1,0,0.1,0,0.2l2.8,1.3c0.1-0.4,0.2-0.8,0.2-1.2L138.6,94.2z"/>
		<path class="st6" d="M138,92.5l2.8-1.1c-0.2-0.4-0.4-0.7-0.7-1l-2.4,1.8C137.8,92.3,137.9,92.4,138,92.5z"/>
		<path class="st7" d="M138,92.5c0.1,0.1,0.1,0.2,0.2,0.4l3.1-0.3c-0.1-0.4-0.3-0.8-0.5-1.2L138,92.5z"/>
		<path class="st6" d="M136.6,91.3l1.9-2.3c-0.3-0.2-0.7-0.4-1.1-0.6l-1.2,2.8C136.4,91.2,136.5,91.2,136.6,91.3z"/>
		<path class="st7" d="M136.6,91.3c0.1,0.1,0.2,0.1,0.4,0.2l2.6-1.8c-0.3-0.3-0.6-0.5-1-0.8L136.6,91.3z"/>
	</g>
	<g>
		<path class="st8" d="M95.2,78.2c0.2,0.2,0.5,0.3,0.8,0.3s0.6-0.1,0.8-0.3l8-8c0.1-0.1,0.2-0.3,0.3-0.5c-1.1,0.1-2.3,0.2-3.3,0.4
			l-6.5,6.5C94.8,77.1,94.8,77.8,95.2,78.2z"/>
		<path class="st8" d="M107.5,69.7c-0.5,0-1,0-1.5,0l-4.2,4.2c-0.3,0.3-0.3,0.7,0,1c0.1,0.1,0.3,0.2,0.5,0.2s0.4-0.1,0.5-0.2
			l4.6-4.6L107.5,69.7L107.5,69.7z"/>
		<path class="st8" d="M112.4,73.7c0.1,0.1,0.3,0.2,0.5,0.2s0.4-0.1,0.5-0.2l3.7-3.7c-0.6,0-1.2-0.1-1.8-0.1l-2.8,2.8
			C112.2,73,112.2,73.4,112.4,73.7z"/>
		<path class="st8" d="M114,76.3c0.2,0.1,0.4,0.2,0.6,0.2s0.4-0.1,0.6-0.3l5.5-5.9c-0.7-0.1-1.3-0.1-2.1-0.2l-4.7,5
			C113.7,75.4,113.7,76,114,76.3z"/>
	</g>
	<line class="st9" x1="73.3" y1="89.6" x2="123.8" y2="89.6"/>
	<line class="st10" x1="70.3" y1="83.6" x2="72.3" y2="83.6"/>
</g>
</svg>
