<svg version="1.1" id="Layer_1" xmlns="http://www.w3.org/2000/svg" xmlns:xlink="http://www.w3.org/1999/xlink" x="0.7" y="0px"
	 viewBox="0 0 180 180" style="enable-background:new 0 0 180 180;" xml:space="preserve">
<path class="st0" d="M88.4,82.5c-0.1,0.4-0.2,0.8-0.3,1c1.8,2.5,1.6,5.3,1.4,6.4c-0.1,0.4-0.1,0.6-0.1,0.6c-0.1,0.2,0,0.4,0.2,0.5
	c0.1,0,0.1,0.1,0.2,0.1c0,0,0,0,0,0c0.1,0,0.2,0,0.2-0.1c0,0,0,0,0.1,0c0,0,0.1-0.1,0.1-0.2c0,0,0,0,0,0
	C90.3,90.5,91.6,86.2,88.4,82.5z"/>
<path class="st1" d="M96.5,88.3l-13.6,2c-0.2,0-0.4,0.2-0.3,0.5L84,100c0,0.2,0.2,0.4,0.5,0.3l13.6-2c0.2,0,0.4-0.2,0.3-0.5L97,88.7
	C96.9,88.5,96.7,88.3,96.5,88.3z M90,91.4c-0.4,0.1-0.8-0.2-0.9-0.6c-0.1-0.4,0.2-0.8,0.6-0.9c0.4-0.1,0.8,0.2,0.9,0.6
	C90.7,90.9,90.4,91.3,90,91.4z"/>
<path class="st0" d="M90.1,90.9C90.1,90.9,90.1,90.9,90.1,90.9C90.1,90.9,90.1,90.9,90.1,90.9z"/>
<path class="st0" d="M89.7,91c0,0,0.1,0,0.1,0C89.8,91,89.7,91,89.7,91C89.7,91,89.7,91,89.7,91z"/>
<path class="st0" d="M89.8,91C89.8,91,89.8,91,89.8,91c0.1,0,0.2,0,0.2-0.1C90,91,89.9,91,89.8,91C89.8,91,89.8,91,89.8,91z"/>
<path class="st0" d="M90.2,90.8C90.2,90.8,90.2,90.8,90.2,90.8C90.2,90.8,90.2,90.9,90.2,90.8C90.1,90.9,90.2,90.9,90.2,90.8z"/>
<g>
	<path class="st0" d="M89.4,90.5C89.4,90.5,89.5,90.4,89.4,90.5c0-0.1,0.3-0.3,0.4-0.4c0-0.1-0.1-0.2-0.2-0.2c-2.1-1.6-6-5-4.8-6.8
		c0-0.1,0.1-0.1,0.1-0.2c0-0.2,0.1-0.3,0.1-0.5c0,0,0.1-0.2,0.2-0.6c-0.1,0-0.2-0.1-0.3-0.1c-0.3,0.2-0.6,0.5-0.9,0.9
		c-1.8,3,4.8,7.8,5.6,8.3c0,0,0,0,0,0C89.5,90.8,89.4,90.7,89.4,90.5z"/>
</g>
</svg>
