<svg version="1.1" id="Layer_1" xmlns="http://www.w3.org/2000/svg" xmlns:xlink="http://www.w3.org/1999/xlink" x="0px" y="0px"
	 viewBox="0 0 100 100" style="enable-background:new 0 0 100 100;" xml:space="preserve">
<g>
	<rect x="39" y="43.9" class="st0" width="23.7" height="32.3"/>
	<line class="st1" x1="51.5" y1="76.2" x2="51.5" y2="63.7"/>
	<polygon class="st2" points="50.2,64.5 62.5,65.3 60.5,61.9 51.1,61.9 	"/>
	<polygon class="st3" points="50.2,63.6 62.5,64.3 60.5,60.9 51.1,60.9 	"/>
	<polygon class="st4" points="35.2,76.2 35.2,43.9 34.9,25.5 39,43.9 39,76.2 	"/>
	<polygon class="st5" points="33.9,43.9 34.9,25.5 35.2,43.9 	"/>
	<g>
		<g>
			<path class="st5" d="M45.9,65.3c-0.2,0-0.4,0-0.6,0.1c1.3,0.3,2.3,1.4,2.3,2.8v5.6h1.2v-5.6C48.8,66.6,47.5,65.3,45.9,65.3z"/>
			<path class="st6" d="M45.4,65.4c-1.3,0.3-2.3,1.4-2.3,2.8v5.6h4.6v-5.6C47.7,66.8,46.7,65.6,45.4,65.4z"/>
		</g>
		<path class="st7" d="M45.4,65.4c-1.3,0.3-2.3,1.4-2.3,2.8v1.4h4.6v-1.4C47.7,66.8,46.7,65.6,45.4,65.4z"/>
		<g>
			<g>
				<path class="st8" d="M49,74.4h-6.1v-6.2c0-1.7,1.4-3.1,3.1-3.1s3.1,1.4,3.1,3.1V74.4z M43.3,73.6h5.4v-5.4
					c0-1.5-1.2-2.7-2.7-2.7c-1.5,0-2.7,1.2-2.7,2.7V73.6z"/>
			</g>
		</g>
		<g>
			<path class="st6" d="M46.7,67.5c-0.1,0.1-0.1,0.1-0.1,0.2c0,0.1,0,0.1,0.1,0.2l1,1v-0.7L47,67.5C46.9,67.4,46.8,67.4,46.7,67.5z"
				/>
			<path class="st6" d="M46.8,68.4c0,0-0.1,0.1-0.1,0.1c0,0,0,0.1,0.1,0.1l0.8,0.8V69l-0.6-0.6C47,68.4,46.9,68.4,46.8,68.4z"/>
		</g>
	</g>
	<g>
		<g>
			<path class="st5" d="M45.9,46.8c-0.2,0-0.4,0-0.6,0.1c1.3,0.3,2.3,1.4,2.3,2.8v5.6h1.2v-5.6C48.8,48.1,47.5,46.8,45.9,46.8z"/>
			<path class="st0" d="M45.4,46.9c-1.3,0.3-2.3,1.4-2.3,2.8v5.6h4.6v-5.6C47.7,48.3,46.7,47.2,45.4,46.9z"/>
		</g>
		<path class="st4" d="M45.4,46.9c-1.3,0.3-2.3,1.4-2.3,2.8v1.4h4.6v-1.4C47.7,48.3,46.7,47.2,45.4,46.9z"/>
		<g>
			<g>
				<path class="st8" d="M49,55.9h-6.1v-6.2c0-1.7,1.4-3.1,3.1-3.1S49,48,49,49.7V55.9z M43.3,55.1h5.4v-5.4c0-1.5-1.2-2.7-2.7-2.7
					c-1.5,0-2.7,1.2-2.7,2.7V55.1z"/>
			</g>
		</g>
		<g>
			<path class="st0" d="M46.7,49c-0.1,0.1-0.1,0.1-0.1,0.2c0,0.1,0,0.1,0.1,0.2l1,1v-0.7L47,49C46.9,48.9,46.8,48.9,46.7,49z"/>
			<path class="st0" d="M46.8,50c0,0-0.1,0.1-0.1,0.1s0,0.1,0.1,0.1l0.8,0.8v-0.5L47.1,50C47,49.9,46.9,49.9,46.8,50z"/>
		</g>
	</g>
	<g>
		<g>
			<path class="st5" d="M56.5,46.8c-0.2,0-0.4,0-0.6,0.1c1.3,0.3,2.3,1.4,2.3,2.8v5.6h1.2v-5.6C59.4,48.1,58.1,46.8,56.5,46.8z"/>
			<path class="st0" d="M56,46.9c-1.3,0.3-2.3,1.4-2.3,2.8v5.6h4.6v-5.6C58.3,48.3,57.3,47.2,56,46.9z"/>
		</g>
		<path class="st4" d="M56,46.9c-1.3,0.3-2.3,1.4-2.3,2.8v1.4h4.6v-1.4C58.3,48.3,57.3,47.2,56,46.9z"/>
		<g>
			<g>
				<path class="st8" d="M59.6,55.9h-6.1v-6.2c0-1.7,1.4-3.1,3.1-3.1c1.7,0,3.1,1.4,3.1,3.1V55.9z M53.9,55.1h5.4v-5.4
					c0-1.5-1.2-2.7-2.7-2.7c-1.5,0-2.7,1.2-2.7,2.7V55.1z"/>
			</g>
		</g>
		<g>
			<path class="st0" d="M57.3,49c-0.1,0.1-0.1,0.1-0.1,0.2c0,0.1,0,0.1,0.1,0.2l1,1v-0.7L57.6,49C57.5,48.9,57.4,48.9,57.3,49z"/>
			<path class="st0" d="M57.4,50c0,0-0.1,0.1-0.1,0.1s0,0.1,0.1,0.1l0.8,0.8v-0.5L57.7,50C57.6,49.9,57.5,49.9,57.4,50z"/>
		</g>
	</g>
	<g>
		<g>
			<path class="st9" d="M56.3,65.4c-0.2,0-0.5,0-0.7,0.1c1.6,0.3,2.7,1.7,2.7,3.4v6.7h1.4v-6.7C59.7,66.9,58.2,65.4,56.3,65.4z"/>
			<path class="st10" d="M55.6,65.4c-1.6,0.3-2.7,1.7-2.7,3.4v6.7h5.5v-6.7C58.4,67.1,57.2,65.7,55.6,65.4z"/>
		</g>
		<g>
			<g>
				<path class="st8" d="M60,76.2h-7.3v-7.4c0-2,1.6-3.7,3.7-3.7c2,0,3.7,1.6,3.7,3.7V76.2z M53.1,75.2h6.4v-6.5
					c0-1.8-1.4-3.2-3.2-3.2s-3.2,1.4-3.2,3.2V75.2z"/>
			</g>
		</g>
		<g>
			<g>
				<polygon class="st9" points="54.2,67.5 54.2,68.5 53.5,68.5 53.2,68.8 54.5,68.8 54.5,67.2 				"/>
			</g>
			<g>
				<polygon class="st9" points="55.8,67.5 55.8,68.5 55.2,68.5 54.9,68.8 56.1,68.8 56.1,67.2 				"/>
			</g>
			<g>
				<polygon class="st9" points="54.2,69.5 54.2,70.5 53.5,70.5 53.2,70.8 54.5,70.8 54.5,69.2 				"/>
			</g>
			<g>
				<polygon class="st9" points="55.8,69.5 55.8,70.5 55.2,70.5 54.9,70.8 56.1,70.8 56.1,69.2 				"/>
			</g>
			<g>
				<polygon class="st9" points="54.2,71.5 54.2,72.6 53.5,72.6 53.2,72.8 54.5,72.8 54.5,71.3 				"/>
			</g>
			<g>
				<polygon class="st9" points="55.8,71.5 55.8,72.6 55.2,72.6 54.9,72.8 56.1,72.8 56.1,71.3 				"/>
			</g>
			<g>
				<polygon class="st9" points="54.2,73.6 54.2,74.6 53.5,74.6 53.2,74.9 54.5,74.9 54.5,73.3 				"/>
			</g>
			<g>
				<polygon class="st9" points="55.8,73.6 55.8,74.6 55.2,74.6 54.9,74.9 56.1,74.9 56.1,73.3 				"/>
			</g>
			<g>
				<polygon class="st9" points="57.5,67.5 57.5,68.5 56.8,68.5 56.5,68.8 57.8,68.8 57.8,67.2 				"/>
			</g>
			<g>
				<polygon class="st9" points="57.5,69.5 57.5,70.5 56.8,70.5 56.5,70.8 57.8,70.8 57.8,69.2 				"/>
			</g>
			<g>
				<polygon class="st9" points="57.5,71.5 57.5,72.6 56.8,72.6 56.5,72.8 57.8,72.8 57.8,71.3 				"/>
			</g>
			<g>
				<polygon class="st9" points="57.5,73.6 57.5,74.6 56.8,74.6 56.5,74.9 57.8,74.9 57.8,73.3 				"/>
			</g>
		</g>
		<circle class="st6" cx="57.8" cy="71" r="0.6"/>
	</g>
	
		<rect x="50.8" y="50.1" transform="matrix(0.9516 -0.3072 0.3072 0.9516 -12.8293 19.8426)" class="st2" width="11.7" height="1.1"/>
	<rect x="51" y="51.2" transform="matrix(0.9516 -0.3072 0.3072 0.9516 -13.0145 19.9363)" class="st3" width="11.7" height="0.3"/>
	
		<rect x="50.8" y="51.4" transform="matrix(0.8491 0.5283 -0.5283 0.8491 36.0126 -22.1071)" class="st2" width="11.7" height="1.1"/>
	
		<rect x="50.5" y="52.4" transform="matrix(0.8491 0.5283 -0.5283 0.8491 36.2587 -21.8354)" class="st3" width="11.7" height="0.3"/>
	<polygon class="st3" points="37.6,40.6 38.1,43.1 64.2,41.7 63.8,39.2 	"/>
	<polygon class="st2" points="37.2,38.1 37.6,40.6 63.8,39.2 63.3,36.7 	"/>
	<polygon class="st3" points="36.7,35.6 37.2,38.1 63.3,36.7 62.9,34.2 	"/>
	<polygon class="st2" points="36.3,33.1 36.7,35.6 62.9,34.2 62.4,31.7 	"/>
	<polygon class="st3" points="35.8,30.5 36.3,33.1 62.4,31.7 61.9,29.2 	"/>
	<polygon class="st2" points="35.4,28 35.8,30.5 61.9,29.2 61.5,26.7 	"/>
	<polygon class="st3" points="34.9,25.5 35.4,28 61.5,26.7 61,24.2 	"/>
	<polygon class="st5" points="40.5,45 41.4,48.2 39.6,50.9 41.4,55.4 39.8,55.6 39.9,57.5 42.6,61.7 40.2,57.5 40,55.8 41.6,55.5 
		39.8,51 41.8,48.1 40.9,45.1 	"/>
	<polygon class="st2" points="38.1,43.1 38.6,45.6 64.7,44.2 64.2,41.7 	"/>
	<polygon points="54.1,37.2 53.6,34.7 55.5,34.6 56,37.1 	"/>
	<polygon points="39.7,32.9 39.2,30.4 41.1,30.3 41.6,32.8 	"/>
</g>
</svg>
