<svg version="1.1" id="Layer_1" xmlns="http://www.w3.org/2000/svg" xmlns:xlink="http://www.w3.org/1999/xlink" x="0px" y="0px"
	 viewBox="0 0 100 100" style="enable-background:new 0 0 100 100;" xml:space="preserve">
<svg y="6">
	<path class="st0" d="M63.5,76.2V4.1c0-1.7-1.4-3.1-3.1-3.1h-22c-1.7,0-3.1,1.4-3.1,3.1v72.2H63.5z"/>
	<path class="st1" d="M35.2,76.2V4.1c0-1.7,1.4-3.1,3.1-3.1l0,0c1.7,0,3.1,1.4,3.1,3.1v72.2H35.2z"/>
	<rect x="44.3" y="8.7" class="st2" width="17.2" height="14.1"/>
	<rect x="45" y="9.5" class="st3" width="15.6" height="13.3"/>
	<rect x="45" y="9.5" class="st4" width="10.1" height="13.3"/>
	<g>
		<polygon class="st5" points="71.7,6.6 43.7,6.6 43.7,8.7 69.6,8.7 		"/>
	</g>
	<line class="st6" x1="44.5" y1="23" x2="68.5" y2="23"/>
	<line class="st7" x1="63.6" y1="23.1" x2="63.6" y2="17.8"/>
	<circle class="st5" cx="63.6" cy="17.8" r="0.9"/>
	<line class="st7" x1="68.3" y1="23.1" x2="68.3" y2="17.8"/>
	<circle class="st5" cx="68.3" cy="17.8" r="0.9"/>
	<line class="st7" x1="57.3" y1="23.1" x2="57.3" y2="17.8"/>
	<circle class="st5" cx="57.3" cy="17.8" r="0.9"/>
	<line class="st7" x1="49.4" y1="23.1" x2="49.4" y2="17.8"/>
	<circle class="st5" cx="49.4" cy="17.8" r="0.9"/>
	<line class="st7" x1="44.6" y1="23.1" x2="44.6" y2="17.8"/>
	<circle class="st5" cx="44.6" cy="17.8" r="0.9"/>
	<g>
		<path class="st3" d="M48.5,12.4c0.2,0.2,0.4,0.2,0.6,0.2c0.2,0,0.4-0.1,0.6-0.2l3-3h-2.2l-1.9,1.9C48.2,11.6,48.2,12.1,48.5,12.4z
			"/>
		<path class="st3" d="M51.3,12c0.1,0.1,0.3,0.2,0.4,0.2c0.1,0,0.3-0.1,0.4-0.2l2.5-2.5H53l-1.7,1.7C51.1,11.4,51.1,11.7,51.3,12z"
			/>
		<path class="st3" d="M50.5,12.2L48.8,14c-0.1,0.1-0.1,0.4,0,0.5c0.1,0.1,0.2,0.1,0.3,0.1c0.1,0,0.2,0,0.3-0.1l1.8-1.8
			c0.1-0.1,0.1-0.4,0-0.5C50.9,12.1,50.7,12.1,50.5,12.2z"/>
	</g>
	<g>
		<path class="st4" d="M57.9,18.8c-0.2,0.2-0.2,0.6,0,0.8c0.1,0.1,0.3,0.2,0.4,0.2c0.1,0,0.3-0.1,0.4-0.2l2-2V16c0,0,0,0,0,0
			L57.9,18.8z"/>
		<path class="st4" d="M59.9,18.7c-0.2,0.2-0.2,0.4,0,0.6c0.1,0.1,0.2,0.1,0.3,0.1c0.1,0,0.2,0,0.3-0.1l0.2-0.2v-1.1L59.9,18.7z"/>
		<path class="st4" d="M59.4,19.4l-1.3,1.3c-0.1,0.1-0.1,0.3,0,0.4c0.1,0.1,0.1,0.1,0.2,0.1s0.1,0,0.2-0.1l1.3-1.3
			c0.1-0.1,0.1-0.3,0-0.4C59.6,19.3,59.5,19.3,59.4,19.4z"/>
	</g>
	<line class="st7" x1="68.3" y1="17.8" x2="44.6" y2="17.8"/>
	<g>
		<g>
			<g>
				<path class="st3" d="M43.7,30.2c0,1.2,1,2.1,2.1,2.1c1.2,0,2.1-1,2.1-2.1v-0.7h-4.3V30.2z"/>
				<path class="st4" d="M45.8,25.4c-1.2,0-2.1,1-2.1,2.1v2H48v-2C48,26.4,47,25.4,45.8,25.4z"/>
			</g>
			<path class="st5" d="M45.8,25.4c-0.2,0-0.4,0-0.6,0.1c0.9,0.3,1.6,1.1,1.6,2.1v2.7c0,1-0.7,1.8-1.6,2.1c0.2,0.1,0.4,0.1,0.6,0.1
				c1.2,0,2.1-1,2.1-2.1v-2.7C48,26.4,47,25.4,45.8,25.4z"/>
		</g>
		<g>
			<g>
				<path class="st0" d="M43.7,40c0,1.2,1,2.1,2.1,2.1c1.2,0,2.1-1,2.1-2.1v-0.7h-4.3V40z"/>
				<path class="st1" d="M45.8,35.2c-1.2,0-2.1,1-2.1,2.1v2H48v-2C48,36.2,47,35.2,45.8,35.2z"/>
			</g>
			<path class="st5" d="M45.8,35.2c-0.2,0-0.4,0-0.6,0.1c0.9,0.3,1.6,1.1,1.6,2.1V40c0,1-0.7,1.8-1.6,2.1c0.2,0.1,0.4,0.1,0.6,0.1
				c1.2,0,2.1-1,2.1-2.1v-2.7C48,36.2,47,35.2,45.8,35.2z"/>
		</g>
		<g>
			<g>
				<path class="st3" d="M43.7,49.8c0,1.2,1,2.1,2.1,2.1c1.2,0,2.1-1,2.1-2.1v-0.7h-4.3V49.8z"/>
				<path class="st4" d="M45.8,45c-1.2,0-2.1,1-2.1,2.1v2H48v-2C48,46,47,45,45.8,45z"/>
			</g>
			<path class="st5" d="M45.8,45c-0.2,0-0.4,0-0.6,0.1c0.9,0.3,1.6,1.1,1.6,2.1v2.7c0,1-0.7,1.8-1.6,2.1c0.2,0.1,0.4,0.1,0.6,0.1
				c1.2,0,2.1-1,2.1-2.1v-2.7C48,46,47,45,45.8,45z"/>
		</g>
		<g>
			<g>
				<path class="st3" d="M43.7,59.6c0,1.2,1,2.1,2.1,2.1c1.2,0,2.1-1,2.1-2.1v-0.7h-4.3V59.6z"/>
				<path class="st4" d="M45.8,54.8c-1.2,0-2.1,1-2.1,2.1v2H48v-2C48,55.8,47,54.8,45.8,54.8z"/>
			</g>
			<path class="st5" d="M45.8,54.8c-0.2,0-0.4,0-0.6,0.1c0.9,0.3,1.6,1.1,1.6,2.1v2.7c0,1-0.7,1.8-1.6,2.1c0.2,0.1,0.4,0.1,0.6,0.1
				c1.2,0,2.1-1,2.1-2.1V57C48,55.8,47,54.8,45.8,54.8z"/>
		</g>
	</g>
	<g>
		<g>
			<g>
				<path class="st0" d="M50.7,30.2c0,1.2,1,2.1,2.1,2.1c1.2,0,2.1-1,2.1-2.1v-0.7h-4.3V30.2z"/>
				<path class="st1" d="M52.8,25.4c-1.2,0-2.1,1-2.1,2.1v2H55v-2C55,26.4,54,25.4,52.8,25.4z"/>
			</g>
			<path class="st5" d="M52.8,25.4c-0.2,0-0.4,0-0.6,0.1c0.9,0.3,1.6,1.1,1.6,2.1v2.7c0,1-0.7,1.8-1.6,2.1c0.2,0.1,0.4,0.1,0.6,0.1
				c1.2,0,2.1-1,2.1-2.1v-2.7C55,26.4,54,25.4,52.8,25.4z"/>
		</g>
		<g>
			<g>
				<path class="st3" d="M50.7,40c0,1.2,1,2.1,2.1,2.1c1.2,0,2.1-1,2.1-2.1v-0.7h-4.3V40z"/>
				<path class="st4" d="M52.8,35.2c-1.2,0-2.1,1-2.1,2.1v2H55v-2C55,36.2,54,35.2,52.8,35.2z"/>
			</g>
			<path class="st5" d="M52.8,35.2c-0.2,0-0.4,0-0.6,0.1c0.9,0.3,1.6,1.1,1.6,2.1V40c0,1-0.7,1.8-1.6,2.1c0.2,0.1,0.4,0.1,0.6,0.1
				c1.2,0,2.1-1,2.1-2.1v-2.7C55,36.2,54,35.2,52.8,35.2z"/>
		</g>
		<g>
			<g>
				<path class="st3" d="M50.7,49.8c0,1.2,1,2.1,2.1,2.1c1.2,0,2.1-1,2.1-2.1v-0.7h-4.3V49.8z"/>
				<path class="st4" d="M52.8,45c-1.2,0-2.1,1-2.1,2.1v2H55v-2C55,46,54,45,52.8,45z"/>
			</g>
			<path class="st5" d="M52.8,45c-0.2,0-0.4,0-0.6,0.1c0.9,0.3,1.6,1.1,1.6,2.1v2.7c0,1-0.7,1.8-1.6,2.1c0.2,0.1,0.4,0.1,0.6,0.1
				c1.2,0,2.1-1,2.1-2.1v-2.7C55,46,54,45,52.8,45z"/>
		</g>
		<g>
			<g>
				<path class="st0" d="M50.7,59.6c0,1.2,1,2.1,2.1,2.1c1.2,0,2.1-1,2.1-2.1v-0.7h-4.3V59.6z"/>
				<path class="st1" d="M52.8,54.8c-1.2,0-2.1,1-2.1,2.1v2H55v-2C55,55.8,54,54.8,52.8,54.8z"/>
			</g>
			<path class="st5" d="M52.8,54.8c-0.2,0-0.4,0-0.6,0.1c0.9,0.3,1.6,1.1,1.6,2.1v2.7c0,1-0.7,1.8-1.6,2.1c0.2,0.1,0.4,0.1,0.6,0.1
				c1.2,0,2.1-1,2.1-2.1V57C55,55.8,54,54.8,52.8,54.8z"/>
		</g>
	</g>
	<g>
		<g>
			<g>
				<path class="st3" d="M57.7,30.2c0,1.2,1,2.1,2.1,2.1c1.2,0,2.1-1,2.1-2.1v-0.7h-4.3V30.2z"/>
				<path class="st4" d="M59.8,25.4c-1.2,0-2.1,1-2.1,2.1v2H62v-2C62,26.4,61,25.4,59.8,25.4z"/>
			</g>
			<path class="st5" d="M59.8,25.4c-0.2,0-0.4,0-0.6,0.1c0.9,0.3,1.6,1.1,1.6,2.1v2.7c0,1-0.7,1.8-1.6,2.1c0.2,0.1,0.4,0.1,0.6,0.1
				c1.2,0,2.1-1,2.1-2.1v-2.7C62,26.4,61,25.4,59.8,25.4z"/>
		</g>
		<g>
			<g>
				<path class="st0" d="M57.7,40c0,1.2,1,2.1,2.1,2.1c1.2,0,2.1-1,2.1-2.1v-0.7h-4.3V40z"/>
				<path class="st1" d="M59.8,35.2c-1.2,0-2.1,1-2.1,2.1v2H62v-2C62,36.2,61,35.2,59.8,35.2z"/>
			</g>
			<path class="st5" d="M59.8,35.2c-0.2,0-0.4,0-0.6,0.1c0.9,0.3,1.6,1.1,1.6,2.1V40c0,1-0.7,1.8-1.6,2.1c0.2,0.1,0.4,0.1,0.6,0.1
				c1.2,0,2.1-1,2.1-2.1v-2.7C62,36.2,61,35.2,59.8,35.2z"/>
		</g>
		<g>
			<g>
				<path class="st0" d="M57.7,49.8c0,1.2,1,2.1,2.1,2.1c1.2,0,2.1-1,2.1-2.1v-0.7h-4.3V49.8z"/>
				<path class="st1" d="M59.8,45c-1.2,0-2.1,1-2.1,2.1v2H62v-2C62,46,61,45,59.8,45z"/>
			</g>
			<path class="st5" d="M59.8,45c-0.2,0-0.4,0-0.6,0.1c0.9,0.3,1.6,1.1,1.6,2.1v2.7c0,1-0.7,1.8-1.6,2.1c0.2,0.1,0.4,0.1,0.6,0.1
				c1.2,0,2.1-1,2.1-2.1v-2.7C62,46,61,45,59.8,45z"/>
		</g>
		<g>
			<g>
				<path class="st3" d="M57.7,59.6c0,1.2,1,2.1,2.1,2.1c1.2,0,2.1-1,2.1-2.1v-0.7h-4.3V59.6z"/>
				<path class="st4" d="M59.8,54.8c-1.2,0-2.1,1-2.1,2.1v2H62v-2C62,55.8,61,54.8,59.8,54.8z"/>
			</g>
			<path class="st5" d="M59.8,54.8c-0.2,0-0.4,0-0.6,0.1c0.9,0.3,1.6,1.1,1.6,2.1v2.7c0,1-0.7,1.8-1.6,2.1c0.2,0.1,0.4,0.1,0.6,0.1
				c1.2,0,2.1-1,2.1-2.1V57C62,55.8,61,54.8,59.8,54.8z"/>
		</g>
	</g>
	<g>
		<polygon class="st5" points="46.3,67.1 59.7,67.1 58.1,65 47.1,65 		"/>
	</g>
	<g>
		<path class="st3" d="M47.4,76.2v-6.1c0-1.1,0.9-2,2-2h4.8c1.1,0,2,0.9,2,2v6.1H47.4z"/>
		<g>
			<path class="st5" d="M55.9,68.1h-1.6c1.1,0,2,0.9,2,2v6.1h1.6v-6.1C57.9,69,57,68.1,55.9,68.1z"/>
		</g>
		<path class="st4" d="M49.5,68.1c-1.1,0-2,0.9-2,2v6.1h2.8v-8.2H49.5z"/>
		<path class="st4" d="M56.3,70.1c0-1.1-0.9-2-2-2h-0.6v8.2h2.6V70.1z"/>
		<rect x="47.4" y="75.6" class="st8" width="11.2" height="0.6"/>
	</g>
	<g>
		<path class="st3" d="M48.8,72.9c0.1-0.1,0.1-0.2,0.1-0.3c0-0.1,0-0.2-0.1-0.3L47.4,71v1l0.9,0.9C48.5,73.1,48.7,73.1,48.8,72.9z"
			/>
		<path class="st3" d="M48.6,71.6c0.1-0.1,0.1-0.1,0.1-0.2c0-0.1,0-0.1-0.1-0.2l-1.2-1.2v0.7l0.8,0.8C48.3,71.7,48.5,71.7,48.6,71.6
			z"/>
		<path class="st3" d="M48.8,72l0.8,0.8c0.1,0.1,0.2,0.1,0.2,0c0,0,0-0.1,0-0.1c0,0,0-0.1,0-0.1L49,71.8c-0.1-0.1-0.2-0.1-0.2,0
			C48.7,71.8,48.7,71.9,48.8,72z"/>
	</g>
	<g>
		<path class="st3" d="M54.9,72.6c-0.1,0.1-0.1,0.2-0.1,0.3c0,0.1,0,0.2,0.1,0.3l1.4,1.4v-1l-0.9-0.9C55.3,72.4,55.1,72.4,54.9,72.6
			z"/>
		<path class="st3" d="M55.2,73.9c-0.1,0.1-0.1,0.1-0.1,0.2c0,0.1,0,0.1,0.1,0.2l1.2,1.2v-0.7l-0.8-0.8
			C55.4,73.8,55.3,73.8,55.2,73.9z"/>
		<path class="st3" d="M55,73.5l-0.8-0.8c-0.1-0.1-0.2-0.1-0.2,0c0,0,0,0.1,0,0.1c0,0,0,0.1,0,0.1l0.8,0.8c0.1,0.1,0.2,0.1,0.2,0
			C55.1,73.7,55.1,73.6,55,73.5z"/>
	</g>
</svg>
</svg>
