<svg version="1.1" id="Layer_1" xmlns="http://www.w3.org/2000/svg" xmlns:xlink="http://www.w3.org/1999/xlink" x="0px" y="0px"
	 viewBox="0 0 180 180" style="enable-background:new 0 0 180 180;" xml:space="preserve">
<g>
	<g>
		<path class="st0" d="M121.5,66.9h1.2c0.5,0,0.9-0.4,0.9-0.9s-0.4-0.9-0.9-0.9h-2.8c-0.5,0-0.9,0.4-0.9,0.9c0,0.2,0.1,0.4,0.2,0.6
			h-4.4c-0.8,0-1.4,0.6-1.4,1.4s0.6,1.4,1.4,1.4h5.8c0.8,0,1.4-0.6,1.4-1.4C122.1,67.6,121.8,67.2,121.5,66.9z"/>
		<path class="st0" d="M130.1,74.8h-1.4c0-0.1,0-0.1,0-0.2c0-0.5-0.4-1-1-1h-4.5c-0.5,0-1,0.4-1,1s0.4,1,1,1h2.7c0,0.1,0,0.1,0,0.2
			c0,0.5,0.4,1,1,1h3.2c0.5,0,1-0.4,1-1S130.6,74.8,130.1,74.8z"/>
	</g>
	<g>
		<path class="st0" d="M116.9,64.9h-1.1c-0.5,0-0.9-0.4-0.9-0.9s0.4-0.9,0.9-0.9h1.1c0.5,0,0.9,0.4,0.9,0.9S117.3,64.9,116.9,64.9z"
			/>
	</g>
	<g>
		<path class="st1" d="M169,81.1h-4.4v-4.4h-13.4V73h-9v6.6h-2.8V77h-5.7v8.1h-5.5v7.2H122V86l-1.4-1.4h-5.9v-11l-1.8-1.8h-6.1v28.9
			h-5.5c-1-2.1-2.7-6.3-2.7-9.6c0-4.4,1.2-6.1,1.2-7.2c0-1.3-2.6-2.3-5.8-2.3c-0.5,0-1.1,0-1.6,0.1c0.5-2.7,1.2-4,1.2-5.1
			c0-1.8-3.5-3.1-7.7-3.1c-4.2,0-7.7,1.3-7.7,3.1c0,1.5,1.5,3.7,1.5,9.6c0,5.9-4.4,14.5-4.4,14.5H46.8V91v-6.6L37.4,91v-6.6L28,91
			v-6.6L9.8,97.1v7.3H169V81.1z"/>
	</g>
	<g>
		<g>
			<polygon class="st2" points="130.8,78.1 127,78.1 125.9,103.3 131.7,103.3 			"/>
			<polygon class="st3" points="121.3,68.6 117.5,68.6 116,103.3 122.5,103.3 			"/>
		</g>
		<g>
			<path class="st4" d="M118.7,74.7C118.7,74.7,118.7,74.7,118.7,74.7c-0.2,0-0.4-0.2-0.4-0.4l0.1-2.7c0-0.2,0.2-0.4,0.4-0.4
				c0.2,0,0.4,0.2,0.4,0.4l-0.1,2.7C119,74.5,118.9,74.7,118.7,74.7z"/>
		</g>
		<g>
			<path class="st4" d="M118,90.4C118,90.4,118,90.4,118,90.4c-0.2,0-0.4-0.2-0.4-0.4l0.6-13.3c0-0.2,0.2-0.4,0.4-0.4
				c0.2,0,0.4,0.2,0.4,0.4l-0.6,13.3C118.4,90.3,118.2,90.4,118,90.4z"/>
		</g>
		<g>
			<path class="st3" d="M128.1,85.1C128.1,85.1,128.1,85.1,128.1,85.1c-0.2,0-0.4-0.2-0.4-0.4l0.1-3.3c0-0.2,0.2-0.4,0.4-0.4
				c0.2,0,0.4,0.2,0.4,0.4l-0.1,3.3C128.5,84.9,128.3,85.1,128.1,85.1z"/>
		</g>
		<g>
			<path class="st3" d="M127.6,97.2C127.6,97.2,127.6,97.2,127.6,97.2c-0.2,0-0.4-0.2-0.4-0.4l0.4-10.1c0-0.2,0.2-0.4,0.4-0.4
				c0.2,0,0.4,0.2,0.4,0.4L128,96.9C128,97.1,127.8,97.2,127.6,97.2z"/>
		</g>
	</g>
	<g>
		<g>
			<polygon class="st5" points="130.2,90.2 140.4,90.2 140.4,83.1 			"/>
		</g>
		<g>
			<polygon class="st6" points="146.1,90.2 140.4,90.2 140.4,83.1 			"/>
		</g>
		<rect x="130.2" y="90.2" class="st7" width="10.2" height="13.1"/>
		<rect x="140.4" y="90.2" class="st8" width="5.7" height="13.1"/>
	</g>
	<g>
		<g>
			<polygon class="st5" points="141.6,90.2 151.9,90.2 151.9,83.1 			"/>
		</g>
		<g>
			<polygon class="st6" points="157.6,90.2 151.9,90.2 151.9,83.1 			"/>
		</g>
		<rect x="141.6" y="90.2" class="st7" width="10.2" height="13.1"/>
		<rect x="151.9" y="90.2" class="st8" width="5.7" height="13.1"/>
	</g>
	<g>
		<g>
			<polygon class="st5" points="153,90.2 163.3,90.2 163.3,83.1 			"/>
		</g>
		<g>
			<polygon class="st6" points="169,90.2 163.3,90.2 163.3,83.1 			"/>
		</g>
		<rect x="153" y="90.2" class="st7" width="10.2" height="13.1"/>
		<rect x="163.3" y="90.2" class="st8" width="5.7" height="13.1"/>
	</g>
	<g>
		<rect x="92.7" y="98.3" class="st9" width="1.1" height="5.6"/>
		<rect x="106.3" y="98.3" class="st9" width="1.1" height="5.6"/>
		<rect x="90.1" y="90.8" class="st6" width="20.1" height="9"/>
		<g>
			<path class="st10" d="M90.9,99h18.4v-7.4H90.9V99z"/>
		</g>
	</g>
	<g>
		<g>
			<path class="st11" d="M132,91c0.6,0,1,0.5,1,1v2.7h-2V92C131,91.5,131.5,91,132,91z"/>
		</g>
		<path class="st12" d="M131,94.7V92c0-0.6,0.5-1,1-1c0.1,0,0.2,0,0.3,0c-0.4,0.1-0.7,0.5-0.7,1v2.7H131z"/>
	</g>
	<g>
		<g>
			<path class="st8" d="M135.3,91c0.6,0,1,0.5,1,1v2.7h-2V92C134.3,91.5,134.7,91,135.3,91z"/>
		</g>
		<path class="st12" d="M134.3,94.7V92c0-0.6,0.5-1,1-1c0.1,0,0.2,0,0.3,0c-0.4,0.1-0.7,0.5-0.7,1v2.7H134.3z"/>
	</g>
	<g>
		<g>
			<path class="st11" d="M138.6,91c0.6,0,1,0.5,1,1v2.7h-2V92C137.6,91.5,138,91,138.6,91z"/>
		</g>
		<path class="st12" d="M137.6,94.7V92c0-0.6,0.5-1,1-1c0.1,0,0.2,0,0.3,0c-0.4,0.1-0.7,0.5-0.7,1v2.7H137.6z"/>
	</g>
	<g>
		<g>
			<path class="st8" d="M132,95.4c0.6,0,1,0.5,1,1V99h-2v-2.7C131,95.8,131.5,95.4,132,95.4z"/>
		</g>
		<path class="st12" d="M131,99v-2.7c0-0.6,0.5-1,1-1c0.1,0,0.2,0,0.3,0c-0.4,0.1-0.7,0.5-0.7,1V99H131z"/>
	</g>
	<g>
		<g>
			<path class="st11" d="M135.3,95.4c0.6,0,1,0.5,1,1V99h-2v-2.7C134.3,95.8,134.7,95.4,135.3,95.4z"/>
		</g>
		<path class="st12" d="M134.3,99v-2.7c0-0.6,0.5-1,1-1c0.1,0,0.2,0,0.3,0c-0.4,0.1-0.7,0.5-0.7,1V99H134.3z"/>
	</g>
	<g>
		<g>
			<path class="st8" d="M138.6,95.4c0.6,0,1,0.5,1,1V99h-2v-2.7C137.6,95.8,138,95.4,138.6,95.4z"/>
		</g>
		<path class="st12" d="M137.6,99v-2.7c0-0.6,0.5-1,1-1c0.1,0,0.2,0,0.3,0c-0.4,0.1-0.7,0.5-0.7,1V99H137.6z"/>
	</g>
	<g>
		<g>
			<path class="st8" d="M132,99.8c0.6,0,1,0.5,1,1v2.7h-2v-2.7C131,100.2,131.5,99.8,132,99.8z"/>
		</g>
		<path class="st12" d="M131,103.4v-2.7c0-0.6,0.5-1,1-1c0.1,0,0.2,0,0.3,0c-0.4,0.1-0.7,0.5-0.7,1v2.7H131z"/>
	</g>
	<g>
		<g>
			<path class="st11" d="M135.3,99.8c0.6,0,1,0.5,1,1v2.7h-2v-2.7C134.3,100.2,134.7,99.8,135.3,99.8z"/>
		</g>
		<path class="st12" d="M134.3,103.4v-2.7c0-0.6,0.5-1,1-1c0.1,0,0.2,0,0.3,0c-0.4,0.1-0.7,0.5-0.7,1v2.7H134.3z"/>
	</g>
	<g>
		<g>
			<path class="st8" d="M138.6,99.8c0.6,0,1,0.5,1,1v2.7h-2v-2.7C137.6,100.2,138,99.8,138.6,99.8z"/>
		</g>
		<path class="st12" d="M137.6,103.4v-2.7c0-0.6,0.5-1,1-1c0.1,0,0.2,0,0.3,0c-0.4,0.1-0.7,0.5-0.7,1v2.7H137.6z"/>
	</g>
	<g>
		<g>
			<path class="st8" d="M143.5,91c0.6,0,1,0.5,1,1v2.7h-2V92C142.5,91.5,142.9,91,143.5,91z"/>
		</g>
		<path class="st12" d="M142.5,94.7V92c0-0.6,0.5-1,1-1c0.1,0,0.2,0,0.3,0c-0.4,0.1-0.7,0.5-0.7,1v2.7H142.5z"/>
	</g>
	<g>
		<g>
			<path class="st8" d="M146.7,91c0.6,0,1,0.5,1,1v2.7h-2V92C145.7,91.5,146.2,91,146.7,91z"/>
		</g>
		<path class="st12" d="M145.7,94.7V92c0-0.6,0.5-1,1-1c0.1,0,0.2,0,0.3,0c-0.4,0.1-0.7,0.5-0.7,1v2.7H145.7z"/>
	</g>
	<g>
		<g>
			<path class="st11" d="M150,91c0.6,0,1,0.5,1,1v2.7h-2V92C149,91.5,149.4,91,150,91z"/>
		</g>
		<path class="st12" d="M149,94.7V92c0-0.6,0.5-1,1-1c0.1,0,0.2,0,0.3,0c-0.4,0.1-0.7,0.5-0.7,1v2.7H149z"/>
	</g>
	<g>
		<g>
			<path class="st8" d="M143.5,95.4c0.6,0,1,0.5,1,1V99h-2v-2.7C142.5,95.8,142.9,95.4,143.5,95.4z"/>
		</g>
		<path class="st12" d="M142.5,99v-2.7c0-0.6,0.5-1,1-1c0.1,0,0.2,0,0.3,0c-0.4,0.1-0.7,0.5-0.7,1V99H142.5z"/>
	</g>
	<g>
		<g>
			<path class="st11" d="M146.7,95.4c0.6,0,1,0.5,1,1V99h-2v-2.7C145.7,95.8,146.2,95.4,146.7,95.4z"/>
		</g>
		<path class="st12" d="M145.7,99v-2.7c0-0.6,0.5-1,1-1c0.1,0,0.2,0,0.3,0c-0.4,0.1-0.7,0.5-0.7,1V99H145.7z"/>
	</g>
	<g>
		<g>
			<path class="st8" d="M150,95.4c0.6,0,1,0.5,1,1V99h-2v-2.7C149,95.8,149.4,95.4,150,95.4z"/>
		</g>
		<path class="st12" d="M149,99v-2.7c0-0.6,0.5-1,1-1c0.1,0,0.2,0,0.3,0c-0.4,0.1-0.7,0.5-0.7,1V99H149z"/>
	</g>
	<g>
		<g>
			<path class="st11" d="M143.5,99.8c0.6,0,1,0.5,1,1v2.7h-2v-2.7C142.5,100.2,142.9,99.8,143.5,99.8z"/>
		</g>
		<path class="st12" d="M142.5,103.4v-2.7c0-0.6,0.5-1,1-1c0.1,0,0.2,0,0.3,0c-0.4,0.1-0.7,0.5-0.7,1v2.7H142.5z"/>
	</g>
	<g>
		<g>
			<path class="st8" d="M146.7,99.8c0.6,0,1,0.5,1,1v2.7h-2v-2.7C145.7,100.2,146.2,99.8,146.7,99.8z"/>
		</g>
		<path class="st12" d="M145.7,103.4v-2.7c0-0.6,0.5-1,1-1c0.1,0,0.2,0,0.3,0c-0.4,0.1-0.7,0.5-0.7,1v2.7H145.7z"/>
	</g>
	<g>
		<g>
			<path class="st8" d="M150,99.8c0.6,0,1,0.5,1,1v2.7h-2v-2.7C149,100.2,149.4,99.8,150,99.8z"/>
		</g>
		<path class="st12" d="M149,103.4v-2.7c0-0.6,0.5-1,1-1c0.1,0,0.2,0,0.3,0c-0.4,0.1-0.7,0.5-0.7,1v2.7H149z"/>
	</g>
	<g>
		<g>
			<path class="st8" d="M154.9,91c0.6,0,1,0.5,1,1v2.7h-2V92C153.9,91.5,154.3,91,154.9,91z"/>
		</g>
		<path class="st12" d="M153.9,94.7V92c0-0.6,0.5-1,1-1c0.1,0,0.2,0,0.3,0c-0.4,0.1-0.7,0.5-0.7,1v2.7H153.9z"/>
	</g>
	<g>
		<g>
			<path class="st11" d="M158.2,91c0.6,0,1,0.5,1,1v2.7h-2V92C157.2,91.5,157.6,91,158.2,91z"/>
		</g>
		<path class="st12" d="M157.2,94.7V92c0-0.6,0.5-1,1-1c0.1,0,0.2,0,0.3,0c-0.4,0.1-0.7,0.5-0.7,1v2.7H157.2z"/>
	</g>
	<g>
		<g>
			<path class="st8" d="M161.4,91c0.6,0,1,0.5,1,1v2.7h-2V92C160.4,91.5,160.9,91,161.4,91z"/>
		</g>
		<path class="st12" d="M160.4,94.7V92c0-0.6,0.5-1,1-1c0.1,0,0.2,0,0.3,0c-0.4,0.1-0.7,0.5-0.7,1v2.7H160.4z"/>
	</g>
	<g>
		<g>
			<path class="st8" d="M154.9,95.4c0.6,0,1,0.5,1,1V99h-2v-2.7C153.9,95.8,154.3,95.4,154.9,95.4z"/>
		</g>
		<path class="st12" d="M153.9,99v-2.7c0-0.6,0.5-1,1-1c0.1,0,0.2,0,0.3,0c-0.4,0.1-0.7,0.5-0.7,1V99H153.9z"/>
	</g>
	<g>
		<g>
			<path class="st8" d="M158.2,95.4c0.6,0,1,0.5,1,1V99h-2v-2.7C157.2,95.8,157.6,95.4,158.2,95.4z"/>
		</g>
		<path class="st12" d="M157.2,99v-2.7c0-0.6,0.5-1,1-1c0.1,0,0.2,0,0.3,0c-0.4,0.1-0.7,0.5-0.7,1V99H157.2z"/>
	</g>
	<g>
		<g>
			<path class="st8" d="M161.4,95.4c0.6,0,1,0.5,1,1V99h-2v-2.7C160.4,95.8,160.9,95.4,161.4,95.4z"/>
		</g>
		<path class="st12" d="M160.4,99v-2.7c0-0.6,0.5-1,1-1c0.1,0,0.2,0,0.3,0c-0.4,0.1-0.7,0.5-0.7,1V99H160.4z"/>
	</g>
	<g>
		<g>
			<path class="st11" d="M154.9,99.8c0.6,0,1,0.5,1,1v2.7h-2v-2.7C153.9,100.2,154.3,99.8,154.9,99.8z"/>
		</g>
		<path class="st12" d="M153.9,103.4v-2.7c0-0.6,0.5-1,1-1c0.1,0,0.2,0,0.3,0c-0.4,0.1-0.7,0.5-0.7,1v2.7H153.9z"/>
	</g>
	<g>
		<g>
			<path class="st8" d="M158.2,99.8c0.6,0,1,0.5,1,1v2.7h-2v-2.7C157.2,100.2,157.6,99.8,158.2,99.8z"/>
		</g>
		<path class="st12" d="M157.2,103.4v-2.7c0-0.6,0.5-1,1-1c0.1,0,0.2,0,0.3,0c-0.4,0.1-0.7,0.5-0.7,1v2.7H157.2z"/>
	</g>
	<g>
		<g>
			<path class="st11" d="M161.4,99.8c0.6,0,1,0.5,1,1v2.7h-2v-2.7C160.4,100.2,160.9,99.8,161.4,99.8z"/>
		</g>
		<path class="st12" d="M160.4,103.4v-2.7c0-0.6,0.5-1,1-1c0.1,0,0.2,0,0.3,0c-0.4,0.1-0.7,0.5-0.7,1v2.7H160.4z"/>
	</g>
	<rect x="9.8" y="103.3" class="st13" width="159.2" height="2.1"/>
	<g>
		<rect x="143.8" y="87.3" class="st9" width="0.5" height="2.6"/>
		<rect x="150.1" y="87.3" class="st9" width="0.5" height="2.6"/>
		<rect x="142.5" y="83.8" class="st6" width="9.3" height="4.2"/>
		<g>
			<path class="st10" d="M142.9,87.6h8.6v-3.4h-8.6V87.6z"/>
		</g>
	</g>
</g>
</svg>
