<svg version="1.1" id="Layer_1" xmlns="http://www.w3.org/2000/svg" xmlns:xlink="http://www.w3.org/1999/xlink" x="0px" y="0px"
	 viewBox="0 0 180 180" style="enable-background:new 0 0 180 180;" xml:space="preserve">
<g>
	<g>
		<polygon class="st0" points="163.1,96.8 163.1,85.4 156.9,85.4 156.9,76.5 149.6,76.5 147.9,78.3 147.9,97.5 141.5,97.5 
			141.5,71.7 137.5,71.7 135.5,73.7 135.5,92.4 130.7,92.4 130.7,75.4 126,75.4 124.5,77 124.5,97.7 119.6,97.7 119.6,88.2 
			108.2,88.2 108.2,69.7 106,67.5 99.3,67.5 99.3,78.5 97,78.5 97,63.8 95.6,62.4 90.5,62.4 90.5,83.6 88.5,83.6 88.5,68.8 
			86.1,66.4 80.1,66.4 80.1,91.8 65.8,91.8 65.8,77 62.9,74.1 55.9,74.1 55.9,68.4 53,65.5 43.2,65.5 43.2,84 20.4,84 20.4,97.4 
			17.7,94.8 9.8,94.8 9.8,105 170.1,105 170.1,96.8 		"/>
	</g>
	<g>
		<rect x="145.8" y="54.2" class="st1" width="0.6" height="3.3"/>
		<rect x="153.9" y="54.2" class="st1" width="0.6" height="3.3"/>
		<rect x="144.2" y="49.7" class="st2" width="11.9" height="5.4"/>
		<g>
			<path class="st3" d="M144.7,54.6h11v-4.4h-11V54.6z"/>
		</g>
	</g>
	<path class="st4" d="M158.6,103.3V58.9c0-1.1-0.9-1.9-1.9-1.9h-13.5c-1.1,0-1.9,0.9-1.9,1.9v44.4H158.6z"/>
	<path class="st5" d="M141.2,103.3V58.9c0-1.1,0.9-1.9,1.9-1.9l0,0c1.1,0,1.9,0.9,1.9,1.9v44.4H141.2z"/>
	<g>
		<g>
			<g>
				<g>
					<path class="st4" d="M146.7,61.6c0,0.3,0.3,0.6,0.6,0.6s0.6-0.3,0.6-0.6v-0.2h-1.2V61.6z"/>
					<path class="st5" d="M147.3,60.2c-0.3,0-0.6,0.3-0.6,0.6v0.6h1.2v-0.6C147.9,60.5,147.6,60.2,147.3,60.2z"/>
				</g>
				<path class="st6" d="M147.3,60.2c-0.1,0-0.1,0-0.2,0c0.3,0.1,0.4,0.3,0.4,0.6v0.8c0,0.3-0.2,0.5-0.4,0.6c0.1,0,0.1,0,0.2,0
					c0.3,0,0.6-0.3,0.6-0.6v-0.8C147.9,60.5,147.6,60.2,147.3,60.2z"/>
			</g>
			<g>
				<g>
					<path class="st4" d="M148.9,61.6c0,0.3,0.3,0.6,0.6,0.6c0.3,0,0.6-0.3,0.6-0.6v-0.2h-1.2V61.6z"/>
					<path class="st5" d="M149.5,60.2c-0.3,0-0.6,0.3-0.6,0.6v0.6h1.2v-0.6C150.1,60.5,149.9,60.2,149.5,60.2z"/>
				</g>
				<path class="st6" d="M149.5,60.2c-0.1,0-0.1,0-0.2,0c0.3,0.1,0.4,0.3,0.4,0.6v0.8c0,0.3-0.2,0.5-0.4,0.6c0.1,0,0.1,0,0.2,0
					c0.3,0,0.6-0.3,0.6-0.6v-0.8C150.1,60.5,149.9,60.2,149.5,60.2z"/>
			</g>
			<g>
				<g>
					<path class="st4" d="M151.2,61.6c0,0.3,0.3,0.6,0.6,0.6c0.3,0,0.6-0.3,0.6-0.6v-0.2h-1.2V61.6z"/>
					<path class="st5" d="M151.8,60.2c-0.3,0-0.6,0.3-0.6,0.6v0.6h1.2v-0.6C152.4,60.5,152.1,60.2,151.8,60.2z"/>
				</g>
				<path class="st6" d="M151.8,60.2c-0.1,0-0.1,0-0.2,0c0.3,0.1,0.4,0.3,0.4,0.6v0.8c0,0.3-0.2,0.5-0.4,0.6c0.1,0,0.1,0,0.2,0
					c0.3,0,0.6-0.3,0.6-0.6v-0.8C152.4,60.5,152.1,60.2,151.8,60.2z"/>
			</g>
			<g>
				<g>
					<path class="st4" d="M153.4,61.6c0,0.3,0.3,0.6,0.6,0.6s0.6-0.3,0.6-0.6v-0.2h-1.2V61.6z"/>
					<path class="st5" d="M154,60.2c-0.3,0-0.6,0.3-0.6,0.6v0.6h1.2v-0.6C154.7,60.5,154.4,60.2,154,60.2z"/>
				</g>
				<path class="st6" d="M154,60.2c-0.1,0-0.1,0-0.2,0c0.3,0.1,0.4,0.3,0.4,0.6v0.8c0,0.3-0.2,0.5-0.4,0.6c0.1,0,0.1,0,0.2,0
					c0.3,0,0.6-0.3,0.6-0.6v-0.8C154.7,60.5,154.4,60.2,154,60.2z"/>
			</g>
			<g>
				<g>
					<path class="st4" d="M155.7,61.6c0,0.3,0.3,0.6,0.6,0.6c0.3,0,0.6-0.3,0.6-0.6v-0.2h-1.2V61.6z"/>
					<path class="st5" d="M156.3,60.2c-0.3,0-0.6,0.3-0.6,0.6v0.6h1.2v-0.6C156.9,60.5,156.6,60.2,156.3,60.2z"/>
				</g>
				<path class="st6" d="M156.3,60.2c-0.1,0-0.1,0-0.2,0c0.3,0.1,0.4,0.3,0.4,0.6v0.8c0,0.3-0.2,0.5-0.4,0.6c0.1,0,0.1,0,0.2,0
					c0.3,0,0.6-0.3,0.6-0.6v-0.8C156.9,60.5,156.6,60.2,156.3,60.2z"/>
			</g>
		</g>
		<g>
			<g>
				<g>
					<path class="st4" d="M146.7,65.2c0,0.3,0.3,0.6,0.6,0.6s0.6-0.3,0.6-0.6V65h-1.2V65.2z"/>
					<path class="st5" d="M147.3,63.8c-0.3,0-0.6,0.3-0.6,0.6V65h1.2v-0.6C147.9,64.1,147.6,63.8,147.3,63.8z"/>
				</g>
				<path class="st6" d="M147.3,63.8c-0.1,0-0.1,0-0.2,0c0.3,0.1,0.4,0.3,0.4,0.6v0.8c0,0.3-0.2,0.5-0.4,0.6c0.1,0,0.1,0,0.2,0
					c0.3,0,0.6-0.3,0.6-0.6v-0.8C147.9,64.1,147.6,63.8,147.3,63.8z"/>
			</g>
			<g>
				<g>
					<path class="st4" d="M148.9,65.2c0,0.3,0.3,0.6,0.6,0.6c0.3,0,0.6-0.3,0.6-0.6V65h-1.2V65.2z"/>
					<path class="st5" d="M149.5,63.8c-0.3,0-0.6,0.3-0.6,0.6V65h1.2v-0.6C150.1,64.1,149.9,63.8,149.5,63.8z"/>
				</g>
				<path class="st6" d="M149.5,63.8c-0.1,0-0.1,0-0.2,0c0.3,0.1,0.4,0.3,0.4,0.6v0.8c0,0.3-0.2,0.5-0.4,0.6c0.1,0,0.1,0,0.2,0
					c0.3,0,0.6-0.3,0.6-0.6v-0.8C150.1,64.1,149.9,63.8,149.5,63.8z"/>
			</g>
			<g>
				<g>
					<path class="st4" d="M151.2,65.2c0,0.3,0.3,0.6,0.6,0.6c0.3,0,0.6-0.3,0.6-0.6V65h-1.2V65.2z"/>
					<path class="st5" d="M151.8,63.8c-0.3,0-0.6,0.3-0.6,0.6V65h1.2v-0.6C152.4,64.1,152.1,63.8,151.8,63.8z"/>
				</g>
				<path class="st6" d="M151.8,63.8c-0.1,0-0.1,0-0.2,0c0.3,0.1,0.4,0.3,0.4,0.6v0.8c0,0.3-0.2,0.5-0.4,0.6c0.1,0,0.1,0,0.2,0
					c0.3,0,0.6-0.3,0.6-0.6v-0.8C152.4,64.1,152.1,63.8,151.8,63.8z"/>
			</g>
			<g>
				<g>
					<path class="st4" d="M153.4,65.2c0,0.3,0.3,0.6,0.6,0.6s0.6-0.3,0.6-0.6V65h-1.2V65.2z"/>
					<path class="st5" d="M154,63.8c-0.3,0-0.6,0.3-0.6,0.6V65h1.2v-0.6C154.7,64.1,154.4,63.8,154,63.8z"/>
				</g>
				<path class="st6" d="M154,63.8c-0.1,0-0.1,0-0.2,0c0.3,0.1,0.4,0.3,0.4,0.6v0.8c0,0.3-0.2,0.5-0.4,0.6c0.1,0,0.1,0,0.2,0
					c0.3,0,0.6-0.3,0.6-0.6v-0.8C154.7,64.1,154.4,63.8,154,63.8z"/>
			</g>
			<g>
				<g>
					<path class="st4" d="M155.7,65.2c0,0.3,0.3,0.6,0.6,0.6c0.3,0,0.6-0.3,0.6-0.6V65h-1.2V65.2z"/>
					<path class="st5" d="M156.3,63.8c-0.3,0-0.6,0.3-0.6,0.6V65h1.2v-0.6C156.9,64.1,156.6,63.8,156.3,63.8z"/>
				</g>
				<path class="st6" d="M156.3,63.8c-0.1,0-0.1,0-0.2,0c0.3,0.1,0.4,0.3,0.4,0.6v0.8c0,0.3-0.2,0.5-0.4,0.6c0.1,0,0.1,0,0.2,0
					c0.3,0,0.6-0.3,0.6-0.6v-0.8C156.9,64.1,156.6,63.8,156.3,63.8z"/>
			</g>
		</g>
		<g>
			<g>
				<g>
					<path class="st4" d="M146.7,68.8c0,0.3,0.3,0.6,0.6,0.6s0.6-0.3,0.6-0.6v-0.2h-1.2V68.8z"/>
					<path class="st5" d="M147.3,67.4c-0.3,0-0.6,0.3-0.6,0.6v0.6h1.2V68C147.9,67.7,147.6,67.4,147.3,67.4z"/>
				</g>
				<path class="st6" d="M147.3,67.4c-0.1,0-0.1,0-0.2,0c0.3,0.1,0.4,0.3,0.4,0.6v0.8c0,0.3-0.2,0.5-0.4,0.6c0.1,0,0.1,0,0.2,0
					c0.3,0,0.6-0.3,0.6-0.6V68C147.9,67.7,147.6,67.4,147.3,67.4z"/>
			</g>
			<g>
				<g>
					<path class="st4" d="M148.9,68.8c0,0.3,0.3,0.6,0.6,0.6c0.3,0,0.6-0.3,0.6-0.6v-0.2h-1.2V68.8z"/>
					<path class="st5" d="M149.5,67.4c-0.3,0-0.6,0.3-0.6,0.6v0.6h1.2V68C150.1,67.7,149.9,67.4,149.5,67.4z"/>
				</g>
				<path class="st6" d="M149.5,67.4c-0.1,0-0.1,0-0.2,0c0.3,0.1,0.4,0.3,0.4,0.6v0.8c0,0.3-0.2,0.5-0.4,0.6c0.1,0,0.1,0,0.2,0
					c0.3,0,0.6-0.3,0.6-0.6V68C150.1,67.7,149.9,67.4,149.5,67.4z"/>
			</g>
			<g>
				<g>
					<path class="st4" d="M151.2,68.8c0,0.3,0.3,0.6,0.6,0.6c0.3,0,0.6-0.3,0.6-0.6v-0.2h-1.2V68.8z"/>
					<path class="st5" d="M151.8,67.4c-0.3,0-0.6,0.3-0.6,0.6v0.6h1.2V68C152.4,67.7,152.1,67.4,151.8,67.4z"/>
				</g>
				<path class="st6" d="M151.8,67.4c-0.1,0-0.1,0-0.2,0c0.3,0.1,0.4,0.3,0.4,0.6v0.8c0,0.3-0.2,0.5-0.4,0.6c0.1,0,0.1,0,0.2,0
					c0.3,0,0.6-0.3,0.6-0.6V68C152.4,67.7,152.1,67.4,151.8,67.4z"/>
			</g>
			<g>
				<g>
					<path class="st4" d="M153.4,68.8c0,0.3,0.3,0.6,0.6,0.6s0.6-0.3,0.6-0.6v-0.2h-1.2V68.8z"/>
					<path class="st5" d="M154,67.4c-0.3,0-0.6,0.3-0.6,0.6v0.6h1.2V68C154.7,67.7,154.4,67.4,154,67.4z"/>
				</g>
				<path class="st6" d="M154,67.4c-0.1,0-0.1,0-0.2,0c0.3,0.1,0.4,0.3,0.4,0.6v0.8c0,0.3-0.2,0.5-0.4,0.6c0.1,0,0.1,0,0.2,0
					c0.3,0,0.6-0.3,0.6-0.6V68C154.7,67.7,154.4,67.4,154,67.4z"/>
			</g>
			<g>
				<g>
					<path class="st4" d="M155.7,68.8c0,0.3,0.3,0.6,0.6,0.6c0.3,0,0.6-0.3,0.6-0.6v-0.2h-1.2V68.8z"/>
					<path class="st5" d="M156.3,67.4c-0.3,0-0.6,0.3-0.6,0.6v0.6h1.2V68C156.9,67.7,156.6,67.4,156.3,67.4z"/>
				</g>
				<path class="st6" d="M156.3,67.4c-0.1,0-0.1,0-0.2,0c0.3,0.1,0.4,0.3,0.4,0.6v0.8c0,0.3-0.2,0.5-0.4,0.6c0.1,0,0.1,0,0.2,0
					c0.3,0,0.6-0.3,0.6-0.6V68C156.9,67.7,156.6,67.4,156.3,67.4z"/>
			</g>
		</g>
		<g>
			<g>
				<g>
					<path class="st4" d="M146.7,72.4c0,0.3,0.3,0.6,0.6,0.6s0.6-0.3,0.6-0.6v-0.2h-1.2V72.4z"/>
					<path class="st5" d="M147.3,71c-0.3,0-0.6,0.3-0.6,0.6v0.6h1.2v-0.6C147.9,71.3,147.6,71,147.3,71z"/>
				</g>
				<path class="st6" d="M147.3,71c-0.1,0-0.1,0-0.2,0c0.3,0.1,0.4,0.3,0.4,0.6v0.8c0,0.3-0.2,0.5-0.4,0.6c0.1,0,0.1,0,0.2,0
					c0.3,0,0.6-0.3,0.6-0.6v-0.8C147.9,71.3,147.6,71,147.3,71z"/>
			</g>
			<g>
				<g>
					<path class="st4" d="M148.9,72.4c0,0.3,0.3,0.6,0.6,0.6c0.3,0,0.6-0.3,0.6-0.6v-0.2h-1.2V72.4z"/>
					<path class="st5" d="M149.5,71c-0.3,0-0.6,0.3-0.6,0.6v0.6h1.2v-0.6C150.1,71.3,149.9,71,149.5,71z"/>
				</g>
				<path class="st6" d="M149.5,71c-0.1,0-0.1,0-0.2,0c0.3,0.1,0.4,0.3,0.4,0.6v0.8c0,0.3-0.2,0.5-0.4,0.6c0.1,0,0.1,0,0.2,0
					c0.3,0,0.6-0.3,0.6-0.6v-0.8C150.1,71.3,149.9,71,149.5,71z"/>
			</g>
			<g>
				<g>
					<path class="st4" d="M151.2,72.4c0,0.3,0.3,0.6,0.6,0.6c0.3,0,0.6-0.3,0.6-0.6v-0.2h-1.2V72.4z"/>
					<path class="st5" d="M151.8,71c-0.3,0-0.6,0.3-0.6,0.6v0.6h1.2v-0.6C152.4,71.3,152.1,71,151.8,71z"/>
				</g>
				<path class="st6" d="M151.8,71c-0.1,0-0.1,0-0.2,0c0.3,0.1,0.4,0.3,0.4,0.6v0.8c0,0.3-0.2,0.5-0.4,0.6c0.1,0,0.1,0,0.2,0
					c0.3,0,0.6-0.3,0.6-0.6v-0.8C152.4,71.3,152.1,71,151.8,71z"/>
			</g>
			<g>
				<g>
					<path class="st4" d="M153.4,72.4c0,0.3,0.3,0.6,0.6,0.6s0.6-0.3,0.6-0.6v-0.2h-1.2V72.4z"/>
					<path class="st5" d="M154,71c-0.3,0-0.6,0.3-0.6,0.6v0.6h1.2v-0.6C154.7,71.3,154.4,71,154,71z"/>
				</g>
				<path class="st6" d="M154,71c-0.1,0-0.1,0-0.2,0c0.3,0.1,0.4,0.3,0.4,0.6v0.8c0,0.3-0.2,0.5-0.4,0.6c0.1,0,0.1,0,0.2,0
					c0.3,0,0.6-0.3,0.6-0.6v-0.8C154.7,71.3,154.4,71,154,71z"/>
			</g>
			<g>
				<g>
					<path class="st4" d="M155.7,72.4c0,0.3,0.3,0.6,0.6,0.6c0.3,0,0.6-0.3,0.6-0.6v-0.2h-1.2V72.4z"/>
					<path class="st5" d="M156.3,71c-0.3,0-0.6,0.3-0.6,0.6v0.6h1.2v-0.6C156.9,71.3,156.6,71,156.3,71z"/>
				</g>
				<path class="st6" d="M156.3,71c-0.1,0-0.1,0-0.2,0c0.3,0.1,0.4,0.3,0.4,0.6v0.8c0,0.3-0.2,0.5-0.4,0.6c0.1,0,0.1,0,0.2,0
					c0.3,0,0.6-0.3,0.6-0.6v-0.8C156.9,71.3,156.6,71,156.3,71z"/>
			</g>
		</g>
		<g>
			<g>
				<g>
					<path class="st4" d="M146.7,76c0,0.3,0.3,0.6,0.6,0.6s0.6-0.3,0.6-0.6v-0.2h-1.2V76z"/>
					<path class="st5" d="M147.3,74.6c-0.3,0-0.6,0.3-0.6,0.6v0.6h1.2v-0.6C147.9,74.9,147.6,74.6,147.3,74.6z"/>
				</g>
				<path class="st6" d="M147.3,74.6c-0.1,0-0.1,0-0.2,0c0.3,0.1,0.4,0.3,0.4,0.6V76c0,0.3-0.2,0.5-0.4,0.6c0.1,0,0.1,0,0.2,0
					c0.3,0,0.6-0.3,0.6-0.6v-0.8C147.9,74.9,147.6,74.6,147.3,74.6z"/>
			</g>
			<g>
				<g>
					<path class="st4" d="M148.9,76c0,0.3,0.3,0.6,0.6,0.6c0.3,0,0.6-0.3,0.6-0.6v-0.2h-1.2V76z"/>
					<path class="st5" d="M149.5,74.6c-0.3,0-0.6,0.3-0.6,0.6v0.6h1.2v-0.6C150.1,74.9,149.9,74.6,149.5,74.6z"/>
				</g>
				<path class="st6" d="M149.5,74.6c-0.1,0-0.1,0-0.2,0c0.3,0.1,0.4,0.3,0.4,0.6V76c0,0.3-0.2,0.5-0.4,0.6c0.1,0,0.1,0,0.2,0
					c0.3,0,0.6-0.3,0.6-0.6v-0.8C150.1,74.9,149.9,74.6,149.5,74.6z"/>
			</g>
			<g>
				<g>
					<path class="st4" d="M151.2,76c0,0.3,0.3,0.6,0.6,0.6c0.3,0,0.6-0.3,0.6-0.6v-0.2h-1.2V76z"/>
					<path class="st5" d="M151.8,74.6c-0.3,0-0.6,0.3-0.6,0.6v0.6h1.2v-0.6C152.4,74.9,152.1,74.6,151.8,74.6z"/>
				</g>
				<path class="st6" d="M151.8,74.6c-0.1,0-0.1,0-0.2,0c0.3,0.1,0.4,0.3,0.4,0.6V76c0,0.3-0.2,0.5-0.4,0.6c0.1,0,0.1,0,0.2,0
					c0.3,0,0.6-0.3,0.6-0.6v-0.8C152.4,74.9,152.1,74.6,151.8,74.6z"/>
			</g>
			<g>
				<g>
					<path class="st4" d="M153.4,76c0,0.3,0.3,0.6,0.6,0.6s0.6-0.3,0.6-0.6v-0.2h-1.2V76z"/>
					<path class="st5" d="M154,74.6c-0.3,0-0.6,0.3-0.6,0.6v0.6h1.2v-0.6C154.7,74.9,154.4,74.6,154,74.6z"/>
				</g>
				<path class="st6" d="M154,74.6c-0.1,0-0.1,0-0.2,0c0.3,0.1,0.4,0.3,0.4,0.6V76c0,0.3-0.2,0.5-0.4,0.6c0.1,0,0.1,0,0.2,0
					c0.3,0,0.6-0.3,0.6-0.6v-0.8C154.7,74.9,154.4,74.6,154,74.6z"/>
			</g>
			<g>
				<g>
					<path class="st4" d="M155.7,76c0,0.3,0.3,0.6,0.6,0.6c0.3,0,0.6-0.3,0.6-0.6v-0.2h-1.2V76z"/>
					<path class="st5" d="M156.3,74.6c-0.3,0-0.6,0.3-0.6,0.6v0.6h1.2v-0.6C156.9,74.9,156.6,74.6,156.3,74.6z"/>
				</g>
				<path class="st6" d="M156.3,74.6c-0.1,0-0.1,0-0.2,0c0.3,0.1,0.4,0.3,0.4,0.6V76c0,0.3-0.2,0.5-0.4,0.6c0.1,0,0.1,0,0.2,0
					c0.3,0,0.6-0.3,0.6-0.6v-0.8C156.9,74.9,156.6,74.6,156.3,74.6z"/>
			</g>
		</g>
		<g>
			<g>
				<g>
					<path class="st4" d="M146.7,79.6c0,0.3,0.3,0.6,0.6,0.6s0.6-0.3,0.6-0.6v-0.2h-1.2V79.6z"/>
					<path class="st5" d="M147.3,78.2c-0.3,0-0.6,0.3-0.6,0.6v0.6h1.2v-0.6C147.9,78.5,147.6,78.2,147.3,78.2z"/>
				</g>
				<path class="st6" d="M147.3,78.2c-0.1,0-0.1,0-0.2,0c0.3,0.1,0.4,0.3,0.4,0.6v0.8c0,0.3-0.2,0.5-0.4,0.6c0.1,0,0.1,0,0.2,0
					c0.3,0,0.6-0.3,0.6-0.6v-0.8C147.9,78.5,147.6,78.2,147.3,78.2z"/>
			</g>
			<g>
				<g>
					<path class="st4" d="M148.9,79.6c0,0.3,0.3,0.6,0.6,0.6c0.3,0,0.6-0.3,0.6-0.6v-0.2h-1.2V79.6z"/>
					<path class="st5" d="M149.5,78.2c-0.3,0-0.6,0.3-0.6,0.6v0.6h1.2v-0.6C150.1,78.5,149.9,78.2,149.5,78.2z"/>
				</g>
				<path class="st6" d="M149.5,78.2c-0.1,0-0.1,0-0.2,0c0.3,0.1,0.4,0.3,0.4,0.6v0.8c0,0.3-0.2,0.5-0.4,0.6c0.1,0,0.1,0,0.2,0
					c0.3,0,0.6-0.3,0.6-0.6v-0.8C150.1,78.5,149.9,78.2,149.5,78.2z"/>
			</g>
			<g>
				<g>
					<path class="st4" d="M151.2,79.6c0,0.3,0.3,0.6,0.6,0.6c0.3,0,0.6-0.3,0.6-0.6v-0.2h-1.2V79.6z"/>
					<path class="st5" d="M151.8,78.2c-0.3,0-0.6,0.3-0.6,0.6v0.6h1.2v-0.6C152.4,78.5,152.1,78.2,151.8,78.2z"/>
				</g>
				<path class="st6" d="M151.8,78.2c-0.1,0-0.1,0-0.2,0c0.3,0.1,0.4,0.3,0.4,0.6v0.8c0,0.3-0.2,0.5-0.4,0.6c0.1,0,0.1,0,0.2,0
					c0.3,0,0.6-0.3,0.6-0.6v-0.8C152.4,78.5,152.1,78.2,151.8,78.2z"/>
			</g>
			<g>
				<g>
					<path class="st4" d="M153.4,79.6c0,0.3,0.3,0.6,0.6,0.6s0.6-0.3,0.6-0.6v-0.2h-1.2V79.6z"/>
					<path class="st5" d="M154,78.2c-0.3,0-0.6,0.3-0.6,0.6v0.6h1.2v-0.6C154.7,78.5,154.4,78.2,154,78.2z"/>
				</g>
				<path class="st6" d="M154,78.2c-0.1,0-0.1,0-0.2,0c0.3,0.1,0.4,0.3,0.4,0.6v0.8c0,0.3-0.2,0.5-0.4,0.6c0.1,0,0.1,0,0.2,0
					c0.3,0,0.6-0.3,0.6-0.6v-0.8C154.7,78.5,154.4,78.2,154,78.2z"/>
			</g>
			<g>
				<g>
					<path class="st4" d="M155.7,79.6c0,0.3,0.3,0.6,0.6,0.6c0.3,0,0.6-0.3,0.6-0.6v-0.2h-1.2V79.6z"/>
					<path class="st5" d="M156.3,78.2c-0.3,0-0.6,0.3-0.6,0.6v0.6h1.2v-0.6C156.9,78.5,156.6,78.2,156.3,78.2z"/>
				</g>
				<path class="st6" d="M156.3,78.2c-0.1,0-0.1,0-0.2,0c0.3,0.1,0.4,0.3,0.4,0.6v0.8c0,0.3-0.2,0.5-0.4,0.6c0.1,0,0.1,0,0.2,0
					c0.3,0,0.6-0.3,0.6-0.6v-0.8C156.9,78.5,156.6,78.2,156.3,78.2z"/>
			</g>
		</g>
		<g>
			<g>
				<g>
					<path class="st4" d="M146.7,83.2c0,0.3,0.3,0.6,0.6,0.6s0.6-0.3,0.6-0.6V83h-1.2V83.2z"/>
					<path class="st5" d="M147.3,81.8c-0.3,0-0.6,0.3-0.6,0.6V83h1.2v-0.6C147.9,82.1,147.6,81.8,147.3,81.8z"/>
				</g>
				<path class="st6" d="M147.3,81.8c-0.1,0-0.1,0-0.2,0c0.3,0.1,0.4,0.3,0.4,0.6v0.8c0,0.3-0.2,0.5-0.4,0.6c0.1,0,0.1,0,0.2,0
					c0.3,0,0.6-0.3,0.6-0.6v-0.8C147.9,82.1,147.6,81.8,147.3,81.8z"/>
			</g>
			<g>
				<g>
					<path class="st4" d="M148.9,83.2c0,0.3,0.3,0.6,0.6,0.6c0.3,0,0.6-0.3,0.6-0.6V83h-1.2V83.2z"/>
					<path class="st5" d="M149.5,81.8c-0.3,0-0.6,0.3-0.6,0.6V83h1.2v-0.6C150.1,82.1,149.9,81.8,149.5,81.8z"/>
				</g>
				<path class="st6" d="M149.5,81.8c-0.1,0-0.1,0-0.2,0c0.3,0.1,0.4,0.3,0.4,0.6v0.8c0,0.3-0.2,0.5-0.4,0.6c0.1,0,0.1,0,0.2,0
					c0.3,0,0.6-0.3,0.6-0.6v-0.8C150.1,82.1,149.9,81.8,149.5,81.8z"/>
			</g>
			<g>
				<g>
					<path class="st4" d="M151.2,83.2c0,0.3,0.3,0.6,0.6,0.6c0.3,0,0.6-0.3,0.6-0.6V83h-1.2V83.2z"/>
					<path class="st5" d="M151.8,81.8c-0.3,0-0.6,0.3-0.6,0.6V83h1.2v-0.6C152.4,82.1,152.1,81.8,151.8,81.8z"/>
				</g>
				<path class="st6" d="M151.8,81.8c-0.1,0-0.1,0-0.2,0c0.3,0.1,0.4,0.3,0.4,0.6v0.8c0,0.3-0.2,0.5-0.4,0.6c0.1,0,0.1,0,0.2,0
					c0.3,0,0.6-0.3,0.6-0.6v-0.8C152.4,82.1,152.1,81.8,151.8,81.8z"/>
			</g>
			<g>
				<g>
					<path class="st4" d="M153.4,83.2c0,0.3,0.3,0.6,0.6,0.6s0.6-0.3,0.6-0.6V83h-1.2V83.2z"/>
					<path class="st5" d="M154,81.8c-0.3,0-0.6,0.3-0.6,0.6V83h1.2v-0.6C154.7,82.1,154.4,81.8,154,81.8z"/>
				</g>
				<path class="st6" d="M154,81.8c-0.1,0-0.1,0-0.2,0c0.3,0.1,0.4,0.3,0.4,0.6v0.8c0,0.3-0.2,0.5-0.4,0.6c0.1,0,0.1,0,0.2,0
					c0.3,0,0.6-0.3,0.6-0.6v-0.8C154.7,82.1,154.4,81.8,154,81.8z"/>
			</g>
			<g>
				<g>
					<path class="st4" d="M155.7,83.2c0,0.3,0.3,0.6,0.6,0.6c0.3,0,0.6-0.3,0.6-0.6V83h-1.2V83.2z"/>
					<path class="st5" d="M156.3,81.8c-0.3,0-0.6,0.3-0.6,0.6V83h1.2v-0.6C156.9,82.1,156.6,81.8,156.3,81.8z"/>
				</g>
				<path class="st6" d="M156.3,81.8c-0.1,0-0.1,0-0.2,0c0.3,0.1,0.4,0.3,0.4,0.6v0.8c0,0.3-0.2,0.5-0.4,0.6c0.1,0,0.1,0,0.2,0
					c0.3,0,0.6-0.3,0.6-0.6v-0.8C156.9,82.1,156.6,81.8,156.3,81.8z"/>
			</g>
		</g>
		<g>
			<g>
				<g>
					<path class="st4" d="M146.7,86.7c0,0.3,0.3,0.6,0.6,0.6s0.6-0.3,0.6-0.6v-0.2h-1.2V86.7z"/>
					<path class="st5" d="M147.3,85.4c-0.3,0-0.6,0.3-0.6,0.6v0.6h1.2V86C147.9,85.6,147.6,85.4,147.3,85.4z"/>
				</g>
				<path class="st6" d="M147.3,85.4c-0.1,0-0.1,0-0.2,0c0.3,0.1,0.4,0.3,0.4,0.6v0.8c0,0.3-0.2,0.5-0.4,0.6c0.1,0,0.1,0,0.2,0
					c0.3,0,0.6-0.3,0.6-0.6V86C147.9,85.6,147.6,85.4,147.3,85.4z"/>
			</g>
			<g>
				<g>
					<path class="st4" d="M148.9,86.7c0,0.3,0.3,0.6,0.6,0.6c0.3,0,0.6-0.3,0.6-0.6v-0.2h-1.2V86.7z"/>
					<path class="st5" d="M149.5,85.4c-0.3,0-0.6,0.3-0.6,0.6v0.6h1.2V86C150.1,85.6,149.9,85.4,149.5,85.4z"/>
				</g>
				<path class="st6" d="M149.5,85.4c-0.1,0-0.1,0-0.2,0c0.3,0.1,0.4,0.3,0.4,0.6v0.8c0,0.3-0.2,0.5-0.4,0.6c0.1,0,0.1,0,0.2,0
					c0.3,0,0.6-0.3,0.6-0.6V86C150.1,85.6,149.9,85.4,149.5,85.4z"/>
			</g>
			<g>
				<g>
					<path class="st4" d="M151.2,86.7c0,0.3,0.3,0.6,0.6,0.6c0.3,0,0.6-0.3,0.6-0.6v-0.2h-1.2V86.7z"/>
					<path class="st5" d="M151.8,85.4c-0.3,0-0.6,0.3-0.6,0.6v0.6h1.2V86C152.4,85.6,152.1,85.4,151.8,85.4z"/>
				</g>
				<path class="st6" d="M151.8,85.4c-0.1,0-0.1,0-0.2,0c0.3,0.1,0.4,0.3,0.4,0.6v0.8c0,0.3-0.2,0.5-0.4,0.6c0.1,0,0.1,0,0.2,0
					c0.3,0,0.6-0.3,0.6-0.6V86C152.4,85.6,152.1,85.4,151.8,85.4z"/>
			</g>
			<g>
				<g>
					<path class="st4" d="M153.4,86.7c0,0.3,0.3,0.6,0.6,0.6s0.6-0.3,0.6-0.6v-0.2h-1.2V86.7z"/>
					<path class="st5" d="M154,85.4c-0.3,0-0.6,0.3-0.6,0.6v0.6h1.2V86C154.7,85.6,154.4,85.4,154,85.4z"/>
				</g>
				<path class="st6" d="M154,85.4c-0.1,0-0.1,0-0.2,0c0.3,0.1,0.4,0.3,0.4,0.6v0.8c0,0.3-0.2,0.5-0.4,0.6c0.1,0,0.1,0,0.2,0
					c0.3,0,0.6-0.3,0.6-0.6V86C154.7,85.6,154.4,85.4,154,85.4z"/>
			</g>
			<g>
				<g>
					<path class="st4" d="M155.7,86.7c0,0.3,0.3,0.6,0.6,0.6c0.3,0,0.6-0.3,0.6-0.6v-0.2h-1.2V86.7z"/>
					<path class="st5" d="M156.3,85.4c-0.3,0-0.6,0.3-0.6,0.6v0.6h1.2V86C156.9,85.6,156.6,85.4,156.3,85.4z"/>
				</g>
				<path class="st6" d="M156.3,85.4c-0.1,0-0.1,0-0.2,0c0.3,0.1,0.4,0.3,0.4,0.6v0.8c0,0.3-0.2,0.5-0.4,0.6c0.1,0,0.1,0,0.2,0
					c0.3,0,0.6-0.3,0.6-0.6V86C156.9,85.6,156.6,85.4,156.3,85.4z"/>
			</g>
		</g>
		<g>
			<g>
				<g>
					<path class="st4" d="M146.7,90.3c0,0.3,0.3,0.6,0.6,0.6s0.6-0.3,0.6-0.6v-0.2h-1.2V90.3z"/>
					<path class="st5" d="M147.3,89c-0.3,0-0.6,0.3-0.6,0.6v0.6h1.2v-0.6C147.9,89.2,147.6,89,147.3,89z"/>
				</g>
				<path class="st6" d="M147.3,89c-0.1,0-0.1,0-0.2,0c0.3,0.1,0.4,0.3,0.4,0.6v0.8c0,0.3-0.2,0.5-0.4,0.6c0.1,0,0.1,0,0.2,0
					c0.3,0,0.6-0.3,0.6-0.6v-0.8C147.9,89.2,147.6,89,147.3,89z"/>
			</g>
			<g>
				<g>
					<path class="st4" d="M148.9,90.3c0,0.3,0.3,0.6,0.6,0.6c0.3,0,0.6-0.3,0.6-0.6v-0.2h-1.2V90.3z"/>
					<path class="st5" d="M149.5,89c-0.3,0-0.6,0.3-0.6,0.6v0.6h1.2v-0.6C150.1,89.2,149.9,89,149.5,89z"/>
				</g>
				<path class="st6" d="M149.5,89c-0.1,0-0.1,0-0.2,0c0.3,0.1,0.4,0.3,0.4,0.6v0.8c0,0.3-0.2,0.5-0.4,0.6c0.1,0,0.1,0,0.2,0
					c0.3,0,0.6-0.3,0.6-0.6v-0.8C150.1,89.2,149.9,89,149.5,89z"/>
			</g>
			<g>
				<g>
					<path class="st4" d="M151.2,90.3c0,0.3,0.3,0.6,0.6,0.6c0.3,0,0.6-0.3,0.6-0.6v-0.2h-1.2V90.3z"/>
					<path class="st5" d="M151.8,89c-0.3,0-0.6,0.3-0.6,0.6v0.6h1.2v-0.6C152.4,89.2,152.1,89,151.8,89z"/>
				</g>
				<path class="st6" d="M151.8,89c-0.1,0-0.1,0-0.2,0c0.3,0.1,0.4,0.3,0.4,0.6v0.8c0,0.3-0.2,0.5-0.4,0.6c0.1,0,0.1,0,0.2,0
					c0.3,0,0.6-0.3,0.6-0.6v-0.8C152.4,89.2,152.1,89,151.8,89z"/>
			</g>
			<g>
				<g>
					<path class="st4" d="M153.4,90.3c0,0.3,0.3,0.6,0.6,0.6s0.6-0.3,0.6-0.6v-0.2h-1.2V90.3z"/>
					<path class="st5" d="M154,89c-0.3,0-0.6,0.3-0.6,0.6v0.6h1.2v-0.6C154.7,89.2,154.4,89,154,89z"/>
				</g>
				<path class="st6" d="M154,89c-0.1,0-0.1,0-0.2,0c0.3,0.1,0.4,0.3,0.4,0.6v0.8c0,0.3-0.2,0.5-0.4,0.6c0.1,0,0.1,0,0.2,0
					c0.3,0,0.6-0.3,0.6-0.6v-0.8C154.7,89.2,154.4,89,154,89z"/>
			</g>
			<g>
				<g>
					<path class="st4" d="M155.7,90.3c0,0.3,0.3,0.6,0.6,0.6c0.3,0,0.6-0.3,0.6-0.6v-0.2h-1.2V90.3z"/>
					<path class="st5" d="M156.3,89c-0.3,0-0.6,0.3-0.6,0.6v0.6h1.2v-0.6C156.9,89.2,156.6,89,156.3,89z"/>
				</g>
				<path class="st6" d="M156.3,89c-0.1,0-0.1,0-0.2,0c0.3,0.1,0.4,0.3,0.4,0.6v0.8c0,0.3-0.2,0.5-0.4,0.6c0.1,0,0.1,0,0.2,0
					c0.3,0,0.6-0.3,0.6-0.6v-0.8C156.9,89.2,156.6,89,156.3,89z"/>
			</g>
		</g>
		<g>
			<g>
				<g>
					<path class="st4" d="M146.7,93.9c0,0.3,0.3,0.6,0.6,0.6s0.6-0.3,0.6-0.6v-0.2h-1.2V93.9z"/>
					<path class="st5" d="M147.3,92.5c-0.3,0-0.6,0.3-0.6,0.6v0.6h1.2v-0.6C147.9,92.8,147.6,92.5,147.3,92.5z"/>
				</g>
				<path class="st6" d="M147.3,92.5c-0.1,0-0.1,0-0.2,0c0.3,0.1,0.4,0.3,0.4,0.6v0.8c0,0.3-0.2,0.5-0.4,0.6c0.1,0,0.1,0,0.2,0
					c0.3,0,0.6-0.3,0.6-0.6v-0.8C147.9,92.8,147.6,92.5,147.3,92.5z"/>
			</g>
			<g>
				<g>
					<path class="st4" d="M148.9,93.9c0,0.3,0.3,0.6,0.6,0.6c0.3,0,0.6-0.3,0.6-0.6v-0.2h-1.2V93.9z"/>
					<path class="st5" d="M149.5,92.5c-0.3,0-0.6,0.3-0.6,0.6v0.6h1.2v-0.6C150.1,92.8,149.9,92.5,149.5,92.5z"/>
				</g>
				<path class="st6" d="M149.5,92.5c-0.1,0-0.1,0-0.2,0c0.3,0.1,0.4,0.3,0.4,0.6v0.8c0,0.3-0.2,0.5-0.4,0.6c0.1,0,0.1,0,0.2,0
					c0.3,0,0.6-0.3,0.6-0.6v-0.8C150.1,92.8,149.9,92.5,149.5,92.5z"/>
			</g>
			<g>
				<g>
					<path class="st4" d="M151.2,93.9c0,0.3,0.3,0.6,0.6,0.6c0.3,0,0.6-0.3,0.6-0.6v-0.2h-1.2V93.9z"/>
					<path class="st5" d="M151.8,92.5c-0.3,0-0.6,0.3-0.6,0.6v0.6h1.2v-0.6C152.4,92.8,152.1,92.5,151.8,92.5z"/>
				</g>
				<path class="st6" d="M151.8,92.5c-0.1,0-0.1,0-0.2,0c0.3,0.1,0.4,0.3,0.4,0.6v0.8c0,0.3-0.2,0.5-0.4,0.6c0.1,0,0.1,0,0.2,0
					c0.3,0,0.6-0.3,0.6-0.6v-0.8C152.4,92.8,152.1,92.5,151.8,92.5z"/>
			</g>
			<g>
				<g>
					<path class="st4" d="M153.4,93.9c0,0.3,0.3,0.6,0.6,0.6s0.6-0.3,0.6-0.6v-0.2h-1.2V93.9z"/>
					<path class="st5" d="M154,92.5c-0.3,0-0.6,0.3-0.6,0.6v0.6h1.2v-0.6C154.7,92.8,154.4,92.5,154,92.5z"/>
				</g>
				<path class="st6" d="M154,92.5c-0.1,0-0.1,0-0.2,0c0.3,0.1,0.4,0.3,0.4,0.6v0.8c0,0.3-0.2,0.5-0.4,0.6c0.1,0,0.1,0,0.2,0
					c0.3,0,0.6-0.3,0.6-0.6v-0.8C154.7,92.8,154.4,92.5,154,92.5z"/>
			</g>
			<g>
				<g>
					<path class="st4" d="M155.7,93.9c0,0.3,0.3,0.6,0.6,0.6c0.3,0,0.6-0.3,0.6-0.6v-0.2h-1.2V93.9z"/>
					<path class="st5" d="M156.3,92.5c-0.3,0-0.6,0.3-0.6,0.6v0.6h1.2v-0.6C156.9,92.8,156.6,92.5,156.3,92.5z"/>
				</g>
				<path class="st6" d="M156.3,92.5c-0.1,0-0.1,0-0.2,0c0.3,0.1,0.4,0.3,0.4,0.6v0.8c0,0.3-0.2,0.5-0.4,0.6c0.1,0,0.1,0,0.2,0
					c0.3,0,0.6-0.3,0.6-0.6v-0.8C156.9,92.8,156.6,92.5,156.3,92.5z"/>
			</g>
		</g>
		<g>
			<g>
				<g>
					<path class="st4" d="M146.7,97.5c0,0.3,0.3,0.6,0.6,0.6s0.6-0.3,0.6-0.6v-0.2h-1.2V97.5z"/>
					<path class="st5" d="M147.3,96.1c-0.3,0-0.6,0.3-0.6,0.6v0.6h1.2v-0.6C147.9,96.4,147.6,96.1,147.3,96.1z"/>
				</g>
				<path class="st6" d="M147.3,96.1c-0.1,0-0.1,0-0.2,0c0.3,0.1,0.4,0.3,0.4,0.6v0.8c0,0.3-0.2,0.5-0.4,0.6c0.1,0,0.1,0,0.2,0
					c0.3,0,0.6-0.3,0.6-0.6v-0.8C147.9,96.4,147.6,96.1,147.3,96.1z"/>
			</g>
			<g>
				<g>
					<path class="st4" d="M148.9,97.5c0,0.3,0.3,0.6,0.6,0.6c0.3,0,0.6-0.3,0.6-0.6v-0.2h-1.2V97.5z"/>
					<path class="st5" d="M149.5,96.1c-0.3,0-0.6,0.3-0.6,0.6v0.6h1.2v-0.6C150.1,96.4,149.9,96.1,149.5,96.1z"/>
				</g>
				<path class="st6" d="M149.5,96.1c-0.1,0-0.1,0-0.2,0c0.3,0.1,0.4,0.3,0.4,0.6v0.8c0,0.3-0.2,0.5-0.4,0.6c0.1,0,0.1,0,0.2,0
					c0.3,0,0.6-0.3,0.6-0.6v-0.8C150.1,96.4,149.9,96.1,149.5,96.1z"/>
			</g>
			<g>
				<g>
					<path class="st4" d="M151.2,97.5c0,0.3,0.3,0.6,0.6,0.6c0.3,0,0.6-0.3,0.6-0.6v-0.2h-1.2V97.5z"/>
					<path class="st5" d="M151.8,96.1c-0.3,0-0.6,0.3-0.6,0.6v0.6h1.2v-0.6C152.4,96.4,152.1,96.1,151.8,96.1z"/>
				</g>
				<path class="st6" d="M151.8,96.1c-0.1,0-0.1,0-0.2,0c0.3,0.1,0.4,0.3,0.4,0.6v0.8c0,0.3-0.2,0.5-0.4,0.6c0.1,0,0.1,0,0.2,0
					c0.3,0,0.6-0.3,0.6-0.6v-0.8C152.4,96.4,152.1,96.1,151.8,96.1z"/>
			</g>
			<g>
				<g>
					<path class="st4" d="M153.4,97.5c0,0.3,0.3,0.6,0.6,0.6s0.6-0.3,0.6-0.6v-0.2h-1.2V97.5z"/>
					<path class="st5" d="M154,96.1c-0.3,0-0.6,0.3-0.6,0.6v0.6h1.2v-0.6C154.7,96.4,154.4,96.1,154,96.1z"/>
				</g>
				<path class="st6" d="M154,96.1c-0.1,0-0.1,0-0.2,0c0.3,0.1,0.4,0.3,0.4,0.6v0.8c0,0.3-0.2,0.5-0.4,0.6c0.1,0,0.1,0,0.2,0
					c0.3,0,0.6-0.3,0.6-0.6v-0.8C154.7,96.4,154.4,96.1,154,96.1z"/>
			</g>
			<g>
				<g>
					<path class="st4" d="M155.7,97.5c0,0.3,0.3,0.6,0.6,0.6c0.3,0,0.6-0.3,0.6-0.6v-0.2h-1.2V97.5z"/>
					<path class="st5" d="M156.3,96.1c-0.3,0-0.6,0.3-0.6,0.6v0.6h1.2v-0.6C156.9,96.4,156.6,96.1,156.3,96.1z"/>
				</g>
				<path class="st6" d="M156.3,96.1c-0.1,0-0.1,0-0.2,0c0.3,0.1,0.4,0.3,0.4,0.6v0.8c0,0.3-0.2,0.5-0.4,0.6c0.1,0,0.1,0,0.2,0
					c0.3,0,0.6-0.3,0.6-0.6v-0.8C156.9,96.4,156.6,96.1,156.3,96.1z"/>
			</g>
		</g>
		<g>
			<g>
				<g>
					<path class="st4" d="M146.7,101.1c0,0.3,0.3,0.6,0.6,0.6s0.6-0.3,0.6-0.6v-0.2h-1.2V101.1z"/>
					<path class="st5" d="M147.3,99.7c-0.3,0-0.6,0.3-0.6,0.6v0.6h1.2v-0.6C147.9,100,147.6,99.7,147.3,99.7z"/>
				</g>
				<path class="st6" d="M147.3,99.7c-0.1,0-0.1,0-0.2,0c0.3,0.1,0.4,0.3,0.4,0.6v0.8c0,0.3-0.2,0.5-0.4,0.6c0.1,0,0.1,0,0.2,0
					c0.3,0,0.6-0.3,0.6-0.6v-0.8C147.9,100,147.6,99.7,147.3,99.7z"/>
			</g>
			<g>
				<g>
					<path class="st4" d="M148.9,101.1c0,0.3,0.3,0.6,0.6,0.6c0.3,0,0.6-0.3,0.6-0.6v-0.2h-1.2V101.1z"/>
					<path class="st5" d="M149.5,99.7c-0.3,0-0.6,0.3-0.6,0.6v0.6h1.2v-0.6C150.1,100,149.9,99.7,149.5,99.7z"/>
				</g>
				<path class="st6" d="M149.5,99.7c-0.1,0-0.1,0-0.2,0c0.3,0.1,0.4,0.3,0.4,0.6v0.8c0,0.3-0.2,0.5-0.4,0.6c0.1,0,0.1,0,0.2,0
					c0.3,0,0.6-0.3,0.6-0.6v-0.8C150.1,100,149.9,99.7,149.5,99.7z"/>
			</g>
			<g>
				<g>
					<path class="st4" d="M151.2,101.1c0,0.3,0.3,0.6,0.6,0.6c0.3,0,0.6-0.3,0.6-0.6v-0.2h-1.2V101.1z"/>
					<path class="st5" d="M151.8,99.7c-0.3,0-0.6,0.3-0.6,0.6v0.6h1.2v-0.6C152.4,100,152.1,99.7,151.8,99.7z"/>
				</g>
				<path class="st6" d="M151.8,99.7c-0.1,0-0.1,0-0.2,0c0.3,0.1,0.4,0.3,0.4,0.6v0.8c0,0.3-0.2,0.5-0.4,0.6c0.1,0,0.1,0,0.2,0
					c0.3,0,0.6-0.3,0.6-0.6v-0.8C152.4,100,152.1,99.7,151.8,99.7z"/>
			</g>
			<g>
				<g>
					<path class="st4" d="M153.4,101.1c0,0.3,0.3,0.6,0.6,0.6s0.6-0.3,0.6-0.6v-0.2h-1.2V101.1z"/>
					<path class="st5" d="M154,99.7c-0.3,0-0.6,0.3-0.6,0.6v0.6h1.2v-0.6C154.7,100,154.4,99.7,154,99.7z"/>
				</g>
				<path class="st6" d="M154,99.7c-0.1,0-0.1,0-0.2,0c0.3,0.1,0.4,0.3,0.4,0.6v0.8c0,0.3-0.2,0.5-0.4,0.6c0.1,0,0.1,0,0.2,0
					c0.3,0,0.6-0.3,0.6-0.6v-0.8C154.7,100,154.4,99.7,154,99.7z"/>
			</g>
			<g>
				<g>
					<path class="st4" d="M155.7,101.1c0,0.3,0.3,0.6,0.6,0.6c0.3,0,0.6-0.3,0.6-0.6v-0.2h-1.2V101.1z"/>
					<path class="st5" d="M156.3,99.7c-0.3,0-0.6,0.3-0.6,0.6v0.6h1.2v-0.6C156.9,100,156.6,99.7,156.3,99.7z"/>
				</g>
				<path class="st6" d="M156.3,99.7c-0.1,0-0.1,0-0.2,0c0.3,0.1,0.4,0.3,0.4,0.6v0.8c0,0.3-0.2,0.5-0.4,0.6c0.1,0,0.1,0,0.2,0
					c0.3,0,0.6-0.3,0.6-0.6v-0.8C156.9,100,156.6,99.7,156.3,99.7z"/>
			</g>
		</g>
	</g>
	<rect x="104.8" y="60.2" class="st7" width="13.9" height="43.6"/>
	
		<rect x="101.4" y="60.2" transform="matrix(-1 -1.224647e-16 1.224647e-16 -1 206.2236 163.9696)" class="st8" width="3.5" height="43.6"/>
	<polygon class="st8" points="110.6,52.4 104.8,60.2 118.7,60.2 	"/>
	<polygon class="st9" points="101.4,60.2 110.6,52.4 104.8,60.2 	"/>
	<g>
		<rect x="154.1" y="65.4" class="st1" width="0.6" height="3.3"/>
		<rect x="162.2" y="65.4" class="st1" width="0.6" height="3.3"/>
		<rect x="152.5" y="60.9" class="st2" width="11.9" height="5.4"/>
		<g>
			<path class="st3" d="M153,65.8h11v-4.4h-11V65.8z"/>
		</g>
	</g>
	<path class="st4" d="M102.7,104.3V88.4c0-1.1-0.9-1.9-1.9-1.9H87.3c-1.1,0-1.9,0.9-1.9,1.9v15.9H102.7z"/>
	<path class="st5" d="M85.3,104.3V88.4c0-1.1,0.9-1.9,1.9-1.9l0,0c1.1,0,1.9,0.9,1.9,1.9v15.9H85.3z"/>
	<path class="st4" d="M164.8,103.3V69.5c0-0.8-0.7-1.5-1.5-1.5H153c-0.8,0-1.5,0.7-1.5,1.5v33.8H164.8z"/>
	<path class="st5" d="M151.5,103.3V69.5c0-0.8,0.7-1.5,1.5-1.5l0,0c0.8,0,1.5,0.7,1.5,1.5v33.8H151.5z"/>
	<g>
		<g>
			<g>
				<path class="st7" d="M155.5,81.7c0,0.6,0.5,1,1,1c0.6,0,1-0.5,1-1v-0.3h-2V81.7z"/>
				<path class="st8" d="M156.5,79.5c-0.6,0-1,0.5-1,1v0.9h2v-0.9C157.5,79.9,157.1,79.5,156.5,79.5z"/>
			</g>
			<path class="st6" d="M156.5,79.5c-0.1,0-0.2,0-0.3,0c0.4,0.1,0.7,0.5,0.7,1v1.3c0,0.5-0.3,0.8-0.7,1c0.1,0,0.2,0,0.3,0
				c0.6,0,1-0.5,1-1v-1.3C157.5,79.9,157.1,79.5,156.5,79.5z"/>
		</g>
		<g>
			<g>
				<path class="st4" d="M155.5,86.3c0,0.6,0.5,1,1,1c0.6,0,1-0.5,1-1V86h-2V86.3z"/>
				<path class="st5" d="M156.5,84.1c-0.6,0-1,0.5-1,1V86h2v-0.9C157.5,84.5,157.1,84.1,156.5,84.1z"/>
			</g>
			<path class="st6" d="M156.5,84.1c-0.1,0-0.2,0-0.3,0c0.4,0.1,0.7,0.5,0.7,1v1.3c0,0.5-0.3,0.8-0.7,1c0.1,0,0.2,0,0.3,0
				c0.6,0,1-0.5,1-1v-1.3C157.5,84.5,157.1,84.1,156.5,84.1z"/>
		</g>
		<g>
			<g>
				<path class="st7" d="M155.5,90.9c0,0.6,0.5,1,1,1c0.6,0,1-0.5,1-1v-0.3h-2V90.9z"/>
				<path class="st8" d="M156.5,88.7c-0.6,0-1,0.5-1,1v0.9h2v-0.9C157.5,89.1,157.1,88.7,156.5,88.7z"/>
			</g>
			<path class="st6" d="M156.5,88.7c-0.1,0-0.2,0-0.3,0c0.4,0.1,0.7,0.5,0.7,1v1.3c0,0.5-0.3,0.8-0.7,1c0.1,0,0.2,0,0.3,0
				c0.6,0,1-0.5,1-1v-1.3C157.5,89.1,157.1,88.7,156.5,88.7z"/>
		</g>
		<g>
			<g>
				<path class="st7" d="M155.5,95.5c0,0.6,0.5,1,1,1c0.6,0,1-0.5,1-1v-0.3h-2V95.5z"/>
				<path class="st8" d="M156.5,93.2c-0.6,0-1,0.5-1,1v0.9h2v-0.9C157.5,93.7,157.1,93.2,156.5,93.2z"/>
			</g>
			<path class="st6" d="M156.5,93.2c-0.1,0-0.2,0-0.3,0c0.4,0.1,0.7,0.5,0.7,1v1.3c0,0.5-0.3,0.8-0.7,1c0.1,0,0.2,0,0.3,0
				c0.6,0,1-0.5,1-1v-1.3C157.5,93.7,157.1,93.2,156.5,93.2z"/>
		</g>
	</g>
	<g>
		<g>
			<g>
				<path class="st4" d="M158.8,81.7c0,0.6,0.5,1,1,1c0.6,0,1-0.5,1-1v-0.3h-2V81.7z"/>
				<path class="st5" d="M159.8,79.5c-0.6,0-1,0.5-1,1v0.9h2v-0.9C160.8,79.9,160.4,79.5,159.8,79.5z"/>
			</g>
			<path class="st6" d="M159.8,79.5c-0.1,0-0.2,0-0.3,0c0.4,0.1,0.7,0.5,0.7,1v1.3c0,0.5-0.3,0.8-0.7,1c0.1,0,0.2,0,0.3,0
				c0.6,0,1-0.5,1-1v-1.3C160.8,79.9,160.4,79.5,159.8,79.5z"/>
		</g>
		<g>
			<g>
				<path class="st7" d="M158.8,86.3c0,0.6,0.5,1,1,1c0.6,0,1-0.5,1-1V86h-2V86.3z"/>
				<path class="st8" d="M159.8,84.1c-0.6,0-1,0.5-1,1V86h2v-0.9C160.8,84.5,160.4,84.1,159.8,84.1z"/>
			</g>
			<path class="st6" d="M159.8,84.1c-0.1,0-0.2,0-0.3,0c0.4,0.1,0.7,0.5,0.7,1v1.3c0,0.5-0.3,0.8-0.7,1c0.1,0,0.2,0,0.3,0
				c0.6,0,1-0.5,1-1v-1.3C160.8,84.5,160.4,84.1,159.8,84.1z"/>
		</g>
		<g>
			<g>
				<path class="st7" d="M158.8,90.9c0,0.6,0.5,1,1,1c0.6,0,1-0.5,1-1v-0.3h-2V90.9z"/>
				<path class="st8" d="M159.8,88.7c-0.6,0-1,0.5-1,1v0.9h2v-0.9C160.8,89.1,160.4,88.7,159.8,88.7z"/>
			</g>
			<path class="st6" d="M159.8,88.7c-0.1,0-0.2,0-0.3,0c0.4,0.1,0.7,0.5,0.7,1v1.3c0,0.5-0.3,0.8-0.7,1c0.1,0,0.2,0,0.3,0
				c0.6,0,1-0.5,1-1v-1.3C160.8,89.1,160.4,88.7,159.8,88.7z"/>
		</g>
		<g>
			<g>
				<path class="st4" d="M158.8,95.5c0,0.6,0.5,1,1,1c0.6,0,1-0.5,1-1v-0.3h-2V95.5z"/>
				<path class="st5" d="M159.8,93.2c-0.6,0-1,0.5-1,1v0.9h2v-0.9C160.8,93.7,160.4,93.2,159.8,93.2z"/>
			</g>
			<path class="st6" d="M159.8,93.2c-0.1,0-0.2,0-0.3,0c0.4,0.1,0.7,0.5,0.7,1v1.3c0,0.5-0.3,0.8-0.7,1c0.1,0,0.2,0,0.3,0
				c0.6,0,1-0.5,1-1v-1.3C160.8,93.7,160.4,93.2,159.8,93.2z"/>
		</g>
	</g>
	<g>
		<g>
			<g>
				<path class="st7" d="M162.1,81.7c0,0.6,0.5,1,1,1c0.6,0,1-0.5,1-1v-0.3h-2V81.7z"/>
				<path class="st8" d="M163.1,79.5c-0.6,0-1,0.5-1,1v0.9h2v-0.9C164.1,79.9,163.6,79.5,163.1,79.5z"/>
			</g>
			<path class="st6" d="M163.1,79.5c-0.1,0-0.2,0-0.3,0c0.4,0.1,0.7,0.5,0.7,1v1.3c0,0.5-0.3,0.8-0.7,1c0.1,0,0.2,0,0.3,0
				c0.6,0,1-0.5,1-1v-1.3C164.1,79.9,163.6,79.5,163.1,79.5z"/>
		</g>
		<g>
			<g>
				<path class="st4" d="M162.1,86.3c0,0.6,0.5,1,1,1c0.6,0,1-0.5,1-1V86h-2V86.3z"/>
				<path class="st5" d="M163.1,84.1c-0.6,0-1,0.5-1,1V86h2v-0.9C164.1,84.5,163.6,84.1,163.1,84.1z"/>
			</g>
			<path class="st6" d="M163.1,84.1c-0.1,0-0.2,0-0.3,0c0.4,0.1,0.7,0.5,0.7,1v1.3c0,0.5-0.3,0.8-0.7,1c0.1,0,0.2,0,0.3,0
				c0.6,0,1-0.5,1-1v-1.3C164.1,84.5,163.6,84.1,163.1,84.1z"/>
		</g>
		<g>
			<g>
				<path class="st4" d="M162.1,90.9c0,0.6,0.5,1,1,1c0.6,0,1-0.5,1-1v-0.3h-2V90.9z"/>
				<path class="st5" d="M163.1,88.7c-0.6,0-1,0.5-1,1v0.9h2v-0.9C164.1,89.1,163.6,88.7,163.1,88.7z"/>
			</g>
			<path class="st6" d="M163.1,88.7c-0.1,0-0.2,0-0.3,0c0.4,0.1,0.7,0.5,0.7,1v1.3c0,0.5-0.3,0.8-0.7,1c0.1,0,0.2,0,0.3,0
				c0.6,0,1-0.5,1-1v-1.3C164.1,89.1,163.6,88.7,163.1,88.7z"/>
		</g>
		<g>
			<g>
				<path class="st7" d="M162.1,95.5c0,0.6,0.5,1,1,1c0.6,0,1-0.5,1-1v-0.3h-2V95.5z"/>
				<path class="st8" d="M163.1,93.2c-0.6,0-1,0.5-1,1v0.9h2v-0.9C164.1,93.7,163.6,93.2,163.1,93.2z"/>
			</g>
			<path class="st6" d="M163.1,93.2c-0.1,0-0.2,0-0.3,0c0.4,0.1,0.7,0.5,0.7,1v1.3c0,0.5-0.3,0.8-0.7,1c0.1,0,0.2,0,0.3,0
				c0.6,0,1-0.5,1-1v-1.3C164.1,93.7,163.6,93.2,163.1,93.2z"/>
		</g>
	</g>
	<g>
		<polygon class="st6" points="156.5,99 163,99 162.3,98 157.1,98 		"/>
	</g>
	<g>
		<path class="st7" d="M157.3,103.3v-2.9c0-0.5,0.4-0.9,0.9-0.9h2.3c0.5,0,0.9,0.4,0.9,0.9v2.9H157.3z"/>
		<g>
			<path class="st6" d="M161.2,99.5h-0.7c0.5,0,0.9,0.4,0.9,0.9v2.9h0.7v-2.9C162.2,99.9,161.7,99.5,161.2,99.5z"/>
		</g>
		<path class="st8" d="M158.2,99.5c-0.5,0-0.9,0.4-0.9,0.9v2.9h1.3v-3.8H158.2z"/>
		<path class="st8" d="M161.4,100.4c0-0.5-0.4-0.9-0.9-0.9h-0.3v3.8h1.2V100.4z"/>
		<rect x="157.3" y="103" class="st1" width="5.2" height="0.3"/>
	</g>
	<g>
		<path class="st7" d="M157.9,101.7c0,0,0.1-0.1,0.1-0.1c0,0,0-0.1-0.1-0.1l-0.6-0.6v0.5l0.4,0.4
			C157.8,101.8,157.9,101.8,157.9,101.7z"/>
		<path class="st7" d="M157.8,101.1C157.9,101.1,157.9,101.1,157.8,101.1c0-0.1,0-0.1,0-0.2l-0.5-0.5v0.3l0.4,0.4
			C157.7,101.2,157.8,101.2,157.8,101.1z"/>
		<path class="st7" d="M157.9,101.3l0.4,0.4c0,0,0.1,0,0.1,0c0,0,0,0,0-0.1s0,0,0-0.1l-0.4-0.4c0,0-0.1,0-0.1,0
			C157.9,101.2,157.9,101.3,157.9,101.3z"/>
	</g>
	<g>
		<path class="st7" d="M160.8,101.6c0,0-0.1,0.1-0.1,0.1s0,0.1,0.1,0.1l0.6,0.6V102l-0.4-0.4C161,101.5,160.9,101.5,160.8,101.6z"/>
		<path class="st7" d="M160.9,102.2C160.9,102.2,160.9,102.2,160.9,102.2c0,0.1,0,0.1,0,0.2l0.5,0.5v-0.3l-0.4-0.4
			C161,102.1,160.9,102.1,160.9,102.2z"/>
		<path class="st7" d="M160.8,102l-0.4-0.4c0,0-0.1,0-0.1,0c0,0,0,0,0,0.1s0,0,0,0.1l0.4,0.4c0,0,0.1,0,0.1,0
			C160.9,102.1,160.9,102,160.8,102z"/>
	</g>
	<g>
		<g>
			<path class="st7" d="M155.5,72.6c0,0.6,0.5,1,1,1c0.6,0,1-0.5,1-1v-0.3h-2V72.6z"/>
			<path class="st8" d="M156.5,70.3c-0.6,0-1,0.5-1,1v0.9h2v-0.9C157.5,70.7,157.1,70.3,156.5,70.3z"/>
		</g>
		<path class="st6" d="M156.5,70.3c-0.1,0-0.2,0-0.3,0c0.4,0.1,0.7,0.5,0.7,1v1.3c0,0.5-0.3,0.8-0.7,1c0.1,0,0.2,0,0.3,0
			c0.6,0,1-0.5,1-1v-1.3C157.5,70.7,157.1,70.3,156.5,70.3z"/>
	</g>
	<g>
		<g>
			<path class="st4" d="M155.5,77.1c0,0.6,0.5,1,1,1c0.6,0,1-0.5,1-1v-0.3h-2V77.1z"/>
			<path class="st5" d="M156.5,74.9c-0.6,0-1,0.5-1,1v0.9h2v-0.9C157.5,75.3,157.1,74.9,156.5,74.9z"/>
		</g>
		<path class="st6" d="M156.5,74.9c-0.1,0-0.2,0-0.3,0c0.4,0.1,0.7,0.5,0.7,1v1.3c0,0.5-0.3,0.8-0.7,1c0.1,0,0.2,0,0.3,0
			c0.6,0,1-0.5,1-1v-1.3C157.5,75.3,157.1,74.9,156.5,74.9z"/>
	</g>
	<g>
		<g>
			<path class="st4" d="M158.8,72.6c0,0.6,0.5,1,1,1c0.6,0,1-0.5,1-1v-0.3h-2V72.6z"/>
			<path class="st5" d="M159.8,70.3c-0.6,0-1,0.5-1,1v0.9h2v-0.9C160.8,70.7,160.4,70.3,159.8,70.3z"/>
		</g>
		<path class="st6" d="M159.8,70.3c-0.1,0-0.2,0-0.3,0c0.4,0.1,0.7,0.5,0.7,1v1.3c0,0.5-0.3,0.8-0.7,1c0.1,0,0.2,0,0.3,0
			c0.6,0,1-0.5,1-1v-1.3C160.8,70.7,160.4,70.3,159.8,70.3z"/>
	</g>
	<g>
		<g>
			<path class="st7" d="M158.8,77.1c0,0.6,0.5,1,1,1c0.6,0,1-0.5,1-1v-0.3h-2V77.1z"/>
			<path class="st8" d="M159.8,74.9c-0.6,0-1,0.5-1,1v0.9h2v-0.9C160.8,75.3,160.4,74.9,159.8,74.9z"/>
		</g>
		<path class="st6" d="M159.8,74.9c-0.1,0-0.2,0-0.3,0c0.4,0.1,0.7,0.5,0.7,1v1.3c0,0.5-0.3,0.8-0.7,1c0.1,0,0.2,0,0.3,0
			c0.6,0,1-0.5,1-1v-1.3C160.8,75.3,160.4,74.9,159.8,74.9z"/>
	</g>
	<g>
		<g>
			<path class="st7" d="M162.1,72.6c0,0.6,0.5,1,1,1c0.6,0,1-0.5,1-1v-0.3h-2V72.6z"/>
			<path class="st8" d="M163.1,70.3c-0.6,0-1,0.5-1,1v0.9h2v-0.9C164.1,70.7,163.6,70.3,163.1,70.3z"/>
		</g>
		<path class="st6" d="M163.1,70.3c-0.1,0-0.2,0-0.3,0c0.4,0.1,0.7,0.5,0.7,1v1.3c0,0.5-0.3,0.8-0.7,1c0.1,0,0.2,0,0.3,0
			c0.6,0,1-0.5,1-1v-1.3C164.1,70.7,163.6,70.3,163.1,70.3z"/>
	</g>
	<g>
		<g>
			<path class="st4" d="M162.1,77.1c0,0.6,0.5,1,1,1c0.6,0,1-0.5,1-1v-0.3h-2V77.1z"/>
			<path class="st5" d="M163.1,74.9c-0.6,0-1,0.5-1,1v0.9h2v-0.9C164.1,75.3,163.6,74.9,163.1,74.9z"/>
		</g>
		<path class="st6" d="M163.1,74.9c-0.1,0-0.2,0-0.3,0c0.4,0.1,0.7,0.5,0.7,1v1.3c0,0.5-0.3,0.8-0.7,1c0.1,0,0.2,0,0.3,0
			c0.6,0,1-0.5,1-1v-1.3C164.1,75.3,163.6,74.9,163.1,74.9z"/>
	</g>
	<g>
		<rect x="90.6" y="83.9" class="st1" width="0.6" height="3.3"/>
		<rect x="98.7" y="83.9" class="st1" width="0.6" height="3.3"/>
		<rect x="89" y="79.5" class="st2" width="11.9" height="5.4"/>
		<g>
			<path class="st3" d="M89.5,84.3h11v-4.4h-11V84.3z"/>
		</g>
	</g>
	<g>
		<g>
			<g>
				<g>
					<path class="st8" d="M106.7,62.5c-0.3,0-0.6,0.3-0.6,0.6v1.5h1.1v-1.5C107.3,62.8,107.1,62.5,106.7,62.5z"/>
				</g>
				<path class="st6" d="M107.3,64.6v-1.5c0-0.3-0.3-0.6-0.6-0.6c-0.1,0-0.1,0-0.2,0c0.2,0.1,0.4,0.3,0.4,0.5v1.5H107.3z"/>
			</g>
			<g>
				<g>
					<path class="st8" d="M108.5,62.5c-0.3,0-0.6,0.3-0.6,0.6v1.5h1.1v-1.5C109,62.8,108.8,62.5,108.5,62.5z"/>
				</g>
				<path class="st6" d="M109,64.6v-1.5c0-0.3-0.3-0.6-0.6-0.6c-0.1,0-0.1,0-0.2,0c0.2,0.1,0.4,0.3,0.4,0.5v1.5H109z"/>
			</g>
			<g>
				<g>
					<path class="st8" d="M110.2,62.5c-0.3,0-0.6,0.3-0.6,0.6v1.5h1.1v-1.5C110.8,62.8,110.5,62.5,110.2,62.5z"/>
				</g>
				<path class="st6" d="M110.8,64.6v-1.5c0-0.3-0.3-0.6-0.6-0.6c-0.1,0-0.1,0-0.2,0c0.2,0.1,0.4,0.3,0.4,0.5v1.5H110.8z"/>
			</g>
			<g>
				<g>
					<path class="st8" d="M111.9,62.5c-0.3,0-0.6,0.3-0.6,0.6v1.5h1.1v-1.5C112.5,62.8,112.2,62.5,111.9,62.5z"/>
				</g>
				<path class="st6" d="M112.5,64.6v-1.5c0-0.3-0.3-0.6-0.6-0.6c-0.1,0-0.1,0-0.2,0c0.2,0.1,0.4,0.3,0.4,0.5v1.5H112.5z"/>
			</g>
			<g>
				<g>
					<path class="st8" d="M113.6,62.5c-0.3,0-0.6,0.3-0.6,0.6v1.5h1.1v-1.5C114.2,62.8,114,62.5,113.6,62.5z"/>
				</g>
				<path class="st6" d="M114.2,64.6v-1.5c0-0.3-0.3-0.6-0.6-0.6c-0.1,0-0.1,0-0.2,0c0.2,0.1,0.4,0.3,0.4,0.5v1.5H114.2z"/>
			</g>
			<g>
				<g>
					<path class="st8" d="M115.4,62.5c-0.3,0-0.6,0.3-0.6,0.6v1.5h1.1v-1.5C115.9,62.8,115.7,62.5,115.4,62.5z"/>
				</g>
				<path class="st6" d="M115.9,64.6v-1.5c0-0.3-0.3-0.6-0.6-0.6c-0.1,0-0.1,0-0.2,0c0.2,0.1,0.4,0.3,0.4,0.5v1.5H115.9z"/>
			</g>
			<g>
				<g>
					<path class="st8" d="M117.1,62.5c-0.3,0-0.6,0.3-0.6,0.6v1.5h1.1v-1.5C117.7,62.8,117.4,62.5,117.1,62.5z"/>
				</g>
				<path class="st6" d="M117.7,64.6v-1.5c0-0.3-0.3-0.6-0.6-0.6c-0.1,0-0.1,0-0.2,0c0.2,0.1,0.4,0.3,0.4,0.5v1.5H117.7z"/>
			</g>
		</g>
		<g>
			<g>
				<path class="st8" d="M106.7,65.9c-0.3,0-0.6,0.3-0.6,0.6v1.5h1.1v-1.5C107.3,66.1,107.1,65.9,106.7,65.9z"/>
				<path class="st6" d="M107.3,67.9v-1.5c0-0.3-0.3-0.6-0.6-0.6c-0.1,0-0.1,0-0.2,0c0.2,0.1,0.4,0.3,0.4,0.5v1.5H107.3z"/>
			</g>
			<g>
				<path class="st8" d="M108.5,65.9c-0.3,0-0.6,0.3-0.6,0.6v1.5h1.1v-1.5C109,66.1,108.8,65.9,108.5,65.9z"/>
				<path class="st6" d="M109,67.9v-1.5c0-0.3-0.3-0.6-0.6-0.6c-0.1,0-0.1,0-0.2,0c0.2,0.1,0.4,0.3,0.4,0.5v1.5H109z"/>
			</g>
			<g>
				<path class="st8" d="M110.2,65.9c-0.3,0-0.6,0.3-0.6,0.6v1.5h1.1v-1.5C110.8,66.1,110.5,65.9,110.2,65.9z"/>
				<path class="st6" d="M110.8,67.9v-1.5c0-0.3-0.3-0.6-0.6-0.6c-0.1,0-0.1,0-0.2,0c0.2,0.1,0.4,0.3,0.4,0.5v1.5H110.8z"/>
			</g>
			<g>
				<path class="st8" d="M111.9,65.9c-0.3,0-0.6,0.3-0.6,0.6v1.5h1.1v-1.5C112.5,66.1,112.2,65.9,111.9,65.9z"/>
				<path class="st6" d="M112.5,67.9v-1.5c0-0.3-0.3-0.6-0.6-0.6c-0.1,0-0.1,0-0.2,0c0.2,0.1,0.4,0.3,0.4,0.5v1.5H112.5z"/>
			</g>
			<g>
				<path class="st8" d="M113.6,65.9c-0.3,0-0.6,0.3-0.6,0.6v1.5h1.1v-1.5C114.2,66.1,114,65.9,113.6,65.9z"/>
				<path class="st6" d="M114.2,67.9v-1.5c0-0.3-0.3-0.6-0.6-0.6c-0.1,0-0.1,0-0.2,0c0.2,0.1,0.4,0.3,0.4,0.5v1.5H114.2z"/>
			</g>
			<g>
				<path class="st8" d="M115.4,65.9c-0.3,0-0.6,0.3-0.6,0.6v1.5h1.1v-1.5C115.9,66.1,115.7,65.9,115.4,65.9z"/>
				<path class="st6" d="M115.9,67.9v-1.5c0-0.3-0.3-0.6-0.6-0.6c-0.1,0-0.1,0-0.2,0c0.2,0.1,0.4,0.3,0.4,0.5v1.5H115.9z"/>
			</g>
			<g>
				<path class="st8" d="M117.1,65.9c-0.3,0-0.6,0.3-0.6,0.6v1.5h1.1v-1.5C117.7,66.1,117.4,65.9,117.1,65.9z"/>
				<path class="st6" d="M117.7,67.9v-1.5c0-0.3-0.3-0.6-0.6-0.6c-0.1,0-0.1,0-0.2,0c0.2,0.1,0.4,0.3,0.4,0.5v1.5H117.7z"/>
			</g>
		</g>
		<g>
			<g>
				<path class="st8" d="M106.7,69.3c-0.3,0-0.6,0.3-0.6,0.6v1.5h1.1v-1.5C107.3,69.5,107.1,69.3,106.7,69.3z"/>
				<path class="st6" d="M107.3,71.3v-1.5c0-0.3-0.3-0.6-0.6-0.6c-0.1,0-0.1,0-0.2,0c0.2,0.1,0.4,0.3,0.4,0.5v1.5H107.3z"/>
			</g>
			<g>
				<path class="st8" d="M108.5,69.3c-0.3,0-0.6,0.3-0.6,0.6v1.5h1.1v-1.5C109,69.5,108.8,69.3,108.5,69.3z"/>
				<path class="st6" d="M109,71.3v-1.5c0-0.3-0.3-0.6-0.6-0.6c-0.1,0-0.1,0-0.2,0c0.2,0.1,0.4,0.3,0.4,0.5v1.5H109z"/>
			</g>
			<g>
				<path class="st8" d="M110.2,69.3c-0.3,0-0.6,0.3-0.6,0.6v1.5h1.1v-1.5C110.8,69.5,110.5,69.3,110.2,69.3z"/>
				<path class="st6" d="M110.8,71.3v-1.5c0-0.3-0.3-0.6-0.6-0.6c-0.1,0-0.1,0-0.2,0c0.2,0.1,0.4,0.3,0.4,0.5v1.5H110.8z"/>
			</g>
			<g>
				<path class="st8" d="M111.9,69.3c-0.3,0-0.6,0.3-0.6,0.6v1.5h1.1v-1.5C112.5,69.5,112.2,69.3,111.9,69.3z"/>
				<path class="st6" d="M112.5,71.3v-1.5c0-0.3-0.3-0.6-0.6-0.6c-0.1,0-0.1,0-0.2,0c0.2,0.1,0.4,0.3,0.4,0.5v1.5H112.5z"/>
			</g>
			<g>
				<path class="st8" d="M113.6,69.3c-0.3,0-0.6,0.3-0.6,0.6v1.5h1.1v-1.5C114.2,69.5,114,69.3,113.6,69.3z"/>
				<path class="st6" d="M114.2,71.3v-1.5c0-0.3-0.3-0.6-0.6-0.6c-0.1,0-0.1,0-0.2,0c0.2,0.1,0.4,0.3,0.4,0.5v1.5H114.2z"/>
			</g>
			<g>
				<path class="st8" d="M115.4,69.3c-0.3,0-0.6,0.3-0.6,0.6v1.5h1.1v-1.5C115.9,69.5,115.7,69.3,115.4,69.3z"/>
				<path class="st6" d="M115.9,71.3v-1.5c0-0.3-0.3-0.6-0.6-0.6c-0.1,0-0.1,0-0.2,0c0.2,0.1,0.4,0.3,0.4,0.5v1.5H115.9z"/>
			</g>
			<g>
				<path class="st8" d="M117.1,69.3c-0.3,0-0.6,0.3-0.6,0.6v1.5h1.1v-1.5C117.7,69.5,117.4,69.3,117.1,69.3z"/>
				<path class="st6" d="M117.7,71.3v-1.5c0-0.3-0.3-0.6-0.6-0.6c-0.1,0-0.1,0-0.2,0c0.2,0.1,0.4,0.3,0.4,0.5v1.5H117.7z"/>
			</g>
		</g>
		<g>
			<g>
				<path class="st8" d="M106.7,72.6c-0.3,0-0.6,0.3-0.6,0.6v1.5h1.1v-1.5C107.3,72.9,107.1,72.6,106.7,72.6z"/>
				<path class="st6" d="M107.3,74.7v-1.5c0-0.3-0.3-0.6-0.6-0.6c-0.1,0-0.1,0-0.2,0c0.2,0.1,0.4,0.3,0.4,0.5v1.5H107.3z"/>
			</g>
			<g>
				<path class="st8" d="M108.5,72.6c-0.3,0-0.6,0.3-0.6,0.6v1.5h1.1v-1.5C109,72.9,108.8,72.6,108.5,72.6z"/>
				<path class="st6" d="M109,74.7v-1.5c0-0.3-0.3-0.6-0.6-0.6c-0.1,0-0.1,0-0.2,0c0.2,0.1,0.4,0.3,0.4,0.5v1.5H109z"/>
			</g>
			<g>
				<path class="st8" d="M110.2,72.6c-0.3,0-0.6,0.3-0.6,0.6v1.5h1.1v-1.5C110.8,72.9,110.5,72.6,110.2,72.6z"/>
				<path class="st6" d="M110.8,74.7v-1.5c0-0.3-0.3-0.6-0.6-0.6c-0.1,0-0.1,0-0.2,0c0.2,0.1,0.4,0.3,0.4,0.5v1.5H110.8z"/>
			</g>
			<g>
				<path class="st8" d="M111.9,72.6c-0.3,0-0.6,0.3-0.6,0.6v1.5h1.1v-1.5C112.5,72.9,112.2,72.6,111.9,72.6z"/>
				<path class="st6" d="M112.5,74.7v-1.5c0-0.3-0.3-0.6-0.6-0.6c-0.1,0-0.1,0-0.2,0c0.2,0.1,0.4,0.3,0.4,0.5v1.5H112.5z"/>
			</g>
			<g>
				<path class="st8" d="M113.6,72.6c-0.3,0-0.6,0.3-0.6,0.6v1.5h1.1v-1.5C114.2,72.9,114,72.6,113.6,72.6z"/>
				<path class="st6" d="M114.2,74.7v-1.5c0-0.3-0.3-0.6-0.6-0.6c-0.1,0-0.1,0-0.2,0c0.2,0.1,0.4,0.3,0.4,0.5v1.5H114.2z"/>
			</g>
			<g>
				<path class="st8" d="M115.4,72.6c-0.3,0-0.6,0.3-0.6,0.6v1.5h1.1v-1.5C115.9,72.9,115.7,72.6,115.4,72.6z"/>
				<path class="st6" d="M115.9,74.7v-1.5c0-0.3-0.3-0.6-0.6-0.6c-0.1,0-0.1,0-0.2,0c0.2,0.1,0.4,0.3,0.4,0.5v1.5H115.9z"/>
			</g>
			<g>
				<path class="st8" d="M117.1,72.6c-0.3,0-0.6,0.3-0.6,0.6v1.5h1.1v-1.5C117.7,72.9,117.4,72.6,117.1,72.6z"/>
				<path class="st6" d="M117.7,74.7v-1.5c0-0.3-0.3-0.6-0.6-0.6c-0.1,0-0.1,0-0.2,0c0.2,0.1,0.4,0.3,0.4,0.5v1.5H117.7z"/>
			</g>
		</g>
		<g>
			<g>
				<path class="st8" d="M106.7,76c-0.3,0-0.6,0.3-0.6,0.6v1.5h1.1v-1.5C107.3,76.3,107.1,76,106.7,76z"/>
				<path class="st6" d="M107.3,78.1v-1.5c0-0.3-0.3-0.6-0.6-0.6c-0.1,0-0.1,0-0.2,0c0.2,0.1,0.4,0.3,0.4,0.5v1.5H107.3z"/>
			</g>
			<g>
				<path class="st8" d="M108.5,76c-0.3,0-0.6,0.3-0.6,0.6v1.5h1.1v-1.5C109,76.3,108.8,76,108.5,76z"/>
				<path class="st6" d="M109,78.1v-1.5c0-0.3-0.3-0.6-0.6-0.6c-0.1,0-0.1,0-0.2,0c0.2,0.1,0.4,0.3,0.4,0.5v1.5H109z"/>
			</g>
			<g>
				<path class="st8" d="M110.2,76c-0.3,0-0.6,0.3-0.6,0.6v1.5h1.1v-1.5C110.8,76.3,110.5,76,110.2,76z"/>
				<path class="st6" d="M110.8,78.1v-1.5c0-0.3-0.3-0.6-0.6-0.6c-0.1,0-0.1,0-0.2,0c0.2,0.1,0.4,0.3,0.4,0.5v1.5H110.8z"/>
			</g>
			<g>
				<path class="st8" d="M111.9,76c-0.3,0-0.6,0.3-0.6,0.6v1.5h1.1v-1.5C112.5,76.3,112.2,76,111.9,76z"/>
				<path class="st6" d="M112.5,78.1v-1.5c0-0.3-0.3-0.6-0.6-0.6c-0.1,0-0.1,0-0.2,0c0.2,0.1,0.4,0.3,0.4,0.5v1.5H112.5z"/>
			</g>
			<g>
				<path class="st8" d="M113.6,76c-0.3,0-0.6,0.3-0.6,0.6v1.5h1.1v-1.5C114.2,76.3,114,76,113.6,76z"/>
				<path class="st6" d="M114.2,78.1v-1.5c0-0.3-0.3-0.6-0.6-0.6c-0.1,0-0.1,0-0.2,0c0.2,0.1,0.4,0.3,0.4,0.5v1.5H114.2z"/>
			</g>
			<g>
				<path class="st8" d="M115.4,76c-0.3,0-0.6,0.3-0.6,0.6v1.5h1.1v-1.5C115.9,76.3,115.7,76,115.4,76z"/>
				<path class="st6" d="M115.9,78.1v-1.5c0-0.3-0.3-0.6-0.6-0.6c-0.1,0-0.1,0-0.2,0c0.2,0.1,0.4,0.3,0.4,0.5v1.5H115.9z"/>
			</g>
			<g>
				<path class="st8" d="M117.1,76c-0.3,0-0.6,0.3-0.6,0.6v1.5h1.1v-1.5C117.7,76.3,117.4,76,117.1,76z"/>
				<path class="st6" d="M117.7,78.1v-1.5c0-0.3-0.3-0.6-0.6-0.6c-0.1,0-0.1,0-0.2,0c0.2,0.1,0.4,0.3,0.4,0.5v1.5H117.7z"/>
			</g>
		</g>
		<g>
			<g>
				<path class="st8" d="M106.7,79.4c-0.3,0-0.6,0.3-0.6,0.6v1.5h1.1v-1.5C107.3,79.6,107.1,79.4,106.7,79.4z"/>
				<path class="st6" d="M107.3,81.4v-1.5c0-0.3-0.3-0.6-0.6-0.6c-0.1,0-0.1,0-0.2,0c0.2,0.1,0.4,0.3,0.4,0.5v1.5H107.3z"/>
			</g>
			<g>
				<path class="st8" d="M108.5,79.4c-0.3,0-0.6,0.3-0.6,0.6v1.5h1.1v-1.5C109,79.6,108.8,79.4,108.5,79.4z"/>
				<path class="st6" d="M109,81.4v-1.5c0-0.3-0.3-0.6-0.6-0.6c-0.1,0-0.1,0-0.2,0c0.2,0.1,0.4,0.3,0.4,0.5v1.5H109z"/>
			</g>
			<g>
				<path class="st8" d="M110.2,79.4c-0.3,0-0.6,0.3-0.6,0.6v1.5h1.1v-1.5C110.8,79.6,110.5,79.4,110.2,79.4z"/>
				<path class="st6" d="M110.8,81.4v-1.5c0-0.3-0.3-0.6-0.6-0.6c-0.1,0-0.1,0-0.2,0c0.2,0.1,0.4,0.3,0.4,0.5v1.5H110.8z"/>
			</g>
			<g>
				<path class="st8" d="M111.9,79.4c-0.3,0-0.6,0.3-0.6,0.6v1.5h1.1v-1.5C112.5,79.6,112.2,79.4,111.9,79.4z"/>
				<path class="st6" d="M112.5,81.4v-1.5c0-0.3-0.3-0.6-0.6-0.6c-0.1,0-0.1,0-0.2,0c0.2,0.1,0.4,0.3,0.4,0.5v1.5H112.5z"/>
			</g>
			<g>
				<path class="st8" d="M113.6,79.4c-0.3,0-0.6,0.3-0.6,0.6v1.5h1.1v-1.5C114.2,79.6,114,79.4,113.6,79.4z"/>
				<path class="st6" d="M114.2,81.4v-1.5c0-0.3-0.3-0.6-0.6-0.6c-0.1,0-0.1,0-0.2,0c0.2,0.1,0.4,0.3,0.4,0.5v1.5H114.2z"/>
			</g>
			<g>
				<path class="st8" d="M115.4,79.4c-0.3,0-0.6,0.3-0.6,0.6v1.5h1.1v-1.5C115.9,79.6,115.7,79.4,115.4,79.4z"/>
				<path class="st6" d="M115.9,81.4v-1.5c0-0.3-0.3-0.6-0.6-0.6c-0.1,0-0.1,0-0.2,0c0.2,0.1,0.4,0.3,0.4,0.5v1.5H115.9z"/>
			</g>
			<g>
				<path class="st8" d="M117.1,79.4c-0.3,0-0.6,0.3-0.6,0.6v1.5h1.1v-1.5C117.7,79.6,117.4,79.4,117.1,79.4z"/>
				<path class="st6" d="M117.7,81.4v-1.5c0-0.3-0.3-0.6-0.6-0.6c-0.1,0-0.1,0-0.2,0c0.2,0.1,0.4,0.3,0.4,0.5v1.5H117.7z"/>
			</g>
		</g>
		<g>
			<g>
				<path class="st8" d="M106.7,82.8c-0.3,0-0.6,0.3-0.6,0.6v1.5h1.1v-1.5C107.3,83,107.1,82.8,106.7,82.8z"/>
				<path class="st6" d="M107.3,84.8v-1.5c0-0.3-0.3-0.6-0.6-0.6c-0.1,0-0.1,0-0.2,0c0.2,0.1,0.4,0.3,0.4,0.5v1.5H107.3z"/>
			</g>
			<g>
				<path class="st8" d="M108.5,82.8c-0.3,0-0.6,0.3-0.6,0.6v1.5h1.1v-1.5C109,83,108.8,82.8,108.5,82.8z"/>
				<path class="st6" d="M109,84.8v-1.5c0-0.3-0.3-0.6-0.6-0.6c-0.1,0-0.1,0-0.2,0c0.2,0.1,0.4,0.3,0.4,0.5v1.5H109z"/>
			</g>
			<g>
				<path class="st8" d="M110.2,82.8c-0.3,0-0.6,0.3-0.6,0.6v1.5h1.1v-1.5C110.8,83,110.5,82.8,110.2,82.8z"/>
				<path class="st6" d="M110.8,84.8v-1.5c0-0.3-0.3-0.6-0.6-0.6c-0.1,0-0.1,0-0.2,0c0.2,0.1,0.4,0.3,0.4,0.5v1.5H110.8z"/>
			</g>
			<g>
				<path class="st8" d="M111.9,82.8c-0.3,0-0.6,0.3-0.6,0.6v1.5h1.1v-1.5C112.5,83,112.2,82.8,111.9,82.8z"/>
				<path class="st6" d="M112.5,84.8v-1.5c0-0.3-0.3-0.6-0.6-0.6c-0.1,0-0.1,0-0.2,0c0.2,0.1,0.4,0.3,0.4,0.5v1.5H112.5z"/>
			</g>
			<g>
				<path class="st8" d="M113.6,82.8c-0.3,0-0.6,0.3-0.6,0.6v1.5h1.1v-1.5C114.2,83,114,82.8,113.6,82.8z"/>
				<path class="st6" d="M114.2,84.8v-1.5c0-0.3-0.3-0.6-0.6-0.6c-0.1,0-0.1,0-0.2,0c0.2,0.1,0.4,0.3,0.4,0.5v1.5H114.2z"/>
			</g>
			<g>
				<path class="st8" d="M115.4,82.8c-0.3,0-0.6,0.3-0.6,0.6v1.5h1.1v-1.5C115.9,83,115.7,82.8,115.4,82.8z"/>
				<path class="st6" d="M115.9,84.8v-1.5c0-0.3-0.3-0.6-0.6-0.6c-0.1,0-0.1,0-0.2,0c0.2,0.1,0.4,0.3,0.4,0.5v1.5H115.9z"/>
			</g>
			<g>
				<path class="st8" d="M117.1,82.8c-0.3,0-0.6,0.3-0.6,0.6v1.5h1.1v-1.5C117.7,83,117.4,82.8,117.1,82.8z"/>
				<path class="st6" d="M117.7,84.8v-1.5c0-0.3-0.3-0.6-0.6-0.6c-0.1,0-0.1,0-0.2,0c0.2,0.1,0.4,0.3,0.4,0.5v1.5H117.7z"/>
			</g>
		</g>
		<g>
			<g>
				<path class="st8" d="M106.7,86.1c-0.3,0-0.6,0.3-0.6,0.6v1.5h1.1v-1.5C107.3,86.4,107.1,86.1,106.7,86.1z"/>
				<path class="st6" d="M107.3,88.2v-1.5c0-0.3-0.3-0.6-0.6-0.6c-0.1,0-0.1,0-0.2,0c0.2,0.1,0.4,0.3,0.4,0.5v1.5H107.3z"/>
			</g>
			<g>
				<path class="st8" d="M108.5,86.1c-0.3,0-0.6,0.3-0.6,0.6v1.5h1.1v-1.5C109,86.4,108.8,86.1,108.5,86.1z"/>
				<path class="st6" d="M109,88.2v-1.5c0-0.3-0.3-0.6-0.6-0.6c-0.1,0-0.1,0-0.2,0c0.2,0.1,0.4,0.3,0.4,0.5v1.5H109z"/>
			</g>
			<g>
				<path class="st8" d="M110.2,86.1c-0.3,0-0.6,0.3-0.6,0.6v1.5h1.1v-1.5C110.8,86.4,110.5,86.1,110.2,86.1z"/>
				<path class="st6" d="M110.8,88.2v-1.5c0-0.3-0.3-0.6-0.6-0.6c-0.1,0-0.1,0-0.2,0c0.2,0.1,0.4,0.3,0.4,0.5v1.5H110.8z"/>
			</g>
			<g>
				<path class="st8" d="M111.9,86.1c-0.3,0-0.6,0.3-0.6,0.6v1.5h1.1v-1.5C112.5,86.4,112.2,86.1,111.9,86.1z"/>
				<path class="st6" d="M112.5,88.2v-1.5c0-0.3-0.3-0.6-0.6-0.6c-0.1,0-0.1,0-0.2,0c0.2,0.1,0.4,0.3,0.4,0.5v1.5H112.5z"/>
			</g>
			<g>
				<path class="st8" d="M113.6,86.1c-0.3,0-0.6,0.3-0.6,0.6v1.5h1.1v-1.5C114.2,86.4,114,86.1,113.6,86.1z"/>
				<path class="st6" d="M114.2,88.2v-1.5c0-0.3-0.3-0.6-0.6-0.6c-0.1,0-0.1,0-0.2,0c0.2,0.1,0.4,0.3,0.4,0.5v1.5H114.2z"/>
			</g>
			<g>
				<path class="st8" d="M115.4,86.1c-0.3,0-0.6,0.3-0.6,0.6v1.5h1.1v-1.5C115.9,86.4,115.7,86.1,115.4,86.1z"/>
				<path class="st6" d="M115.9,88.2v-1.5c0-0.3-0.3-0.6-0.6-0.6c-0.1,0-0.1,0-0.2,0c0.2,0.1,0.4,0.3,0.4,0.5v1.5H115.9z"/>
			</g>
			<g>
				<path class="st8" d="M117.1,86.1c-0.3,0-0.6,0.3-0.6,0.6v1.5h1.1v-1.5C117.7,86.4,117.4,86.1,117.1,86.1z"/>
				<path class="st6" d="M117.7,88.2v-1.5c0-0.3-0.3-0.6-0.6-0.6c-0.1,0-0.1,0-0.2,0c0.2,0.1,0.4,0.3,0.4,0.5v1.5H117.7z"/>
			</g>
		</g>
		<g>
			<g>
				<path class="st8" d="M106.7,89.5c-0.3,0-0.6,0.3-0.6,0.6v1.5h1.1v-1.5C107.3,89.8,107.1,89.5,106.7,89.5z"/>
				<path class="st6" d="M107.3,91.6v-1.5c0-0.3-0.3-0.6-0.6-0.6c-0.1,0-0.1,0-0.2,0c0.2,0.1,0.4,0.3,0.4,0.5v1.5H107.3z"/>
			</g>
			<g>
				<path class="st8" d="M108.5,89.5c-0.3,0-0.6,0.3-0.6,0.6v1.5h1.1v-1.5C109,89.8,108.8,89.5,108.5,89.5z"/>
				<path class="st6" d="M109,91.6v-1.5c0-0.3-0.3-0.6-0.6-0.6c-0.1,0-0.1,0-0.2,0c0.2,0.1,0.4,0.3,0.4,0.5v1.5H109z"/>
			</g>
			<g>
				<path class="st8" d="M110.2,89.5c-0.3,0-0.6,0.3-0.6,0.6v1.5h1.1v-1.5C110.8,89.8,110.5,89.5,110.2,89.5z"/>
				<path class="st6" d="M110.8,91.6v-1.5c0-0.3-0.3-0.6-0.6-0.6c-0.1,0-0.1,0-0.2,0c0.2,0.1,0.4,0.3,0.4,0.5v1.5H110.8z"/>
			</g>
			<g>
				<path class="st8" d="M111.9,89.5c-0.3,0-0.6,0.3-0.6,0.6v1.5h1.1v-1.5C112.5,89.8,112.2,89.5,111.9,89.5z"/>
				<path class="st6" d="M112.5,91.6v-1.5c0-0.3-0.3-0.6-0.6-0.6c-0.1,0-0.1,0-0.2,0c0.2,0.1,0.4,0.3,0.4,0.5v1.5H112.5z"/>
			</g>
			<g>
				<path class="st8" d="M113.6,89.5c-0.3,0-0.6,0.3-0.6,0.6v1.5h1.1v-1.5C114.2,89.8,114,89.5,113.6,89.5z"/>
				<path class="st6" d="M114.2,91.6v-1.5c0-0.3-0.3-0.6-0.6-0.6c-0.1,0-0.1,0-0.2,0c0.2,0.1,0.4,0.3,0.4,0.5v1.5H114.2z"/>
			</g>
			<g>
				<path class="st8" d="M115.4,89.5c-0.3,0-0.6,0.3-0.6,0.6v1.5h1.1v-1.5C115.9,89.8,115.7,89.5,115.4,89.5z"/>
				<path class="st6" d="M115.9,91.6v-1.5c0-0.3-0.3-0.6-0.6-0.6c-0.1,0-0.1,0-0.2,0c0.2,0.1,0.4,0.3,0.4,0.5v1.5H115.9z"/>
			</g>
			<g>
				<path class="st8" d="M117.1,89.5c-0.3,0-0.6,0.3-0.6,0.6v1.5h1.1v-1.5C117.7,89.8,117.4,89.5,117.1,89.5z"/>
				<path class="st6" d="M117.7,91.6v-1.5c0-0.3-0.3-0.6-0.6-0.6c-0.1,0-0.1,0-0.2,0c0.2,0.1,0.4,0.3,0.4,0.5v1.5H117.7z"/>
			</g>
		</g>
		<g>
			<g>
				<path class="st8" d="M106.7,92.9c-0.3,0-0.6,0.3-0.6,0.6v1.5h1.1v-1.5C107.3,93.1,107.1,92.9,106.7,92.9z"/>
				<path class="st6" d="M107.3,94.9v-1.5c0-0.3-0.3-0.6-0.6-0.6c-0.1,0-0.1,0-0.2,0c0.2,0.1,0.4,0.3,0.4,0.5v1.5H107.3z"/>
			</g>
			<g>
				<path class="st8" d="M108.5,92.9c-0.3,0-0.6,0.3-0.6,0.6v1.5h1.1v-1.5C109,93.1,108.8,92.9,108.5,92.9z"/>
				<path class="st6" d="M109,94.9v-1.5c0-0.3-0.3-0.6-0.6-0.6c-0.1,0-0.1,0-0.2,0c0.2,0.1,0.4,0.3,0.4,0.5v1.5H109z"/>
			</g>
			<g>
				<path class="st8" d="M110.2,92.9c-0.3,0-0.6,0.3-0.6,0.6v1.5h1.1v-1.5C110.8,93.1,110.5,92.9,110.2,92.9z"/>
				<path class="st6" d="M110.8,94.9v-1.5c0-0.3-0.3-0.6-0.6-0.6c-0.1,0-0.1,0-0.2,0c0.2,0.1,0.4,0.3,0.4,0.5v1.5H110.8z"/>
			</g>
			<g>
				<path class="st8" d="M111.9,92.9c-0.3,0-0.6,0.3-0.6,0.6v1.5h1.1v-1.5C112.5,93.1,112.2,92.9,111.9,92.9z"/>
				<path class="st6" d="M112.5,94.9v-1.5c0-0.3-0.3-0.6-0.6-0.6c-0.1,0-0.1,0-0.2,0c0.2,0.1,0.4,0.3,0.4,0.5v1.5H112.5z"/>
			</g>
			<g>
				<path class="st8" d="M113.6,92.9c-0.3,0-0.6,0.3-0.6,0.6v1.5h1.1v-1.5C114.2,93.1,114,92.9,113.6,92.9z"/>
				<path class="st6" d="M114.2,94.9v-1.5c0-0.3-0.3-0.6-0.6-0.6c-0.1,0-0.1,0-0.2,0c0.2,0.1,0.4,0.3,0.4,0.5v1.5H114.2z"/>
			</g>
			<g>
				<path class="st8" d="M115.4,92.9c-0.3,0-0.6,0.3-0.6,0.6v1.5h1.1v-1.5C115.9,93.1,115.7,92.9,115.4,92.9z"/>
				<path class="st6" d="M115.9,94.9v-1.5c0-0.3-0.3-0.6-0.6-0.6c-0.1,0-0.1,0-0.2,0c0.2,0.1,0.4,0.3,0.4,0.5v1.5H115.9z"/>
			</g>
			<g>
				<path class="st8" d="M117.1,92.9c-0.3,0-0.6,0.3-0.6,0.6v1.5h1.1v-1.5C117.7,93.1,117.4,92.9,117.1,92.9z"/>
				<path class="st6" d="M117.7,94.9v-1.5c0-0.3-0.3-0.6-0.6-0.6c-0.1,0-0.1,0-0.2,0c0.2,0.1,0.4,0.3,0.4,0.5v1.5H117.7z"/>
			</g>
		</g>
		<g>
			<g>
				<path class="st8" d="M106.7,96.2c-0.3,0-0.6,0.3-0.6,0.6v1.5h1.1v-1.5C107.3,96.5,107.1,96.2,106.7,96.2z"/>
				<path class="st6" d="M107.3,98.3v-1.5c0-0.3-0.3-0.6-0.6-0.6c-0.1,0-0.1,0-0.2,0c0.2,0.1,0.4,0.3,0.4,0.5v1.5H107.3z"/>
			</g>
			<g>
				<path class="st8" d="M108.5,96.2c-0.3,0-0.6,0.3-0.6,0.6v1.5h1.1v-1.5C109,96.5,108.8,96.2,108.5,96.2z"/>
				<path class="st6" d="M109,98.3v-1.5c0-0.3-0.3-0.6-0.6-0.6c-0.1,0-0.1,0-0.2,0c0.2,0.1,0.4,0.3,0.4,0.5v1.5H109z"/>
			</g>
			<g>
				<path class="st8" d="M110.2,96.2c-0.3,0-0.6,0.3-0.6,0.6v1.5h1.1v-1.5C110.8,96.5,110.5,96.2,110.2,96.2z"/>
				<path class="st6" d="M110.8,98.3v-1.5c0-0.3-0.3-0.6-0.6-0.6c-0.1,0-0.1,0-0.2,0c0.2,0.1,0.4,0.3,0.4,0.5v1.5H110.8z"/>
			</g>
			<g>
				<path class="st8" d="M111.9,96.2c-0.3,0-0.6,0.3-0.6,0.6v1.5h1.1v-1.5C112.5,96.5,112.2,96.2,111.9,96.2z"/>
				<path class="st6" d="M112.5,98.3v-1.5c0-0.3-0.3-0.6-0.6-0.6c-0.1,0-0.1,0-0.2,0c0.2,0.1,0.4,0.3,0.4,0.5v1.5H112.5z"/>
			</g>
			<g>
				<path class="st8" d="M113.6,96.2c-0.3,0-0.6,0.3-0.6,0.6v1.5h1.1v-1.5C114.2,96.5,114,96.2,113.6,96.2z"/>
				<path class="st6" d="M114.2,98.3v-1.5c0-0.3-0.3-0.6-0.6-0.6c-0.1,0-0.1,0-0.2,0c0.2,0.1,0.4,0.3,0.4,0.5v1.5H114.2z"/>
			</g>
			<g>
				<path class="st8" d="M115.4,96.2c-0.3,0-0.6,0.3-0.6,0.6v1.5h1.1v-1.5C115.9,96.5,115.7,96.2,115.4,96.2z"/>
				<path class="st6" d="M115.9,98.3v-1.5c0-0.3-0.3-0.6-0.6-0.6c-0.1,0-0.1,0-0.2,0c0.2,0.1,0.4,0.3,0.4,0.5v1.5H115.9z"/>
			</g>
			<g>
				<path class="st8" d="M117.1,96.2c-0.3,0-0.6,0.3-0.6,0.6v1.5h1.1v-1.5C117.7,96.5,117.4,96.2,117.1,96.2z"/>
				<path class="st6" d="M117.7,98.3v-1.5c0-0.3-0.3-0.6-0.6-0.6c-0.1,0-0.1,0-0.2,0c0.2,0.1,0.4,0.3,0.4,0.5v1.5H117.7z"/>
			</g>
		</g>
		<g>
			<g>
				<g>
					<path class="st8" d="M106.7,99.6c-0.3,0-0.6,0.3-0.6,0.6v1.5h1.1v-1.5C107.3,99.9,107.1,99.6,106.7,99.6z"/>
				</g>
				<path class="st6" d="M107.3,101.7v-1.5c0-0.3-0.3-0.6-0.6-0.6c-0.1,0-0.1,0-0.2,0c0.2,0.1,0.4,0.3,0.4,0.5v1.5H107.3z"/>
			</g>
			<g>
				<g>
					<path class="st8" d="M108.5,99.6c-0.3,0-0.6,0.3-0.6,0.6v1.5h1.1v-1.5C109,99.9,108.8,99.6,108.5,99.6z"/>
				</g>
				<path class="st6" d="M109,101.7v-1.5c0-0.3-0.3-0.6-0.6-0.6c-0.1,0-0.1,0-0.2,0c0.2,0.1,0.4,0.3,0.4,0.5v1.5H109z"/>
			</g>
			<g>
				<g>
					<path class="st8" d="M110.2,99.6c-0.3,0-0.6,0.3-0.6,0.6v1.5h1.1v-1.5C110.8,99.9,110.5,99.6,110.2,99.6z"/>
				</g>
				<path class="st6" d="M110.8,101.7v-1.5c0-0.3-0.3-0.6-0.6-0.6c-0.1,0-0.1,0-0.2,0c0.2,0.1,0.4,0.3,0.4,0.5v1.5H110.8z"/>
			</g>
			<g>
				<g>
					<path class="st8" d="M111.9,99.6c-0.3,0-0.6,0.3-0.6,0.6v1.5h1.1v-1.5C112.5,99.9,112.2,99.6,111.9,99.6z"/>
				</g>
				<path class="st6" d="M112.5,101.7v-1.5c0-0.3-0.3-0.6-0.6-0.6c-0.1,0-0.1,0-0.2,0c0.2,0.1,0.4,0.3,0.4,0.5v1.5H112.5z"/>
			</g>
			<g>
				<g>
					<path class="st8" d="M113.6,99.6c-0.3,0-0.6,0.3-0.6,0.6v1.5h1.1v-1.5C114.2,99.9,114,99.6,113.6,99.6z"/>
				</g>
				<path class="st6" d="M114.2,101.7v-1.5c0-0.3-0.3-0.6-0.6-0.6c-0.1,0-0.1,0-0.2,0c0.2,0.1,0.4,0.3,0.4,0.5v1.5H114.2z"/>
			</g>
			<g>
				<g>
					<path class="st8" d="M115.4,99.6c-0.3,0-0.6,0.3-0.6,0.6v1.5h1.1v-1.5C115.9,99.9,115.7,99.6,115.4,99.6z"/>
				</g>
				<path class="st6" d="M115.9,101.7v-1.5c0-0.3-0.3-0.6-0.6-0.6c-0.1,0-0.1,0-0.2,0c0.2,0.1,0.4,0.3,0.4,0.5v1.5H115.9z"/>
			</g>
			<g>
				<g>
					<path class="st8" d="M117.1,99.6c-0.3,0-0.6,0.3-0.6,0.6v1.5h1.1v-1.5C117.7,99.9,117.4,99.6,117.1,99.6z"/>
				</g>
				<path class="st6" d="M117.7,101.7v-1.5c0-0.3-0.3-0.6-0.6-0.6c-0.1,0-0.1,0-0.2,0c0.2,0.1,0.4,0.3,0.4,0.5v1.5H117.7z"/>
			</g>
		</g>
	</g>
	<g>
		<g>
			<path class="st10" d="M118.6,99l2-1.5l-2.1-0.9C118.5,97.4,118.5,98.2,118.6,99z"/>
			<path class="st0" d="M120.6,97.5l-2,1.5c0,0.4,0.1,0.7,0.1,1.1l2.4,0.9L120.6,97.5z"/>
			<polygon class="st11" points="120.6,97.5 121.1,101.1 123.9,98.8 			"/>
			<polygon class="st0" points="121.1,101.1 124.4,102.4 123.9,98.8 			"/>
			<polygon class="st11" points="124.4,102.4 127.2,100.2 123.9,98.8 			"/>
			<polygon class="st10" points="127.2,100.2 124.4,102.4 126.6,103.3 127.7,103.3 			"/>
			<polygon class="st12" points="127.2,100.2 127.7,103.3 128.3,103.3 130.6,101.5 			"/>
			<path class="st10" d="M118.3,95.3l1.7-1.4l-1.8-0.7C118.3,93.9,118.3,94.6,118.3,95.3z"/>
			<path class="st13" d="M118.3,95.3c0,0.4,0.1,0.9,0.1,1.3l2.1,0.9l-0.5-3.6L118.3,95.3z"/>
			<polygon class="st12" points="120.1,93.9 120.6,97.5 123.4,95.3 			"/>
			<polygon class="st0" points="123.4,95.3 120.6,97.5 123.9,98.8 			"/>
			<polygon class="st14" points="123.9,98.8 126.7,96.6 123.4,95.3 			"/>
			<polygon class="st0" points="123.9,98.8 127.2,100.2 126.7,96.6 			"/>
			<polygon class="st14" points="127.2,100.2 130.1,98 126.7,96.6 			"/>
			<polygon class="st13" points="130.6,101.5 130.1,98 127.2,100.2 			"/>
			<path class="st12" d="M130.6,101.5l1.1-0.9c0.1-0.6,0.1-1.3,0.2-1.9l-1.8-0.7L130.6,101.5z"/>
			<path class="st11" d="M118.7,100.1c0.1,0.8,0.2,1.7,0.3,2.6l2.1-1.6L118.7,100.1z"/>
			<path class="st0" d="M119,102.7c0,0.2,0.1,0.4,0.1,0.6h2.3l-0.3-2.2L119,102.7z"/>
			<polygon class="st14" points="121.1,101.1 121.4,103.3 123.3,103.3 124.4,102.4 			"/>
			<polygon class="st10" points="123.3,103.3 124.5,103.3 124.4,102.4 			"/>
			<polygon class="st13" points="124.5,103.3 126.6,103.3 124.4,102.4 			"/>
			<path class="st0" d="M118.2,91.4l1.3-1l-1.3-0.5C118.2,90.4,118.2,90.9,118.2,91.4z"/>
			<path class="st10" d="M118.2,91.4c0,0.6,0,1.2,0,1.8l1.8,0.7l-0.5-3.6L118.2,91.4z"/>
			<polygon class="st12" points="119.6,90.4 120.1,93.9 122.9,91.7 			"/>
			<polygon class="st13" points="120.1,93.9 123.4,95.3 122.9,91.7 			"/>
			<polygon class="st10" points="123.4,95.3 126.2,93.1 122.9,91.7 			"/>
			<polygon class="st11" points="126.7,96.6 126.2,93.1 123.4,95.3 			"/>
			<polygon class="st0" points="126.7,96.6 129.6,94.4 126.2,93.1 			"/>
			<polygon class="st11" points="130.1,98 129.6,94.4 126.7,96.6 			"/>
			<path class="st0" d="M129.6,94.4l0.5,3.6l2-1.6c0-0.3,0-0.6,0.1-0.9L129.6,94.4z"/>
			<path class="st0" d="M118.3,86.5c0,0.3,0,0.6,0,0.9l0.8-0.6L118.3,86.5z"/>
			<path class="st0" d="M119.6,90.4l-0.5-3.6l-0.8,0.6c0,0.8,0,1.6,0,2.4L119.6,90.4z"/>
			<polygon class="st11" points="122.4,88.2 119,86.8 119.6,90.4 			"/>
			<polygon class="st10" points="119.6,90.4 122.9,91.7 122.4,88.2 			"/>
			<polygon class="st12" points="122.9,91.7 125.7,89.5 122.4,88.2 			"/>
			<polygon class="st13" points="122.9,91.7 126.2,93.1 125.7,89.5 			"/>
			<polygon class="st12" points="126.2,93.1 129.1,90.8 125.7,89.5 			"/>
			<polygon class="st14" points="126.2,93.1 129.6,94.4 129.1,90.8 			"/>
			<path class="st11" d="M129.1,90.8l0.5,3.6l2.7-2.1c0-0.1,0-0.1,0-0.2L129.1,90.8z"/>
			<path class="st14" d="M132.1,95.4c0.1-1.1,0.1-2.1,0.1-3.2l-2.7,2.1L132.1,95.4z"/>
			<path class="st15" d="M118.5,83.2C118.5,83.3,118.5,83.3,118.5,83.2L118.5,83.2L118.5,83.2z"/>
			<path class="st0" d="M119,86.8l-0.5-3.6l0,0c-0.1,1-0.1,2.1-0.2,3.2L119,86.8z"/>
			<polygon class="st14" points="118.5,83.3 119,86.8 121.9,84.6 			"/>
			<polygon class="st0" points="121.9,84.6 119,86.8 122.4,88.2 			"/>
			<polygon class="st0" points="121.9,84.6 122.4,88.2 125.2,85.9 			"/>
			<polygon class="st10" points="122.4,88.2 125.7,89.5 125.2,85.9 			"/>
			<polygon class="st13" points="125.7,89.5 128.5,87.3 125.2,85.9 			"/>
			<polygon class="st10" points="125.7,89.5 129.1,90.8 128.5,87.3 			"/>
			<polygon class="st10" points="129.1,90.8 131.9,88.6 128.5,87.3 			"/>
			<path class="st0" d="M129.1,90.8l3.2,1.3c0-0.2,0-0.5,0-0.7l-0.4-2.8L129.1,90.8z"/>
			<path class="st11" d="M132.3,91.4c0-0.9,0-1.8,0-2.6l-0.4-0.2L132.3,91.4z"/>
			<path class="st15" d="M118.5,83.1c0,0.1,0,0.1,0,0.2l0,0L118.5,83.1z"/>
			<path class="st10" d="M121.4,81l-2.5-1c-0.1,1-0.2,2-0.3,3l0,0.2L121.4,81z"/>
			<polygon class="st14" points="121.4,81 118.5,83.3 121.9,84.6 			"/>
			<polygon class="st11" points="124.7,82.4 121.4,81 121.9,84.6 			"/>
			<polygon class="st14" points="124.7,82.4 121.9,84.6 125.2,85.9 			"/>
			<polygon class="st0" points="125.2,85.9 128,83.7 124.7,82.4 			"/>
			<polygon class="st10" points="128.5,87.3 128,83.7 125.2,85.9 			"/>
			<polygon class="st10" points="128.5,87.3 131.4,85.1 128,83.7 			"/>
			<polygon class="st13" points="131.9,88.6 131.4,85.1 128.5,87.3 			"/>
			<path class="st10" d="M131.9,88.6l0.4-0.3c0-1-0.1-2-0.1-2.9l-0.8-0.3L131.9,88.6z"/>
			<path class="st0" d="M132.3,88.8c0-0.2,0-0.3,0-0.5l-0.4,0.3L132.3,88.8z"/>
			<path class="st13" d="M131.9,98.7c0.1-0.8,0.1-1.6,0.2-2.3l-2,1.6L131.9,98.7z"/>
			<polygon class="st10" points="128.3,103.3 130.8,103.3 130.6,101.5 			"/>
			<path class="st13" d="M130.8,103.3h0.6c0.1-0.5,0.1-0.9,0.2-1.4l-1-0.4L130.8,103.3z"/>
			<path class="st10" d="M131.6,101.9c0.1-0.4,0.1-0.9,0.1-1.3l-1.1,0.9L131.6,101.9z"/>
			<path class="st15" d="M119.9,73.7c0,0.2-0.1,0.4-0.1,0.7l0.6-0.5L119.9,73.7z"/>
			<path class="st10" d="M120.3,73.9l-0.6,0.5c-0.2,0.8-0.3,1.6-0.5,2.4l1.6,0.6L120.3,73.9z"/>
			<polygon class="st10" points="120.3,73.9 120.8,77.5 123.7,75.3 			"/>
			<polygon class="st10" points="123.7,75.3 120.8,77.5 124.2,78.8 			"/>
			<polygon class="st10" points="123.7,75.3 124.2,78.8 127,76.6 			"/>
			<polygon class="st0" points="124.2,78.8 127.5,80.2 127,76.6 			"/>
			<polygon class="st0" points="127.5,80.2 130.3,77.9 127,76.6 			"/>
			<polygon class="st0" points="127.5,80.2 130.9,81.5 130.3,77.9 			"/>
			<path class="st11" d="M130.3,77.9l0.5,3.6l0.9-0.7c-0.1-0.8-0.2-1.6-0.3-2.4L130.3,77.9z"/>
			<path class="st10" d="M131.9,81.9c0-0.4-0.1-0.8-0.1-1.1l-0.9,0.7L131.9,81.9z"/>
			<path class="st0" d="M120.1,72.6c-0.1,0.4-0.2,0.8-0.3,1.2l0.5,0.2L120.1,72.6z"/>
			<path class="st11" d="M123.2,71.7l-2.5-1c-0.2,0.6-0.3,1.2-0.5,1.9l0.2,1.4L123.2,71.7z"/>
			<polygon class="st13" points="123.2,71.7 120.3,73.9 123.7,75.3 			"/>
			<polygon class="st12" points="126.5,73 123.2,71.7 123.7,75.3 			"/>
			<polygon class="st13" points="126.5,73 123.7,75.3 127,76.6 			"/>
			<polygon class="st12" points="129.8,74.4 126.5,73 127,76.6 			"/>
			<polygon class="st11" points="127,76.6 130.3,77.9 129.8,74.4 			"/>
			<path class="st0" d="M129.8,74.4l0.5,3.6l0.9-0.7c-0.1-0.8-0.3-1.6-0.4-2.4L129.8,74.4z"/>
			<path class="st0" d="M131.5,78.4c-0.1-0.4-0.1-0.8-0.2-1.2l-0.9,0.7L131.5,78.4z"/>
			<path class="st10" d="M119.3,76.9c-0.1,0.7-0.2,1.4-0.3,2.1l1.9-1.5L119.3,76.9z"/>
			<path class="st12" d="M121.4,81l-0.5-3.6l-1.9,1.5c0,0.3-0.1,0.7-0.1,1L121.4,81z"/>
			<polygon class="st13" points="120.8,77.5 121.4,81 124.2,78.8 			"/>
			<polygon class="st0" points="124.2,78.8 121.4,81 124.7,82.4 			"/>
			<polygon class="st11" points="124.7,82.4 127.5,80.2 124.2,78.8 			"/>
			<polygon class="st11" points="128,83.7 127.5,80.2 124.7,82.4 			"/>
			<polygon class="st14" points="128,83.7 130.9,81.5 127.5,80.2 			"/>
			<polygon class="st12" points="131.4,85.1 130.9,81.5 128,83.7 			"/>
			<path class="st13" d="M130.9,81.5l0.5,3.6l0.7-0.6c-0.1-0.9-0.1-1.7-0.2-2.6L130.9,81.5z"/>
			<path class="st10" d="M132.2,85.4c0-0.3,0-0.6-0.1-0.9l-0.7,0.6L132.2,85.4z"/>
			<path class="st0" d="M121.6,67.7c-0.2,0.5-0.4,1.1-0.6,1.7l1.6-1.3L121.6,67.7z"/>
			<path class="st14" d="M122.7,68.1l-1.6,1.3c-0.1,0.4-0.3,0.8-0.4,1.3l2.5,1L122.7,68.1z"/>
			<polygon class="st11" points="122.7,68.1 123.2,71.7 126,69.5 			"/>
			<polygon class="st10" points="126,69.5 123.2,71.7 126.5,73 			"/>
			<polygon class="st13" points="129.3,70.8 126,69.5 126.5,73 			"/>
			<polygon class="st10" points="129.3,70.8 126.5,73 129.8,74.4 			"/>
			<path class="st10" d="M129.8,74.4l0.8-0.6c-0.2-0.9-0.4-1.8-0.7-2.7l-0.6-0.3L129.8,74.4z"/>
			<path class="st0" d="M130.6,73.8l-0.8,0.6l1,0.4C130.8,74.4,130.7,74.1,130.6,73.8z"/>
			<path class="st11" d="M122.4,66c-0.2,0.5-0.5,1.1-0.7,1.7l1,0.4L122.4,66z"/>
			<path class="st11" d="M125.5,65.9l-2.5-1c-0.2,0.3-0.4,0.7-0.6,1.1l0.3,2.1L125.5,65.9z"/>
			<polygon class="st0" points="125.5,65.9 122.7,68.1 126,69.5 			"/>
			<path class="st0" d="M126,69.5l2.7-2.1c0,0,0-0.1-0.1-0.1l-3.2-1.3L126,69.5z"/>
			<path class="st12" d="M128.9,67.8c-0.1-0.2-0.1-0.3-0.2-0.4l-2.7,2.1l3.3,1.3L128.9,67.8z"/>
			<path class="st10" d="M129.8,70.5c-0.3-1-0.6-1.9-0.9-2.7l0.4,3L129.8,70.5z"/>
			<path class="st10" d="M130,71.1c-0.1-0.2-0.1-0.4-0.2-0.6l-0.5,0.4L130,71.1z"/>
			<path class="st0" d="M125,62.9c-0.6,0.1-1.4,0.8-2.1,2.1l2.5,1L125,62.9z"/>
			<path class="st14" d="M127.3,64.5c-0.7-1.1-1.4-1.7-2-1.7c-0.1,0-0.1,0-0.2,0l0.4,3.1L127.3,64.5z"/>
			<path class="st11" d="M128.7,67.2c-0.5-1.1-0.9-2-1.4-2.7l-1.8,1.4L128.7,67.2z"/>
		</g>
		<path class="st16" d="M131.4,103.3c3.1-23.2-2.8-40.4-6.2-40.4c-3.4,0-9.3,17.2-6.2,40.4"/>
		<path class="st17" d="M125.2,62.8c-1.9,0-6.3,16.1-3,40.4l-3.2,0C116,80.1,121.9,62.8,125.2,62.8L125.2,62.8z"/>
	</g>
	<g>
		<g>
			<path class="st7" d="M91.2,92.1c0,0.6,0.5,1,1,1c0.6,0,1-0.5,1-1v-0.3h-2V92.1z"/>
			<path class="st8" d="M92.2,89.8c-0.6,0-1,0.5-1,1v0.9h2v-0.9C93.2,90.3,92.8,89.8,92.2,89.8z"/>
		</g>
		<path class="st6" d="M92.2,89.8c-0.1,0-0.2,0-0.3,0c0.4,0.1,0.7,0.5,0.7,1v1.3c0,0.5-0.3,0.8-0.7,1c0.1,0,0.2,0,0.3,0
			c0.6,0,1-0.5,1-1v-1.3C93.2,90.3,92.8,89.8,92.2,89.8z"/>
	</g>
	<g>
		<g>
			<path class="st4" d="M91.2,96.7c0,0.6,0.5,1,1,1c0.6,0,1-0.5,1-1v-0.3h-2V96.7z"/>
			<path class="st5" d="M92.2,94.4c-0.6,0-1,0.5-1,1v0.9h2v-0.9C93.2,94.9,92.8,94.4,92.2,94.4z"/>
		</g>
		<path class="st6" d="M92.2,94.4c-0.1,0-0.2,0-0.3,0c0.4,0.1,0.7,0.5,0.7,1v1.3c0,0.5-0.3,0.8-0.7,1c0.1,0,0.2,0,0.3,0
			c0.6,0,1-0.5,1-1v-1.3C93.2,94.9,92.8,94.4,92.2,94.4z"/>
	</g>
	<g>
		<g>
			<path class="st4" d="M95.1,92.1c0,0.6,0.5,1,1,1c0.6,0,1-0.5,1-1v-0.3h-2V92.1z"/>
			<path class="st5" d="M96.1,89.8c-0.6,0-1,0.5-1,1v0.9h2v-0.9C97.1,90.3,96.6,89.8,96.1,89.8z"/>
		</g>
		<path class="st6" d="M96.1,89.8c-0.1,0-0.2,0-0.3,0c0.4,0.1,0.7,0.5,0.7,1v1.3c0,0.5-0.3,0.8-0.7,1c0.1,0,0.2,0,0.3,0
			c0.6,0,1-0.5,1-1v-1.3C97.1,90.3,96.6,89.8,96.1,89.8z"/>
	</g>
	<g>
		<g>
			<path class="st7" d="M95.1,96.7c0,0.6,0.5,1,1,1c0.6,0,1-0.5,1-1v-0.3h-2V96.7z"/>
			<path class="st8" d="M96.1,94.4c-0.6,0-1,0.5-1,1v0.9h2v-0.9C97.1,94.9,96.6,94.4,96.1,94.4z"/>
		</g>
		<path class="st6" d="M96.1,94.4c-0.1,0-0.2,0-0.3,0c0.4,0.1,0.7,0.5,0.7,1v1.3c0,0.5-0.3,0.8-0.7,1c0.1,0,0.2,0,0.3,0
			c0.6,0,1-0.5,1-1v-1.3C97.1,94.9,96.6,94.4,96.1,94.4z"/>
	</g>
	<g>
		<g>
			<path class="st7" d="M98.9,92.1c0,0.6,0.5,1,1,1c0.6,0,1-0.5,1-1v-0.3h-2V92.1z"/>
			<path class="st8" d="M99.9,89.8c-0.6,0-1,0.5-1,1v0.9h2v-0.9C100.9,90.3,100.5,89.8,99.9,89.8z"/>
		</g>
		<path class="st6" d="M99.9,89.8c-0.1,0-0.2,0-0.3,0c0.4,0.1,0.7,0.5,0.7,1v1.3c0,0.5-0.3,0.8-0.7,1c0.1,0,0.2,0,0.3,0
			c0.6,0,1-0.5,1-1v-1.3C100.9,90.3,100.5,89.8,99.9,89.8z"/>
	</g>
	<g>
		<g>
			<path class="st4" d="M98.9,96.7c0,0.6,0.5,1,1,1c0.6,0,1-0.5,1-1v-0.3h-2V96.7z"/>
			<path class="st5" d="M99.9,94.4c-0.6,0-1,0.5-1,1v0.9h2v-0.9C100.9,94.9,100.5,94.4,99.9,94.4z"/>
		</g>
		<path class="st6" d="M99.9,94.4c-0.1,0-0.2,0-0.3,0c0.4,0.1,0.7,0.5,0.7,1v1.3c0,0.5-0.3,0.8-0.7,1c0.1,0,0.2,0,0.3,0
			c0.6,0,1-0.5,1-1v-1.3C100.9,94.9,100.5,94.4,99.9,94.4z"/>
	</g>
	<g>
		<g>
			<path class="st4" d="M91.2,101.3c0,0.6,0.5,1,1,1c0.6,0,1-0.5,1-1V101h-2V101.3z"/>
			<path class="st5" d="M92.2,99c-0.6,0-1,0.5-1,1v0.9h2V100C93.2,99.5,92.8,99,92.2,99z"/>
		</g>
		<path class="st6" d="M92.2,99c-0.1,0-0.2,0-0.3,0c0.4,0.1,0.7,0.5,0.7,1v1.3c0,0.5-0.3,0.8-0.7,1c0.1,0,0.2,0,0.3,0
			c0.6,0,1-0.5,1-1V100C93.2,99.5,92.8,99,92.2,99z"/>
	</g>
	<g>
		<g>
			<path class="st4" d="M98.9,101.3c0,0.6,0.5,1,1,1c0.6,0,1-0.5,1-1V101h-2V101.3z"/>
			<path class="st5" d="M99.9,99c-0.6,0-1,0.5-1,1v0.9h2V100C100.9,99.5,100.5,99,99.9,99z"/>
		</g>
		<path class="st6" d="M99.9,99c-0.1,0-0.2,0-0.3,0c0.4,0.1,0.7,0.5,0.7,1v1.3c0,0.5-0.3,0.8-0.7,1c0.1,0,0.2,0,0.3,0
			c0.6,0,1-0.5,1-1V100C100.9,99.5,100.5,99,99.9,99z"/>
	</g>
	<g>
		<g>
			<path class="st7" d="M96.2,98.7c-1.1,0-2,0.9-2,2v3.6h4.1v-3.6C98.2,99.6,97.3,98.7,96.2,98.7z"/>
		</g>
		<path class="st6" d="M98.2,104.3v-3.6c0-1.1-0.9-2-2-2c-0.2,0-0.4,0-0.5,0.1c0.9,0.2,1.5,1,1.5,1.9v3.6H98.2z"/>
	</g>
	<rect x="9.8" y="103.3" class="st18" width="160.3" height="2.1"/>
</g>
</svg>
