<svg version="1.1" id="Layer_1" xmlns="http://www.w3.org/2000/svg" xmlns:xlink="http://www.w3.org/1999/xlink" x="0px" y="0px"
	 viewBox="0 0 100 100" style="enable-background:new 0 0 100 100;" xml:space="preserve">
<g>
	<path class="st0" d="M47.3,63.5c-0.2,0-0.4-0.1-0.4-0.3l-0.4-2.5l-5.5-1.2c-0.2,0-0.3-0.3-0.3-0.5c0-0.2,0.2-0.3,0.5-0.3l5.7,1.2
		c0.2,0,0.3,0.2,0.3,0.3l0.4,2.8C47.7,63.2,47.6,63.4,47.3,63.5C47.4,63.5,47.3,63.5,47.3,63.5z"/>
</g>
<path class="st1" d="M55.5,66.4h-7.3c-0.2,0-0.4-0.1-0.4-0.3l-0.9-5.7c0-0.1,0-0.2,0.1-0.3c0.1-0.1,0.2-0.1,0.3-0.1h9.1
	c0.1,0,0.2,0,0.3,0.1c0.1,0.1,0.1,0.2,0.1,0.3L55.9,66C55.9,66.2,55.7,66.4,55.5,66.4z"/>
<g>
	<path class="st2" d="M48,61.6c-0.1,0-0.2-0.1-0.2-0.2l-0.1-0.9c0-0.1,0.1-0.2,0.2-0.2c0.1,0,0.2,0.1,0.2,0.2l0.1,0.9
		C48.3,61.5,48.2,61.6,48,61.6C48.1,61.6,48.1,61.6,48,61.6z"/>
</g>
<g>
	<path class="st2" d="M48.5,64.7c-0.1,0-0.2-0.1-0.2-0.2l-0.3-2.4c0-0.1,0.1-0.2,0.2-0.2c0.1,0,0.2,0.1,0.2,0.2l0.3,2.4
		C48.7,64.6,48.6,64.7,48.5,64.7C48.5,64.7,48.5,64.7,48.5,64.7z"/>
</g>
<path class="st3" d="M56.7,60c-0.1-0.1-0.2-0.1-0.3-0.1h-2.8L53,66.4h2.5c0.2,0,0.4-0.1,0.4-0.3l0.9-5.7
	C56.8,60.2,56.7,60.1,56.7,60z"/>
<g class="st4">
	<path class="st5" d="M51.6,59.1c-0.6,0-1.2-0.5-1.2-1.2s0.5-1.2,1.2-1.2c0.3,0,0.5-0.2,0.5-0.5c0-0.3-0.2-0.5-0.5-0.5
		c-0.2,0-0.3-0.2-0.3-0.3s0.2-0.3,0.3-0.3c0.6,0,1.2,0.5,1.2,1.2s-0.5,1.2-1.2,1.2c-0.3,0-0.5,0.2-0.5,0.5c0,0.3,0.2,0.5,0.5,0.5
		c0.2,0,0.3,0.2,0.3,0.3S51.8,59.1,51.6,59.1z"/>
</g>
<g class="st4">
	<path class="st5" d="M54,56.4c-0.4,0-0.8-0.3-0.8-0.8s0.3-0.8,0.8-0.8c0,0,0.1,0,0.1-0.1s0-0.1-0.1-0.1c-0.2,0-0.3-0.2-0.3-0.3
		S53.8,54,54,54c0.4,0,0.8,0.3,0.8,0.8c0,0.4-0.3,0.8-0.8,0.8c0,0-0.1,0-0.1,0.1s0,0.1,0.1,0.1c0.2,0,0.3,0.2,0.3,0.3
		S54.1,56.4,54,56.4z"/>
</g>
<path class="st6" d="M38.6,58.7l0.1-0.4c0-0.2,0.2-0.3,0.4-0.3l5.9,1.3c0.2,0,0.3,0.2,0.3,0.4l-0.1,0.4c0,0.2-0.2,0.3-0.4,0.3
	l-5.9-1.3C38.7,59.1,38.5,58.9,38.6,58.7z"/>
</svg>
