<svg version="1.1" id="Layer_1" xmlns="http://www.w3.org/2000/svg" xmlns:xlink="http://www.w3.org/1999/xlink" x="0px" y="0px"
	 viewBox="0 0 100 100" style="enable-background:new 0 0 100 100;" xml:space="preserve">
<line class="st0" x1="55.9" y1="5.4" x2="50.3" y2="24.8"/>
<g>
	<polygon class="st1" points="76.7,25.4 24,25.4 6.3,65.3 94.4,65.3 	"/>
	<polygon points="53.5,34.5 75,26.5 50.3,26.5 25.7,26.5 47.2,34.5 44.3,63.1 56.4,63.1 	"/>
	<polygon class="st2" points="25.7,26.5 9.5,63.1 44.3,63.1 47.2,34.5 	"/>
	<polygon class="st3" points="56.4,63.1 91.2,63.1 75,26.5 53.5,34.5 	"/>
</g>
<g>
	<path class="st4" d="M56.3,24.8c0-3.3-2.7-6-6-6s-6,2.7-6,6v1h11.9V24.8z"/>
	<path class="st5" d="M44.4,26.1c0-3.3,2.7-6,6-6s6,2.7,6,6"/>
	<path class="st6" d="M44.4,26.1c0,1.5,2.7,2.6,6,2.6s6-1.2,6-2.6"/>
</g>
<g>
	<ellipse transform="matrix(0.5 -0.866 0.866 0.5 23.2487 51.1372)" class="st7" cx="55.9" cy="5.4" rx="4" ry="4"/>
	<path class="st8" d="M53.6,4.1c0.5-0.8,1.3-1.3,2.1-1.3c0.5,0,1,0.1,1.5,0.3"/>
</g>
</svg>
