<svg version="1.1" id="Layer_1" xmlns="http://www.w3.org/2000/svg" xmlns:xlink="http://www.w3.org/1999/xlink" x="0px" y="0px"
	 viewBox="0 0 160 160" style="enable-background:new 0 0 160 160;" xml:space="preserve">
<g>
	<path class="st0" d="M144.2,95.8c0,35.5-28.7,64.2-64.2,64.2s-64.2-28.7-64.2-64.2c0-35.5,28.7-64.2,64.2-64.2
		S144.2,60.3,144.2,95.8"/>
	<path class="st1" d="M124.9,58.2c-4.9-1.7-11.3,0-15.6,3.7c0,0,0,0,0-0.1c0-4.7-0.5-7.8-0.5-7.9c0-0.1-0.1-0.2-0.1-0.2
		c0-0.1-0.1-0.2-0.1-0.3c-0.1-0.1-0.1-0.2-0.2-0.3c-0.1-0.1-0.1-0.2-0.2-0.2c-0.1-0.1-0.2-0.2-0.3-0.2c-0.1-0.1-0.2-0.1-0.3-0.1
		c-0.1,0-0.3-0.1-0.4-0.1c-0.1,0-0.1,0-0.2,0H53c-0.9,0-1.7,0.7-1.9,1.6c0,0.1-0.5,3.1-0.5,7.9c-4.3-3.6-10.6-5.3-15.5-3.6
		c-4.4,1.5-6.5,5.5-5.7,10.8c1.3,8.8,11,14.3,19.5,19.1c5.3,3,10.3,5.9,12.4,9c3.5,5.1,0.1,8-0.3,8.3c-0.7,0.5-0.9,1.6-0.4,2.3
		c0.3,0.4,0.8,0.7,1.3,0.7c0.3,0,0.7-0.1,1-0.3c1.3-1,3-3.1,3.2-6c3.3,4.7,5.5,8.6,6.9,12.2c1,2.6,1.7,5,2.1,7.6
		c0.4,2.6,0.5,5.2,0.5,8.2c0,5.7-1.9,11.1-4.8,14.8c-1.5,1.9-3.2,3.4-5.1,4.4c-1.9,1-3.9,1.6-6,1.6c-0.5,0-1,0.2-1.4,0.6
		c-0.4,0.4-0.6,0.9-0.6,1.4s0.2,1,0.6,1.4c0.4,0.4,0.9,0.6,1.4,0.6h40.4c0.5,0,1-0.2,1.4-0.6c0.4-0.4,0.6-0.9,0.6-1.4
		s-0.2-1-0.6-1.4c-0.4-0.4-0.9-0.6-1.4-0.6c-2.1,0-4.1-0.6-6-1.6c-2.8-1.5-5.3-4.2-7.1-7.6c-1.8-3.4-2.8-7.4-2.8-11.7
		c0-3,0.1-5.7,0.5-8.2c0.6-3.8,1.7-7.4,3.9-11.6c1.3-2.5,3-5.2,5.1-8.3c0.2,2.9,1.8,5,3.2,6c0.3,0.2,0.6,0.3,1,0.3
		c0.5,0,1-0.2,1.3-0.7c0.5-0.7,0.4-1.8-0.3-2.3c-0.4-0.3-3.8-3.2-0.3-8.3c2.1-3.1,7.1-5.9,12.4-9c8.5-4.8,18.2-10.4,19.5-19.1
		C131.5,63.7,129.4,59.8,124.9,58.2z M32.6,68.6c-0.6-3.7,0.7-6.2,3.6-7.2c4.3-1.5,11.5,0.7,14.6,5.7c0.3,3.1,0.8,6.6,1.7,10.3
		c1,3.9,2.5,8,4.7,12c-2.1-1.4-4.4-2.7-6.8-4C42.6,80.8,33.7,75.8,32.6,68.6z M127.4,68.6c-1.1,7.2-10,12.3-17.9,16.7
		c-2.4,1.4-4.8,2.7-6.9,4.1c2.2-4,3.8-8.1,4.8-12c0.9-3.6,1.5-7.1,1.7-10.2c3.1-5.1,10.3-7.3,14.7-5.8
		C126.7,62.4,128,64.9,127.4,68.6z"/>
	<g>
		<path class="st2" d="M91.6,99.6c1.4-1.9,2.9-4,4.6-6.2c4.2-5.5,6.7-11.4,8.1-17c1.4-5.6,1.8-10.7,1.8-14.7c0-4.3-0.4-7.1-0.5-7.2
			c-0.1-0.8-0.9-1.3-1.7-1.2c-0.8,0.1-1.3,0.9-1.2,1.7c0,0,0.4,2.6,0.4,6.7c0,3.7-0.4,8.7-1.7,13.9c-1.3,5.3-3.7,10.9-7.6,15.9
			c-1.7,2.2-3.3,4.3-4.7,6.3c-0.5,0.7-0.3,1.6,0.4,2C90.2,100.4,91.1,100.3,91.6,99.6"/>
		<path class="st2" d="M89.7,150.2c-5.1-4.3-8.7-11.8-8.6-20c0-4.5,0.3-8.4,1.3-12.3c1-3.9,2.7-7.9,5.5-12.6c0.4-0.7,0.2-1.6-0.5-2
			c-0.7-0.4-1.6-0.2-2,0.5c-3,4.9-4.8,9.2-5.9,13.4c-1.1,4.2-1.4,8.3-1.4,13c0,9.1,3.8,17.3,9.7,22.2c0.6,0.5,1.5,0.4,2-0.2
			C90.4,151.6,90.3,150.7,89.7,150.2"/>
		<path class="st2" d="M123.8,61.4c-4.3-1.5-11.6,0.7-14.6,5.7c-0.5,6.5-2.2,14.5-6.5,22.3c2.1-1.4,4.4-2.7,6.8-4.1
			c7.9-4.5,16.8-9.6,17.9-16.7C128,64.9,126.7,62.4,123.8,61.4 M126,68.4c-1,6.5-9.6,11.4-17.2,15.8c-0.9,0.5-1.8,1.1-2.8,1.6
			c2.4-5.6,4-11.7,4.5-18.3c2.9-4.2,9.2-6.1,12.8-4.8C124.1,63,126.7,63.9,126,68.4z"/>
		<path class="st2" d="M36.2,61.4c-2.9,1-4.1,3.5-3.6,7.2c1.1,7.2,10,12.3,17.9,16.7c2.4,1.3,4.7,2.7,6.7,4
			c-4.3-7.8-6-15.9-6.5-22.4C47.6,62,40.4,59.9,36.2,61.4 M51.1,84.1c-7.6-4.3-16.2-9.2-17.2-15.8c-0.7-4.6,1.8-5.4,2.6-5.7
			c3.7-1.3,10,0.6,12.8,4.8c0.6,6.6,2.1,12.7,4.5,18.3C53,85.2,52.1,84.6,51.1,84.1z"/>
	</g>
	<path class="st3" d="M119.3,133.6"/>
	<polygon class="st3" points="40.9,129.7 118.8,129.8 119.2,113.4 40.9,113.2 	"/>
	<polygon class="st3" points="50.9,35.7 56.4,31.9 58.5,38.2 65.2,38.3 63.3,44.7 68.6,48.7 63.3,52.7 65.2,59.1 58.5,59.2 
		56.4,65.5 50.9,61.7 45.4,65.5 43.3,59.2 36.6,59.1 38.6,52.7 33.2,48.7 38.6,44.7 36.6,38.3 43.3,38.2 45.4,31.9 	"/>
	<polygon class="st4" points="40.9,129.7 40.9,113.2 61,134.1 61.1,150.6 	"/>
	<polygon class="st4" points="99.1,150.8 99.1,134.3 119.2,114.2 119.3,129.8 	"/>
	<polygon class="st3" points="28,142.2 21.9,151 61.1,150.6 61,134.1 60.9,134.1 21.8,134.5 	"/>
	<polygon class="st3" points="132.1,142.5 138.2,150.8 99.1,150.8 99.1,134.3 138.2,134.3 	"/>
</g>
</svg>
