<svg version="1.1" id="Layer_1" xmlns="http://www.w3.org/2000/svg" xmlns:xlink="http://www.w3.org/1999/xlink" x="0px" y="0px"
	 viewBox="0 0 160 160" style="enable-background:new 0 0 160 160;" xml:space="preserve">
<g>
	<g>
		<path class="st0" d="M144.2,95.8c0,35.5-28.7,64.2-64.2,64.2c-35.5,0-64.2-28.7-64.2-64.2c0-35.5,28.7-64.2,64.2-64.2
			C115.5,31.6,144.2,60.3,144.2,95.8"/>
	</g>
	<g class="st1">
		<g>
			<path class="st2" d="M72,48.4v24.1h-9.6v32.1H47.1V90.2L31,104.6V74.1L16.4,87.3c-0.4,2.8-0.6,5.6-0.6,8.5
				c0,35.2,28.3,63.7,63.4,64.2V48.4H72z"/>
		</g>
	</g>
	<g>
		<path class="st3" d="M34,31.7H11c-3.1,0-5.7-2.5-5.7-5.7s2.5-5.7,5.7-5.7h23c3.1,0,5.7,2.5,5.7,5.7S37.1,31.7,34,31.7z"/>
	</g>
	<g>
		<path class="st3" d="M42,21.4H31c-1.9,0-3.4-1.5-3.4-3.4c0-1.9,1.5-3.4,3.4-3.4h11c1.9,0,3.4,1.5,3.4,3.4
			C45.4,19.8,43.9,21.4,42,21.4z"/>
	</g>
	<g>
		<path class="st3" d="M19,13.3h-4.3c-1.9,0-3.4-1.5-3.4-3.4s1.5-3.4,3.4-3.4H19c1.9,0,3.4,1.5,3.4,3.4S20.9,13.3,19,13.3z"/>
	</g>
	<g>
		<g>
			<path class="st4" d="M39.3,34h-9.6l-4,96c4.6,7.3,10.7,13.7,17.8,18.6L39.3,34z"/>
		</g>
		<g>
			<path class="st5" d="M53.8,58.1l-3.9,94.4c5.3,2.8,11.1,5,17.3,6.2L63.4,58.1H53.8z"/>
		</g>
	</g>
	<g>
		<path class="st3" d="M62.1,53.5h-11c-1.9,0-3.4-1.5-3.4-3.4c0-1.9,1.5-3.4,3.4-3.4h11c1.9,0,3.4,1.5,3.4,3.4
			C65.5,51.9,64,53.5,62.1,53.5z"/>
	</g>
	<g>
		<path class="st3" d="M54.1,49.5H38.3c-1.9,0-3.4-1.5-3.4-3.4s1.5-3.4,3.4-3.4h15.8c1.9,0,3.4,1.5,3.4,3.4S55.9,49.5,54.1,49.5z"/>
	</g>
	<g>
		<path class="st4" d="M39.3,34h-9.6l-4,96c4.6,7.3,10.7,13.7,17.8,18.6L39.3,34z"/>
	</g>
	<g>
		<path class="st6" d="M32.7,49.5C32.7,49.5,32.7,49.5,32.7,49.5c-0.6,0-1-0.5-1-1l0.3-6.7c0-0.5,0.5-0.9,1-0.9c0.5,0,0.9,0.5,0.9,1
			l-0.3,6.7C33.6,49.1,33.2,49.5,32.7,49.5z"/>
	</g>
	<g>
		<path class="st6" d="M31,89.4C31,89.4,31,89.4,31,89.4c-0.6,0-1-0.5-1-1l1.4-33.8c0-0.5,0.5-0.9,1-0.9c0.5,0,0.9,0.5,0.9,1
			L32,88.5C32,89,31.6,89.4,31,89.4z"/>
	</g>
	<g>
		<path class="st4" d="M56.7,75.8C56.7,75.8,56.7,75.8,56.7,75.8c-0.6,0-1-0.5-1-1l0.3-8.4c0-0.5,0.4-0.9,1-0.9c0,0,0,0,0,0
			c0.5,0,0.9,0.5,0.9,1l-0.3,8.4C57.6,75.4,57.2,75.8,56.7,75.8z"/>
	</g>
	<g>
		<path class="st4" d="M55.4,106.7C55.4,106.7,55.4,106.7,55.4,106.7c-0.6,0-1-0.5-1-1L55.5,80c0-0.5,0.5-0.9,1-0.9
			c0.5,0,0.9,0.5,0.9,1l-1.1,25.7C56.3,106.3,55.9,106.7,55.4,106.7z"/>
	</g>
	<path class="st7" d="M91,159.1V21.4c0-3.8-3.1-6.9-6.9-6.9c-3.8,0-6.9,3.1-6.9,6.9v138.5c0.9,0,1.9,0.1,2.8,0.1
		C83.7,160,87.4,159.7,91,159.1z"/>
	<g>
		<path class="st8" d="M139.3,120.5v-99c0-3.8-3.1-6.9-6.9-6.9H84.1c3.8,0,6.9,3.1,6.9,6.9V159C112.9,155.3,131,140.4,139.3,120.5z"
			/>
	</g>
	<g>
		<path class="st9" d="M99.9,45.5c-0.2,0-0.4-0.1-0.6-0.1C99.5,45.4,99.7,45.5,99.9,45.5z"/>
		<path class="st9" d="M99.3,45.4c2-0.6,3.4-2.4,3.4-4.5v-1.5h-6.9v1.5C95.9,43,97.3,44.8,99.3,45.4z"/>
		<path class="st9" d="M100.2,45.5c-0.1,0-0.2,0-0.3,0C100,45.5,100.1,45.5,100.2,45.5z"/>
		<path class="st9" d="M100.6,45.6c-0.1,0-0.2,0-0.3,0C100.4,45.6,100.5,45.6,100.6,45.6z"/>
		<path class="st10" d="M100.3,30.2c0.1,0,0.2,0,0.3,0C100.5,30.2,100.4,30.2,100.3,30.2z"/>
		<path class="st10" d="M99.9,30.3c0.1,0,0.2,0,0.3,0C100.1,30.3,100,30.3,99.9,30.3z"/>
		<path class="st10" d="M99.3,30.4c0.2-0.1,0.4-0.1,0.6-0.1C99.7,30.3,99.5,30.4,99.3,30.4z"/>
		<path class="st10" d="M102.7,35c0-2.2-1.5-4-3.4-4.5c-2,0.6-3.4,2.4-3.4,4.5v4.4h6.9V35z"/>
		<path class="st11" d="M99.3,45.4C99.3,45.4,99.3,45.4,99.3,45.4C99.3,45.4,99.3,45.4,99.3,45.4C99.3,45.4,99.3,45.4,99.3,45.4z"/>
		<path class="st11" d="M99.9,30.3C99.9,30.3,99.9,30.3,99.9,30.3C99.9,30.3,99.9,30.3,99.9,30.3z"/>
		<path class="st11" d="M100.3,45.5C100.3,45.5,100.2,45.5,100.3,45.5C100.2,45.5,100.3,45.5,100.3,45.5z"/>
		<path class="st11" d="M99.3,30.4L99.3,30.4C99.3,30.4,99.3,30.4,99.3,30.4C99.3,30.4,99.3,30.4,99.3,30.4z"/>
		<path class="st11" d="M100.2,30.3C100.2,30.3,100.3,30.2,100.2,30.3C100.3,30.2,100.2,30.3,100.2,30.3z"/>
		<path class="st11" d="M100,45.5C99.9,45.5,99.9,45.5,100,45.5C99.9,45.5,99.9,45.5,100,45.5z"/>
		<path class="st11" d="M102.7,40.8c0,2.2-1.5,4-3.4,4.5c0,0,0,0,0,0c0.2,0.1,0.4,0.1,0.6,0.1c0,0,0,0,0,0c0.1,0,0.2,0,0.3,0
			c0,0,0,0,0.1,0c0.1,0,0.2,0,0.3,0c2.6,0,4.7-2.1,4.7-4.7v-1.5h-2.6V40.8z"/>
		<path class="st11" d="M102.7,35v4.4h2.6V35c0-2.6-2.1-4.7-4.7-4.7c-0.1,0-0.2,0-0.3,0c0,0,0,0-0.1,0c-0.1,0-0.2,0-0.3,0
			c0,0,0,0,0,0c-0.2,0-0.4,0.1-0.6,0.1c0,0,0,0,0,0C101.3,31,102.7,32.8,102.7,35z"/>
		<path class="st8" d="M99.9,67c-0.2,0-0.4-0.1-0.6-0.1c2-0.6,3.4-2.4,3.4-4.5v-1.5h-6.9v1.5C95.9,64.8,97.6,66.7,99.9,67z"/>
		<path class="st8" d="M100.2,67.1c-0.1,0-0.2,0-0.3,0C100,67.1,100.1,67.1,100.2,67.1z"/>
		<path class="st8" d="M100.6,67.1c-0.1,0-0.2,0-0.3,0C100.4,67.1,100.5,67.1,100.6,67.1z"/>
		<path class="st7" d="M100.3,51.8c0.1,0,0.2,0,0.3,0C100.5,51.8,100.4,51.8,100.3,51.8z"/>
		<path class="st7" d="M99.3,51.9c0.2-0.1,0.4-0.1,0.6-0.1C99.7,51.8,99.5,51.9,99.3,51.9z"/>
		<path class="st7" d="M102.7,56.5c0-2.2-1.5-4-3.4-4.5c-2,0.6-3.4,2.4-3.4,4.5v4.4h6.9V56.5z"/>
		<path class="st7" d="M100,51.8c0.1,0,0.2,0,0.2,0C100.1,51.8,100,51.8,100,51.8z"/>
		<path class="st11" d="M99.3,51.9C99.3,51.9,99.3,51.9,99.3,51.9C99.3,51.9,99.3,51.9,99.3,51.9C99.3,51.9,99.3,51.9,99.3,51.9z"/>
		<path class="st11" d="M100.2,51.8C100.2,51.8,100.3,51.8,100.2,51.8C100.3,51.8,100.2,51.8,100.2,51.8z"/>
		<path class="st11" d="M100.3,67.1C100.3,67.1,100.2,67.1,100.3,67.1C100.2,67.1,100.3,67.1,100.3,67.1z"/>
		<path class="st11" d="M99.9,67L99.9,67L99.9,67z"/>
		<path class="st11" d="M99.9,51.8C99.9,51.8,99.9,51.8,99.9,51.8C99.9,51.8,99.9,51.8,99.9,51.8z"/>
		<path class="st11" d="M102.7,62.4c0,2.2-1.5,4-3.4,4.5c0.2,0.1,0.4,0.1,0.6,0.1l0,0c0.1,0,0.2,0,0.3,0c0,0,0,0,0.1,0
			c0.1,0,0.2,0,0.3,0c2.6,0,4.7-2.1,4.7-4.7v-1.5h-2.6V62.4z"/>
		<path class="st11" d="M102.7,56.5v4.4h2.6v-4.4c0-2.6-2.1-4.7-4.7-4.7c-0.1,0-0.2,0-0.3,0c0,0-0.1,0-0.1,0c-0.1,0-0.2,0-0.2,0
			c0,0,0,0-0.1,0c-0.2,0-0.4,0.1-0.6,0.1c0,0,0,0,0,0C101.3,52.5,102.7,54.3,102.7,56.5z"/>
		<path class="st9" d="M99.9,88.6c-0.2,0-0.4-0.1-0.6-0.1C99.5,88.5,99.7,88.5,99.9,88.6z"/>
		<path class="st9" d="M100.2,88.6c-0.1,0-0.2,0-0.2,0C100,88.6,100.1,88.6,100.2,88.6z"/>
		<path class="st9" d="M99.3,88.4c2-0.6,3.4-2.4,3.4-4.5v-1.5h-6.9v1.5C95.9,86.1,97.3,87.9,99.3,88.4z"/>
		<path class="st9" d="M100.6,88.6c-0.1,0-0.2,0-0.3,0C100.4,88.6,100.5,88.6,100.6,88.6z"/>
		<path class="st10" d="M102.7,78c0-2.2-1.5-4-3.4-4.5c0.2-0.1,0.4-0.1,0.6-0.1c-2.3,0.3-4.1,2.3-4.1,4.7v4.4h6.9V78z"/>
		<path class="st10" d="M100.3,73.3c0.1,0,0.2,0,0.3,0C100.5,73.3,100.4,73.3,100.3,73.3z"/>
		<path class="st10" d="M99.9,73.3c0.1,0,0.2,0,0.3,0C100.1,73.3,100,73.3,99.9,73.3z"/>
		<polygon class="st11" points="99.3,88.4 99.3,88.4 99.3,88.4 		"/>
		<path class="st11" d="M99.9,73.3C99.9,73.3,99.9,73.3,99.9,73.3C99.9,73.3,99.9,73.3,99.9,73.3z"/>
		<path class="st11" d="M100,88.6C99.9,88.6,99.9,88.6,100,88.6C99.9,88.6,99.9,88.6,100,88.6z"/>
		<path class="st11" d="M100.3,88.6C100.3,88.6,100.2,88.6,100.3,88.6C100.2,88.6,100.3,88.6,100.3,88.6z"/>
		<path class="st11" d="M100.2,73.3C100.2,73.3,100.3,73.3,100.2,73.3C100.3,73.3,100.2,73.3,100.2,73.3z"/>
		<path class="st11" d="M102.7,83.9c0,2.2-1.5,4-3.4,4.5c0,0,0,0,0,0c0.2,0.1,0.4,0.1,0.6,0.1c0,0,0,0,0,0c0.1,0,0.2,0,0.2,0
			c0,0,0.1,0,0.1,0c0.1,0,0.2,0,0.3,0c2.6,0,4.7-2.1,4.7-4.7v-1.5h-2.6V83.9z"/>
		<path class="st11" d="M102.7,78v4.4h2.6V78c0-2.6-2.1-4.7-4.7-4.7c-0.1,0-0.2,0-0.3,0c0,0,0,0-0.1,0c-0.1,0-0.2,0-0.3,0
			c0,0,0,0,0,0c-0.2,0-0.4,0.1-0.6,0.1C101.3,74,102.7,75.8,102.7,78z"/>
		<path class="st9" d="M99.9,110.1c-0.2,0-0.4-0.1-0.6-0.1c2-0.6,3.4-2.4,3.4-4.5v-1.5h-6.9v1.5C95.9,107.8,97.6,109.8,99.9,110.1z"
			/>
		<path class="st9" d="M100.2,110.1c-0.1,0-0.2,0-0.3,0C100,110.1,100.1,110.1,100.2,110.1z"/>
		<path class="st9" d="M100.6,110.1c-0.1,0-0.2,0-0.3,0C100.4,110.1,100.5,110.1,100.6,110.1z"/>
		<path class="st10" d="M102.7,99.5c0-2.2-1.5-4-3.4-4.5c-2,0.6-3.4,2.4-3.4,4.5v4.4h6.9V99.5z"/>
		<path class="st10" d="M100.3,94.8c0.1,0,0.2,0,0.3,0C100.5,94.8,100.4,94.8,100.3,94.8z"/>
		<path class="st10" d="M100,94.9c0.1,0,0.2,0,0.3,0C100.1,94.8,100,94.9,100,94.9z"/>
		<path class="st10" d="M99.3,95c0.2-0.1,0.4-0.1,0.6-0.1C99.7,94.9,99.5,94.9,99.3,95z"/>
		<path class="st11" d="M99.9,110.1L99.9,110.1L99.9,110.1z"/>
		<path class="st11" d="M99.9,94.9C99.9,94.9,99.9,94.9,99.9,94.9C99.9,94.9,99.9,94.9,99.9,94.9z"/>
		<path class="st11" d="M100.3,110.1C100.3,110.1,100.2,110.1,100.3,110.1C100.2,110.1,100.3,110.1,100.3,110.1z"/>
		<path class="st11" d="M99.3,95C99.3,95,99.3,95,99.3,95C99.3,95,99.3,95,99.3,95C99.3,95,99.3,95,99.3,95z"/>
		<path class="st11" d="M100.2,94.8C100.2,94.8,100.3,94.8,100.2,94.8C100.3,94.8,100.2,94.8,100.2,94.8z"/>
		<path class="st11" d="M102.7,105.4c0,2.2-1.5,4-3.4,4.5c0.2,0.1,0.4,0.1,0.6,0.1l0,0c0.1,0,0.2,0,0.3,0c0,0,0,0,0.1,0
			c0.1,0,0.2,0,0.3,0c2.6,0,4.7-2.1,4.7-4.7v-1.5h-2.6V105.4z"/>
		<path class="st11" d="M102.7,99.5v4.4h2.6v-4.4c0-2.6-2.1-4.7-4.7-4.7c-0.1,0-0.2,0-0.3,0c0,0,0,0-0.1,0c-0.1,0-0.2,0-0.3,0
			c0,0,0,0,0,0c-0.2,0-0.4,0.1-0.6,0.1c0,0,0,0,0,0C101.3,95.6,102.7,97.4,102.7,99.5z"/>
		<path class="st8" d="M115.6,45.5c-0.1,0-0.2,0-0.3,0C115.4,45.5,115.5,45.5,115.6,45.5z"/>
		<path class="st8" d="M115.9,45.6c-0.1,0-0.2,0-0.3,0C115.7,45.6,115.8,45.6,115.9,45.6z"/>
		<path class="st8" d="M114.6,45.4c2-0.6,3.4-2.4,3.4-4.5v-1.5h-6.9v1.5C111.2,43,112.7,44.8,114.6,45.4z"/>
		<path class="st8" d="M115.3,45.5c-0.2,0-0.4-0.1-0.6-0.1C114.9,45.4,115.1,45.5,115.3,45.5z"/>
		<path class="st7" d="M115.3,30.3c0.1,0,0.2,0,0.3,0C115.5,30.3,115.4,30.3,115.3,30.3z"/>
		<path class="st7" d="M114.7,30.4c0.2-0.1,0.4-0.1,0.6-0.1C115.1,30.3,114.9,30.4,114.7,30.4z"/>
		<path class="st7" d="M118.1,35c0-2.2-1.5-4-3.4-4.5c-2,0.6-3.4,2.4-3.4,4.5v4.4h6.9V35z"/>
		<path class="st7" d="M115.6,30.2c0.1,0,0.2,0,0.3,0C115.8,30.2,115.7,30.2,115.6,30.2z"/>
		<path class="st11" d="M115.3,30.3C115.3,30.3,115.3,30.3,115.3,30.3C115.3,30.3,115.3,30.3,115.3,30.3z"/>
		<path class="st11" d="M115.6,45.5C115.6,45.5,115.6,45.5,115.6,45.5C115.6,45.5,115.6,45.5,115.6,45.5z"/>
		<path class="st11" d="M114.6,30.4L114.6,30.4C114.7,30.4,114.7,30.4,114.6,30.4C114.7,30.4,114.7,30.4,114.6,30.4z"/>
		<path class="st11" d="M115.6,30.3C115.6,30.3,115.6,30.2,115.6,30.3C115.6,30.2,115.6,30.3,115.6,30.3z"/>
		<path class="st11" d="M115.3,45.5C115.3,45.5,115.3,45.5,115.3,45.5C115.3,45.5,115.3,45.5,115.3,45.5z"/>
		<path class="st11" d="M114.6,45.4C114.7,45.4,114.7,45.4,114.6,45.4C114.7,45.4,114.7,45.4,114.6,45.4L114.6,45.4z"/>
		<path class="st11" d="M118.1,40.8c0,2.2-1.5,4-3.4,4.5c0,0,0,0,0,0c0.2,0.1,0.4,0.1,0.6,0.1c0,0,0,0,0,0c0.1,0,0.2,0,0.3,0
			c0,0,0,0,0.1,0c0.1,0,0.2,0,0.3,0c2.6,0,4.7-2.1,4.7-4.7v-1.5h-2.6V40.8z"/>
		<path class="st11" d="M118.1,35v4.4h2.6V35c0-2.6-2.1-4.7-4.7-4.7c-0.1,0-0.2,0-0.3,0c0,0,0,0-0.1,0c-0.1,0-0.2,0-0.3,0
			c0,0,0,0,0,0c-0.2,0-0.4,0.1-0.6,0.1c0,0,0,0,0,0C116.6,31,118.1,32.8,118.1,35z"/>
		<path class="st9" d="M115.6,67.1c-0.1,0-0.2,0-0.3,0C115.4,67.1,115.5,67.1,115.6,67.1z"/>
		<path class="st9" d="M115.3,67c-0.2,0-0.4-0.1-0.6-0.1c2-0.6,3.4-2.4,3.4-4.5v-1.5h-6.9v1.5C111.2,64.8,113,66.7,115.3,67z"/>
		<path class="st9" d="M115.9,67.1c-0.1,0-0.2,0-0.3,0C115.7,67.1,115.8,67.1,115.9,67.1z"/>
		<path class="st10" d="M115,51.9c0.1,0,0.2,0,0.3-0.1C115.2,51.8,115.1,51.8,115,51.9z"/>
		<path class="st10" d="M115.6,51.8c0.1,0,0.2,0,0.3,0C115.8,51.8,115.7,51.8,115.6,51.8z"/>
		<path class="st10" d="M118.1,56.5c0-2.2-1.5-4-3.4-4.5c-2,0.6-3.4,2.4-3.4,4.5v4.4h6.9V56.5z"/>
		<path class="st10" d="M114.7,51.9c0.1,0,0.2-0.1,0.3-0.1C114.9,51.9,114.8,51.9,114.7,51.9z"/>
		<path class="st10" d="M115.3,51.8c0.1,0,0.2,0,0.2,0C115.5,51.8,115.4,51.8,115.3,51.8z"/>
		<path class="st11" d="M114.6,51.9L114.6,51.9C114.7,51.9,114.7,51.9,114.6,51.9C114.7,51.9,114.7,51.9,114.6,51.9z"/>
		<path class="st11" d="M115,51.9L115,51.9L115,51.9z"/>
		<path class="st11" d="M115.5,51.8C115.6,51.8,115.6,51.8,115.5,51.8C115.6,51.8,115.6,51.8,115.5,51.8z"/>
		<path class="st11" d="M115.3,67L115.3,67L115.3,67z"/>
		<path class="st11" d="M115.6,67.1C115.6,67.1,115.6,67.1,115.6,67.1C115.6,67.1,115.6,67.1,115.6,67.1z"/>
		<path class="st11" d="M115.3,51.8C115.3,51.8,115.3,51.8,115.3,51.8C115.3,51.8,115.3,51.8,115.3,51.8z"/>
		<path class="st11" d="M118.1,62.4c0,2.2-1.5,4-3.4,4.5c0.2,0.1,0.4,0.1,0.6,0.1l0,0c0.1,0,0.2,0,0.3,0c0,0,0,0,0.1,0
			c0.1,0,0.2,0,0.3,0c2.6,0,4.7-2.1,4.7-4.7v-1.5h-2.6V62.4z"/>
		<path class="st11" d="M118.1,56.5v4.4h2.6v-4.4c0-2.6-2.1-4.7-4.7-4.7c-0.1,0-0.2,0-0.3,0c0,0-0.1,0-0.1,0c-0.1,0-0.2,0-0.2,0
			c0,0,0,0-0.1,0c-0.1,0-0.2,0-0.3,0.1l0,0c-0.1,0-0.2,0-0.3,0.1c0,0,0,0,0,0C116.6,52.5,118.1,54.3,118.1,56.5z"/>
		<path class="st9" d="M114.6,88.4c2-0.6,3.4-2.4,3.4-4.5v-1.5h-6.9v1.5C111.2,86.1,112.7,87.9,114.6,88.4z"/>
		<path class="st9" d="M115.9,88.6c-0.1,0-0.2,0-0.3,0C115.7,88.6,115.8,88.6,115.9,88.6z"/>
		<path class="st9" d="M115.6,88.6c-0.1,0-0.2,0-0.2,0C115.4,88.6,115.5,88.6,115.6,88.6z"/>
		<path class="st9" d="M115.3,88.6c-0.2,0-0.4-0.1-0.6-0.1C114.9,88.5,115.1,88.5,115.3,88.6z"/>
		<path class="st10" d="M115.6,73.3c0.1,0,0.2,0,0.3,0C115.8,73.3,115.7,73.3,115.6,73.3z"/>
		<path class="st10" d="M118.1,78c0-2.2-1.5-4-3.4-4.5c0.2-0.1,0.4-0.1,0.6-0.1c-2.3,0.3-4.1,2.3-4.1,4.7v4.4h6.9V78z"/>
		<path class="st10" d="M115.3,73.3c0.1,0,0.2,0,0.3,0C115.5,73.3,115.4,73.3,115.3,73.3z"/>
		<path class="st11" d="M115.6,88.6C115.6,88.6,115.6,88.6,115.6,88.6C115.6,88.6,115.6,88.6,115.6,88.6z"/>
		<path class="st11" d="M115.6,73.3C115.6,73.3,115.6,73.3,115.6,73.3C115.6,73.3,115.6,73.3,115.6,73.3z"/>
		<polygon class="st11" points="114.6,88.4 114.7,88.4 114.6,88.4 		"/>
		<path class="st11" d="M115.3,88.6C115.3,88.6,115.3,88.6,115.3,88.6C115.3,88.6,115.3,88.6,115.3,88.6z"/>
		<path class="st11" d="M115.3,73.3C115.3,73.3,115.3,73.3,115.3,73.3C115.3,73.3,115.3,73.3,115.3,73.3z"/>
		<path class="st11" d="M118.1,83.9c0,2.2-1.5,4-3.4,4.5c0,0,0,0,0,0c0.2,0.1,0.4,0.1,0.6,0.1c0,0,0,0,0.1,0c0.1,0,0.2,0,0.2,0
			c0,0,0.1,0,0.1,0c0.1,0,0.2,0,0.3,0c2.6,0,4.7-2.1,4.7-4.7v-1.5h-2.6V83.9z"/>
		<path class="st11" d="M118.1,78v4.4h2.6V78c0-2.6-2.1-4.7-4.7-4.7c-0.1,0-0.2,0-0.3,0c0,0,0,0-0.1,0c-0.1,0-0.2,0-0.3,0
			c0,0,0,0,0,0c-0.2,0-0.4,0.1-0.6,0.1C116.6,74,118.1,75.8,118.1,78z"/>
		<path class="st8" d="M115.6,110.1c-0.1,0-0.2,0-0.3,0C115.4,110.1,115.5,110.1,115.6,110.1z"/>
		<path class="st8" d="M115.9,110.1c-0.1,0-0.2,0-0.3,0C115.7,110.1,115.8,110.1,115.9,110.1z"/>
		<path class="st8" d="M115.3,110.1c-0.2,0-0.4-0.1-0.6-0.1c2-0.6,3.4-2.4,3.4-4.5v-1.5h-6.9v1.5C111.2,107.8,113,109.8,115.3,110.1
			z"/>
		<path class="st7" d="M115.6,94.8c0.1,0,0.2,0,0.3,0C115.8,94.8,115.7,94.8,115.6,94.8z"/>
		<path class="st7" d="M118.1,99.5c0-2.2-1.5-4-3.4-4.5c-2,0.6-3.4,2.4-3.4,4.5v4.4h6.9V99.5z"/>
		<path class="st7" d="M115.3,94.9c0.1,0,0.2,0,0.3,0C115.5,94.8,115.4,94.9,115.3,94.9z"/>
		<path class="st7" d="M114.7,95c0.2-0.1,0.4-0.1,0.6-0.1C115.1,94.9,114.9,94.9,114.7,95z"/>
		<path class="st11" d="M115.3,94.9C115.3,94.9,115.3,94.9,115.3,94.9C115.3,94.9,115.3,94.9,115.3,94.9z"/>
		<path class="st11" d="M114.6,95L114.6,95C114.7,95,114.7,95,114.6,95C114.7,95,114.7,95,114.6,95z"/>
		<path class="st11" d="M115.3,110.1L115.3,110.1L115.3,110.1z"/>
		<path class="st11" d="M115.6,94.8C115.6,94.8,115.6,94.8,115.6,94.8C115.6,94.8,115.6,94.8,115.6,94.8z"/>
		<path class="st11" d="M115.6,110.1C115.6,110.1,115.6,110.1,115.6,110.1C115.6,110.1,115.6,110.1,115.6,110.1z"/>
		<path class="st11" d="M118.1,105.4c0,2.2-1.5,4-3.4,4.5c0.2,0.1,0.4,0.1,0.6,0.1l0,0c0.1,0,0.2,0,0.3,0c0,0,0,0,0.1,0
			c0.1,0,0.2,0,0.3,0c2.6,0,4.7-2.1,4.7-4.7v-1.5h-2.6V105.4z"/>
		<path class="st11" d="M118.1,99.5v4.4h2.6v-4.4c0-2.6-2.1-4.7-4.7-4.7c-0.1,0-0.2,0-0.3,0c0,0,0,0-0.1,0c-0.1,0-0.2,0-0.3,0
			c0,0,0,0,0,0c-0.2,0-0.4,0.1-0.6,0.1c0,0,0,0,0,0C116.6,95.6,118.1,97.4,118.1,99.5z"/>
		<path class="st9" d="M130,45.4c2-0.6,3.4-2.4,3.4-4.5v-1.5h-6.9v1.5C126.6,43,128,44.8,130,45.4z"/>
		<path class="st9" d="M131.3,45.6c-0.1,0-0.2,0-0.3,0C131.1,45.6,131.2,45.6,131.3,45.6z"/>
		<path class="st9" d="M130.6,45.5c-0.2,0-0.4-0.1-0.6-0.1C130.2,45.4,130.4,45.5,130.6,45.5z"/>
		<path class="st9" d="M130.9,45.5c-0.1,0-0.2,0-0.3,0C130.7,45.5,130.8,45.5,130.9,45.5z"/>
		<path class="st10" d="M133.4,35c0-2.2-1.5-4-3.4-4.5c-2,0.6-3.4,2.4-3.4,4.5v4.4h6.9V35z"/>
		<path class="st10" d="M130,30.4c0.2-0.1,0.4-0.1,0.6-0.1C130.4,30.3,130.2,30.4,130,30.4z"/>
		<path class="st10" d="M130.6,30.3c0.1,0,0.2,0,0.3,0C130.8,30.3,130.7,30.3,130.6,30.3z"/>
		<path class="st10" d="M131,30.2c0.1,0,0.2,0,0.3,0C131.2,30.2,131.1,30.2,131,30.2z"/>
		<path class="st11" d="M130.9,30.3C130.9,30.3,131,30.2,130.9,30.3C131,30.2,130.9,30.3,130.9,30.3z"/>
		<path class="st11" d="M130.6,30.3C130.6,30.3,130.6,30.3,130.6,30.3C130.6,30.3,130.6,30.3,130.6,30.3z"/>
		<path class="st11" d="M130.7,45.5C130.6,45.5,130.6,45.5,130.7,45.5C130.6,45.5,130.6,45.5,130.7,45.5z"/>
		<path class="st11" d="M130,45.4C130,45.4,130,45.4,130,45.4C130,45.4,130,45.4,130,45.4L130,45.4z"/>
		<path class="st11" d="M131,45.5C131,45.5,130.9,45.5,131,45.5C130.9,45.5,131,45.5,131,45.5z"/>
		<polygon class="st11" points="130,30.4 130,30.4 130,30.4 		"/>
		<path class="st11" d="M133.4,40.8c0,2.2-1.5,4-3.4,4.5c0,0,0,0,0,0c0.2,0.1,0.4,0.1,0.6,0.1c0,0,0,0,0,0c0.1,0,0.2,0,0.3,0
			c0,0,0,0,0.1,0c0.1,0,0.2,0,0.3,0c2.6,0,4.7-2.1,4.7-4.7v-1.5h-2.6V40.8z"/>
		<path class="st11" d="M133.4,35v4.4h2.6V35c0-2.6-2.1-4.7-4.7-4.7c-0.1,0-0.2,0-0.3,0c0,0,0,0-0.1,0c-0.1,0-0.2,0-0.3,0
			c0,0,0,0,0,0c-0.2,0-0.4,0.1-0.6,0.1c0,0,0,0,0,0C132,31,133.4,32.8,133.4,35z"/>
		<path class="st8" d="M131.3,67.1c-0.1,0-0.2,0-0.3,0C131.1,67.1,131.2,67.1,131.3,67.1z"/>
		<path class="st8" d="M130.9,67.1c-0.1,0-0.2,0-0.3,0C130.7,67.1,130.8,67.1,130.9,67.1z"/>
		<path class="st8" d="M130.6,67c-0.2,0-0.4-0.1-0.6-0.1c2-0.6,3.4-2.4,3.4-4.5v-1.5h-6.9v1.5C126.6,64.8,128.3,66.7,130.6,67z"/>
		<path class="st7" d="M130.7,51.8c0.1,0,0.2,0,0.2,0C130.8,51.8,130.7,51.8,130.7,51.8z"/>
		<path class="st7" d="M130,51.9c0.2-0.1,0.4-0.1,0.6-0.1C130.4,51.8,130.2,51.9,130,51.9z"/>
		<path class="st7" d="M133.4,56.5c0-2.2-1.5-4-3.4-4.5c-2,0.6-3.4,2.4-3.4,4.5v4.4h6.9V56.5z"/>
		<path class="st7" d="M131,51.8c0.1,0,0.2,0,0.3,0C131.2,51.8,131.1,51.8,131,51.8z"/>
		<path class="st11" d="M130.6,67C130.6,67,130.6,67,130.6,67C130.6,67,130.6,67,130.6,67z"/>
		<path class="st11" d="M130,51.9L130,51.9C130,51.9,130,51.9,130,51.9C130,51.9,130,51.9,130,51.9z"/>
		<path class="st11" d="M131,67.1C131,67.1,130.9,67.1,131,67.1C130.9,67.1,131,67.1,131,67.1z"/>
		<path class="st11" d="M130.6,51.8C130.6,51.8,130.6,51.8,130.6,51.8C130.6,51.8,130.6,51.8,130.6,51.8z"/>
		<path class="st11" d="M130.9,51.8C130.9,51.8,131,51.8,130.9,51.8C131,51.8,130.9,51.8,130.9,51.8z"/>
		<path class="st11" d="M133.4,62.4c0,2.2-1.5,4-3.4,4.5c0.2,0.1,0.4,0.1,0.6,0.1c0,0,0,0,0,0c0.1,0,0.2,0,0.3,0c0,0,0,0,0.1,0
			c0.1,0,0.2,0,0.3,0c2.6,0,4.7-2.1,4.7-4.7v-1.5h-2.6V62.4z"/>
		<path class="st11" d="M133.4,56.5v4.4h2.6v-4.4c0-2.6-2.1-4.7-4.7-4.7c-0.1,0-0.2,0-0.3,0c0,0-0.1,0-0.1,0c-0.1,0-0.2,0-0.2,0
			c0,0,0,0-0.1,0c-0.2,0-0.4,0.1-0.6,0.1c0,0,0,0,0,0C132,52.5,133.4,54.3,133.4,56.5z"/>
		<path class="st8" d="M131.3,88.6c-0.1,0-0.2,0-0.3,0C131.1,88.6,131.2,88.6,131.3,88.6z"/>
		<path class="st8" d="M130.6,88.6c-0.2,0-0.4-0.1-0.6-0.1C130.2,88.5,130.4,88.5,130.6,88.6z"/>
		<path class="st8" d="M130.9,88.6c-0.1,0-0.2,0-0.2,0C130.7,88.6,130.8,88.6,130.9,88.6z"/>
		<path class="st8" d="M130,88.4c2-0.6,3.4-2.4,3.4-4.5v-1.5h-6.9v1.5C126.6,86.1,128,87.9,130,88.4z"/>
		<path class="st7" d="M133.4,78c0-2.2-1.5-4-3.4-4.5c0.2-0.1,0.4-0.1,0.6-0.1c-2.3,0.3-4.1,2.3-4.1,4.7v4.4h6.9V78z"/>
		<path class="st7" d="M130.6,73.3c0.1,0,0.2,0,0.3,0C130.8,73.3,130.7,73.3,130.6,73.3z"/>
		<path class="st7" d="M131,73.3c0.1,0,0.2,0,0.3,0C131.2,73.3,131.1,73.3,131,73.3z"/>
		<path class="st11" d="M130.6,73.3C130.6,73.3,130.6,73.3,130.6,73.3C130.6,73.3,130.6,73.3,130.6,73.3z"/>
		<polygon class="st11" points="130,88.4 130,88.4 130,88.4 		"/>
		<path class="st11" d="M131,88.6C131,88.6,130.9,88.6,131,88.6C130.9,88.6,131,88.6,131,88.6z"/>
		<path class="st11" d="M130.7,88.6C130.6,88.6,130.6,88.6,130.7,88.6C130.6,88.6,130.6,88.6,130.7,88.6z"/>
		<path class="st11" d="M130.9,73.3C130.9,73.3,131,73.3,130.9,73.3C131,73.3,130.9,73.3,130.9,73.3z"/>
		<path class="st11" d="M133.4,83.9c0,2.2-1.5,4-3.4,4.5l0,0c0.2,0.1,0.4,0.1,0.6,0.1c0,0,0,0,0,0c0.1,0,0.2,0,0.2,0
			c0,0,0.1,0,0.1,0c0.1,0,0.2,0,0.3,0c2.6,0,4.7-2.1,4.7-4.7v-1.5h-2.6V83.9z"/>
		<path class="st11" d="M133.4,78v4.4h2.6V78c0-2.6-2.1-4.7-4.7-4.7c-0.1,0-0.2,0-0.3,0c0,0,0,0-0.1,0c-0.1,0-0.2,0-0.3,0
			c0,0,0,0,0,0c-0.2,0-0.4,0.1-0.6,0.1C132,74,133.4,75.8,133.4,78z"/>
		<path class="st9" d="M131.3,110.1c-0.1,0-0.2,0-0.3,0C131.1,110.1,131.2,110.1,131.3,110.1z"/>
		<path class="st9" d="M130.6,110.1c-0.2,0-0.4-0.1-0.6-0.1c2-0.6,3.4-2.4,3.4-4.5v-1.5h-6.9v1.5
			C126.6,107.8,128.3,109.8,130.6,110.1z"/>
		<path class="st9" d="M130.9,110.1c-0.1,0-0.2,0-0.3,0C130.7,110.1,130.8,110.1,130.9,110.1z"/>
		<path class="st10" d="M130,95c0.2-0.1,0.4-0.1,0.6-0.1C130.4,94.9,130.2,94.9,130,95z"/>
		<path class="st10" d="M131,94.8c0.1,0,0.2,0,0.3,0C131.2,94.8,131.1,94.8,131,94.8z"/>
		<path class="st10" d="M133.4,99.5c0-2.2-1.5-4-3.4-4.5c-2,0.6-3.4,2.4-3.4,4.5v4.4h6.9V99.5z"/>
		<path class="st10" d="M130.7,94.9c0.1,0,0.2,0,0.3,0C130.8,94.8,130.7,94.9,130.7,94.9z"/>
		<path class="st11" d="M130.6,94.9C130.6,94.9,130.6,94.9,130.6,94.9C130.6,94.9,130.6,94.9,130.6,94.9z"/>
		<path class="st11" d="M130.9,94.8C130.9,94.8,131,94.8,130.9,94.8C131,94.8,130.9,94.8,130.9,94.8z"/>
		<path class="st11" d="M131,110.1C131,110.1,130.9,110.1,131,110.1C130.9,110.1,131,110.1,131,110.1z"/>
		<path class="st11" d="M130,95L130,95C130,95,130,95,130,95C130,95,130,95,130,95z"/>
		<path class="st11" d="M130.6,110.1C130.6,110.1,130.6,110.1,130.6,110.1C130.6,110.1,130.6,110.1,130.6,110.1z"/>
		<path class="st11" d="M133.4,105.4c0,2.2-1.5,4-3.4,4.5c0.2,0.1,0.4,0.1,0.6,0.1c0,0,0,0,0,0c0.1,0,0.2,0,0.3,0c0,0,0,0,0.1,0
			c0.1,0,0.2,0,0.3,0c2.6,0,4.7-2.1,4.7-4.7v-1.5h-2.6V105.4z"/>
		<path class="st11" d="M133.4,99.5v4.4h2.6v-4.4c0-2.6-2.1-4.7-4.7-4.7c-0.1,0-0.2,0-0.3,0c0,0,0,0-0.1,0c-0.1,0-0.2,0-0.3,0
			c0,0,0,0,0,0c-0.2,0-0.4,0.1-0.6,0.1c0,0,0,0,0,0C132,95.6,133.4,97.4,133.4,99.5z"/>
		<path class="st9" d="M99.6,131.6c-0.1,0-0.2,0-0.3-0.1C99.4,131.5,99.5,131.6,99.6,131.6z"/>
		<path class="st9" d="M100.2,131.7c-0.1,0-0.2,0-0.2,0C100,131.6,100.1,131.6,100.2,131.7z"/>
		<path class="st9" d="M100.6,131.7c-0.1,0-0.2,0-0.3,0C100.4,131.7,100.5,131.7,100.6,131.7z"/>
		<path class="st9" d="M99.9,131.6c-0.1,0-0.2,0-0.3-0.1C99.7,131.6,99.8,131.6,99.9,131.6z"/>
		<path class="st9" d="M99.3,131.5c2-0.6,3.4-2.4,3.4-4.5v-1.5h-6.9v1.5C95.9,129.1,97.3,130.9,99.3,131.5z"/>
		<path class="st10" d="M100.3,116.4c0.1,0,0.2,0,0.3,0C100.5,116.3,100.4,116.4,100.3,116.4z"/>
		<path class="st10" d="M102.7,121.1c0-2.2-1.5-4-3.4-4.5c0.3-0.1,0.6-0.1,0.9-0.2c-2.4,0.2-4.4,2.2-4.4,4.7v4.4h6.9V121.1z"/>
		<path class="st11" d="M99.6,131.6L99.6,131.6L99.6,131.6z"/>
		<path class="st11" d="M100.3,131.7C100.3,131.7,100.2,131.7,100.3,131.7C100.2,131.7,100.3,131.7,100.3,131.7z"/>
		<path class="st11" d="M100.2,116.4C100.2,116.4,100.3,116.4,100.2,116.4C100.3,116.4,100.2,116.4,100.2,116.4z"/>
		<path class="st11" d="M100,131.6C99.9,131.6,99.9,131.6,100,131.6C99.9,131.6,99.9,131.6,100,131.6z"/>
		<path class="st11" d="M99.3,131.5C99.3,131.5,99.3,131.5,99.3,131.5C99.3,131.5,99.3,131.5,99.3,131.5
			C99.3,131.5,99.3,131.5,99.3,131.5z"/>
		<path class="st11" d="M102.7,127c0,2.2-1.5,4-3.4,4.5c0,0,0,0,0,0c0.1,0,0.2,0.1,0.3,0.1l0,0c0.1,0,0.2,0,0.3,0.1c0,0,0,0,0.1,0
			c0.1,0,0.2,0,0.2,0c0,0,0.1,0,0.1,0c0.1,0,0.2,0,0.3,0c2.6,0,4.7-2.1,4.7-4.7v-1.5h-2.6V127z"/>
		<path class="st11" d="M102.7,121.1v4.4h2.6v-4.4c0-2.6-2.1-4.7-4.7-4.7c-0.1,0-0.2,0-0.3,0c0,0,0,0-0.1,0c-0.3,0-0.6,0.1-0.9,0.2
			C101.3,117.1,102.7,118.9,102.7,121.1z"/>
		<path class="st9" d="M115.9,131.7c-0.1,0-0.2,0-0.3,0C115.7,131.7,115.8,131.7,115.9,131.7z"/>
		<path class="st9" d="M115.3,131.6c-0.1,0-0.2,0-0.3-0.1C115.1,131.6,115.2,131.6,115.3,131.6z"/>
		<path class="st9" d="M114.6,131.5c2-0.6,3.4-2.4,3.4-4.5v-1.5h-6.9v1.5C111.2,129.1,112.7,130.9,114.6,131.5z"/>
		<path class="st9" d="M115,131.6c-0.1,0-0.2,0-0.3-0.1C114.8,131.5,114.9,131.6,115,131.6z"/>
		<path class="st9" d="M115.5,131.7c-0.1,0-0.2,0-0.2,0C115.4,131.6,115.5,131.6,115.5,131.7z"/>
		<path class="st10" d="M118.1,121.1c0-2.2-1.5-4-3.4-4.5c0.2-0.1,0.4-0.1,0.6-0.1c-2.3,0.3-4.1,2.3-4.1,4.7v4.4h6.9V121.1z"/>
		<path class="st10" d="M115.6,116.4c0.1,0,0.2,0,0.3,0C115.8,116.3,115.7,116.4,115.6,116.4z"/>
		<path class="st10" d="M115.3,116.4c0.1,0,0.2,0,0.3,0C115.5,116.4,115.4,116.4,115.3,116.4z"/>
		<path class="st11" d="M115.3,131.6C115.3,131.6,115.3,131.6,115.3,131.6C115.3,131.6,115.3,131.6,115.3,131.6z"/>
		<path class="st11" d="M115,131.6C115,131.6,115,131.6,115,131.6C115,131.6,115,131.6,115,131.6z"/>
		<path class="st11" d="M115.3,116.4C115.3,116.4,115.3,116.4,115.3,116.4C115.3,116.4,115.3,116.4,115.3,116.4z"/>
		<path class="st11" d="M114.6,131.5C114.7,131.5,114.7,131.5,114.6,131.5C114.7,131.5,114.7,131.5,114.6,131.5L114.6,131.5z"/>
		<path class="st11" d="M115.6,131.7C115.6,131.7,115.6,131.7,115.6,131.7C115.6,131.7,115.6,131.7,115.6,131.7z"/>
		<path class="st11" d="M115.6,116.4C115.6,116.4,115.6,116.4,115.6,116.4C115.6,116.4,115.6,116.4,115.6,116.4z"/>
		<path class="st11" d="M118.1,127c0,2.2-1.5,4-3.4,4.5c0,0,0,0,0,0c0.1,0,0.2,0.1,0.3,0.1c0,0,0,0,0,0c0.1,0,0.2,0,0.3,0.1
			c0,0,0,0,0.1,0c0.1,0,0.2,0,0.2,0c0,0,0.1,0,0.1,0c0.1,0,0.2,0,0.3,0c2.6,0,4.7-2.1,4.7-4.7v-1.5h-2.6V127z"/>
		<path class="st11" d="M118.1,121.1v4.4h2.6v-4.4c0-2.6-2.1-4.7-4.7-4.7c-0.1,0-0.2,0-0.3,0c0,0,0,0-0.1,0c-0.1,0-0.2,0-0.3,0
			c0,0,0,0,0,0c-0.2,0-0.4,0.1-0.6,0.1C116.6,117.1,118.1,118.9,118.1,121.1z"/>
		<path class="st8" d="M130.3,131.6c-0.1,0-0.2,0-0.3-0.1C130.1,131.5,130.2,131.6,130.3,131.6z"/>
		<path class="st8" d="M133.4,127v-1.5h-6.9v1.5c0,2.2,1.5,4,3.4,4.5C132,130.9,133.4,129.1,133.4,127z"/>
		<path class="st8" d="M130.9,131.7c-0.1,0-0.2,0-0.2,0C130.7,131.6,130.8,131.6,130.9,131.7z"/>
		<path class="st8" d="M130.6,131.6c-0.1,0-0.2,0-0.3-0.1C130.4,131.6,130.5,131.6,130.6,131.6z"/>
		<path class="st8" d="M131.3,131.7c-0.1,0-0.2,0-0.3,0C131.1,131.7,131.2,131.7,131.3,131.7z"/>
		<path class="st7" d="M130.6,116.4c0.1,0,0.2,0,0.3,0C130.8,116.4,130.7,116.4,130.6,116.4z"/>
		<path class="st7" d="M133.4,121.1c0-2.2-1.5-4-3.4-4.5c0.2-0.1,0.4-0.1,0.6-0.1c-2.3,0.3-4.1,2.3-4.1,4.7v4.4h6.9V121.1z"/>
		<path class="st7" d="M131,116.4c0.1,0,0.2,0,0.3,0C131.2,116.3,131.1,116.4,131,116.4z"/>
		<path class="st11" d="M130.9,116.4C130.9,116.4,131,116.4,130.9,116.4C131,116.4,130.9,116.4,130.9,116.4z"/>
		<path class="st11" d="M131,131.7C131,131.7,130.9,131.7,131,131.7C130.9,131.7,131,131.7,131,131.7z"/>
		<path class="st11" d="M130,131.5C130,131.5,130,131.5,130,131.5C130,131.5,130,131.5,130,131.5L130,131.5z"/>
		<path class="st11" d="M130.6,116.4L130.6,116.4L130.6,116.4z"/>
		<path class="st11" d="M130.3,131.6C130.3,131.6,130.3,131.6,130.3,131.6C130.3,131.6,130.3,131.6,130.3,131.6z"/>
		<path class="st11" d="M130.7,131.6C130.6,131.6,130.6,131.6,130.7,131.6C130.6,131.6,130.6,131.6,130.7,131.6z"/>
		<path class="st11" d="M136,127v-1.5h-2.6v1.5c0,2.2-1.5,4-3.4,4.5c0,0,0,0,0,0c0.1,0,0.2,0.1,0.3,0.1c0,0,0,0,0,0
			c0.1,0,0.2,0,0.3,0.1c0,0,0,0,0.1,0c0.1,0,0.2,0,0.2,0c0,0,0.1,0,0.1,0c0.1,0,0.2,0,0.3,0c0.9,0,1.7-0.2,2.4-0.7
			c0.8-1.2,1.6-2.5,2.3-3.8C136,127.2,136,127.1,136,127z"/>
		<path class="st11" d="M133.4,121.1v4.4h2.6v-4.4c0-2.6-2.1-4.7-4.7-4.7c-0.1,0-0.2,0-0.3,0c0,0,0,0-0.1,0c-0.1,0-0.2,0-0.3,0l0,0
			c-0.2,0-0.4,0.1-0.6,0.1C132,117.1,133.4,118.9,133.4,121.1z"/>
		<path class="st9" d="M99.9,153.2c-0.2,0-0.4-0.1-0.6-0.1C99.5,153.1,99.7,153.1,99.9,153.2z"/>
		<path class="st9" d="M100.6,153.2c-0.1,0-0.2,0-0.3,0C100.4,153.2,100.5,153.2,100.6,153.2z"/>
		<path class="st9" d="M100.2,153.2c-0.1,0-0.2,0-0.2,0C100,153.2,100.1,153.2,100.2,153.2z"/>
		<path class="st9" d="M99.3,153c2-0.6,3.4-2.4,3.4-4.5v-1.5h-6.9v1.5C95.9,150.6,97.3,152.5,99.3,153z"/>
		<path class="st10" d="M100.3,137.9c0.1,0,0.2,0,0.3,0C100.5,137.9,100.4,137.9,100.3,137.9z"/>
		<path class="st10" d="M99.9,137.9c0.1,0,0.2,0,0.3,0C100.1,137.9,100,137.9,99.9,137.9z"/>
		<path class="st10" d="M102.7,142.6c0-2.2-1.5-4-3.4-4.5c0.2-0.1,0.4-0.1,0.6-0.1c-2.3,0.3-4.1,2.3-4.1,4.7v4.4h6.9V142.6z"/>
		<path class="st11" d="M100,153.2C99.9,153.2,99.9,153.2,100,153.2C99.9,153.2,99.9,153.2,100,153.2z"/>
		<polygon class="st11" points="99.3,153 99.3,153 99.3,153 		"/>
		<path class="st11" d="M100.2,137.9C100.2,137.9,100.3,137.9,100.2,137.9C100.3,137.9,100.2,137.9,100.2,137.9z"/>
		<path class="st11" d="M100.3,153.2C100.3,153.2,100.2,153.2,100.3,153.2C100.2,153.2,100.3,153.2,100.3,153.2z"/>
		<path class="st11" d="M99.9,137.9C99.9,137.9,99.9,137.9,99.9,137.9C99.9,137.9,99.9,137.9,99.9,137.9z"/>
		<path class="st11" d="M102.7,148.5c0,2.2-1.5,4-3.4,4.5c0,0,0,0,0,0c0.2,0.1,0.4,0.1,0.6,0.1c0,0,0,0,0.1,0c0.1,0,0.2,0,0.2,0
			c0,0,0.1,0,0.1,0c0.1,0,0.2,0,0.3,0c2.6,0,4.7-2.1,4.7-4.7v-1.5h-2.6V148.5z"/>
		<path class="st11" d="M102.7,142.6v4.4h2.6v-4.4c0-2.6-2.1-4.7-4.7-4.7c-0.1,0-0.2,0-0.3,0c0,0,0,0-0.1,0c-0.1,0-0.2,0-0.3,0
			c0,0,0,0,0,0c-0.2,0-0.4,0.1-0.6,0.1C101.3,138.6,102.7,140.4,102.7,142.6z"/>
		<path class="st9" d="M118.1,146.9h-6.9v1.5c0,1.1,0.4,2.1,1,2.9c2-1.2,4-2.5,5.9-3.9V146.9z"/>
		<path class="st10" d="M115.3,137.9c0.1,0,0.2,0,0.3,0C115.5,137.9,115.4,137.9,115.3,137.9z"/>
		<path class="st10" d="M115.6,137.9c0.1,0,0.2,0,0.3,0C115.8,137.9,115.7,137.9,115.6,137.9z"/>
		<path class="st10" d="M118.1,142.6c0-2.2-1.5-4-3.4-4.5c0.2-0.1,0.4-0.1,0.6-0.1c-2.3,0.3-4.1,2.3-4.1,4.7v4.4h6.9V142.6z"/>
		<path class="st11" d="M115.3,137.9C115.3,137.9,115.3,137.9,115.3,137.9C115.3,137.9,115.3,137.9,115.3,137.9z"/>
		<path class="st11" d="M115.6,137.9C115.6,137.9,115.6,137.9,115.6,137.9C115.6,137.9,115.6,137.9,115.6,137.9z"/>
		<path class="st11" d="M118.1,146.9v0.5c0.2-0.2,0.5-0.4,0.7-0.5H118.1z"/>
		<path class="st11" d="M118.1,142.6v4.4h0.7c0.6-0.5,1.2-1,1.8-1.4v-2.9c0-2.6-2.1-4.7-4.7-4.7c-0.1,0-0.2,0-0.3,0c0,0,0,0-0.1,0
			c-0.1,0-0.2,0-0.3,0c0,0,0,0,0,0c-0.2,0-0.4,0.1-0.6,0.1C116.6,138.6,118.1,140.4,118.1,142.6z"/>
	</g>
</g>
</svg>
