<svg version="1.1" id="Layer_1" xmlns="http://www.w3.org/2000/svg" xmlns:xlink="http://www.w3.org/1999/xlink" x="0px" y="0px"
	 viewBox="0 0 160 160" style="enable-background:new 0 0 160 160;" xml:space="preserve">
<g>
	<g>
		<path class="st0" d="M144.2,95.8c0-35.5-28.7-64.2-64.2-64.2c-35.5,0-64.2,28.7-64.2,64.2c0,33,24.8,60.1,56.8,63.8L59.2,54.5
			c-0.8-6.3,3.7-12.1,10-12.9l9-1.1c6.3-0.8,12.1,3.7,12.9,10l13.3,104.7C127.8,145.5,144.2,122.6,144.2,95.8z"/>
	</g>
	<g>
		<polygon class="st1" points="136.1,44 143.9,52.4 140.6,65 90.7,84.3 87.9,62.6 		"/>
	</g>
	<g>
		<polygon class="st2" points="136.1,44 132.3,43.6 83.6,62.4 87.4,62.8 		"/>
	</g>
	<g>
		<polygon class="st2" points="72.6,64.9 78.6,76.3 73.5,86.4 69.8,87.7 20.9,60.7 24.5,59.4 		"/>
	</g>
	<g>
		<polygon class="st1" points="20.9,60.7 13.4,70.5 21.8,82.2 67.9,87.5 65.1,65.8 		"/>
	</g>
	<g>
		<path class="st2" d="M81.8,160L68.3,53.4c-0.7-5.8,3-11.2,8.6-12.7c0.2,0,0.4-0.1,0.6-0.1c0.2,0,0.4-0.1,0.6-0.1
			c0.1,0,0.2,0,0.3,0l-9,1.1c-6.3,0.8-10.8,6.6-10,12.9l13.4,105.1c2.4,0.3,4.9,0.4,7.4,0.4C80.6,160,81.2,160,81.8,160z"/>
	</g>
	<g>
		<path class="st1" d="M78.3,40.4c-0.1,0-0.2,0-0.3,0c-0.2,0-0.4,0.1-0.6,0.1c-0.2,0-0.4,0.1-0.6,0.1c-5.6,1.4-9.3,6.8-8.6,12.7
			L81.8,160c8-0.2,15.7-1.9,22.7-4.8L91.2,50.4C90.4,44.1,84.6,39.6,78.3,40.4z"/>
	</g>
	<g>
		<path class="st1" d="M78.3,40.4c-0.1,0-0.2,0-0.3,0c-0.2,0-0.4,0.1-0.6,0.1c-0.2,0-0.4,0.1-0.6,0.1c-5.6,1.4-9.3,6.8-8.6,12.7
			L81.8,160c8-0.2,15.7-1.9,22.7-4.8L91.2,50.4C90.4,44.1,84.6,39.6,78.3,40.4z"/>
	</g>
	<g>
		<path class="st3" d="M73.1,63.9c-0.5,0-0.9-0.4-1-0.9l-0.8-6.5c-0.1-0.6,0.3-1.1,0.9-1.1c0.6-0.1,1.1,0.3,1.1,0.9l0.8,6.5
			c0.1,0.6-0.3,1.1-0.9,1.1C73.2,63.9,73.1,63.9,73.1,63.9z"/>
	</g>
	<g>
		<path class="st3" d="M81.6,130.7c-0.5,0-0.9-0.4-1-0.9l-4.3-34c-0.1-0.6,0.3-1.1,0.9-1.1c0.6-0.1,1.1,0.3,1.1,0.9l4.3,34
			c0.1,0.6-0.3,1.1-0.9,1.1C81.7,130.7,81.7,130.7,81.6,130.7z"/>
	</g>
	<g>
		<path class="st1" d="M78,40.5c-0.2,0-0.4,0.1-0.6,0.1C77.6,40.5,77.8,40.5,78,40.5z"/>
	</g>
	<g>
		<path class="st1" d="M68.3,53.4L81.8,160l0,0L68.3,53.4c-0.7-5.8,3-11.2,8.6-12.7C71.3,42.1,67.5,47.5,68.3,53.4z"/>
	</g>
	<g>
		<polygon class="st2" points="135.5,72.2 141.6,83.6 136.4,93.7 132.8,95 81.8,67.7 85.4,66.4 		"/>
	</g>
	<g>
		<polygon class="st1" points="131.9,73.5 137.9,84.9 132.8,95 84.6,89.4 81.8,67.7 		"/>
	</g>
	<g>
		<polygon class="st2" points="13.1,89.6 10.2,102.2 17.6,110.7 21.5,111 65.7,71.2 61.8,70.8 		"/>
	</g>
	<g>
		<polygon class="st1" points="17,90 14,102.5 21.5,111 68.4,92.9 65.7,71.2 		"/>
	</g>
	<g>
		<polygon class="st2" points="84.6,89.4 81.8,67.7 69.6,73.6 72.4,95.3 		"/>
	</g>
	<g>
		<path class="st4" d="M72.6,159.6l-4.8-37.4c-13.1,3-25.2,8.7-35.6,16.6C42.5,150.1,56.7,157.8,72.6,159.6z"/>
	</g>
	<g>
		<path class="st4" d="M104.6,155.1c11.8-4.9,21.8-13.2,28.8-23.7c-10.1-5.6-21.3-9.3-33.2-10.8L104.6,155.1z"/>
	</g>
	<g>
		<path class="st5" d="M67.9,122.2c-7.2,1.6-14.1,4.1-20.6,7.3l25.4,30.1L67.9,122.2z"/>
	</g>
</g>
</svg>
