<svg version="1.1" id="Layer_1" xmlns="http://www.w3.org/2000/svg" xmlns:xlink="http://www.w3.org/1999/xlink" x="0px" y="0px"
	 viewBox="0 0 160 160" style="enable-background:new 0 0 160 160;" xml:space="preserve">
<g>
	<path class="st0" d="M144.2,95.8c0,35.5-28.7,64.2-64.2,64.2c-35.5,0-64.2-28.7-64.2-64.2c0-35.5,28.7-64.2,64.2-64.2
		C115.5,31.6,144.2,60.3,144.2,95.8"/>
</g>
<g>
	<g>
		<path class="st1" d="M104.4,82.1l-49.1,28.3c-4.6,2.7-6.2,8.5-3.5,13.1c2.7,4.6,8.5,6.2,13.1,3.5l45.9-26.5L97.7,77.9L104.4,82.1z
			"/>
	</g>
	<g>
		<path class="st1" d="M48.1,119.9l55.7-32.2l-31.7,29.9c-4.6,2.7-6.2,8.5-3.5,13.1c2.7,4.6,8.5,6.2,13.1,3.5l37-21.3
			c11.6-6.7,15.6-21.5,8.9-33.1c-6.7-11.6-21.5-15.6-33.1-8.9l-56,32.3c-4.6,2.7-6.2,8.5-3.5,13.1C37.6,120.9,43.5,122.5,48.1,119.9
			"/>
	</g>
	<g>
		<g>
			<path class="st2" d="M120,103.8L64,71.4c-11.6-6.7-26.4-2.7-33.1,8.9c-6.7,11.6-2.7,26.4,8.9,33.1l37,21.3
				c4.6,2.7,10.5,1.1,13.1-3.5c0.9-1.6,1.3-3.4,1.3-5.1l2.4,1.4c4.6,2.7,10.5,1.1,13.1-3.5c0.9-1.6,1.3-3.4,1.3-5.1l2.4,1.4
				c4.6,2.7,10.5,1.1,13.1-3.5C126.2,112.3,124.6,106.4,120,103.8z M54.9,88.5l-0.3-0.3L54.9,88.5L54.9,88.5z"/>
		</g>
		<g>
			<g>
				<path class="st2" d="M79,60.1L45.6,69l5,18.6l33.4-8.9c5.1-1.4,8.2-6.6,6.8-11.8C89.4,61.7,84.1,58.7,79,60.1z"/>
			</g>
		</g>
	</g>
	<g>
		<g>
			<path class="st1" d="M76.1,97.1c-2,0-4.1-0.7-5.8-2.1c-3.9-3.2-4.5-9-1.3-12.9l7.1-8.8c1.5-1.9,3.7-3.1,6.1-3.3l20.3-2.2
				c5-0.5,9.5,3.1,10.1,8.1c0.5,5-3.1,9.5-8.1,10.1L88,87.9l-4.8,5.9C81.4,96,78.8,97.1,76.1,97.1z"/>
		</g>
	</g>
	<g>
		<circle class="st1" cx="42.9" cy="112.1" r="9.6"/>
	</g>
	<g>
		<circle class="st1" cx="57.6" cy="120.1" r="9.6"/>
	</g>
	<g>
		<circle class="st1" cx="72.3" cy="127.4" r="9.6"/>
	</g>
</g>
<g>
	<path class="st3" d="M8.6,100.9C8,100.7,7.7,99.9,8,99.1l14.3-40c0.3-0.8,1-1.3,1.7-1l20.2,7.2c0.6,0.2,0.9,1.1,0.6,1.9l-14.3,40
		c-0.3,0.8-1,1.3-1.7,1L8.6,100.9z"/>
</g>
<g>
	<path class="st4" d="M27.9,104.6c-0.1,0-0.2,0-0.3-0.1c-0.5-0.2-0.8-0.8-0.6-1.3L35.3,80c0.2-0.5,0.8-0.8,1.3-0.6
		c0.5,0.2,0.8,0.8,0.6,1.3L28.9,104C28.7,104.4,28.3,104.6,27.9,104.6z"/>
</g>
<g>
	<path class="st4" d="M37.9,76.8c-0.1,0-0.2,0-0.3-0.1c-0.5-0.2-0.8-0.8-0.6-1.3l2.2-6.2c0-0.1,0.1-0.2,0.1-0.3l-13.9-5
		c-0.5-0.2-0.8-0.8-0.6-1.3c0.2-0.5,0.8-0.8,1.3-0.6l14.1,5c1,0.4,1.4,1.6,1,2.8l-2.2,6.2C38.7,76.6,38.3,76.8,37.9,76.8z M39.4,69
		L39.4,69L39.4,69z"/>
</g>
<g>
	<path class="st5" d="M152.1,100.9c0.6-0.2,0.9-1.1,0.6-1.9l-14.3-40c-0.3-0.8-1-1.3-1.7-1l-20.2,7.2c-0.6,0.2-0.9,1.1-0.6,1.9
		l14.3,40c0.3,0.8,1,1.3,1.7,1L152.1,100.9z"/>
</g>
<g>
	<path class="st6" d="M132.6,105.3c-0.4,0-0.8-0.3-1-0.7l-3.2-9c-0.2-0.5,0.1-1.1,0.6-1.3c0.5-0.2,1.1,0.1,1.3,0.6l3.2,9
		c0.2,0.5-0.1,1.1-0.6,1.3C132.8,105.2,132.7,105.3,132.6,105.3z"/>
</g>
<g>
	<path class="st6" d="M126.9,89.2c-0.4,0-0.8-0.3-1-0.7l-7-19.7c-0.2-0.6-0.2-1.2-0.1-1.7c0.2-0.6,0.6-1.1,1.2-1.3l14.6-5.2
		c0.5-0.2,1.1,0.1,1.3,0.6c0.2,0.5-0.1,1.1-0.6,1.3l-14.5,5.2c0,0.1,0,0.2,0,0.4l7,19.7c0.2,0.5-0.1,1.1-0.6,1.3
		C127.1,89.2,127,89.2,126.9,89.2z"/>
</g>
</svg>
