<?xml version="1.0" encoding="utf-8"?>
<!-- Generator: Adobe Illustrator 21.0.0, SVG Export Plug-In . SVG Version: 6.00 Build 0)  -->
<svg version="1.1" id="Layer_1" xmlns="http://www.w3.org/2000/svg" xmlns:xlink="http://www.w3.org/1999/xlink" x="0px" y="0px"
	 viewBox="0 0 180 180" style="enable-background:new 0 0 180 180;" xml:space="preserve">
<style type="text/css">
	.st0{fill:#F5A17E;}
	.st1{fill:none;stroke:#F5A17E;stroke-width:2.2687;stroke-linecap:round;stroke-linejoin:round;stroke-miterlimit:10;}
	.st2{fill:#7D4E24;}
	.st3{fill:#706F6F;}
	.st4{fill:#E6007E;}
</style>
<g>
	<path class="st0" d="M85.3,83.2c-2.1,0.2-5.1,2.2-6.6,5.3c-1,2.2-1.6,5.6,1.1,10c0,0.1,0,0.1-0.1,0.2l-0.5,3.1
		c0,0.3,0.1,0.5,0.4,0.6c0.3,0,0.5-0.1,0.6-0.4l-0.1,0.5c0,0.3,0.1,0.5,0.4,0.6c0.3,0,0.5-0.1,0.6-0.4l0.1-0.5
		c0,0.3,0.1,0.5,0.4,0.6s0.5-0.1,0.6-0.4l0.1-0.8c0.1,0,0.2,0,0.2,0c0.3-0.1,0.5-0.3,0.4-0.6l-0.3-1.5v-0.2c0.1-0.7-0.3-1.4-1-1.7
		c-1.8-2.8-2.2-5.6-1.1-8c1.2-2.5,3.6-3.9,4.8-4c0.6-0.1,1.1-0.6,1-1.3C86.5,83.6,85.9,83.1,85.3,83.2z"/>
</g>
<path class="st1" d="M82.2,125.4c0,0,0,1.6-0.3,3.2"/>
<path class="st1" d="M90.5,125.4c0,0,0,1.6-0.3,3.2"/>
<g>
	<g>
		<path class="st2" d="M87.7,130.1c0-1.2,1-2.1,2.1-2.1h4.4c1.2,0,2.1,1,2.1,2.1H87.7z"/>
	</g>
</g>
<g>
	<g>
		<path class="st2" d="M78.6,130.1c0-1.2,1-2.1,2.1-2.1h4.4c1.2,0,2.1,1,2.1,2.1H78.6z"/>
	</g>
</g>
<path class="st3" d="M92.4,102.2C92.4,102.1,92.4,102.1,92.4,102.2c0.2-0.7,0.4-1.5,0.4-2.2v-0.2c0-3-2.5-5.5-5.5-5.5
	s-5.5,2.5-5.5,5.5v0.2c0,0.8,0.2,1.5,0.5,2.2c-0.1,0.3-0.1,0.6-0.1,1c0,0.1,0.9,8.3-2.3,21.2c-0.3,1.3,0.5,2.7,1.8,3
	c0.1,0,0.1,0,0.2,0c1.2,0.2,2.5-0.6,2.8-1.8c2.3-9.3,2.6-16.4,2.6-20h0.1c0.3,0,0.5,0,0.8-0.1c0.6,3.1,1.4,9.9,0.6,19.4
	c-0.1,1.4,0.9,2.5,2.2,2.7c0.1,0,0.1,0,0.2,0c1.3,0,2.3-1,2.4-2.2C94.8,111,92.5,102.5,92.4,102.2z"/>
<g>
	<path class="st4" d="M92.8,88.8c0-0.8-0.3-1.5-0.8-2v-0.3c0-2.6-2.1-4.7-4.7-4.7s-4.7,2.1-4.7,4.7v1.1c-0.2,0.4-0.2,0.8-0.2,1.2
		s0.1,0.8,0.2,1.2v4.6c0,2.6,2.1,4.7,4.7,4.7s4.7-2.1,4.7-4.7v-3.8C92.5,90.2,92.8,89.5,92.8,88.8z"/>
	<g>
		<path class="st0" d="M87.6,86.7c0.5-0.6,1.3-0.9,2.1-1c0.1-0.2,0.1-0.4,0.1-0.6v-0.9c0-1.4-1.1-2.5-2.5-2.5s-2.5,1.1-2.5,2.5v0.9
			c0,0.2,0,0.5,0.1,0.7c0.1,0,0.3,0,0.4,0C86.3,85.7,87,86.1,87.6,86.7z"/>
	</g>
</g>
</svg>
