<svg version="1.1" id="Layer_1" xmlns="http://www.w3.org/2000/svg" xmlns:xlink="http://www.w3.org/1999/xlink" x="0px" y="0px"
	 viewBox="0 0 180 180" style="enable-background:new 0 0 180 180;" xml:space="preserve">
<g>
	<path class="skin" d="M85.3,83.3c-2.1,0.2-5.1,2.2-6.6,5.3c-1,2.2-1.6,5.6,1.1,10c0,0.1,0,0.1-0.1,0.2l-0.5,3.1
		c0,0.3,0.1,0.5,0.4,0.6c0.3,0,0.5-0.1,0.6-0.4l-0.1,0.5c0,0.3,0.1,0.5,0.4,0.6c0.3,0,0.5-0.1,0.6-0.4l0.1-0.5
		c0,0.3,0.1,0.5,0.4,0.6s0.5-0.1,0.6-0.4l0.1-0.8c0.1,0,0.2,0,0.2,0c0.3-0.1,0.5-0.3,0.4-0.6l-0.3-1.5l0-0.2c0.1-0.7-0.3-1.4-1-1.7
		c-1.8-2.8-2.2-5.6-1.1-8c1.2-2.5,3.6-3.9,4.8-4c0.6-0.1,1.1-0.6,1-1.3C86.5,83.7,85.9,83.2,85.3,83.3z"/>
</g>
<g>
	<path class="skin" d="M90,128.3c0,0-0.1,0-0.1,0c-0.7-0.1-1.3-0.7-1.2-1.4c1.1-11.9-0.3-25-0.3-25.1c-0.1-0.7,0.5-1.4,1.2-1.5
		c0.7-0.1,1.4,0.5,1.5,1.2c0,0.1,1.4,13.5,0.3,25.6C91.2,127.8,90.6,128.3,90,128.3z"/>
</g>
<g>
	<path class="skin" d="M82.6,128.4c-0.1,0-0.2,0-0.3,0c-0.7-0.1-1.2-0.8-1-1.6c2.3-11.7,2.5-24.9,2.5-25c0-0.7,0.6-1.3,1.3-1.3
		c0.7,0,1.3,0.6,1.3,1.3c0,0.1-0.2,13.6-2.6,25.5C83.8,127.9,83.2,128.4,82.6,128.4z"/>
</g>
<g>
	<g>
		<path class="clothing-bottom" d="M87.3,111.8c-3.2,0-5.9-2.6-5.9-5.9v-6.1c0-3.2,2.6-5.9,5.9-5.9s5.9,2.6,5.9,5.9v6.1
			C93.1,109.2,90.5,111.8,87.3,111.8z"/>
	</g>
</g>
<path class="shoes" d="M84.1,126.8l3.1,3.1h0.2c0.4,0,0.7,0.1,0.9,0.4v-3.5h2.9l3.1,3.1h0.2c0.7,0,1.3,0.6,1.3,1.3h-5.3l-1.5-2.3v2.3
	h-0.5c0,0,0,0,0,0.1h-5.3l-1.5-2.3v2.3h-0.9v-4.3H84.1z"/>
<g>
	<path class="clothing-top" d="M92.7,88.8c0-0.8-0.3-1.5-0.8-2v-0.3c0-2.6-2.1-4.7-4.7-4.7s-4.7,2.1-4.7,4.7v1.1c-0.2,0.4-0.2,0.8-0.2,1.2
		s0.1,0.8,0.2,1.2v4.6c0,2.6,2.1,4.7,4.7,4.7s4.7-2.1,4.7-4.7v-3.8C92.5,90.3,92.7,89.6,92.7,88.8z"/>
	<g>
		<path class="skin" d="M87.5,86.8c0.5-0.6,1.3-0.9,2.1-1c0.1-0.2,0.1-0.4,0.1-0.6v-0.9c0-1.4-1.1-2.5-2.5-2.5s-2.5,1.1-2.5,2.5v0.9
			c0,0.2,0,0.5,0.1,0.7c0.1,0,0.3,0,0.4,0C86.2,85.8,87,86.2,87.5,86.8z"/>
	</g>
</g>
</svg>
