<svg version="1.1" id="Layer_1" xmlns="http://www.w3.org/2000/svg" xmlns:xlink="http://www.w3.org/1999/xlink" x="0px" y="0px"
	 viewBox="0 0 180 180" style="enable-background:new 0 0 180 180;" xml:space="preserve">
<g>
	<g>
		<path class="skin-shadow" d="M86.5,84.8c-0.2,0-0.5,0-0.7-0.2c-0.9-0.4-1.2-1.4-0.8-2.2c0,0,0.6-1.4,0.2-2.9c-0.2-0.9,0.4-1.8,1.3-2
			c0.9-0.2,1.8,0.4,2,1.3c0.6,2.6-0.4,4.8-0.5,5C87.8,84.5,87.2,84.8,86.5,84.8z"/>
	</g>
	<path class="skin" d="M78.9,72.4c0.3-0.3,0.8-0.4,1.2-0.3v-1.7c0-4.2,3.4-7.6,7.6-7.6s7.6,3.4,7.6,7.6v1.7c0.4-0.1,0.7,0,1,0.3
		c0.5,0.5,0.5,1.2,0,1.7l-1,1c-0.2,4-3.5,7.2-7.5,7.2c-4,0-7.2-3.1-7.5-7l-1.3-1.3C78.4,73.7,78.4,72.9,78.9,72.4z"/>
	<path class="skin-shadow" d="M87.7,82.4c-3.4,0-6.1-3.4-6.1-7.6v-4.3c0-4.2,2.7-7.6,6.1-7.6c-4.2,0-7.6,3.4-7.6,7.6v4.3
		C80.1,79,83.5,82.4,87.7,82.4z"/>
	<path class="skin-shadow" d="M79.2,72.7c0.2-0.2,0.4-0.2,0.6-0.2c0.1,0,0.3,0,0.4,0.1v2.2c0,0,0,0,0,0l-1-1c-0.2-0.2-0.2-0.4-0.2-0.6
		C78.9,73.1,79,72.8,79.2,72.7z"/>
	<path class="skin-shadow" d="M95.4,72.5c0.2,0,0.4,0.1,0.6,0.2s0.2,0.4,0.2,0.6c0,0.2-0.1,0.4-0.2,0.6l-0.8,0.8v-2.1
		C95.3,72.5,95.4,72.5,95.4,72.5z"/>
	<path class="skin-shadow" d="M89.3,75.7c0,0.4-0.3,0.8-0.8,0.8c-0.4,0-0.8-0.3-0.8-0.8H89.3z"/>
	<circle class="st3" cx="92.6" cy="74.3" r="0.4"/>
	<circle class="st3" cx="84.7" cy="74.3" r="0.4"/>
	<path class="st4" d="M89.6,79.5c0-0.5-0.3-0.8-0.7-0.8c-0.1,0-0.2,0-0.3,0.1c-0.1,0-0.2-0.1-0.3-0.1c-0.4,0-0.7,0.4-0.7,0.8
		c0,0.7,0.5,1.3,1,1.3c0.5,0,0.8-0.4,1-1C89.6,79.7,89.6,79.6,89.6,79.5z"/>
	<path class="hair" d="M90.9,62.9c0.3-0.4,0.4-0.9,0.4-1.4c0-2-2.2-3.5-5.1-3.5s-5.1,1.5-5.1,3.5c0,1,0.6,1.9,1.6,2.6
		c-2,1.3-3.2,3.5-3.2,5.9c0,0.2,0.1,0.4,0.3,0.5c0.1,0.1,0.2,0.1,0.3,0.1c0.1,0,0.2,0,0.3-0.1c1.7-0.9,3-2.4,3.5-4.2
		c0.5,2.6,2.5,4.9,5.2,5.6c0,0,0.1,0,0.1,0c0.2,0,0.4-0.1,0.5-0.3c0.1-0.2,0.1-0.5-0.1-0.7c-1.5-1.3-2.4-3.2-2.6-5.1
		c1.3,3.3,4.5,5.7,8.3,5.7c0.3,0,0.6-0.3,0.6-0.6C95.9,67.4,93.8,64.4,90.9,62.9z"/>
	<path d="M94.5,72.5c-0.1,0-0.1,0.1-0.1,0.1c0,0.4-0.4,0.8-0.8,0.8h-0.1c0.2-0.2,0.4-0.5,0.4-0.8c0-0.1-0.1-0.1-0.1-0.1
		s-0.1,0.1-0.1,0.1c0,0.4-0.4,0.8-0.8,0.8h0c0.2-0.2,0.4-0.5,0.4-0.8c0-0.1-0.1-0.1-0.1-0.1s-0.1,0.1-0.1,0.1c0,0.4-0.4,0.8-0.8,0.8
		c-0.1,0-0.1,0.1-0.1,0.1s0.1,0.1,0.1,0.1h1.5c0.6,0,1.1-0.5,1.1-1.1C94.7,72.6,94.6,72.5,94.5,72.5z"/>
	<path d="M86.6,72.5c-0.1,0-0.1,0.1-0.1,0.1c0,0.4-0.4,0.8-0.8,0.8h-0.1c0.2-0.2,0.4-0.5,0.4-0.8c0-0.1-0.1-0.1-0.1-0.1
		s-0.1,0.1-0.1,0.1c0,0.4-0.4,0.8-0.8,0.8h0c0.2-0.2,0.4-0.5,0.4-0.8c0-0.1-0.1-0.1-0.1-0.1s-0.1,0.1-0.1,0.1c0,0.4-0.4,0.8-0.8,0.8
		c-0.1,0-0.1,0.1-0.1,0.1s0.1,0.1,0.1,0.1h1.5c0.6,0,1.1-0.5,1.1-1.1C86.7,72.6,86.7,72.5,86.6,72.5z"/>
</g>
</svg>
