<svg version="1.1" id="Layer_1" xmlns="http://www.w3.org/2000/svg" xmlns:xlink="http://www.w3.org/1999/xlink" x="0px" y="0px"
	 viewBox="0 0 180 180" style="enable-background:new 0 0 180 180;" xml:space="preserve">
<g>
	<path class="st0" d="M81,99.3c-0.4,0-0.7-0.2-0.9-0.5c-2.9-4.4-2.3-8-1.3-10.2c1.5-3.1,4.5-5.1,6.6-5.3c0.6-0.1,1.2,0.4,1.3,1
		c0.1,0.6-0.4,1.2-1,1.3c-1.3,0.1-3.6,1.5-4.8,4c-1.1,2.4-0.7,5.2,1.1,8c0.3,0.5,0.2,1.2-0.3,1.6C81.4,99.2,81.2,99.3,81,99.3z"/>
</g>
<path class="st0" d="M83.1,100.9l-0.3-1.5v-0.2c0.1-0.8-0.4-1.6-1.3-1.8s-1.6,0.4-1.8,1.3l-0.5,3.1c0,0.3,0.1,0.5,0.4,0.6
	c0.3,0,0.5-0.1,0.6-0.4l-0.1,0.5c0,0.3,0.1,0.5,0.4,0.6c0.3,0,0.5-0.1,0.6-0.4l0.1-0.5c0,0.3,0.1,0.5,0.4,0.6s0.5-0.1,0.6-0.4
	l0.1-0.8c0.1,0,0.2,0,0.2,0C83,101.4,83.2,101.2,83.1,100.9z"/>
<g>
	<path class="st0" d="M90,128.2L90,128.2c-0.8-0.1-1.4-0.7-1.3-1.4c1.1-11.9-0.3-25-0.3-25.1c-0.1-0.7,0.5-1.4,1.2-1.5
		s1.4,0.5,1.5,1.2c0,0.1,1.4,13.5,0.3,25.6C91.2,127.7,90.6,128.2,90,128.2z"/>
</g>
<g>
	<path class="st0" d="M82.6,128.3c-0.1,0-0.2,0-0.3,0c-0.7-0.1-1.2-0.8-1-1.6c2.3-11.7,2.5-24.9,2.5-25c0-0.7,0.6-1.3,1.3-1.3
		c0.7,0,1.3,0.6,1.3,1.3c0,0.1-0.2,13.6-2.6,25.5C83.8,127.9,83.2,128.3,82.6,128.3z"/>
</g>
<g>
	<g>
		<path class="st1" d="M87.3,126.2c-3.2,0-5.9-2.6-5.9-5.9V99.7c0-3.2,2.6-5.9,5.9-5.9s5.9,2.6,5.9,5.9v20.7
			C93.1,123.6,90.5,126.2,87.3,126.2z"/>
	</g>
</g>
<path d="M84.1,126.7l3.1,3.1h0.2c0.4,0,0.7,0.1,0.9,0.4v-3.5h2.9l3.1,3.1h0.2c0.7,0,1.3,0.6,1.3,1.3h-5.3l-1.5-2.3v2.3h-0.5
	c0,0,0,0,0,0.1h-5.3l-1.5-2.3v2.3h-0.9v-4.3h3.3V126.7z"/>
<path class="st2" d="M95.7,88.8c-1-2.6-3.1-4.5-5-5.5c-0.9-0.9-2.1-1.5-3.4-1.5c-1,0-1.9,0.3-2.7,0.8c-2.2,0.5-5,2.4-6.5,5.4
	c-0.4,1-0.1,2.1,0.9,2.6c0.3,0.1,0.6,0.2,0.8,0.2c0.7,0,1.4-0.4,1.7-1.1c0.2-0.5,0.5-0.9,0.8-1.2c0,0.1,0,0.2,0,0.3
	c0,0.4,0.1,0.8,0.2,1.2v4.6c0,2.6,2.1,4.7,4.7,4.7s4.7-2.1,4.7-4.7v-3.8c0.1-0.1,0.2-0.3,0.3-0.4c0.3,0.6,1,1,1.7,1
	c0.2,0,0.5,0,0.7-0.1C95.6,90.9,96.1,89.8,95.7,88.8z"/>
<g>
	<path class="st0" d="M87.5,86.7c0.5-0.6,1.3-0.9,2.1-1c0.1-0.2,0.1-0.4,0.1-0.6v-0.9c0-1.4-1.1-2.5-2.5-2.5s-2.5,1.1-2.5,2.5v0.9
		c0,0.2,0,0.5,0.1,0.7c0.1,0,0.3,0,0.4,0C86.2,85.7,87,86.1,87.5,86.7z"/>
</g>
</svg>
