<svg version="1.1" id="Layer_1" xmlns="http://www.w3.org/2000/svg" xmlns:xlink="http://www.w3.org/1999/xlink" x="0px" y="0px"
	 viewBox="0 0 180 180" style="enable-background:new 0 0 180 180;" xml:space="preserve">
<svg x="0.5">
<g>
	<path class="skin" d="M100.5,97.7C100.5,97.7,100.5,97.7,100.5,97.7c-4.7-0.4-7-4.9-8.6-8.2c-0.8-1.6-1.8-3.6-2.5-3.7
		c-0.6-0.1-1.1-0.6-1-1.3c0.1-0.6,0.6-1.1,1.3-1c1.9,0.2,3,2.4,4.3,5c1.6,3.1,3.3,6.7,6.7,7c0.6,0,1.1,0.6,1,1.2
		C101.6,97.2,101.1,97.7,100.5,97.7z"/>
</g>
<g>
	<path class="skin" d="M104.7,94.9l-3.1,0.5l-0.1-0.5c-1,0.2-1.6,1.1-1.5,2c0.2,1,1.1,1.6,2,1.5l0.8-0.1c0.3,0,0.5-0.3,0.5-0.6
		c0-0.1,0-0.2-0.1-0.2c0,0-0.1-0.2,0,0l0,0c0.3,0,0.5-0.3,0.5-0.6c0-0.3-0.3-0.5-0.6-0.5l1.8-0.3c0.3,0,0.5-0.3,0.5-0.6
		C105.3,95.1,105,94.9,104.7,94.9z"/>
</g>
<path class="st1" d="M110.1,107.8l-8.4-1.2c-0.2,0-0.4-0.3-0.4-0.5l2.1-15.6c0-0.2,0.3-0.4,0.5-0.4l8.4,1.2c0.2,0,0.4,0.3,0.4,0.5
	l-2.1,15.6C110.6,107.7,110.4,107.8,110.1,107.8z"/>
<path class="st2" d="M110.1,107.8l-8.4-1.2c-0.2,0-0.4-0.3-0.4-0.5l2.1-15.6c0-0.2,0.3-0.4,0.5-0.4l8.4,1.2c0.2,0,0.4,0.3,0.4,0.5
	l-2.1,15.6C110.6,107.7,110.4,107.8,110.1,107.8z"/>
<ellipse transform="matrix(0.1362 -0.9907 0.9907 0.1362 -12.8908 196.3358)" class="st3" cx="106.1" cy="105.6" rx="0.9" ry="0.9"/>
<rect x="103.1" y="91.2" transform="matrix(0.9907 0.1362 -0.1362 0.9907 14.2991 -13.6986)" class="st4" width="8.3" height="12.8"/>
<path class="st5" d="M107.7,96.1c0.2-1.4-0.8-2.7-2.2-2.9c-1.4-0.2-2.7,0.8-2.9,2.2c-0.2,1.4,0.8,2.7,2.2,2.9c0.6,0.1,1.1,0,1.5-0.3
	l0.6,0.3c0.1,0,0.2,0,0.1-0.1l-0.1-0.6C107.4,97.2,107.7,96.7,107.7,96.1z"/>
<path class="st6" d="M110.9,90.9c-1.2-0.2-2.3,0.7-2.5,1.9c-0.1,0.5,0,0.9,0.2,1.3l-0.2,0.6c0,0.1,0,0.2,0.1,0.1l0.6-0.1
	c0.3,0.3,0.7,0.5,1.2,0.5c1.2,0.2,2.3-0.7,2.5-1.9C112.9,92.2,112.1,91,110.9,90.9z"/>
<svg x="-0.1">
	<path class="skin" d="M104.1,95.6c0.3,0,0.5-0.3,0.5-0.6c0-0.3-0.3-0.5-0.6-0.5l-2.4,0.4l0.2,1.1L104.1,95.6z"/>
</svg>
</svg>
</svg>
