<svg version="1.1" id="Layer_1" xmlns="http://www.w3.org/2000/svg" xmlns:xlink="http://www.w3.org/1999/xlink" x="0px" y="0px"
	 viewBox="0 0 180 180" style="enable-background:new 0 0 180 180;" xml:space="preserve">
<svg x="-1.2" y="-0.7">
	<path class="skin" d="M95.6,98.1c2.2-4,1.7-7.2,0.7-9.2c-1.5-3.1-4.5-5.1-6.6-5.3c-0.6-0.1-1.2,0.4-1.3,1c-0.1,0.6,0.4,1.2,1,1.3
		c1.2,0.1,3.6,1.5,4.8,4c1.1,2.4,0.7,5.2-1.1,8c-0.1,0.2-0.2,0.4-0.2,0.6c-0.1,0.2-0.1,0.4-0.1,0.7l0,0.2l-0.5,1.5
		c-0.1,0.3,0.1,0.6,0.3,0.7c0.1,0,0.2,0,0.2,0l0,0.8c0,0.3,0.3,0.5,0.5,0.5c0.3,0,0.5-0.3,0.5-0.5l0,0.5c0,0.3,0.3,0.5,0.5,0.5
		c0.3,0,0.5-0.3,0.5-0.5l0-0.5c0,0.3,0.3,0.5,0.5,0.5s0.5-0.3,0.5-0.5l-0.2-3.1C95.9,98.6,95.8,98.3,95.6,98.1z"/>
</svg>
</svg>
