<svg version="1.1" id="Layer_1" xmlns="http://www.w3.org/2000/svg" xmlns:xlink="http://www.w3.org/1999/xlink" x="0px" y="0px"
	 viewBox="0 0 180 180" style="enable-background:new 0 0 180 180;" xml:space="preserve">
<g>
	<path class="skin-shadow" d="M87.3,86.1c-0.4,0-0.7-0.1-1.1-0.2c-1.3-0.6-1.9-2.2-1.3-3.5c0-0.1,0.5-1.1,0.2-2.3c-0.3-1.4,0.6-2.8,2-3.2
		c1.4-0.3,2.8,0.6,3.2,2c0.7,2.9-0.4,5.3-0.5,5.6C89.3,85.5,88.3,86.1,87.3,86.1z"/>
</g>
<path class="skin" d="M79.1,73.1c0.3-0.3,0.8-0.4,1.2-0.3v-1.7c0-4.2,3.4-7.6,7.6-7.6s7.6,3.4,7.6,7.6v1.7c0.4-0.1,0.7,0,1,0.3
	c0.5,0.5,0.5,1.2,0,1.7l-1,1c-0.2,4-3.5,7.2-7.5,7.2c-4,0-7.2-3.1-7.5-7l-1.3-1.3C78.6,74.3,78.6,73.6,79.1,73.1z"/>
<circle class="st2" cx="92" cy="74.8" r="0.4"/>
<circle class="st2" cx="84.1" cy="74.8" r="0.4"/>
<g>
	<path class="hair" d="M93.4,74.4h-2.3c-0.2,0-0.4-0.2-0.4-0.4s0.2-0.4,0.4-0.4h2.3c0.2,0,0.4,0.2,0.4,0.4S93.6,74.4,93.4,74.4z"/>
</g>
<g>
	<path class="hair" d="M83.1,73.1c-0.2,0-0.3-0.1-0.4-0.3c0-0.2,0.1-0.4,0.3-0.4l2.3-0.4c0.2,0,0.4,0.1,0.4,0.3
		c0,0.2-0.1,0.4-0.3,0.4L83.1,73.1C83.2,73.1,83.2,73.1,83.1,73.1z"/>
</g>
<path class="skin-shadow" d="M87.9,83c-3.4,0-6.1-3.4-6.1-7.6v-4.3c0-4.2,2.7-7.6,6.1-7.6c-4.2,0-7.6,3.4-7.6,7.6v4.3
	C80.3,79.6,83.7,83,87.9,83z"/>
<path class="skin-shadow" d="M79.3,73.4c0.2-0.2,0.4-0.2,0.6-0.2c0.1,0,0.3,0,0.4,0.1v2.2c0,0,0,0,0,0l-1-1c-0.2-0.2-0.2-0.4-0.2-0.6
	C79.1,73.7,79.2,73.5,79.3,73.4z"/>
<path class="skin-shadow" d="M95.6,73.1c0.2,0,0.4,0.1,0.6,0.2s0.2,0.4,0.2,0.6c0,0.2-0.1,0.4-0.2,0.6l-0.8,0.8v-2.1
	C95.5,73.1,95.5,73.1,95.6,73.1z"/>
<path class="hair" d="M94.6,74.3c-0.6,0-1.1,0.5-1.1,1.1c0,1.9-1,3.6-2.5,4.6v-0.3c0-1.8-1.5-3.3-3.3-3.3s-3.3,1.5-3.3,3.3v0.1
	c-1.3-1-2.2-2.6-2.2-4.5c0-0.6-0.5-1.1-1.1-1.1S80,74.8,80,75.5c0,4.4,3.5,7.9,7.9,7.9s7.9-3.5,7.9-7.9
	C95.8,74.8,95.3,74.3,94.6,74.3z M87.7,78.5c0.7,0,1.2,0.6,1.2,1.2v0.8c-0.3-0.4-0.7-0.6-1.2-0.6c-0.5,0-1,0.3-1.2,0.6v-0.8
	C86.5,79.1,87.1,78.5,87.7,78.5z"/>
<path class="skin-shadow" d="M88.5,76.4c0,0.4-0.3,0.8-0.8,0.8S87,76.8,87,76.4H88.5z"/>
</svg>
