<svg version="1.1" id="Layer_1" xmlns="http://www.w3.org/2000/svg" xmlns:xlink="http://www.w3.org/1999/xlink" x="0px" y="0px"
	 viewBox="0 0 180 180" style="enable-background:new 0 0 180 180;" xml:space="preserve">
<path class="legs" d="M98.3,126.5c0,0,0,1.6-0.3,3.2"/>
<g>
	<g>
		<path class="shoes" d="M104.2,131.1c0-1.2-1-2.1-2.1-2.1h-4.4c-1.2,0-2.1,1-2.1,2.1H104.2z"/>
	</g>
</g>
<path class="skin" d="M76.7,104.1l-0.5-1.7l0-0.2c0.1-1-0.6-1.8-1.6-1.9s-1.8,0.6-1.9,1.6l-0.4,3.6c0,0.3,0.2,0.6,0.5,0.6
	s0.6-0.2,0.6-0.5l-0.1,0.6c0,0.3,0.2,0.6,0.5,0.6s0.6-0.2,0.6-0.5l0.1-0.6c0,0.3,0.2,0.6,0.5,0.6c0.3,0,0.6-0.2,0.6-0.5l0.1-0.9
	c0.1,0,0.2,0,0.3,0C76.6,104.7,76.8,104.4,76.7,104.1z"/>
<path class="legs" d="M81.7,126.5c0,0,0,1.6-0.3,3.2"/>
<path class="clothing-bottom" d="M92.3,103.3c0.1-0.2,0.1-0.4,0.1-0.5H81.7c0,0.1,0,0.2,0.1,0.2c-0.1,0.3-0.2,0.7-0.1,1.1
	c0,0.1,0.9,8.3-2.3,21.2c-0.3,1.3,0.5,2.7,1.8,3c0.1,0,0.1,0,0.2,0c1.2,0.2,2.5-0.6,2.8-1.8c2.2-8.7,2.6-15.4,2.6-19.2
	c0.1,0,0.3,0,0.4,0c0.3,0,0.5,0,0.8-0.1c0.4-0.1,0.8-0.2,1.1-0.3c2.5,2,7.2,7.2,6.9,18.7c0,1.4,1,2.5,2.4,2.5c0,0,0,0,0.1,0
	c1.3,0,2.4-1.1,2.5-2.4C101.1,112.7,95.7,106.2,92.3,103.3z"/>
<path class="clothing-top" d="M93.2,101.3c0-0.1-0.8-5.9-0.2-12.8c0.3-3.4-2.2-6.4-5.6-6.6c-1-0.1-1.9,0.1-2.8,0.4c-0.4-0.3-0.9-0.4-1.4-0.3
	c-3,0.3-5.3,3.5-6.7,6.1c-1.8,3.3-3.2,7.6-3.9,12c-0.2,1.2,0.6,2.3,1.8,2.4c0.1,0,0.2,0,0.3,0c1,0,2-0.8,2.1-1.8
	c0.8-5,2.3-8.8,3.8-11.3c-0.4,7.5,0.4,13.4,0.5,13.7c0,0.1,0,0.1,0,0.2h12.1C93.3,102.6,93.3,102,93.2,101.3z"/>
<g>
	<g>
		<path class="shoes" d="M85.3,131.1c0-1.2-1-2.1-2.1-2.1h-2.9c-1.2,0-2.1,1-2.1,2.1H85.3z"/>
	</g>
</g>
</svg>
