<?xml version="1.0" encoding="utf-8"?>
<!-- Generator: Adobe Illustrator 21.0.0, SVG Export Plug-In . SVG Version: 6.00 Build 0)  -->
<svg version="1.1" id="Layer_1" xmlns="http://www.w3.org/2000/svg" xmlns:xlink="http://www.w3.org/1999/xlink" x="0px" y="0px"
	 viewBox="0 0 180 180" style="enable-background:new 0 0 180 180;" xml:space="preserve">
<style type="text/css">
	.st0{fill:#D98A71;}
	.st1{fill:#F4A17E;}
	.st2{fill:#1D1E1C;}
	.st3{fill:#422918;}
	.st4{fill:none;stroke:#000000;stroke-width:0.4148;stroke-linecap:round;stroke-miterlimit:10;}
	.st5{fill:#D88A71;}
	.st6{fill:#B25353;}
</style>
<g>
	<path class="st0" d="M87.3,86.1c-0.4,0-0.7-0.1-1.1-0.2c-1.3-0.6-1.9-2.2-1.3-3.5c0-0.1,0.5-1.1,0.2-2.3c-0.3-1.4,0.6-2.8,2-3.2
		c1.4-0.3,2.8,0.6,3.2,2c0.7,2.9-0.4,5.3-0.5,5.6C89.3,85.5,88.3,86.1,87.3,86.1z"/>
</g>
<path class="st1" d="M79.1,73.1c0.3-0.3,0.8-0.4,1.2-0.3v-1.7c0-4.2,3.4-7.6,7.6-7.6s7.6,3.4,7.6,7.6v1.7c0.4-0.1,0.7,0,1,0.3
	c0.5,0.5,0.5,1.2,0,1.7l-1,1c-0.2,4-3.5,7.2-7.5,7.2c-4,0-7.2-3.1-7.5-7l-1.3-1.3C78.6,74.3,78.6,73.6,79.1,73.1z"/>
<circle class="st2" cx="92" cy="74.8" r="0.4"/>
<circle class="st2" cx="84.1" cy="74.8" r="0.4"/>
<g>
	<path class="st3" d="M93.4,74.4h-2.3c-0.2,0-0.4-0.2-0.4-0.4s0.2-0.4,0.4-0.4h2.3c0.2,0,0.4,0.2,0.4,0.4S93.6,74.4,93.4,74.4z"/>
</g>
<g>
	<path class="st3" d="M83.1,73.1c-0.2,0-0.3-0.1-0.4-0.3c0-0.2,0.1-0.4,0.3-0.4l2.3-0.4c0.2,0,0.4,0.1,0.4,0.3
		c0,0.2-0.1,0.4-0.3,0.4L83.1,73.1C83.2,73.1,83.2,73.1,83.1,73.1z"/>
</g>
<path class="st4" d="M88,80.1c-0.3,0-0.5,0.2-0.5,0.5s0.2,0.5,0.5,0.5c0.3,0,0.5-0.2,0.5-0.5v-0.5L88,80.1h1.7"/>
<path class="st5" d="M87.9,83c-3.4,0-6.1-3.4-6.1-7.6v-4.3c0-4.2,2.7-7.6,6.1-7.6c-4.2,0-7.6,3.4-7.6,7.6v4.3
	C80.3,79.6,83.7,83,87.9,83z"/>
<path d="M88,80.1c-0.3,0-0.5,0.2-0.5,0.5s0.2,0.5,0.5,0.5c0.3,0,0.5-0.2,0.5-0.5v-0.5L88,80.1"/>
<path class="st6" d="M79.3,73.4c0.2-0.2,0.4-0.2,0.6-0.2c0.1,0,0.3,0,0.4,0.1v2.2c0,0,0,0,0,0l-1-1c-0.2-0.2-0.2-0.4-0.2-0.6
	C79.1,73.7,79.2,73.5,79.3,73.4z"/>
<path class="st6" d="M95.6,73.1c0.2,0,0.4,0.1,0.6,0.2s0.2,0.4,0.2,0.6c0,0.2-0.1,0.4-0.2,0.6l-0.8,0.8v-2.1
	C95.5,73.1,95.5,73.1,95.6,73.1z"/>
<path class="st3" d="M87.2,62.6c-0.2,0-0.4,0.1-0.5,0.3c-0.7-0.1-2,0.3-2.4,0.9c0,0.1-0.1,0.1-0.1,0.2c0,0.1,0,0.2-0.1,0.3
	c-0.2-0.1-0.3-0.1-0.5,0c-2.4,1.2-3.9,3.7-3.9,6.3c0,0.2,0.1,0.4,0.3,0.5c0.1,0.1,0.2,0.1,0.3,0.1c0.1,0,0.2,0,0.3-0.1
	c1.7-0.9,3-2.4,3.5-4.2c0.5,2.6,2.5,4.9,5.2,5.6c0,0,0.1,0,0.1,0c0.2,0,0.4-0.1,0.5-0.3c0.1-0.2,0.1-0.5-0.1-0.7
	c-1.5-1.3-2.4-3.2-2.6-5.1c1.3,3.3,4.5,5.7,8.3,5.7c0.3,0,0.6-0.3,0.6-0.6C96.1,66.6,92.1,62.6,87.2,62.6z"/>
<path class="st5" d="M88.9,76.4c0,0.4-0.3,0.8-0.8,0.8s-0.8-0.3-0.8-0.8H88.9z"/>
</svg>
