<?xml version="1.0" encoding="utf-8"?>
<!-- Generator: Adobe Illustrator 21.0.0, SVG Export Plug-In . SVG Version: 6.00 Build 0)  -->
<svg version="1.1" id="Layer_1" xmlns="http://www.w3.org/2000/svg" xmlns:xlink="http://www.w3.org/1999/xlink" x="0px" y="0px"
	 viewBox="0 0 180 180" style="enable-background:new 0 0 180 180;" xml:space="preserve">
<style type="text/css">
	.st0{fill:#7B992A;}
	.st1{fill:#F5A17E;}
	.st2{fill:none;stroke:#C0C0C0;stroke-width:0.4411;stroke-miterlimit:10;}
	.st3{fill:#C0C0C0;}
	.st4{fill:#FFFFFF;}
	.st5{fill:#E6007E;}
	.st6{fill:#1F90A8;}
	.st7{fill:#E94E1B;}
</style>
<g>
	<path class="st0" d="M98.8,92.6c-5,0-7.3-2.9-8.6-4.7c-0.2-0.3-0.6-0.7-0.7-0.9c-1.1-0.5-1.5-1.8-1.1-2.9c0.5-1.1,1.8-1.7,2.9-1.2
		c1,0.4,1.7,1.3,2.4,2.2c1.6,2,3.2,4,8.8,2.3c1.2-0.4,2.4,0.3,2.8,1.5s-0.3,2.4-1.5,2.8C101.8,92.3,100.2,92.6,98.8,92.6z
		 M89.5,87.1L89.5,87.1L89.5,87.1z"/>
</g>
<g>
	<path class="st1" d="M109.3,86.5l-4,0.6l-0.1-0.6c-1.2,0.2-2.1,1.4-1.9,2.6s1.4,2.1,2.6,1.9l1-0.2c0.4-0.1,0.6-0.4,0.6-0.8
		c0-0.1-0.1-0.2-0.1-0.3c0,0-0.2-0.2,0,0l0,0c0.4-0.1,0.6-0.4,0.6-0.8c-0.1-0.4-0.4-0.6-0.8-0.6l2.3-0.4c0.4-0.1,0.6-0.4,0.6-0.8
		C110,86.7,109.7,86.5,109.3,86.5z"/>
</g>
<g>
	<path d="M113.8,100.1l-8.4-1.2c-0.2,0-0.4-0.3-0.4-0.5l2.1-15.6c0-0.2,0.3-0.4,0.5-0.4l8.4,1.2c0.2,0,0.4,0.3,0.4,0.5l-2.1,15.6
		C114.2,100,114,100.1,113.8,100.1z"/>
	<path class="st2" d="M113.8,100.1l-8.4-1.2c-0.2,0-0.4-0.3-0.4-0.5l2.1-15.6c0-0.2,0.3-0.4,0.5-0.4l8.4,1.2c0.2,0,0.4,0.3,0.4,0.5
		l-2.1,15.6C114.2,100,114,100.1,113.8,100.1z"/>
	<ellipse transform="matrix(0.1362 -0.9907 0.9907 0.1362 -2.0816 193.3682)" class="st3" cx="109.8" cy="97.9" rx="0.9" ry="0.9"/>
	
		<rect x="104.6" y="85.8" transform="matrix(0.1362 -0.9907 0.9907 0.1362 6.7789 187.5853)" class="st4" width="12.8" height="8.3"/>
</g>
<path class="st5" d="M111.4,88.5c0.2-1.4-0.8-2.7-2.2-2.9s-2.7,0.8-2.9,2.2c-0.2,1.4,0.8,2.7,2.2,2.9c0.6,0.1,1.1,0,1.5-0.3l0.6,0.3
	c0.1,0,0.2,0,0.1-0.1l-0.1-0.6C111.1,89.5,111.3,89,111.4,88.5z"/>
<path class="st6" d="M114.6,83.2c-1.2-0.2-2.3,0.7-2.5,1.9c-0.1,0.5,0,0.9,0.2,1.3l-0.2,0.6c0,0.1,0,0.2,0.1,0.1l0.6-0.1
	c0.3,0.3,0.7,0.5,1.2,0.5c1.2,0.2,2.3-0.7,2.5-1.9C116.6,84.5,115.8,83.4,114.6,83.2z"/>
<path class="st7" d="M114.1,88.6c-1.4-0.2-2.6,0.8-2.8,2.1c-0.1,0.5,0,1,0.3,1.5l0,0l-0.3,0.7c0,0.1,0,0.2,0.1,0.1l0.7-0.1l0,0
	c0.4,0.3,0.8,0.6,1.3,0.6c1.4,0.2,2.6-0.8,2.8-2.1C116.4,90,115.5,88.8,114.1,88.6z"/>
<path class="st1" d="M108.5,87.4c0.4-0.1,0.6-0.4,0.6-0.8c-0.1-0.4-0.4-0.6-0.8-0.6l-3.1,0.5l0.2,1.4L108.5,87.4z"/>
</svg>
