<svg version="1.1" id="Layer_1" xmlns="http://www.w3.org/2000/svg" xmlns:xlink="http://www.w3.org/1999/xlink" x="0px" y="0px"
	 viewBox="0 0 180 180" style="enable-background:new 0 0 180 180;" xml:space="preserve">
<g>
	<path class="clothing-top" d="M95.9,102.4c-2.7-3.9-3.9-7.9-4.8-11.2c-0.5-1.7-1.1-3.9-1.6-4.3c-1.1-0.4-1.6-1.7-1.2-2.8
		c0.4-1.1,1.7-1.7,2.8-1.2c2.5,0.9,3.2,3.7,4.2,7.1c0.8,3,1.9,6.6,4.2,9.9c0.7,1,0.5,2.3-0.5,3c-0.4,0.3-0.8,0.4-1.2,0.4
		C96.9,103.3,96.3,103,95.9,102.4z M89.5,86.9L89.5,86.9L89.5,86.9z"/>
</g>
<path class="skin" d="M101.2,102.5c0.1-0.3,0-0.6-0.3-0.8l-1.7-0.8c-0.5-0.6-1.4-0.8-2.1-0.4c-0.9,0.4-1.2,1.5-0.8,2.4l1.6,3.2
	c0.1,0.3,0.5,0.4,0.8,0.3s0.4-0.5,0.3-0.8l0.3,0.5c0.1,0.3,0.5,0.4,0.8,0.3s0.4-0.5,0.3-0.8L100,105c0.1,0.3,0.5,0.4,0.8,0.3
	s0.4-0.5,0.3-0.8l-0.9-1.9l0.3,0.1C100.7,102.9,101,102.8,101.2,102.5z"/>
</svg>
